<svg id="Layer_1" data-name="Layer 1" xmlns="http://www.w3.org/2000/svg" width="387.33" height="373.33" viewBox="0 0 387.33 373.33">
  <g>
    <circle cx="286" cy="272" r="101" fill="#4d511b"/>
    <path d="M315.08,264.4c0,25.18-15.09,39.23-37.14,39.23-7.7,0-15.09-1.77-20.18-5L264,286.25c3.95,2.71,8.63,3.64,13.63,3.64,12.06,0,20-7.18,20.49-21.22-4.26,4.27-10.51,6.55-18.1,6.55-14,0-25.07-8.94-25.07-22.68,0-14.87,12.17-24.24,27.57-24.24C302.7,228.3,315.08,240.89,315.08,264.4Zm-18.83-12.69c0-6.24-4.68-10.82-12.69-10.82-7.18,0-12.18,4.16-12.18,10.82s4.89,10.93,12.38,10.93S296.25,258.06,296.25,251.71Z" fill="#fff"/>
  </g>
  <circle cx="101" cy="101.53" r="101" fill="#4d511b"/>
  <path d="M112.76,59.08V131.9H95.91V72.6H81.34V59.08Z" fill="#fff"/>
  <line x1="343.5" y1="35.5" x2="31.5" y2="347.5" fill="none" stroke="#4d511b" stroke-miterlimit="10" stroke-width="11"/>
</svg>
