<svg id="Layer_1" data-name="Layer 1" xmlns="http://www.w3.org/2000/svg" width="387.33" height="373.33" viewBox="0 0 387.33 373.33">
  <circle cx="102" cy="102" r="101" fill="#4d511b"/>
  <path d="M129.78,118.64v13.74h-55V121.45l28.09-26.52c6.45-6.14,7.6-9.89,7.6-13.43,0-5.72-4-9-11.65-9-6.25,0-11.55,2.4-15.09,7.29L71.42,71.83C77,63.61,87.23,58.3,100.34,58.3c16.23,0,27,8.33,27,21.54,0,7.07-2,13.53-12.17,23L98.46,118.64Z" fill="#fff"/>
  <g>
    <circle cx="286" cy="272" r="101" fill="#4d511b"/>
    <path d="M315.08,264.4c0,25.18-15.09,39.23-37.14,39.23-7.7,0-15.09-1.77-20.18-5L264,286.25c3.95,2.71,8.63,3.64,13.63,3.64,12.06,0,20-7.18,20.49-21.22-4.26,4.27-10.51,6.55-18.1,6.55-14,0-25.07-8.94-25.07-22.68,0-14.87,12.17-24.24,27.57-24.24C302.7,228.3,315.08,240.89,315.08,264.4Zm-18.83-12.69c0-6.24-4.68-10.82-12.69-10.82-7.18,0-12.18,4.16-12.18,10.82s4.89,10.93,12.38,10.93S296.25,258.06,296.25,251.71Z" fill="#fff"/>
  </g>
  <line x1="343.5" y1="35.5" x2="31.5" y2="347.5" fill="none" stroke="#4d511b" stroke-miterlimit="10" stroke-width="11"/>
</svg>
