<svg id="Layer_1" data-name="Layer 1" xmlns="http://www.w3.org/2000/svg" width="387.33" height="373.33" viewBox="0 0 387.33 373.33">
  <g>
    <circle cx="286" cy="272" r="101" fill="#4d511b"/>
    <path d="M315.08,264.4c0,25.18-15.09,39.23-37.14,39.23-7.7,0-15.09-1.77-20.18-5L264,286.25c3.95,2.71,8.63,3.64,13.63,3.64,12.06,0,20-7.18,20.49-21.22-4.26,4.27-10.51,6.55-18.1,6.55-14,0-25.07-8.94-25.07-22.68,0-14.87,12.17-24.24,27.57-24.24C302.7,228.3,315.08,240.89,315.08,264.4Zm-18.83-12.69c0-6.24-4.68-10.82-12.69-10.82-7.18,0-12.18,4.16-12.18,10.82s4.89,10.93,12.38,10.93S296.25,258.06,296.25,251.71Z" fill="#fff"/>
  </g>
  <circle cx="102.97" cy="101.53" r="101" fill="#4d511b"/>
  <path d="M133.67,110.78c0,13.74-12.28,22.37-30.8,22.37s-30.58-8.63-30.58-22.37c0-7.8,4-13.62,11-17.16a16.82,16.82,0,0,1-8.42-15c0-12.8,11.44-20.81,28-20.81,16.75,0,28.19,8,28.19,20.81a16.92,16.92,0,0,1-8.53,15C129.61,97.16,133.67,103,133.67,110.78Zm-17.07-.52c0-6.45-5.3-10.4-13.73-10.4s-13.52,4-13.52,10.4,5.2,10.51,13.52,10.51S116.6,116.71,116.6,110.26Zm-25-30.89c0,5.51,4.37,8.94,11.24,8.94s11.44-3.43,11.44-8.94c0-5.73-4.57-9.16-11.44-9.16S91.63,73.64,91.63,79.37Z" fill="#fff"/>
  <line x1="343.5" y1="35.5" x2="31.5" y2="347.5" fill="none" stroke="#4d511b" stroke-miterlimit="10" stroke-width="11"/>
</svg>
