<svg id="Layer_1" data-name="Layer 1" xmlns="http://www.w3.org/2000/svg" width="211" height="127" viewBox="0 0 211 127">
  <path d="M206,40c-15.25-18.82-79.54,1.5-143.72,45.43" fill="none" stroke="#4d511b" stroke-miterlimit="10" stroke-width="10"/>
  <polygon points="86.08 103.62 66.54 80.25 46.99 56.89 23.51 91.75 0.02 126.6 43.05 115.11 86.08 103.62" fill="#4d511b"/>
  <g>
    <path d="M64.53,50.83l-4.08,2.75-.72-1.06,9.4-6.32.71,1.07L65.76,50l7.09,10.56-1.23.82Z" fill="#4d511b"/>
    <path d="M70.58,45.47a1,1,0,0,1,1.73-1.15,1,1,0,0,1-1.73,1.15Zm2.08,2.61,1.19-.78,5.74,8.82-1.19.77Z" fill="#4d511b"/>
    <path d="M74.88,41.49l1.19-.77,8,12.51-1.2.77Z" fill="#4d511b"/>
    <path d="M93.7,41.07A5.11,5.11,0,0,1,92,48.38a4.53,4.53,0,0,1-4.6.26l1.09,1.78-1.16.71L79.6,38.47l1.21-.74,3.3,5.39a4.62,4.62,0,0,1,2.33-3.87A5.1,5.1,0,0,1,93.7,41.07Zm-1.21.74a3.93,3.93,0,1,0-6.69,4.1,3.93,3.93,0,1,0,6.69-4.1Z" fill="#4d511b"/>
    <path d="M102.47,34.57l3.25,5.65-1.18.68-.82-1.42a4,4,0,0,1-2.27,3.31c-2.07,1.18-4,.83-4.86-.75-.8-1.4-.58-3.1,2-4.6l2.9-1.66-.32-.56c-.89-1.56-2.27-1.9-4-.93a5.38,5.38,0,0,0-2.42,2.82l-1.08-.6a6.65,6.65,0,0,1,3-3.36C99.11,31.8,101.12,32.21,102.47,34.57Zm.44,3.62-.85-1.49-2.87,1.64c-1.77,1-1.94,2-1.4,3s1.83,1.23,3.29.4A3.36,3.36,0,0,0,102.91,38.19Z" fill="#4d511b"/>
    <path d="M112.73,24.55l4.3,8.18c1.69,3.2.88,5.48-2.2,7.1a7.32,7.32,0,0,1-5.1.85l.14-1.29a6.28,6.28,0,0,0,4.33-.65c2.36-1.24,2.87-2.89,1.66-5.19l-.62-1.19a4.75,4.75,0,0,1-2.68,3.72,5.1,5.1,0,1,1-4.75-9,4.75,4.75,0,0,1,4.66-.08l-.94-1.79Zm1.11,5.07a4,4,0,0,0-7.06,3.71,4,4,0,0,0,7.06-3.71Z" fill="#4d511b"/>
    <path d="M127.3,23.91l-8,3.74a3.9,3.9,0,0,0,5.31,1.55A4.14,4.14,0,0,0,127,26.58l1.11.5a5.56,5.56,0,0,1-10.22.77,5.08,5.08,0,0,1,2.39-7,5,5,0,0,1,6.88,2.67A4.27,4.27,0,0,1,127.3,23.91Zm-8.42,2.78,6.76-3.17a3.74,3.74,0,0,0-6.76,3.17Z" fill="#4d511b"/>
    <path d="M141.6,22.66a3.32,3.32,0,0,1-1.81,1.48,2.79,2.79,0,0,1-4-1.75l-2.28-5.93-1.75.67L131.36,16l1.75-.67-.82-2.15,1.32-.51.83,2.15,3-1.15.43,1.12-3,1.15,2.25,5.86A1.68,1.68,0,0,0,139.5,23a2.36,2.36,0,0,0,1.27-1.06Z" fill="#4d511b"/>
    <path d="M139.41,9.47a1,1,0,0,1,.66-1.28,1,1,0,0,1,1.3.59,1,1,0,0,1-.65,1.32A1,1,0,0,1,139.41,9.47Zm1.37,3,1.34-.46,3.38,10-1.34.46Z" fill="#4d511b"/>
    <path d="M144.89,6.63l1.36-.41,4.25,14.22-1.36.41Z" fill="#4d511b"/>
    <path d="M157.4,17.32l.44-1.22a6.34,6.34,0,0,0,3.88.51c2-.35,2.66-1.17,2.48-2.19-.48-2.7-6.82.62-7.55-3.47-.3-1.69.93-3.21,3.57-3.68a7.06,7.06,0,0,1,3.83.31l-.41,1.23a5.34,5.34,0,0,0-3.2-.34c-1.88.33-2.57,1.21-2.4,2.19.5,2.8,6.84-.51,7.55,3.47.32,1.79-1.05,3.23-3.75,3.71A7.05,7.05,0,0,1,157.4,17.32Z" fill="#4d511b"/>
    <path d="M173.82,15.79a3.41,3.41,0,0,1-2.16.89,2.79,2.79,0,0,1-3.28-2.85l-.44-6.34-1.88.13L166,6.42l1.88-.13L167.7,4l1.42-.09.15,2.29,3.2-.22.08,1.2-3.19.22.43,6.27a1.69,1.69,0,0,0,2,1.79,2.37,2.37,0,0,0,1.52-.65Z" fill="#4d511b"/>
    <path d="M184.41,10.6l-.6,6.49L182.46,17l.15-1.63a4,4,0,0,1-3.76,1.4c-2.37-.22-3.71-1.58-3.55-3.4.15-1.61,1.31-2.87,4.31-2.59l3.33.3.06-.64c.16-1.79-.77-2.86-2.72-3a5.35,5.35,0,0,0-3.59.92l-.54-1.11a6.66,6.66,0,0,1,4.39-1C183.24,6.4,184.65,7.89,184.41,10.6Zm-1.72,3.22.15-1.71-3.28-.3c-2-.19-2.76.55-2.86,1.62-.11,1.22.8,2.06,2.47,2.22A3.39,3.39,0,0,0,182.69,13.82Z" fill="#4d511b"/>
    <path d="M195.12,9.32l-.41,1.32c-.12,0-.22-.09-.32-.12-2.1-.65-3.8.29-4.53,2.66l-1.59,5.12-1.35-.42,3.11-10,1.3.4-.61,2A4,4,0,0,1,195.12,9.32Z" fill="#4d511b"/>
    <path d="M199.21,22.61a3.37,3.37,0,0,1-2.29-.44,2.78,2.78,0,0,1-1.2-4.17l3.11-5.55-1.64-.92.58-1,1.64.92,1.13-2,1.24.69-1.13,2,2.8,1.56-.59,1-2.79-1.56L197,18.62a1.68,1.68,0,0,0,.65,2.56,2.32,2.32,0,0,0,1.63.29Z" fill="#4d511b"/>
  </g>
</svg>
