<svg id="Layer_1" data-name="Layer 1" xmlns="http://www.w3.org/2000/svg" width="810" height="266" viewBox="0 0 810 266">
  <defs>
    <style>
      .cls-1 {
        fill: #f2f1df;
      }

      .cls-2 {
        fill: #fff;
      }

      .cls-3 {
        fill: #a08472;
      }

      .cls-4 {
        fill: #91ede2;
      }

      .cls-5 {
        fill: #4fb2a3;
      }

      .cls-6 {
        fill: #40d5ed;
      }
    </style>
  </defs>
  <polygon class="cls-1" points="801 262.35 727.16 262.35 727.16 168 744.46 168 801 168 801 262.35"/>
  <circle class="cls-1" cx="727.16" cy="217.23" r="23.79"/>
  <path class="cls-2" d="M727.16,217.23l0,15.59h0a15.59,15.59,0,1,1,0-31.18Z"/>
  <path class="cls-3" d="M727.16,217.23l0,15.59h0a15.59,15.59,0,1,1,0-31.18Z"/>
  <path class="cls-4" d="M650.55,3c-1.49-2-6.18,23.08-20.9,33.66-15.6,11.21-45.12,2.52-67.73,21.51s-18.42,62.63-18.42,62.63l47.24,32.75s50.29-15.53,61.75-39-9.78-51.23.23-60.17,51-6.62,51-6.62C678.53,35.46,661.85,19.37,650.55,3Z"/>
  <path class="cls-5" d="M650.55,3S673,3.35,684,16.32s19.76,31.52,19.76,31.52C681.77,37.55,664.43,22.18,650.55,3Z"/>
  <path class="cls-4" d="M607.59,61l-7.62.08S611.77,27,587.39,28.5,570.72,68,570.72,68l-9.3,2.12s-6.23-51.9,27.32-48.44S607.59,61,607.59,61Z"/>
  <path class="cls-6" d="M668.48,23.67s30.78,3,44.16,7.25,26.6,17,26.6,17,1.14,13.37,7.47,19.11,6.16,14,7.29,22,2,17,2,17-15.72-9.22-14.22-2.17,19.39,32.45,14.39,36.92-17.09-.33-29.36-7.36S727,112,727,112l-7-16s-10.25-22-6-30-5.75-7.77-7.06-12.6-11-9.33-16.49-12.74A131.63,131.63,0,0,1,668.48,23.67Z"/>
  <circle class="cls-6" cx="767.5" cy="125.5" r="3.5"/>
  <circle class="cls-6" cx="763.5" cy="100.5" r="3.5"/>
  <circle class="cls-6" cx="698.5" cy="17.5" r="3.5"/>
  <polygon class="cls-1" points="531 262.35 457.16 262.35 457.16 168 474.46 168 531 168 531 262.35"/>
  <circle class="cls-1" cx="457.16" cy="217.23" r="23.79"/>
  <path class="cls-2" d="M457.16,217.23l0,15.59h0a15.59,15.59,0,0,1,0-31.18Z"/>
  <path class="cls-3" d="M457.16,217.23l0,15.59h0a15.59,15.59,0,0,1,0-31.18Z"/>
  <path class="cls-4" d="M359.42,43.8c-2.15-1.31,3.07,23.7-6.53,39.08-10.16,16.3-40.76,19.49-54.45,45.66s6.78,64.92,6.78,64.92l56.16,12.32s40.6-33.49,42.28-59.51S375.13,102.61,381,90.54,425.68,65,425.68,65C397.64,63.15,376.09,54.62,359.42,43.8Z"/>
  <path class="cls-5" d="M359.42,43.8s20.91-8.26,36-.44S425.68,65,425.68,65C401.43,63.85,379.54,56.23,359.42,43.8Z"/>
  <path class="cls-4" d="M341.74,113.75l-7,3s-2.05-36-24-25.34-.41,42.84-.41,42.84l-7.79,5.5S277,94.08,309.34,84.53,341.74,113.75,341.74,113.75Z"/>
  <path class="cls-6" d="M442.06,77.9c.89-9-8.28-5-11.33-9S417,64.49,410.64,63.42a132,132,0,0,1-26.78-7.35s29.61-8.92,43.6-10.09,24.59,1.23,31.07,5.62,6.14,11.93,14.17,14.83C482.13,97.62,441.16,86.92,442.06,77.9Z"/>
  <circle class="cls-6" cx="466.5" cy="95.5" r="3.5"/>
  <circle class="cls-6" cx="479.5" cy="75.5" r="3.5"/>
  <circle class="cls-6" cx="488" cy="106" r="5"/>
  <polygon class="cls-1" points="261 262.35 187.16 262.35 187.16 168 204.46 168 261 168 261 262.35"/>
  <circle class="cls-1" cx="187.16" cy="217.23" r="23.79"/>
  <path class="cls-2" d="M187.16,217.23l0,15.59h0a15.59,15.59,0,0,1,0-31.18Z"/>
  <path class="cls-3" d="M187.16,217.23l0,15.59h0a15.59,15.59,0,0,1,0-31.18Z"/>
  <g>
    <path class="cls-4" d="M62.34,104.44C60,103.6,70.16,127,63.89,144c-6.64,18-35.95,27.38-44,55.78S39.7,262,39.7,262l57.49.65s32.94-41,29.3-66.87-36.81-36.95-33.53-50,38.57-34.09,38.57-34.09C103.69,115.62,80.86,111.65,62.34,104.44Z"/>
    <path class="cls-5" d="M62.34,104.44S81.13,92.11,97.5,96.7s34,15,34,15C107.54,115.54,84.57,112.53,62.34,104.44Z"/>
    <path class="cls-4" d="M59.25,176.53,53,180.87S43.65,146,24.31,160.94s8.31,42,8.31,42l-6.51,7s-34.25-39.5-4.53-55.44S59.25,176.53,59.25,176.53Z"/>
  </g>
  <circle class="cls-6" cx="699" cy="66" r="5"/>
</svg>
