<svg id="Layer_1" data-name="Layer 1" xmlns="http://www.w3.org/2000/svg" width="1761" height="612" viewBox="0 0 1761 612">
  <path d="M331,378,286,604s61-1.94,65-12.61,29-189.14,29-189.14" fill="#f1f2df"/>
  <path d="M588.76,298s.68,45.33-4.17,55.4-45.31,10.08-94,40.3-9.7,198.12-9.7,198.12H752.39s31.8-171.26,0-193.09S639.81,358.47,635,353.43s-5.34-52.13-5.34-52.13Z" fill="#f6c2a0"/>
  <path d="M588.79,302.27a73.75,73.75,0,0,0,41.14-.89L630,315c-14.28,7.44-28.05,8.54-41.19,1.48Z" fill="#eaaf92"/>
  <path d="M570.68,360.76l-2.2,1.07c.46,23.49,6,44.23,18.07,61.47,7,8.45,15.88,15.11,30.82,15.73,12.2.8,21.76-4,29.08-13.45,9.55-17.26,12.55-38.78,7.66-65.43,1.35,17.75.77,34.23-4.2,47.85-5.33,17.06-15.38,27.4-31.9,28.54-12.65-.76-22.41-6-28.54-16.79C578.89,407.14,573,386.83,570.68,360.76Z" fill="#eaaf92"/>
  <rect x="519.26" y="80.3" width="181.03" height="224.61" rx="90.52" fill="#f6c2a0"/>
  <ellipse cx="699.46" cy="189.25" rx="29.33" ry="25.14" fill="#f6c2a0"/>
  <ellipse cx="518.42" cy="189.25" rx="29.33" ry="25.14" fill="#f6c2a0"/>
  <rect x="564.04" y="133.94" width="21.07" height="11.73" rx="3.5" fill="#070707"/>
  <rect x="601.4" y="185.9" width="6.7" height="6.7" rx="2" fill="#7f1313"/>
  <rect x="614.81" y="185.9" width="6.7" height="6.7" rx="2" fill="#7f1313"/>
  <path d="M569.55,221.08v.06c0,7.68,20.93,20,43.91,20s39.9-12.3,39.9-20C628.79,242,601,239.21,569.55,221.08Z" fill="#7f1313"/>
  <circle cx="494.96" cy="54.32" r="52.8" fill="#e5d8a1"/>
  <path d="M546.08,43.42s-25.14-28.5-58.67-10.06-25.14,62-25.14,62c9.93,9.89,11.13,9.27,20.47,10.31l64.2-42.11C548.84,53.42,549.82,51.74,546.08,43.42Z" fill="#e2cf7f"/>
  <path d="M583.54,90.14c3.15,3.09-48.72,45.88-54.22,75.65-6.1,33,15.08,52,15.08,52-15.87-10.5-27.32-25.72-26.81-53.64-14.07.4-25.12,7.63-28.5,28.49,4.81,13.09,13.61,21.75,30.17,21.8-1.57,11.83,4,28.19,13.41,46.93-6.39-10.25-26.56-20.57-37.64-26.82-14.34-8.08-18.87-26.49-24.38-41.91,0,0,8.38-105.6,25.14-120.68s76.44-5.87,76.44-5.87" fill="#e5d8a1"/>
  <path d="M582,93.57l-21,22.92c39-.38,76.43,21.5,116.33,48.92C669.52,148.5,636.17,124.1,582,93.57Z" fill="#eaaf92"/>
  <path d="M504.68,211.42c5.15,2,10.08,3.24,14.58,3,.65,14.33,5,29.41,12.1,45.06-9.85-10-20.33-16.39-30.55-21.73,3.48-6.58,1.7-17.56-2.26-30.37Z" fill="#e2cf7f"/>
  <rect x="569.55" y="150.7" width="11.73" height="21.79" rx="5.87" fill="#070707"/>
  <rect x="638.27" y="150.7" width="11.73" height="21.79" rx="5.87" fill="#070707"/>
  <path d="M515.91,177.52s-18.44-5-18.44,11.73S517.59,206,517.59,206Z" fill="#eaaf92"/>
  <path d="M701.86,200.21s18.4,5.17,18.53-11.59-20-16.91-20-16.91Z" fill="#eaaf92"/>
  <path d="M574.58,85.33c-3.7,6.38,85.39,55.76,98.89,73.75,16.87,22.47,6.36,63.59,36.88,85.49q20.73,9.8,40.23,11.73c-39.33-23.28-46.73-50-43.58-97.22,0,0-1-29.58-16.76-65.37C662.77,31.52,560.89,24.75,574.58,85.33Z" fill="#e5d8a1"/>
  <rect x="634.44" y="133.94" width="21.07" height="11.73" rx="3.5" fill="#070707"/>
  <rect x="502.5" y="93.71" width="56.99" height="13.41" rx="4" fill="#f2e9c7"/>
  <rect x="494.12" y="115.5" width="33.52" height="13.41" rx="4" fill="#f2e9c7"/>
  <rect x="650.01" y="85.33" width="33.52" height="13.41" rx="4" fill="#f2e9c7"/>
  <rect x="623.19" y="85.33" width="20.11" height="13.41" rx="4" fill="#f2e9c7"/>
  <path d="M569.55,361.53s0,77.48,50.28,77.48S655,360.23,655,360.23C695.85,369,755,386.56,758.22,406c22.91,48.7,25.95,148.34,2.42,185.56-104.36,28.69-197.1,27.21-279.93,0-17.43-87.29-24.63-160.48,1-189.38C499.56,382.34,532.48,368.89,569.55,361.53Z" fill="#f1f2df"/>
  <path d="M713.46,602.53s22-38.56,22-67-25.14-83.81-25.14-83.81C730.73,506.27,735.89,557.48,713.46,602.53Z" fill="#acaf8f"/>
  <path d="M527.64,471.75c10.21,53.67,23.08,115.72,22.54,135.77h-7.45C553.86,591.93,534.58,525.16,527.64,471.75Z" fill="#acaf8f"/>
  <rect x="77.64" y="79.27" width="181.33" height="224.98" rx="90.66" fill="#f6c2a0"/>
  <ellipse cx="258.13" cy="188.4" rx="29.38" ry="25.18" fill="#f6c2a0"/>
  <ellipse cx="76.8" cy="188.4" rx="29.38" ry="25.18" fill="#f6c2a0"/>
  <rect x="122.49" y="133" width="21.11" height="11.75" rx="3.5" fill="#070707"/>
  <rect x="159.91" y="185.04" width="6.72" height="6.72" rx="3.36" fill="#7f1313"/>
  <rect x="173.34" y="185.04" width="6.72" height="6.72" rx="3.36" fill="#7f1313"/>
  <circle cx="53.3" cy="53.24" r="52.89" fill="#e5d8a1"/>
  <path d="M104.51,42.33S79.32,13.79,45.74,32.26,20.56,94.38,20.56,94.38c9.94,9.91,11.14,9.28,20.5,10.32l64.3-42.17C107.27,52.35,108.25,50.66,104.51,42.33Z" fill="#e2cf7f"/>
  <path d="M142,89.13c3.15,3.09-48.8,46-54.31,75.77-6.12,33.06,15.11,52,15.11,52C86.92,206.43,75.46,191.19,76,163.22c-14.08.4-25.15,7.64-28.54,28.54,4.82,13.1,13.63,21.78,30.22,21.83-1.58,11.85,4,28.24,13.43,47-6.4-10.27-26.6-20.6-37.7-26.87C39,225.64,34.47,207.2,29,191.76c0,0,8.4-105.78,25.19-120.89S130.7,65,130.7,65" fill="#e5d8a1"/>
  <path d="M140.44,92.56l-21,23c39.05-.38,76.55,21.53,116.52,49C228.15,147.58,194.75,123.14,140.44,92.56Z" fill="#eaaf92"/>
  <path d="M63,210.6c5.15,2,10.1,3.26,14.6,3,.65,14.35,5,29.46,12.12,45.14-9.87-10-20.36-16.42-30.6-21.77,3.48-6.59,1.7-17.59-2.26-30.42Z" fill="#e2cf7f"/>
  <rect x="128.01" y="149.79" width="11.75" height="21.83" rx="5.88" fill="#070707"/>
  <rect x="196.85" y="149.79" width="11.75" height="21.83" rx="5.88" fill="#070707"/>
  <path d="M74.28,176.65s-18.46-5-18.46,11.75S76,205.19,76,205.19Z" fill="#eaaf92"/>
  <path d="M260.54,199.38s18.43,5.18,18.56-11.61-20-16.94-20-16.94Z" fill="#eaaf92"/>
  <path d="M133.05,84.31c-3.7,6.39,85.54,55.85,99.06,73.87,16.89,22.51,6.36,63.7,36.94,85.63q20.74,9.83,40.29,11.75c-39.39-23.31-46.81-50.1-43.65-97.38,0,0-1-29.62-16.79-65.48C221.38,30.41,119.34,23.63,133.05,84.31Z" fill="#e5d8a1"/>
  <rect x="193.01" y="133" width="21.11" height="11.75" rx="3.5" fill="#070707"/>
  <rect x="60.85" y="92.7" width="57.09" height="13.43" rx="4" fill="#f2e9c7"/>
  <rect x="52.46" y="114.53" width="33.58" height="13.43" rx="4" fill="#f2e9c7"/>
  <rect x="208.6" y="84.31" width="33.58" height="13.43" rx="4" fill="#f2e9c7"/>
  <rect x="181.74" y="84.31" width="20.15" height="13.43" rx="4" fill="#f2e9c7"/>
  <path d="M147.29,297.54s.68,45.33-4.17,55.4-45.31,10.08-94,40.3-9.7,198.12-9.7,198.12H310.92s31.8-171.26,0-193.09S198.34,358,193.49,352.94s-5.34-52.13-5.34-52.13Z" fill="#f6c2a0"/>
  <path d="M128,361s0,77.61,50.37,77.61,35.26-78.91,35.26-78.91C254.52,368.48,313.76,386,317,405.49c22.94,48.79,16.57,159.23-7,196.51-123.51,5.21-198.77,10-271-10.64-17.46-87.43-24.67-160.74,1-189.69C57.91,381.81,90.88,368.34,128,361Z" fill="#f1f2df"/>
  <path d="M277,604s17.23-36.37,17.23-68.69-25.18-95.06-25.18-95.06C289.46,502.18,299.47,552.9,277,604Z" fill="#acaf8f"/>
  <path d="M147.32,301.78a73.71,73.71,0,0,0,41.13-.89l.06,13.57c-14.28,7.44-28,8.54-41.19,1.48Z" fill="#eaaf92"/>
  <path d="M130.21,360.27l-2.2,1.07c.46,23.49,6,44.23,18.07,61.47,7,8.45,15.88,15.11,30.82,15.73,12.2.8,21.76-4,29.08-13.45,9.55-17.26,12.55-38.78,7.66-65.43,1.35,17.75.76,34.23-4.2,47.85-5.33,17.06-15.38,27.4-31.9,28.54-12.65-.76-22.41-6-28.54-16.79C138.42,406.65,132.55,386.34,130.21,360.27Z" fill="#eaaf92"/>
  <path d="M86,455.36c10.22,58.91,23.12,127,22.57,149h-7.46C112.29,587.25,93,514,86,455.36Z" fill="#acaf8f"/>
  <ellipse cx="171.5" cy="241.86" rx="17.5" ry="27.5" fill="#7f1313"/>
  <ellipse cx="171.77" cy="242.29" rx="12.77" ry="20.07" fill="#490606"/>
  <path d="M185.64,258.05H157.36c3.53,7.71,8.57,11,14.64,11.31C178.05,268.88,182.4,264.67,185.64,258.05Z" fill="#fff"/>
  <path d="M156,229.09h31s-4-14.13-15-14.73C160.12,213.7,155.24,228.54,156,229.09Z" fill="#fff"/>
  <polygon points="323 422 290 604 295 604 323 422" fill="#acaf8f"/>
  <path d="M333,378.36c-10.45-15.42-15.21-35.84-18.2-57.81,2.19-17.83,15.76-25.93,29.69-33.73l18.89,48.58-18.89,13.49-10.8-29.69L358,219.36c14.68.85,21.48,8.1,18.89,22.94l-16.19,55.32L416,339.44c.23,14.83-3.4,26.73-13.49,33.74-6.05-1-9.53-3.15-9.45-6.75,2.59,9.5,3.37,18.34,0,25.64L382,403.36Z" fill="#f6c2a0"/>
  <polygon points="363.38 338.34 363.38 335.4 344.49 348.89 345.84 351.59 345.84 351.59 363.38 338.34" fill="#eaaf92"/>
  <polygon points="342.04 350.6 345.84 351.59 334.24 318.35 332.34 317.86 332.34 317.86 342.04 350.6" fill="#eaaf92"/>
  <line x1="401.16" y1="373.18" x2="359.33" y2="340.79" fill="none" stroke="#eaaf92" stroke-miterlimit="10" stroke-width="2"/>
  <line x1="375.52" y1="312.46" x2="372.82" y2="350.24" fill="none" stroke="#eaaf92" stroke-miterlimit="10" stroke-width="2"/>
  <line x1="393.06" y1="325.95" x2="390.36" y2="363.73" fill="none" stroke="#eaaf92" stroke-miterlimit="10" stroke-width="2"/>
  <path d="M358.59,141.82A35.23,35.23,0,0,1,374,130.07a42.63,42.63,0,0,0,25.42-25.77,43.14,43.14,0,0,0-28.23-55.81c-21.21-6.55-44.57,5-52.59,25.73a42.77,42.77,0,0,0,3,37.21,33.58,33.58,0,0,1,4.85,19l32.09,11.41Z" fill="#ffd15c"/>
  <path d="M338.36,135.29l2.65.94,3.83-48,.88.32a6.22,6.22,0,0,0,4.75-.3,3,3,0,0,1,4.13,1.46,5.33,5.33,0,0,0,7.65,2.72,2.84,2.84,0,0,1,2.37-.15,3.38,3.38,0,0,1,1.75,1.62,5.68,5.68,0,0,0,3.49,3.23l.89.32-27.09,39.77,2.65,1,28.41-41.63c.21-.59.42-1.18-.07-1.68a1.35,1.35,0,0,0-1.57-.23,2.69,2.69,0,0,1-2.08.25A4.16,4.16,0,0,1,369,93.11a5.32,5.32,0,0,0-7.65-2.72,3,3,0,0,1-4.12-1.47A5,5,0,0,0,354,85.8h0a5,5,0,0,0-4.45.4,3.57,3.57,0,0,1-2.67,0,2.21,2.21,0,0,1-1.45-1.52,1.37,1.37,0,0,0-1.37-.81,1.13,1.13,0,0,0-1.11,1.26Z" fill="#fff"/>
  <g>
    <path d="M323.64,159.9a10.43,10.43,0,0,0,18.25,6.49Z" fill="#344a5e"/>
    <path d="M343.55,167.31l-21.49-7.64a5.6,5.6,0,0,1-3.41-7.19l8-22.37,32.08,11.42-7.95,22.37A5.6,5.6,0,0,1,343.55,167.31Z" fill="#344a5e"/>
  </g>
  <g>
    <path d="M354.42,152.61,322.63,141.3a3.47,3.47,0,0,1-2.09-4.39h0a3.47,3.47,0,0,1,4.39-2.09l31.79,11.31a3.47,3.47,0,0,1,2.09,4.39h0A3.46,3.46,0,0,1,354.42,152.61Z" fill="#415a6b"/>
    <path d="M350.76,162.91,319,151.6a3.47,3.47,0,0,1-2.08-4.39h0a3.47,3.47,0,0,1,4.39-2.09l31.79,11.31a3.48,3.48,0,0,1,2.09,4.39h0A3.47,3.47,0,0,1,350.76,162.91Z" fill="#415a6b"/>
  </g>
  <g>
    <path d="M380.83,28a3.13,3.13,0,0,0-4,1.89l-3.56,10a3.13,3.13,0,0,0,1.9,4,3,3,0,0,0,4-1.89l3.56-10A3.13,3.13,0,0,0,380.83,28Z" fill="#ffd15c"/>
    <path d="M335,32a3.1,3.1,0,0,0-5.59,2.66L334,44.18a3.09,3.09,0,1,0,5.59-2.65Z" fill="#ffd15c"/>
    <path d="M311.42,69.33l-10-3.56a3.13,3.13,0,0,0-4,1.89h0a3.13,3.13,0,0,0,1.9,4l10,3.57a3.13,3.13,0,0,0,4-1.9h0A3.37,3.37,0,0,0,311.42,69.33Z" fill="#ffd15c"/>
    <path d="M310.92,109l-9.57,4.55a3.09,3.09,0,1,0,2.65,5.58l9.58-4.55a3.09,3.09,0,1,0-2.66-5.58Z" fill="#ffd15c"/>
    <path d="M383.93,134.92a3.09,3.09,0,1,0-5.59,2.65l4.55,9.58a3.09,3.09,0,0,0,5.59-2.65Z" fill="#ffd15c"/>
    <path d="M418.57,107.45l-10-3.56a3.13,3.13,0,0,0-4,1.89h0a3.13,3.13,0,0,0,1.9,4l10,3.56a3.13,3.13,0,0,0,4-1.89h0A3.13,3.13,0,0,0,418.57,107.45Z" fill="#ffd15c"/>
    <path d="M413.89,60l-9.58,4.55A3.1,3.1,0,0,0,407,70.16l9.58-4.56A3.09,3.09,0,0,0,413.89,60Z" fill="#ffd15c"/>
  </g>
  <polygon points="333 378.36 380.05 412.69 382 403.36 333 378.36" fill="#acaf8f"/>
  <path d="M360.65,341.82l32.41,44.09c3.13,2.65,2.66-5.17-.06-19.55Z" fill="#eaaf92"/>
  <rect x="960.11" y="80.43" width="181.33" height="224.98" rx="90.66" fill="#f6c2a0"/>
  <ellipse cx="1140.6" cy="189.56" rx="29.38" ry="25.18" fill="#f6c2a0"/>
  <ellipse cx="959.27" cy="189.56" rx="29.38" ry="25.18" fill="#f6c2a0"/>
  <rect x="1004.97" y="134.15" width="21.11" height="11.75" rx="3.5" fill="#070707"/>
  <rect x="1042.38" y="186.2" width="6.72" height="6.72" rx="2" fill="#7f1313"/>
  <rect x="1055.81" y="186.2" width="6.72" height="6.72" rx="2" fill="#7f1313"/>
  <path d="M1052.46,221.55l-42-.12v.12c0,12.6,19,23,42,23s42-10.36,42-23Z" fill="#7f1313"/>
  <circle cx="935.77" cy="54.4" r="52.89" fill="#e5d8a1"/>
  <path d="M987,43.49S961.79,15,928.21,33.41,903,95.54,903,95.54c9.94,9.9,11.14,9.27,20.5,10.32l64.3-42.18C989.74,53.5,990.72,51.82,987,43.49Z" fill="#e2cf7f"/>
  <path d="M1024.5,90.28c3.15,3.1-48.8,46-54.31,75.77-6.11,33.06,15.11,52,15.11,52-15.9-10.52-27.37-25.75-26.87-53.73-14.08.41-25.15,7.65-28.54,28.55,4.82,13.1,13.63,21.77,30.22,21.82-1.57,11.85,4,28.24,13.44,47-6.41-10.26-26.61-20.6-37.71-26.86-14.36-8.1-18.9-26.53-24.42-42,0,0,8.4-105.78,25.19-120.89s76.56-5.87,76.56-5.87" fill="#e5d8a1"/>
  <path d="M1022.91,93.72l-21,23c39.05-.38,76.56,21.53,116.52,49C1110.62,148.74,1077.22,124.3,1022.91,93.72Z" fill="#eaaf92"/>
  <path d="M945.51,211.76c5.15,2,10.1,3.25,14.6,3,.66,14.36,5,29.46,12.12,45.14-9.87-10-20.36-16.41-30.59-21.76,3.47-6.6,1.69-17.59-2.27-30.42Z" fill="#e2cf7f"/>
  <rect x="1007.47" y="150.94" width="17" height="21.83" rx="5.88" fill="#070707"/>
  <rect x="1078.47" y="150.94" width="18" height="21.83" rx="5.88" fill="#070707"/>
  <path d="M956.76,177.81s-18.47-5-18.47,11.75,20.14,16.79,20.14,16.79Z" fill="#eaaf92"/>
  <path d="M1143,200.54s18.43,5.18,18.55-11.61-20-17-20-17Z" fill="#eaaf92"/>
  <path d="M1015.52,85.46c-3.7,6.39,85.54,55.86,99.06,73.88,16.89,22.51,6.36,63.7,36.94,85.63q20.74,9.81,40.29,11.75c-39.39-23.32-46.81-50.1-43.65-97.38,0,0-1-29.63-16.79-65.48C1103.85,31.56,1001.81,24.79,1015.52,85.46Z" fill="#e5d8a1"/>
  <rect x="1075.48" y="134.15" width="21.11" height="11.75" rx="3.5" fill="#070707"/>
  <rect x="943.32" y="93.86" width="57.09" height="13.43" rx="4" fill="#f2e9c7"/>
  <rect x="934.93" y="115.68" width="33.58" height="13.43" rx="4" fill="#f2e9c7"/>
  <rect x="1091.07" y="85.46" width="33.58" height="13.43" rx="4" fill="#f2e9c7"/>
  <rect x="1064.21" y="85.46" width="20.15" height="13.43" rx="4" fill="#f2e9c7"/>
  <path d="M1027,239.12c-8.11-5.58-7.15-10.45-.75-14.91H1080c4.48,5.1,2.8,10.2-1.68,15.3Z" fill="#490606"/>
  <path d="M1018.88,235.51h66.58c.36.7-10.5,10.06-31.36,10C1031.59,245.45,1018,236.4,1018.88,235.51Z" fill="#fff"/>
  <path d="M1029.76,298.69s.68,45.33-4.17,55.41-45.31,10.07-94,40.29-9.7,198.12-9.7,198.12h271.51s31.8-171.25,0-193.08S1080.81,359.14,1076,354.1s-5.34-52.13-5.34-52.13Z" fill="#f6c2a0"/>
  <path d="M1029.79,302.94a73.93,73.93,0,0,0,41.14-.89l0,13.57c-14.28,7.44-28,8.53-41.19,1.48Z" fill="#eaaf92"/>
  <path d="M1012.68,361.43l-2.2,1.06c.46,23.5,6,44.23,18.07,61.48,7,8.45,15.88,15.1,30.82,15.73,12.2.8,21.76-4,29.08-13.45,9.55-17.26,12.55-38.79,7.66-65.44,1.35,17.75.77,34.23-4.2,47.86-5.33,17.05-15.38,27.4-31.9,28.54-12.65-.76-22.41-6-28.54-16.79C1020.89,407.8,1015,387.5,1012.68,361.43Z" fill="#eaaf92"/>
  <path d="M1087.72,224.61v-3.15h-70.15l-.13,2.43c-.13,2.52,3.24,4.61,7.45,4.61h56.33C1084.81,228.51,1087.72,226.77,1087.72,224.61Z" fill="#fff"/>
  <rect x="1003.47" y="166.51" width="25" height="10" rx="5" fill="#f6c2a0"/>
  <rect x="1075.47" y="166.51" width="25" height="10" rx="5" fill="#f6c2a0"/>
  <rect x="997.47" y="149.51" width="36" height="10" rx="5" fill="#f6c2a0"/>
  <rect x="1064.47" y="149.51" width="36" height="10" rx="5" fill="#f6c2a0"/>
  <path d="M1010.48,361.12s0,77.61,50.37,77.61,35.26-78.92,35.26-78.92c40.88,8.82,100.12,26.38,103.36,45.84,22.94,48.78,26,148.59,2.42,185.86-104.54,28.74-197.43,27.26-280.39,0-17.46-87.43-24.67-160.74,1-189.69C940.38,382,973.36,368.5,1010.48,361.12Z" fill="#f1f2df"/>
  <path d="M1154.63,602.51s22.07-38.61,22.07-67.16-25.18-83.94-25.18-83.94C1171.93,506.1,1177.1,557.39,1154.63,602.51Z" fill="#acaf8f"/>
  <path d="M968.51,471.52c10.22,53.76,23.12,115.92,22.57,136h-7.46C994.76,591.9,975.46,525,968.51,471.52Z" fill="#acaf8f"/>
  <rect x="1401.11" y="79.93" width="181.33" height="224.98" rx="90.66" fill="#f6c2a0"/>
  <ellipse cx="1581.6" cy="189.06" rx="29.38" ry="25.18" fill="#f6c2a0"/>
  <ellipse cx="1400.27" cy="189.06" rx="29.38" ry="25.18" fill="#f6c2a0"/>
  <rect x="1445.97" y="133.65" width="21.11" height="11.75" rx="3.5" fill="#070707"/>
  <rect x="1483.38" y="185.7" width="6.72" height="6.72" rx="2" fill="#7f1313"/>
  <rect x="1496.81" y="185.7" width="6.72" height="6.72" rx="2" fill="#7f1313"/>
  <path d="M1493.46,221.14l-42-.21v.21a42,42,0,1,0,84,0Z" fill="#7f1313"/>
  <path d="M1528.72,226.21V221h-70.15l-.13,4.06a7.45,7.45,0,0,0,7.45,7.68h56.33A6.5,6.5,0,0,0,1528.72,226.21Z" fill="#fff"/>
  <circle cx="1376.77" cy="53.9" r="52.89" fill="#e5d8a1"/>
  <path d="M1428,43s-25.19-28.54-58.77-10.08S1344,95,1344,95c9.94,9.9,11.14,9.27,20.5,10.32l64.3-42.18C1430.74,53,1431.72,51.32,1428,43Z" fill="#e2cf7f"/>
  <path d="M1465.5,89.78c3.15,3.1-48.8,46-54.31,75.77-6.11,33.06,15.11,52,15.11,52-15.9-10.52-27.37-25.75-26.87-53.73-14.08.41-25.15,7.65-28.54,28.55,4.82,13.1,13.63,21.77,30.22,21.82-1.57,11.85,4,28.24,13.44,47-6.41-10.26-26.61-20.6-37.71-26.86-14.36-8.1-18.9-26.53-24.42-42,0,0,8.4-105.78,25.19-120.89s76.56-5.87,76.56-5.87" fill="#e5d8a1"/>
  <path d="M1463.91,93.22l-21,23c39-.38,76.56,21.53,116.52,49C1551.62,148.24,1518.22,123.8,1463.91,93.22Z" fill="#eaaf92"/>
  <path d="M1386.51,211.26c5.15,2,10.1,3.25,14.6,3,.66,14.36,5,29.46,12.12,45.14-9.87-10-20.36-16.41-30.59-21.76,3.47-6.6,1.69-17.59-2.27-30.42Z" fill="#e2cf7f"/>
  <rect x="1451.48" y="150.44" width="11.75" height="21.83" rx="5.88" fill="#070707"/>
  <rect x="1520.32" y="150.44" width="11.75" height="21.83" rx="5.88" fill="#070707"/>
  <path d="M1397.76,177.31s-18.47-5-18.47,11.75,20.14,16.79,20.14,16.79Z" fill="#eaaf92"/>
  <path d="M1584,200s18.43,5.18,18.55-11.61-20-17-20-17Z" fill="#eaaf92"/>
  <path d="M1456.52,85c-3.7,6.39,85.54,55.86,99.06,73.88,16.89,22.51,6.36,63.7,36.94,85.63q20.74,9.81,40.29,11.75c-39.39-23.32-46.81-50.1-43.65-97.38,0,0-1-29.63-16.79-65.48C1544.85,31.06,1442.81,24.29,1456.52,85Z" fill="#e5d8a1"/>
  <rect x="1516.48" y="133.65" width="21.11" height="11.75" rx="3.5" fill="#070707"/>
  <rect x="1384.32" y="93.36" width="57.09" height="13.43" rx="4" fill="#f2e9c7"/>
  <rect x="1375.93" y="115.18" width="33.58" height="13.43" rx="4" fill="#f2e9c7"/>
  <rect x="1532.07" y="84.96" width="33.58" height="13.43" rx="4" fill="#f2e9c7"/>
  <rect x="1505.21" y="84.96" width="20.15" height="13.43" rx="4" fill="#f2e9c7"/>
  <path d="M1469,252.34c-8.11-7.34-7.15-13.76-.75-19.63H1522c4.48,6.72,2.8,13.43-1.68,20.15Z" fill="#490606"/>
  <path d="M1461,248.82h64c.35,1.07-10.09,15.39-30.14,15.3C1474,264,1460.59,250.18,1461,248.82Z" fill="#fff"/>
  <path d="M1470.76,298.19s.68,45.33-4.17,55.41-45.31,10.07-94,40.29-9.7,198.12-9.7,198.12h271.51s31.8-171.25,0-193.08S1521.81,358.64,1517,353.6s-5.34-52.13-5.34-52.13Z" fill="#f6c2a0"/>
  <path d="M1470.79,302.44a73.93,73.93,0,0,0,41.14-.89l0,13.57c-14.28,7.44-28,8.53-41.19,1.48Z" fill="#eaaf92"/>
  <path d="M1453.68,360.93l-2.2,1.06c.46,23.5,6,44.23,18.07,61.48,7,8.45,15.88,15.1,30.82,15.73,12.2.8,21.76-4,29.08-13.45,9.55-17.26,12.55-38.79,7.66-65.44,1.35,17.75.77,34.23-4.2,47.86-5.33,17.05-15.38,27.4-31.9,28.54-12.65-.76-22.41-6-28.54-16.79C1461.89,407.3,1456,387,1453.68,360.93Z" fill="#eaaf92"/>
  <path d="M1451.48,361.62s0,77.61,50.37,77.61,35.26-78.92,35.26-78.92c40.88,8.82,100.12,26.38,103.36,45.84,22.94,48.78,26,148.59,2.42,185.86-104.54,28.74-197.43,27.26-280.39,0-17.46-87.43-24.67-160.74,1-189.69C1381.38,382.47,1414.36,369,1451.48,361.62Z" fill="#f1f2df"/>
  <path d="M1595.63,603s22.07-38.61,22.07-67.16-25.18-83.94-25.18-83.94C1612.93,506.6,1618.1,557.89,1595.63,603Z" fill="#acaf8f"/>
  <path d="M1409.51,472c10.22,53.76,23.12,115.92,22.57,136h-7.46C1435.76,592.4,1416.46,525.52,1409.51,472Z" fill="#acaf8f"/>
</svg>
