<svg id="Layer_1" data-name="Layer 1" xmlns="http://www.w3.org/2000/svg" width="1018" height="612" viewBox="0 0 1018 612">
  <path d="M148.76,297.48s.68,45.33-4.17,55.4-45.31,10.08-94,40.3-9.7,198.12-9.7,198.12H312.39s31.8-171.26,0-193.08S199.81,357.92,195,352.88s-5.34-52.13-5.34-52.13Z" fill="#f6c2a0"/>
  <path d="M148.79,301.72a73.84,73.84,0,0,0,41.14-.88l0,13.56c-14.28,7.44-28,8.54-41.19,1.48Z" fill="#eaaf92"/>
  <path d="M130.68,360.21l-2.2,1.07c.46,23.49,6,44.23,18.07,61.48,7,8.44,15.88,15.1,30.82,15.72,12.2.8,21.76-4,29.08-13.45,9.55-17.26,12.55-38.78,7.66-65.43,1.35,17.75.77,34.23-4.2,47.85-5.33,17.06-15.38,27.41-31.9,28.54-12.65-.76-22.41-6-28.54-16.79C138.89,406.59,133,386.28,130.68,360.21Z" fill="#eaaf92"/>
  <rect x="79.26" y="79.75" width="181.03" height="224.61" rx="90.52" fill="#f6c2a0"/>
  <ellipse cx="259.46" cy="188.7" rx="29.33" ry="25.14" fill="#f6c2a0"/>
  <ellipse cx="78.42" cy="188.7" rx="29.33" ry="25.14" fill="#f6c2a0"/>
  <rect x="124.04" y="133.39" width="21.07" height="11.73" rx="3.5" fill="#070707"/>
  <rect x="161.4" y="185.35" width="6.7" height="6.7" rx="2" fill="#7f1313"/>
  <rect x="174.81" y="185.35" width="6.7" height="6.7" rx="2" fill="#7f1313"/>
  <path d="M129.55,220.53v.07c0,7.67,20.93,20,43.91,20s39.9-12.3,39.9-20C188.79,241.4,161,238.66,129.55,220.53Z" fill="#7f1313"/>
  <circle cx="54.96" cy="53.77" r="52.8" fill="#e5d8a1"/>
  <path d="M106.08,42.87s-25.14-28.49-58.67-10-25.14,62-25.14,62c9.93,9.89,11.13,9.26,20.47,10.3L106.94,63C108.84,52.87,109.82,51.19,106.08,42.87Z" fill="#e2cf7f"/>
  <path d="M143.54,89.59c3.15,3.09-48.72,45.88-54.22,75.65-6.1,33,15.08,52,15.08,52-15.87-10.5-27.32-25.71-26.81-53.64-14.07.4-25.12,7.63-28.5,28.5,4.81,13.08,13.61,21.74,30.17,21.79-1.57,11.83,4,28.19,13.41,46.93C86.28,250.53,66.11,240.21,55,234c-14.34-8.08-18.87-26.49-24.38-41.9,0,0,8.38-105.61,25.14-120.69s76.44-5.87,76.44-5.87" fill="#e5d8a1"/>
  <path d="M142,93,121,115.94c39-.37,76.43,21.5,116.33,48.92C229.52,148,196.17,123.55,142,93Z" fill="#eaaf92"/>
  <path d="M64.68,210.87c5.15,2,10.08,3.25,14.58,3,.65,14.33,5,29.41,12.1,45.06-9.85-10-20.33-16.38-30.55-21.73,3.48-6.58,1.7-17.56-2.26-30.37Z" fill="#e2cf7f"/>
  <rect x="129.55" y="150.15" width="11.73" height="21.79" rx="5.87" fill="#070707"/>
  <rect x="198.27" y="150.15" width="11.73" height="21.79" rx="5.87" fill="#070707"/>
  <path d="M75.91,177s-18.44-5-18.44,11.73,20.12,16.77,20.12,16.77Z" fill="#eaaf92"/>
  <path d="M261.86,199.67s18.4,5.17,18.53-11.6-20-16.91-20-16.91Z" fill="#eaaf92"/>
  <path d="M134.58,84.78c-3.7,6.38,85.39,55.76,98.89,73.75,16.87,22.48,6.36,63.6,36.88,85.49q20.73,9.81,40.23,11.73c-39.33-23.27-46.73-50-43.58-97.22,0,0-.95-29.57-16.76-65.37C222.77,31,120.89,24.2,134.58,84.78Z" fill="#e5d8a1"/>
  <rect x="194.44" y="133.39" width="21.07" height="11.73" rx="3.5" fill="#070707"/>
  <rect x="62.5" y="93.16" width="56.99" height="13.41" rx="4" fill="#f2e9c7"/>
  <rect x="54.12" y="114.95" width="33.52" height="13.41" rx="4" fill="#f2e9c7"/>
  <rect x="210.01" y="84.78" width="33.52" height="13.41" rx="4" fill="#f2e9c7"/>
  <rect x="183.19" y="84.78" width="20.11" height="13.41" rx="4" fill="#f2e9c7"/>
  <path d="M129.55,361s0,77.48,50.28,77.48S215,359.68,215,359.68c40.81,8.8,100,26.33,103.18,45.76,22.91,48.7,25.95,148.34,2.42,185.56-104.36,28.69-197.1,27.21-279.93,0-17.43-87.29-24.63-160.48,1-189.38C59.56,381.79,92.48,368.35,129.55,361Z" fill="#f1f2df"/>
  <path d="M273.46,602s22-38.55,22-67.05-25.14-83.81-25.14-83.81C290.73,505.72,295.89,556.93,273.46,602Z" fill="#acaf8f"/>
  <path d="M87.64,471.2C97.85,524.88,110.72,586.93,110.18,607h-7.45C113.86,591.38,94.58,524.61,87.64,471.2Z" fill="#acaf8f"/>
  <rect x="418.11" y="79.88" width="181.33" height="224.98" rx="90.66" fill="#f6c2a0"/>
  <ellipse cx="598.6" cy="189.01" rx="29.38" ry="25.18" fill="#f6c2a0"/>
  <ellipse cx="417.27" cy="189.01" rx="29.38" ry="25.18" fill="#f6c2a0"/>
  <rect x="462.97" y="133.6" width="21.11" height="11.75" rx="3.5" fill="#070707"/>
  <rect x="500.38" y="185.65" width="6.72" height="6.72" rx="2" fill="#7f1313"/>
  <rect x="513.81" y="185.65" width="6.72" height="6.72" rx="2" fill="#7f1313"/>
  <path d="M510.46,221l-42-.11V221c0,12.6,18.95,23,42,23s42-10.37,42-23Z" fill="#7f1313"/>
  <circle cx="393.77" cy="53.85" r="52.89" fill="#e5d8a1"/>
  <path d="M445,42.94S419.79,14.4,386.21,32.87,361,95,361,95c9.94,9.9,11.14,9.28,20.5,10.32l64.3-42.17C447.74,53,448.72,51.27,445,42.94Z" fill="#e2cf7f"/>
  <path d="M482.5,89.74c3.15,3.09-48.8,46-54.31,75.77-6.11,33.06,15.11,52,15.11,52-15.9-10.52-27.37-25.75-26.87-53.72-14.08.4-25.15,7.64-28.54,28.54,4.82,13.1,13.63,21.78,30.22,21.83-1.57,11.85,4,28.24,13.44,47-6.41-10.27-26.61-20.61-37.71-26.87-14.36-8.09-18.9-26.53-24.42-42,0,0,8.4-105.78,25.19-120.89s76.56-5.87,76.56-5.87" fill="#e5d8a1"/>
  <path d="M480.91,93.17l-21,23c39.05-.38,76.56,21.53,116.52,49C568.62,148.19,535.22,123.75,480.91,93.17Z" fill="#eaaf92"/>
  <path d="M403.51,211.21c5.15,2,10.1,3.26,14.6,3,.66,14.35,5,29.46,12.12,45.13-9.87-10-20.36-16.41-30.59-21.76,3.47-6.59,1.69-17.59-2.27-30.42Z" fill="#e2cf7f"/>
  <rect x="465.47" y="150.39" width="17" height="21.83" rx="5.88" fill="#070707"/>
  <rect x="536.47" y="150.39" width="18" height="21.83" rx="5.88" fill="#070707"/>
  <path d="M414.76,177.26s-18.47-5-18.47,11.75,20.14,16.79,20.14,16.79Z" fill="#eaaf92"/>
  <path d="M601,200s18.43,5.18,18.55-11.61-20-16.94-20-16.94Z" fill="#eaaf92"/>
  <path d="M473.52,84.91c-3.7,6.39,85.54,55.86,99.06,73.88,16.89,22.51,6.36,63.7,36.94,85.63q20.75,9.81,40.29,11.75c-39.39-23.31-46.81-50.1-43.65-97.38,0,0-.95-29.63-16.79-65.48C561.85,31,459.81,24.24,473.52,84.91Z" fill="#e5d8a1"/>
  <rect x="533.48" y="133.6" width="21.11" height="11.75" rx="3.5" fill="#070707"/>
  <rect x="401.32" y="93.31" width="57.09" height="13.43" rx="4" fill="#f2e9c7"/>
  <rect x="392.93" y="115.14" width="33.58" height="13.43" rx="4" fill="#f2e9c7"/>
  <rect x="549.07" y="84.91" width="33.58" height="13.43" rx="4" fill="#f2e9c7"/>
  <rect x="522.21" y="84.91" width="20.15" height="13.43" rx="4" fill="#f2e9c7"/>
  <path d="M485,238.57c-8.11-5.57-7.15-10.45-.75-14.91H538c4.48,5.1,2.8,10.21-1.68,15.31Z" fill="#490606"/>
  <path d="M476.88,235h66.58c.36.69-10.5,10.05-31.36,10C489.59,244.91,476,235.85,476.88,235Z" fill="#fff"/>
  <path d="M487.76,298.14s.68,45.34-4.17,55.41-45.31,10.07-94,40.3S379.88,592,379.88,592H651.39s31.8-171.26,0-193.09S538.81,358.59,534,353.55s-5.34-52.13-5.34-52.13Z" fill="#f6c2a0"/>
  <path d="M487.79,302.39a73.75,73.75,0,0,0,41.14-.89l.05,13.57c-14.28,7.44-28.05,8.54-41.19,1.48Z" fill="#eaaf92"/>
  <path d="M470.68,360.88l-2.2,1.07c.46,23.49,6,44.23,18.07,61.47,7,8.45,15.88,15.1,30.82,15.73,12.2.8,21.76-4,29.08-13.45,9.55-17.26,12.55-38.78,7.66-65.43,1.35,17.75.77,34.23-4.2,47.85-5.33,17.06-15.38,27.4-31.9,28.54-12.65-.76-22.41-6-28.54-16.79C478.89,407.26,473,387,470.68,360.88Z" fill="#eaaf92"/>
  <path d="M545.72,224.07v-3.16H475.57l-.13,2.43c-.13,2.53,3.24,4.62,7.45,4.62h56.33C542.81,228,545.72,226.22,545.72,224.07Z" fill="#fff"/>
  <rect x="461.47" y="165.97" width="25" height="10" rx="5" fill="#f6c2a0"/>
  <rect x="533.47" y="165.97" width="25" height="10" rx="5" fill="#f6c2a0"/>
  <rect x="455.47" y="148.97" width="36" height="10" rx="5" fill="#f6c2a0"/>
  <rect x="522.47" y="148.97" width="36" height="10" rx="5" fill="#f6c2a0"/>
  <path d="M468.48,360.57s0,77.61,50.37,77.61,35.26-78.91,35.26-78.91c40.88,8.82,100.12,26.37,103.36,45.83,22.94,48.79,26,148.59,2.42,185.87-104.54,28.74-197.43,27.25-280.39,0-17.46-87.44-24.67-160.75,1-189.69C398.38,381.42,431.36,368,468.48,360.57Z" fill="#f1f2df"/>
  <path d="M612.63,602s22.07-38.62,22.07-67.16-25.18-83.95-25.18-83.95C629.93,505.55,635.1,556.84,612.63,602Z" fill="#acaf8f"/>
  <path d="M426.51,471c10.22,53.77,23.12,115.92,22.57,136h-7.46C452.76,591.35,433.46,524.47,426.51,471Z" fill="#acaf8f"/>
  <rect x="758.11" y="79.38" width="181.33" height="224.98" rx="90.66" fill="#f6c2a0"/>
  <ellipse cx="938.6" cy="188.51" rx="29.38" ry="25.18" fill="#f6c2a0"/>
  <ellipse cx="757.27" cy="188.51" rx="29.38" ry="25.18" fill="#f6c2a0"/>
  <rect x="802.97" y="133.1" width="21.11" height="11.75" rx="3.5" fill="#070707"/>
  <rect x="840.38" y="185.15" width="6.72" height="6.72" rx="2" fill="#7f1313"/>
  <rect x="853.81" y="185.15" width="6.72" height="6.72" rx="2" fill="#7f1313"/>
  <path d="M850.46,220.59l-42-.2v.2a42,42,0,1,0,83.95,0Z" fill="#7f1313"/>
  <path d="M885.72,225.67v-5.26H815.57l-.13,4.06a7.45,7.45,0,0,0,7.45,7.68h56.33A6.49,6.49,0,0,0,885.72,225.67Z" fill="#fff"/>
  <circle cx="733.77" cy="53.35" r="52.89" fill="#e5d8a1"/>
  <path d="M785,42.44S759.79,13.9,726.21,32.37,701,94.49,701,94.49c9.94,9.9,11.14,9.28,20.5,10.32l64.3-42.17C787.74,52.45,788.72,50.77,785,42.44Z" fill="#e2cf7f"/>
  <path d="M822.5,89.24c3.15,3.09-48.8,46-54.31,75.77-6.11,33.06,15.11,52,15.11,52-15.9-10.52-27.37-25.75-26.87-53.72-14.08.4-25.15,7.64-28.54,28.54,4.82,13.1,13.63,21.78,30.22,21.83-1.57,11.85,4,28.24,13.44,47-6.41-10.27-26.61-20.61-37.71-26.87-14.36-8.09-18.9-26.53-24.42-42,0,0,8.4-105.78,25.19-120.89s76.56-5.87,76.56-5.87" fill="#e5d8a1"/>
  <path d="M820.91,92.67l-21,23c39.05-.38,76.56,21.53,116.52,49C908.62,147.69,875.22,123.25,820.91,92.67Z" fill="#eaaf92"/>
  <path d="M743.51,210.71c5.15,2,10.1,3.26,14.6,3,.66,14.35,5,29.46,12.12,45.13-9.87-10-20.36-16.41-30.59-21.76,3.47-6.59,1.69-17.59-2.27-30.42Z" fill="#e2cf7f"/>
  <rect x="808.48" y="149.89" width="11.75" height="21.83" rx="5.88" fill="#070707"/>
  <rect x="877.32" y="149.89" width="11.75" height="21.83" rx="5.88" fill="#070707"/>
  <path d="M754.76,176.76s-18.47-5-18.47,11.75,20.14,16.79,20.14,16.79Z" fill="#eaaf92"/>
  <path d="M941,199.49s18.43,5.18,18.55-11.61-20-16.94-20-16.94Z" fill="#eaaf92"/>
  <path d="M813.52,84.41c-3.7,6.39,85.54,55.86,99.06,73.88,16.89,22.51,6.36,63.7,36.94,85.63q20.75,9.81,40.29,11.75c-39.39-23.31-46.81-50.1-43.65-97.38,0,0-.95-29.63-16.79-65.48C901.85,30.52,799.81,23.74,813.52,84.41Z" fill="#e5d8a1"/>
  <rect x="873.48" y="133.1" width="21.11" height="11.75" rx="3.5" fill="#070707"/>
  <rect x="741.32" y="92.81" width="57.09" height="13.43" rx="4" fill="#f2e9c7"/>
  <rect x="732.93" y="114.64" width="33.58" height="13.43" rx="4" fill="#f2e9c7"/>
  <rect x="889.07" y="84.41" width="33.58" height="13.43" rx="4" fill="#f2e9c7"/>
  <rect x="862.21" y="84.41" width="20.15" height="13.43" rx="4" fill="#f2e9c7"/>
  <path d="M826,251.79c-8.11-7.34-7.15-13.76-.75-19.63H879c4.48,6.72,2.8,13.44-1.68,20.15Z" fill="#490606"/>
  <path d="M818,248.28h64c.35,1.06-10.09,15.38-30.14,15.29C831,263.47,817.59,249.63,818,248.28Z" fill="#fff"/>
  <path d="M827.76,297.64s.68,45.34-4.17,55.41-45.31,10.07-94,40.3-9.7,198.12-9.7,198.12H991.39s31.8-171.26,0-193.09S878.81,358.09,874,353.05s-5.34-52.13-5.34-52.13Z" fill="#f6c2a0"/>
  <path d="M827.79,301.89a73.75,73.75,0,0,0,41.14-.89l.05,13.57c-14.28,7.44-28.05,8.54-41.19,1.48Z" fill="#eaaf92"/>
  <path d="M810.68,360.38l-2.2,1.07c.46,23.49,6,44.23,18.07,61.47,7,8.45,15.88,15.1,30.82,15.73,12.2.8,21.76-4,29.08-13.45,9.55-17.26,12.55-38.78,7.66-65.43,1.35,17.75.77,34.23-4.2,47.85-5.33,17.06-15.38,27.4-31.9,28.54-12.65-.76-22.41-6-28.54-16.79C818.89,406.76,813,386.45,810.68,360.38Z" fill="#eaaf92"/>
  <path d="M808.48,361.07s0,77.61,50.37,77.61,35.26-78.91,35.26-78.91c40.88,8.82,100.12,26.37,103.36,45.83,22.94,48.79,26,148.59,2.42,185.87-104.54,28.74-197.43,27.25-280.39,0-17.46-87.44-24.67-160.75,1-189.69C738.38,381.92,771.36,368.45,808.48,361.07Z" fill="#f1f2df"/>
  <path d="M952.63,602.47s22.07-38.62,22.07-67.16-25.18-83.95-25.18-83.95C969.93,506.05,975.1,557.34,952.63,602.47Z" fill="#acaf8f"/>
  <path d="M766.51,471.47c10.22,53.77,23.12,115.92,22.57,136h-7.46C792.76,591.85,773.46,525,766.51,471.47Z" fill="#acaf8f"/>
</svg>
