<svg id="Layer_1" data-name="Layer 1" xmlns="http://www.w3.org/2000/svg" width="1623" height="612" viewBox="0 0 1623 612">
  <path d="M1491.62,371l-45,226s61-1.94,65-12.61,29-189.14,29-189.14" fill="#f1f2df"/>
  <g>
    <path d="M224.76,297.48s.68,45.33-4.17,55.4-45.31,10.08-94,40.3-9.7,198.12-9.7,198.12H388.39s31.8-171.26,0-193.08S275.81,357.92,271,352.88s-5.34-52.13-5.34-52.13Z" fill="#f6c2a0"/>
    <path d="M224.79,301.72a73.84,73.84,0,0,0,41.14-.88L266,314.4c-14.28,7.44-28.05,8.54-41.19,1.48Z" fill="#eaaf92"/>
    <path d="M206.68,360.21l-2.2,1.07c.46,23.49,6,44.23,18.07,61.48,7,8.44,15.88,15.1,30.82,15.72,12.2.8,21.76-4,29.08-13.45,9.55-17.26,12.55-38.78,7.66-65.43,1.35,17.75.77,34.23-4.2,47.85-5.33,17.06-15.38,27.41-31.9,28.54-12.65-.76-22.41-6-28.54-16.79C214.89,406.59,209,386.28,206.68,360.21Z" fill="#eaaf92"/>
    <g>
      <rect x="155.26" y="79.75" width="181.03" height="224.61" rx="90.52" fill="#f6c2a0"/>
      <ellipse cx="335.46" cy="188.7" rx="29.33" ry="25.14" fill="#f6c2a0"/>
      <ellipse cx="154.42" cy="188.7" rx="29.33" ry="25.14" fill="#f6c2a0"/>
      <rect x="200.04" y="133.39" width="21.07" height="11.73" rx="3.5" fill="#070707"/>
      <rect x="237.4" y="185.35" width="6.7" height="6.7" rx="2" fill="#7f1313"/>
      <rect x="250.81" y="185.35" width="6.7" height="6.7" rx="2" fill="#7f1313"/>
      <path d="M205.55,220.53v.07c0,7.67,20.93,20,43.91,20s39.9-12.3,39.9-20C264.79,241.4,237,238.66,205.55,220.53Z" fill="#7f1313"/>
      <circle cx="130.96" cy="53.77" r="52.8" fill="#e5d8a1"/>
      <path d="M182.08,42.87s-25.14-28.49-58.67-10-25.14,62-25.14,62c9.93,9.89,11.13,9.26,20.47,10.3L182.94,63C184.84,52.87,185.82,51.19,182.08,42.87Z" fill="#e2cf7f"/>
      <path d="M219.54,89.59c3.15,3.09-48.72,45.88-54.22,75.65-6.1,33,15.08,52,15.08,52-15.87-10.5-27.32-25.71-26.81-53.64-14.07.4-25.12,7.63-28.5,28.5,4.81,13.08,13.61,21.74,30.17,21.79-1.57,11.83,4,28.19,13.41,46.93C162.28,250.53,142.11,240.21,131,234c-14.34-8.08-18.87-26.49-24.38-41.9,0,0,8.38-105.61,25.14-120.69s76.44-5.87,76.44-5.87" fill="#e5d8a1"/>
      <path d="M218,93,197,115.94c39-.37,76.43,21.5,116.33,48.92C305.52,148,272.17,123.55,218,93Z" fill="#eaaf92"/>
      <path d="M140.68,210.87c5.15,2,10.08,3.25,14.58,3,.65,14.33,5,29.41,12.1,45.06-9.85-10-20.33-16.38-30.55-21.73,3.48-6.58,1.7-17.56-2.26-30.37Z" fill="#e2cf7f"/>
      <rect x="205.55" y="150.15" width="11.73" height="21.79" rx="5.87" fill="#070707"/>
      <rect x="274.27" y="150.15" width="11.73" height="21.79" rx="5.87" fill="#070707"/>
      <path d="M151.91,177s-18.44-5-18.44,11.73,20.12,16.77,20.12,16.77Z" fill="#eaaf92"/>
      <path d="M337.86,199.67s18.4,5.17,18.53-11.6-20-16.91-20-16.91Z" fill="#eaaf92"/>
      <path d="M210.58,84.78c-3.7,6.38,85.39,55.76,98.89,73.75,16.87,22.48,6.36,63.6,36.88,85.49q20.73,9.81,40.23,11.73c-39.33-23.27-46.73-50-43.58-97.22,0,0-.95-29.57-16.76-65.37C298.77,31,196.89,24.2,210.58,84.78Z" fill="#e5d8a1"/>
      <rect x="270.44" y="133.39" width="21.07" height="11.73" rx="3.5" fill="#070707"/>
      <rect x="138.5" y="93.16" width="56.99" height="13.41" rx="4" fill="#f2e9c7"/>
      <rect x="130.12" y="114.95" width="33.52" height="13.41" rx="4" fill="#f2e9c7"/>
      <rect x="286.01" y="84.78" width="33.52" height="13.41" rx="4" fill="#f2e9c7"/>
      <rect x="259.19" y="84.78" width="20.11" height="13.41" rx="4" fill="#f2e9c7"/>
      <g>
        <path d="M205.55,361s0,77.48,50.28,77.48S291,359.68,291,359.68c40.81,8.8,99.95,26.33,103.18,45.76,22.91,48.7,25.95,148.34,2.42,185.56-104.36,28.69-197.1,27.21-279.93,0-17.43-87.29-24.63-160.48,1-189.38C135.56,381.79,168.48,368.35,205.55,361Z" fill="#f1f2df"/>
        <path d="M349.46,602s22-38.55,22-67.05-25.14-83.81-25.14-83.81C366.73,505.72,371.89,556.93,349.46,602Z" fill="#acaf8f"/>
        <g>
          <text transform="translate(178.43 501.11)" font-size="29.42" fill="#4d511b" font-family="Sail-Regular, Sail"><tspan letter-spacing="-0.01em">K</tspan><tspan x="31.53" y="0">aysen</tspan></text>
          <text transform="translate(231.44 526.41)" font-size="29.42" fill="#737a39" font-family="Sail-Regular, Sail">Keramik</text>
          <path d="M283.39,479.51h9.92c.38-3.34.4-5.5,0-6.42-.28-1.8-1.84-2.85-4.09-3.5-2.07,1.85-3.66,1.63-4.67-1.17,2.22-1.85,3.87-1.93,4.67.59,2,.68,3.76,1.67,4.67,3.5.06-2.82.29-5.39,1.17-7-2.12-2.32-1.19-3.95,1.17-5.26,1.77,2,2.35,3.84-.59,5.26l-1.16,4.08a6.75,6.75,0,0,1,4.08-1.75c1.92-2.7,3.63-2.14,5.26,0-1.57,2.34-3.3,2.86-5.26.58-1.64.35-3.21.8-4.08,2.34a73,73,0,0,0,0,8.75h9.92l-3.5,21.6h-14Z" fill="#4d511b"/>
          <path d="M306.38,489.84h5.19a8.53,8.53,0,0,0,0-3.36c-.14-.94-1-1.49-2.13-1.83-1.09,1-1.92.85-2.45-.61,1.16-1,2-1,2.45.3a3.91,3.91,0,0,1,2.44,1.84,8.74,8.74,0,0,1,.61-3.67c-1.11-1.21-.63-2.06.61-2.75.93,1.05,1.23,2-.31,2.75l-.61,2.14a3.6,3.6,0,0,1,2.14-.92c1-1.41,1.9-1.12,2.75,0-.82,1.23-1.72,1.5-2.75.31a2.88,2.88,0,0,0-2.14,1.22,41.16,41.16,0,0,0,0,4.58h5.2l-1.84,11.3h-7.33Z" fill="#737a39"/>
          <path d="M320.49,493.8h3.37a5.45,5.45,0,0,0,0-2.18c-.09-.61-.62-1-1.39-1.19-.7.63-1.24.55-1.58-.4.75-.63,1.31-.66,1.58.2a2.53,2.53,0,0,1,1.59,1.19,5.64,5.64,0,0,1,.4-2.38c-.72-.79-.41-1.34.4-1.79.6.68.8,1.31-.2,1.79l-.4,1.39a2.36,2.36,0,0,1,1.39-.6c.65-.92,1.23-.73,1.79,0-.54.8-1.12,1-1.79.2a1.88,1.88,0,0,0-1.39.79,26.93,26.93,0,0,0,0,3h3.37l-1.19,7.34h-4.76Z" fill="#acaf8f"/>
        </g>
        <path d="M163.64,471.2c10.21,53.68,23.08,115.73,22.54,135.77h-7.45C189.86,591.38,170.58,524.61,163.64,471.2Z" fill="#acaf8f"/>
      </g>
    </g>
  </g>
  <g>
    <rect x="697.11" y="79.88" width="181.33" height="224.98" rx="90.66" fill="#f6c2a0"/>
    <ellipse cx="877.6" cy="189.01" rx="29.38" ry="25.18" fill="#f6c2a0"/>
    <ellipse cx="696.27" cy="189.01" rx="29.38" ry="25.18" fill="#f6c2a0"/>
    <rect x="741.97" y="133.6" width="21.11" height="11.75" rx="3.5" fill="#070707"/>
    <rect x="779.38" y="185.65" width="6.72" height="6.72" rx="2" fill="#7f1313"/>
    <rect x="792.81" y="185.65" width="6.72" height="6.72" rx="2" fill="#7f1313"/>
    <path d="M789.46,221l-42-.11V221c0,12.6,18.95,23,42,23s42-10.37,42-23Z" fill="#7f1313"/>
    <circle cx="672.77" cy="53.85" r="52.89" fill="#e5d8a1"/>
    <path d="M724,42.94S698.79,14.4,665.21,32.87,640,95,640,95c9.94,9.9,11.14,9.28,20.5,10.32l64.3-42.17C726.74,53,727.72,51.27,724,42.94Z" fill="#e2cf7f"/>
    <path d="M761.5,89.74c3.15,3.09-48.8,46-54.31,75.77-6.11,33.06,15.11,52,15.11,52-15.9-10.52-27.37-25.75-26.87-53.72-14.08.4-25.15,7.64-28.54,28.54,4.82,13.1,13.63,21.78,30.22,21.83-1.57,11.85,4,28.24,13.44,47-6.41-10.27-26.61-20.61-37.71-26.87-14.36-8.09-18.9-26.53-24.42-42,0,0,8.4-105.78,25.19-120.89s76.56-5.87,76.56-5.87" fill="#e5d8a1"/>
    <path d="M759.91,93.17l-21,23c39.05-.38,76.56,21.53,116.52,49C847.62,148.19,814.22,123.75,759.91,93.17Z" fill="#eaaf92"/>
    <path d="M682.51,211.21c5.15,2,10.1,3.26,14.6,3,.66,14.35,5,29.46,12.12,45.13-9.87-10-20.36-16.41-30.59-21.76,3.47-6.59,1.69-17.59-2.27-30.42Z" fill="#e2cf7f"/>
    <rect x="744.47" y="150.39" width="17" height="21.83" rx="5.88" fill="#070707"/>
    <rect x="815.47" y="150.39" width="18" height="21.83" rx="5.88" fill="#070707"/>
    <path d="M693.76,177.26s-18.47-5-18.47,11.75,20.14,16.79,20.14,16.79Z" fill="#eaaf92"/>
    <path d="M880,200s18.43,5.18,18.55-11.61-20-16.94-20-16.94Z" fill="#eaaf92"/>
    <path d="M752.52,84.91c-3.7,6.39,85.54,55.86,99.06,73.88,16.89,22.51,6.36,63.7,36.94,85.63q20.75,9.81,40.29,11.75c-39.39-23.31-46.81-50.1-43.65-97.38,0,0-.95-29.63-16.79-65.48C840.85,31,738.81,24.24,752.52,84.91Z" fill="#e5d8a1"/>
    <rect x="812.48" y="133.6" width="21.11" height="11.75" rx="3.5" fill="#070707"/>
    <rect x="680.32" y="93.31" width="57.09" height="13.43" rx="4" fill="#f2e9c7"/>
    <rect x="671.93" y="115.14" width="33.58" height="13.43" rx="4" fill="#f2e9c7"/>
    <rect x="828.07" y="84.91" width="33.58" height="13.43" rx="4" fill="#f2e9c7"/>
    <rect x="801.21" y="84.91" width="20.15" height="13.43" rx="4" fill="#f2e9c7"/>
    <path d="M764,238.57c-8.11-5.57-7.15-10.45-.75-14.91H817c4.48,5.1,2.8,10.21-1.68,15.31Z" fill="#490606"/>
    <path d="M755.88,235h66.58c.36.69-10.5,10.05-31.36,10C768.59,244.91,755,235.85,755.88,235Z" fill="#fff"/>
    <path d="M766.76,298.14s.68,45.34-4.17,55.41-45.31,10.07-94,40.3S658.88,592,658.88,592H930.39s31.8-171.26,0-193.09S817.81,358.59,813,353.55s-5.34-52.13-5.34-52.13Z" fill="#f6c2a0"/>
    <path d="M766.79,302.39a73.75,73.75,0,0,0,41.14-.89l.05,13.57c-14.28,7.44-28.05,8.54-41.19,1.48Z" fill="#eaaf92"/>
    <path d="M749.68,360.88l-2.2,1.07c.46,23.49,6,44.23,18.07,61.47,7,8.45,15.88,15.1,30.82,15.73,12.2.8,21.76-4,29.08-13.45,9.55-17.26,12.55-38.78,7.66-65.43,1.35,17.75.77,34.23-4.2,47.85-5.33,17.06-15.38,27.4-31.9,28.54-12.65-.76-22.41-6-28.54-16.79C757.89,407.26,752,387,749.68,360.88Z" fill="#eaaf92"/>
    <path d="M824.72,224.07v-3.16H754.57l-.13,2.43c-.13,2.53,3.24,4.62,7.45,4.62h56.33C821.81,228,824.72,226.22,824.72,224.07Z" fill="#fff"/>
    <rect x="740.47" y="165.97" width="25" height="10" rx="5" fill="#f6c2a0"/>
    <rect x="812.47" y="165.97" width="25" height="10" rx="5" fill="#f6c2a0"/>
    <rect x="734.47" y="148.97" width="36" height="10" rx="5" fill="#f6c2a0"/>
    <rect x="801.47" y="148.97" width="36" height="10" rx="5" fill="#f6c2a0"/>
    <g>
      <path d="M747.48,360.57s0,77.61,50.37,77.61,35.26-78.91,35.26-78.91c40.88,8.82,100.12,26.37,103.36,45.83,22.94,48.79,26,148.59,2.42,185.87-104.54,28.74-197.43,27.25-280.39,0-17.46-87.44-24.67-160.75,1-189.69C677.38,381.42,710.36,368,747.48,360.57Z" fill="#f1f2df"/>
      <path d="M891.63,602s22.07-38.62,22.07-67.16-25.18-83.95-25.18-83.95C908.93,505.55,914.1,556.84,891.63,602Z" fill="#acaf8f"/>
      <g>
        <text transform="translate(720.32 500.93)" font-size="29.47" fill="#4d511b" font-family="Sail-Regular, Sail"><tspan letter-spacing="-0.01em">K</tspan><tspan x="31.59" y="0">aysen</tspan></text>
        <text transform="translate(773.42 526.27)" font-size="29.47" fill="#737a39" font-family="Sail-Regular, Sail">Keramik</text>
        <path d="M825.45,479.3h9.94c.38-3.35.4-5.52,0-6.43-.28-1.81-1.84-2.86-4.09-3.51-2.08,1.85-3.68,1.63-4.68-1.17,2.22-1.85,3.87-1.94,4.68.59,2,.68,3.76,1.67,4.67,3.5.06-2.82.29-5.39,1.17-7-2.12-2.33-1.19-4,1.17-5.26,1.78,2,2.36,3.84-.58,5.26l-1.17,4.09a6.76,6.76,0,0,1,4.09-1.75c1.92-2.71,3.64-2.15,5.26,0-1.57,2.34-3.29,2.86-5.26.58-1.65.34-3.22.8-4.09,2.34a73.31,73.31,0,0,0,0,8.77h9.94L843,500.93H829Z" fill="#4d511b"/>
        <path d="M848.48,489.64h5.2a8.53,8.53,0,0,0,0-3.36c-.15-.95-1-1.5-2.14-1.84-1.08,1-1.92.86-2.45-.61,1.17-1,2-1,2.45.31A3.88,3.88,0,0,1,854,486a8.77,8.77,0,0,1,.61-3.67c-1.11-1.21-.63-2.07.61-2.75.93,1,1.24,2-.3,2.75l-.62,2.14a3.63,3.63,0,0,1,2.15-.92c1-1.41,1.9-1.12,2.75,0-.82,1.23-1.73,1.5-2.75.31a2.89,2.89,0,0,0-2.15,1.22,39,39,0,0,0,0,4.59h5.2L857.66,501h-7.34Z" fill="#737a39"/>
        <path d="M862.61,493.61H866a5.5,5.5,0,0,0,0-2.19c-.09-.61-.62-1-1.39-1.19-.7.63-1.25.55-1.59-.4.76-.63,1.32-.66,1.59.2a2.53,2.53,0,0,1,1.59,1.19,5.64,5.64,0,0,1,.4-2.38c-.72-.79-.41-1.35.4-1.79.6.68.8,1.31-.2,1.79l-.4,1.39a2.36,2.36,0,0,1,1.39-.6c.65-.92,1.24-.73,1.79,0-.53.8-1.12,1-1.79.2a1.86,1.86,0,0,0-1.39.8,26.93,26.93,0,0,0,0,3h3.38L868.58,501h-4.77Z" fill="#acaf8f"/>
      </g>
      <path d="M705.51,471c10.22,53.77,23.12,115.92,22.57,136h-7.46C731.76,591.35,712.46,524.47,705.51,471Z" fill="#acaf8f"/>
    </g>
  </g>
  <rect x="1239.11" y="79.38" width="181.33" height="224.98" rx="90.66" fill="#f6c2a0"/>
  <ellipse cx="1419.6" cy="188.51" rx="29.38" ry="25.18" fill="#f6c2a0"/>
  <ellipse cx="1238.27" cy="188.51" rx="29.38" ry="25.18" fill="#f6c2a0"/>
  <rect x="1283.97" y="133.1" width="21.11" height="11.75" rx="3.5" fill="#070707"/>
  <rect x="1321.38" y="185.15" width="6.72" height="6.72" rx="2" fill="#7f1313"/>
  <rect x="1334.81" y="185.15" width="6.72" height="6.72" rx="2" fill="#7f1313"/>
  <path d="M1331.46,220.59l-42-.2v.2a42,42,0,1,0,84,0Z" fill="#7f1313"/>
  <path d="M1366.72,225.67v-5.26h-70.15l-.13,4.06a7.45,7.45,0,0,0,7.45,7.68h56.33A6.49,6.49,0,0,0,1366.72,225.67Z" fill="#fff"/>
  <circle cx="1214.77" cy="53.35" r="52.89" fill="#e5d8a1"/>
  <path d="M1266,42.44s-25.19-28.54-58.77-10.07S1182,94.49,1182,94.49c9.94,9.9,11.14,9.28,20.5,10.32l64.3-42.17C1268.74,52.45,1269.72,50.77,1266,42.44Z" fill="#e2cf7f"/>
  <path d="M1303.5,89.24c3.15,3.09-48.8,46-54.31,75.77-6.11,33.06,15.11,52,15.11,52-15.9-10.52-27.37-25.75-26.87-53.72-14.08.4-25.15,7.64-28.54,28.54,4.82,13.1,13.63,21.78,30.22,21.83-1.57,11.85,4,28.24,13.44,47-6.41-10.27-26.61-20.61-37.71-26.87-14.36-8.09-18.9-26.53-24.42-42,0,0,8.4-105.78,25.19-120.89s76.56-5.87,76.56-5.87" fill="#e5d8a1"/>
  <path d="M1301.91,92.67l-21,23c39-.38,76.56,21.53,116.52,49C1389.62,147.69,1356.22,123.25,1301.91,92.67Z" fill="#eaaf92"/>
  <path d="M1224.51,210.71c5.15,2,10.1,3.26,14.6,3,.66,14.35,5,29.46,12.12,45.13-9.87-10-20.36-16.41-30.59-21.76,3.47-6.59,1.69-17.59-2.27-30.42Z" fill="#e2cf7f"/>
  <rect x="1289.48" y="149.89" width="11.75" height="21.83" rx="5.88" fill="#070707"/>
  <rect x="1358.32" y="149.89" width="11.75" height="21.83" rx="5.88" fill="#070707"/>
  <path d="M1235.76,176.76s-18.47-5-18.47,11.75,20.14,16.79,20.14,16.79Z" fill="#eaaf92"/>
  <path d="M1422,199.49s18.43,5.18,18.55-11.61-20-16.94-20-16.94Z" fill="#eaaf92"/>
  <path d="M1294.52,84.41c-3.7,6.39,85.54,55.86,99.06,73.88,16.89,22.51,6.36,63.7,36.94,85.63q20.74,9.81,40.29,11.75c-39.39-23.31-46.81-50.1-43.65-97.38,0,0-1-29.63-16.79-65.48C1382.85,30.52,1280.81,23.74,1294.52,84.41Z" fill="#e5d8a1"/>
  <rect x="1354.48" y="133.1" width="21.11" height="11.75" rx="3.5" fill="#070707"/>
  <rect x="1222.32" y="92.81" width="57.09" height="13.43" rx="4" fill="#f2e9c7"/>
  <rect x="1213.93" y="114.64" width="33.58" height="13.43" rx="4" fill="#f2e9c7"/>
  <rect x="1370.07" y="84.41" width="33.58" height="13.43" rx="4" fill="#f2e9c7"/>
  <rect x="1343.21" y="84.41" width="20.15" height="13.43" rx="4" fill="#f2e9c7"/>
  <path d="M1307,251.79c-8.11-7.34-7.15-13.76-.75-19.63H1360c4.48,6.72,2.8,13.44-1.68,20.15Z" fill="#490606"/>
  <path d="M1299,248.28h64c.35,1.06-10.09,15.38-30.14,15.29C1312,263.47,1298.59,249.63,1299,248.28Z" fill="#fff"/>
  <path d="M1308.76,297.64s.68,45.34-4.17,55.41-45.31,10.07-94,40.3-9.7,198.12-9.7,198.12h271.51s31.8-171.26,0-193.09S1359.81,358.09,1355,353.05s-5.34-52.13-5.34-52.13Z" fill="#f6c2a0"/>
  <path d="M1308.79,301.89a73.75,73.75,0,0,0,41.14-.89l0,13.57c-14.28,7.44-28,8.54-41.19,1.48Z" fill="#eaaf92"/>
  <path d="M1291.68,360.38l-2.2,1.07c.46,23.49,6,44.23,18.07,61.47,7,8.45,15.88,15.1,30.82,15.73,12.2.8,21.76-4,29.08-13.45,9.55-17.26,12.55-38.78,7.66-65.43,1.35,17.75.77,34.23-4.2,47.85-5.33,17.06-15.38,27.4-31.9,28.54-12.65-.76-22.41-6-28.54-16.79C1299.89,406.76,1294,386.45,1291.68,360.38Z" fill="#eaaf92"/>
  <path d="M1289.48,361.07s0,77.61,50.37,77.61,35.26-78.91,35.26-78.91c40.88,8.82,100.12,26.37,103.36,45.83,22.94,48.79,26,148.59,2.42,185.87-104.54,28.74-197.43,27.25-280.39,0-17.46-87.44-24.67-160.75,1-189.69C1219.38,381.92,1252.36,368.45,1289.48,361.07Z" fill="#f1f2df"/>
  <path d="M1433.63,602.47s22.07-38.62,22.07-67.16-25.18-83.95-25.18-83.95C1450.93,506.05,1456.1,557.34,1433.63,602.47Z" fill="#acaf8f"/>
  <g>
    <text transform="translate(1262.32 501.43)" font-size="29.47" fill="#4d511b" font-family="Sail-Regular, Sail"><tspan letter-spacing="-0.01em">K</tspan><tspan x="31.59" y="0">aysen</tspan></text>
    <text transform="translate(1315.42 526.77)" font-size="29.47" fill="#737a39" font-family="Sail-Regular, Sail">Keramik</text>
    <path d="M1367.45,479.8h9.94c.38-3.35.4-5.52,0-6.43-.28-1.81-1.84-2.86-4.09-3.51-2.08,1.85-3.68,1.63-4.68-1.17,2.22-1.85,3.87-1.94,4.68.59,2,.68,3.76,1.67,4.67,3.5.06-2.82.29-5.39,1.17-7-2.12-2.33-1.19-4,1.17-5.26,1.78,2,2.36,3.84-.58,5.26l-1.17,4.09a6.76,6.76,0,0,1,4.09-1.75c1.92-2.71,3.64-2.15,5.26,0-1.57,2.34-3.29,2.86-5.26.58-1.65.34-3.22.8-4.09,2.34a73.31,73.31,0,0,0,0,8.77h9.94L1385,501.43h-14Z" fill="#4d511b"/>
    <path d="M1390.48,490.14h5.2a8.53,8.53,0,0,0,0-3.36c-.15-.95-1-1.5-2.14-1.84-1.08,1-1.92.86-2.45-.61,1.17-1,2-1,2.45.31a3.88,3.88,0,0,1,2.45,1.83,8.77,8.77,0,0,1,.61-3.67c-1.11-1.21-.63-2.07.61-2.75.93,1,1.24,2-.3,2.75l-.62,2.14a3.63,3.63,0,0,1,2.15-.92c1-1.41,1.9-1.12,2.75,0-.82,1.23-1.73,1.5-2.75.31a2.89,2.89,0,0,0-2.15,1.22,39,39,0,0,0,0,4.59h5.2l-1.83,11.32h-7.34Z" fill="#737a39"/>
    <path d="M1404.61,494.11H1408a5.5,5.5,0,0,0,0-2.19c-.09-.61-.62-1-1.39-1.19-.7.63-1.25.55-1.59-.4.76-.63,1.32-.66,1.59.2a2.53,2.53,0,0,1,1.59,1.19,5.64,5.64,0,0,1,.4-2.38c-.72-.79-.41-1.35.4-1.79.6.68.8,1.31-.2,1.79l-.4,1.39a2.36,2.36,0,0,1,1.39-.6c.65-.92,1.24-.73,1.79,0-.53.8-1.12,1-1.79.2a1.86,1.86,0,0,0-1.39.8,26.93,26.93,0,0,0,0,3h3.38l-1.19,7.35h-4.77Z" fill="#acaf8f"/>
  </g>
  <path d="M1217,389c17.69,75.3,56.94,190.88,56,219l-12.85-1.53C1279.44,584.6,1229,463.93,1217,389Z" fill="#acaf8f"/>
  <polyline points="1451.25 598.88 1483.18 417.09 1458.2 597.27 1450 599" fill="#acaf8f"/>
  <path d="M1215.61,380l45,226s-61-1.94-65-12.61-29-189.14-29-189.14" fill="#f1f2df"/>
  <polygon points="1216 380 1166.56 414.69 1164.61 405.36 1216 380" fill="#acaf8f"/>
  <polygon points="1491.61 371 1541.05 405.69 1543 396.36 1491.61 371" fill="#acaf8f"/>
  <polygon points="1166.61 404.25 1143 380 1135 365 1083 335 1088 327 1134 342 1098 298 1107 289 1151 331 1117 278 1135 271 1172 324 1169 275 1185 275 1195 326 1204 330 1216 302 1227 295 1237 311 1227 321 1222 364 1216 380 1166.61 404.25" fill="#f6c2a0"/>
  <polygon points="1542.39 396.25 1566 372 1574 357 1626 327 1621 319 1575 334 1611 290 1602 281 1558 323 1592 270 1574 263 1537 316 1540 267 1524 267 1514 318 1505 322 1493 294 1482 287 1472 303 1482 313 1487 356 1493 372 1542.39 396.25" fill="#f6c2a0"/>
  <path d="M1200,338c-11.09,10.11-20.57,22.73-29,37Z" fill="#eaaf92"/>
  <path d="M1514,330c11.09,10.11,20.57,22.73,29,37Z" fill="#eaaf92"/>
</svg>
