<svg id="Layer_1" data-name="Layer 1" xmlns="http://www.w3.org/2000/svg" xmlns:xlink="http://www.w3.org/1999/xlink" width="1057" height="624" viewBox="0 0 1057 624"><defs><style>.cls-1{fill:none;}.cls-2{clip-path:url(#clip-path);}.cls-3{fill:#c91c1c;}.cls-4{fill:#e87e0c;}.cls-5{fill:#efc04d;}.cls-6{clip-path:url(#clip-path-2);}.cls-7{clip-path:url(#clip-path-3);}</style><clipPath id="clip-path"><rect class="cls-1" width="352" height="625"/></clipPath><clipPath id="clip-path-2"><rect class="cls-1" x="352.5" y="-0.5" width="352" height="625"/></clipPath><clipPath id="clip-path-3"><rect class="cls-1" x="705.5" y="-0.5" width="352" height="625"/></clipPath></defs><g class="cls-2"><path class="cls-3" d="M53,513H300s42-54,42-118-42-225-42-225-40,166-54,166S213,3,213,3s-35,226-51,227S107,86,107,86,65,347,53,351,28,250,28,250,5,338,5,397,53,513,53,513Z"/><path class="cls-4" d="M57,557H304s42-54,42-118-42-225-42-225-40,166-54,166S217,47,217,47s-35,226-51,227-55-144-55-144S69,391,57,395,32,294,32,294,9,382,9,441,57,557,57,557Z"/><path class="cls-5" d="M57,623H304s42-54,42-118-42-225-42-225-40,166-54,166-33-333-33-333-35,226-51,227-55-144-55-144S69,457,57,461,32,360,32,360,9,448,9,507,57,623,57,623Z"/></g><g class="cls-6"><path class="cls-3" d="M406,595H653s42-54,42-118-42-225-42-225-40,166-54,166S566,85,566,85s-35,226-51,227-55-144-55-144-42,261-54,265-25-101-25-101-23,88-23,147S406,595,406,595Z"/><path class="cls-4" d="M399,624l267,1s33-40,33-104-42-225-42-225-40,166-54,166-33-333-33-333-35,226-51,227-55-144-55-144-42,261-54,265-25-101-25-101-23,88-23,147S399,624,399,624Z"/><path class="cls-5" d="M364,625l328-1s4,27,4-37-42-225-42-225-40,166-54,166-33-333-33-333-35,226-51,227-55-144-55-144-42,261-54,265-25-101-25-101-23,88-23,147S364,625,364,625Z"/></g><g class="cls-7"><path class="cls-3" d="M759,709h247s42-54,42-118-42-225-42-225-40,166-54,166-33-333-33-333-35,226-51,227-55-144-55-144-42,261-54,265-25-101-25-101-23,88-23,147S759,709,759,709Z"/><path class="cls-4" d="M752,738l267,1s33-40,33-104-42-225-42-225-40,166-54,166-33-333-33-333-35,226-51,227-55-144-55-144-42,261-54,265-25-101-25-101-23,88-23,147S752,738,752,738Z"/><path class="cls-5" d="M717,739l328-1s4,27,4-37-42-225-42-225-40,166-54,166-33-333-33-333-35,226-51,227-55-144-55-144-42,261-54,265-25-101-25-101-23,88-23,147S717,739,717,739Z"/></g></svg>