<svg id="Layer_1" data-name="Layer 1" xmlns="http://www.w3.org/2000/svg" xmlns:xlink="http://www.w3.org/1999/xlink" width="1057" height="649" viewBox="0 0 1057 649"><defs><style>.cls-1{fill:none;}.cls-2{clip-path:url(#clip-path);}.cls-3{fill:#c91c1c;}.cls-4{fill:#e87e0c;}.cls-5{fill:#efc04d;}.cls-6{fill:#683123;}.cls-7{fill:#875f18;}.cls-8{clip-path:url(#clip-path-2);}.cls-9{clip-path:url(#clip-path-3);}</style><clipPath id="clip-path"><rect class="cls-1" y="0.67" width="352" height="625"/></clipPath><clipPath id="clip-path-2"><rect class="cls-1" x="353" y="-0.33" width="352" height="625"/></clipPath><clipPath id="clip-path-3"><rect class="cls-1" x="706" y="-0.33" width="352" height="625"/></clipPath></defs><g class="cls-2"><path class="cls-3" d="M53,513.67H300s42-54,42-118-42-225-42-225-40,166-54,166,0-271,0-271-68,164-84,165-55-144-55-144-42,261-54,265-25-101-25-101-23,88-23,147S53,513.67,53,513.67Z"/><path class="cls-4" d="M57,557.67H304s42-54,42-118-42-225-42-225-40,166-54,166-15-268-15-268-53,161-69,162-55-144-55-144-42,261-54,265-25-101-25-101-23,88-23,147S57,557.67,57,557.67Z"/><path class="cls-5" d="M57,623.67H304s42-54,42-118-42-225-42-225-40,166-54,166-26-275-26-275-42,168-58,169-55-144-55-144-42,261-54,265-25-101-25-101-23,88-23,147S57,623.67,57,623.67Z"/></g><circle class="cls-4" cx="44.5" cy="247.17" r="12.5"/><circle class="cls-5" cx="273.5" cy="171.17" r="12.5"/><circle class="cls-3" cx="154.5" cy="108.17" r="10.5"/><rect class="cls-6" y="572.67" width="349.8" height="75" rx="37.5"/><ellipse class="cls-7" cx="322.85" cy="610.67" rx="29.15" ry="37"/><g class="cls-8"><path class="cls-3" d="M406,512.67H653s42-54,42-118-74-108-74-108-8,49-22,49-3-253-3-253-65,146-81,147-64-95-64-95-33,212-45,216-25-101-25-101-23,88-23,147S406,512.67,406,512.67Z"/><path class="cls-4" d="M410,556.67H657s42-54,42-118-68-127-68-127-14,68-28,68-13-267-13-267-55,160-71,161-61-85-61-85-36,202-48,206-25-101-25-101-23,88-23,147S410,556.67,410,556.67Z"/><path class="cls-5" d="M410,622.67H657s42-54,42-118-58-163-58-163-24,104-38,104-29-267-29-267-39,160-55,161-50-107-50-107-47,224-59,228-25-101-25-101-23,88-23,147S410,622.67,410,622.67Z"/></g><circle class="cls-4" cx="451.5" cy="107.17" r="12.5"/><circle class="cls-4" cx="639.5" cy="259.17" r="12.5"/><circle class="cls-5" cx="535.5" cy="139.17" r="12.5"/><circle class="cls-3" cx="392.5" cy="231.17" r="10.5"/><rect class="cls-6" x="353" y="573.67" width="349.8" height="75" rx="37.5"/><ellipse class="cls-7" cx="675.85" cy="611.67" rx="29.15" ry="37"/><g class="cls-9"><path class="cls-3" d="M759,512.67h247s42-54,42-118-59-81-59-81-9,59-23,59-58-203-58-203-26,112-42,113-62-119-62-119-31,214-43,218-28-62-28-62-22,18-22,77S759,512.67,759,512.67Z"/><path class="cls-4" d="M763,556.67h247s42-54,42-118-57-98-57-98-21,67-35,67-56-207-56-207-19,121-35,122-58-126-58-126-41.26,222.85-50,232c-10,10.48-11.53-20.16-24-61,0,0-26,30-26,89S763,556.67,763,556.67Z"/><path class="cls-5" d="M763,622.67h247s42-54,42-118-51-126-51-126-31,67-45,67-58-144-58-144-15,83-31,84-47-130-47-130-45,201-57,205-28-33-28-33-20,20-20,79S763,622.67,763,622.67Z"/></g><circle class="cls-4" cx="753.5" cy="307.17" r="12.5"/><circle class="cls-5" cx="981.5" cy="242.17" r="12.5"/><circle class="cls-3" cx="831.5" cy="180.17" r="10.5"/><rect class="cls-6" x="705" y="573.67" width="349.8" height="75" rx="37.5"/><ellipse class="cls-7" cx="1027.85" cy="611.67" rx="29.15" ry="37"/></svg>