<svg id="Layer_1" data-name="Layer 1" xmlns="http://www.w3.org/2000/svg" width="237" height="205" viewBox="0 0 237 205"><defs><style>.cls-1{fill:#f6c2a0;}.cls-2{fill:#eaaf92;}</style></defs><path class="cls-1" d="M81.84,15.83,19.53,78.14a51.83,51.83,0,0,0,0,73.31l35.09,35.09a41.46,41.46,0,0,0,38.59,11.09l87.41-20,0,0a15.3,15.3,0,0,0,7.55-4.17,15.54,15.54,0,0,0,0-22,15.07,15.07,0,0,0-7.33-4.11l0,0-44-10.53,91.64-91.64a15.55,15.55,0,0,0-22-22l-44,44a15.55,15.55,0,1,0-22-22l-7.34,7.33a15.55,15.55,0,0,0-22-22l-7.33,7.33a15.55,15.55,0,1,0-22-22Z"/><path class="cls-2" d="M103.81,37.83l-7.33,7.33a5.14,5.14,0,0,1-7.33,0L108.29,26A15.17,15.17,0,0,1,103.81,37.83Z"/><path class="cls-2" d="M133.14,52.49,118.48,67.15a5.14,5.14,0,0,1-7.33,0l26.47-26.47A15.2,15.2,0,0,1,133.14,52.49Z"/><path class="cls-2" d="M162.47,67.14l-22,22a5.14,5.14,0,0,1-7.33,0l33.8-33.8A15.2,15.2,0,0,1,162.47,67.14Z"/></svg>