<svg id="Layer_1" data-name="Layer 1" xmlns="http://www.w3.org/2000/svg" width="109.08" height="198.36" viewBox="0 0 109.08 198.36">
  <path d="M7.43,95h44.9c1.71-15.13,1.81-24.9,0-29C51.06,57.79,44,53,33.84,50.09c-9.37,8.35-16.59,7.37-21.13-5.28,10.05-8.38,17.5-8.76,21.13,2.64C43,50.53,50.84,55,55,63.3c.26-12.75,1.29-24.38,5.28-31.69-9.6-10.49-5.4-17.87,5.28-23.77,8,9,10.66,17.37-2.64,23.77L57.61,50.09C63,45.53,69,42.54,76.1,42.17c8.66-12.22,16.43-9.69,23.76,0C92.77,52.78,85,55.09,76.1,44.81c-7.45,1.55-14.56,3.61-18.49,10.57a331.27,331.27,0,0,0,0,39.61h44.9L86.66,192.71H23.28Z" fill="none" stroke="#4d511b" stroke-miterlimit="10" stroke-width="5"/>
</svg>
