<svg id="Layer_1" data-name="Layer 1" xmlns="http://www.w3.org/2000/svg" width="432.89" height="391.33" viewBox="0 0 432.89 391.33">
  <path d="M13.79,187.9h89.28c3.42-30.09,3.6-49.53,0-57.77-2.52-16.22-16.53-25.69-36.76-31.52-18.63,16.61-33,14.65-42-10.5,20-16.67,34.8-17.43,42,5.25,18.26,6.12,33.81,15,42,31.51.51-25.35,2.56-48.47,10.5-63C99.74,41,108.08,26.32,129.33,14.58c16,17.93,21.2,34.55-5.25,47.27l-10.5,36.76c10.71-9.07,22.68-15,36.76-15.75,17.23-24.32,32.68-19.27,47.27,0C183.51,104,168,108.55,150.34,88.11c-14.8,3.08-28.94,7.16-36.76,21a661.49,661.49,0,0,0,0,78.78h89.28L171.35,382.22H45.3Z" fill="#4d511b"/>
  <path d="M220.69,280.84h46.73c1.78-15.75,1.88-25.93,0-30.24-1.33-8.49-8.66-13.44-19.25-16.49-9.74,8.69-17.26,7.67-22-5.5,10.45-8.72,18.21-9.12,22,2.75,9.56,3.2,17.7,7.86,22,16.49.27-13.26,1.35-25.37,5.5-33-10-10.92-5.63-18.59,5.5-24.74,8.36,9.39,11.09,18.08-2.75,24.74l-5.5,19.24c5.61-4.75,11.87-7.87,19.24-8.25,9-12.72,17.1-10.08,24.74,0-7.38,11-15.5,13.45-24.74,2.75-7.74,1.61-15.14,3.75-19.24,11a347.91,347.91,0,0,0,0,41.23h46.73L303.15,382.53h-66Z" fill="#737a39"/>
  <path d="M347.65,316.46H378c1.16-10.23,1.22-16.84,0-19.64-.86-5.52-5.63-8.74-12.5-10.72-6.33,5.65-11.22,5-14.29-3.57,6.79-5.67,11.83-5.93,14.29,1.79,6.21,2.08,11.49,5.11,14.28,10.71.18-8.62.88-16.48,3.57-21.43-6.49-7.09-3.65-12.08,3.58-16.07,5.43,6.1,7.2,11.75-1.79,16.07l-3.57,12.5a20.76,20.76,0,0,1,12.5-5.36c5.86-8.26,11.11-6.55,16.07,0-4.79,7.18-10.07,8.74-16.07,1.79-5,1.05-9.84,2.44-12.5,7.14a223.77,223.77,0,0,0,0,26.79h30.36l-10.72,66.07H358.36Z" fill="#acaf8f"/>
</svg>
