<svg xmlns="http://www.w3.org/2000/svg" xmlns:xlink="http://www.w3.org/1999/xlink" width="172" height="78" viewBox="0 0 172 78">
  <defs>
    <clipPath id="clip-path">
      <path id="K2" d="M166.39,63.58l.46.41a2.68,2.68,0,0,1-2.56,1.23c-5.09,0-3.11-6.38-5.82-6.93-.52,3.16-.82,4.88-1.1,6.62h-3.62l3.44-21.54a2.16,2.16,0,0,0-1.52,1l-.46-.41a2.78,2.78,0,0,1,2.28-1.23,2.69,2.69,0,0,1,2.93,3c0,.27,0,.58-.06.89,0,0-.7,4.35-1.52,9.4,1-2.82,3-4.43,5.51-4.43A2.4,2.4,0,0,1,167,54.14a2.17,2.17,0,0,1-2.07,2.4,1.88,1.88,0,0,1-2-2.09,2.52,2.52,0,0,1,.73-2.09c-2.1.27-3.63,2.19-4.66,4.87a4.63,4.63,0,0,1,.73-.07c5.85,0,3,7.07,5.52,7.07A1.22,1.22,0,0,0,166.39,63.58Z" fill="none"/>
    </clipPath>
    <clipPath id="clip-path-2">
      <path id="I1" d="M150.37,64.54a2.17,2.17,0,0,0,1.52-1l.46.41a2.79,2.79,0,0,1-2.29,1.23,2.68,2.68,0,0,1-2.92-2.84,29.25,29.25,0,0,1,.48-3.74l1-6.14h-1.28l.06-.62h1.31a19.12,19.12,0,0,0,3.75-.31ZM151.22,44a2.39,2.39,0,0,1,2.22,2.51A2.23,2.23,0,1,1,151.22,44Z" fill="none"/>
    </clipPath>
    <clipPath id="clip-path-3">
      <path id="M1" d="M143.3,64.54c.79,0,1.52-1,1.52-1l.46.41a2.68,2.68,0,0,1-2.56,1.23A2.49,2.49,0,0,1,140,62.41c0-2.33,1.09-6.31,1.09-8.34,0-1.09-.42-1.47-1.25-1.47-1.4,0-2.43,2.26-3.26,5.9a44.88,44.88,0,0,0-.91,6c.79,0,1.52-1,1.52-1l.46.41A2.68,2.68,0,0,1,135,65.22a2.49,2.49,0,0,1-2.77-2.81c0-2.33,1.1-6.31,1.1-8.34,0-1.09-.43-1.47-1.25-1.47-1.35,0-2.38,2.09-3.17,5.45l-1.1,6.86h-3.66l2-12.65a2.17,2.17,0,0,0-1.52,1l-.46-.41a2.8,2.8,0,0,1,2.29-1.24,2.69,2.69,0,0,1,2.92,3v.1c.67-1.78,1.68-3.12,3.6-3.12,2.25,0,3.66,1.48,3.78,4,.67-2.2,1.67-4,3.9-4s3.81,1.61,3.81,4.32C144.52,58.05,143.42,61.59,143.3,64.54Z" fill="none"/>
    </clipPath>
    <clipPath id="clip-path-4">
      <path id="A2" d="M120.32,64.54a2.19,2.19,0,0,0,1.53-1l.46.41A2.8,2.8,0,0,1,120,65.22a2.67,2.67,0,0,1-2.93-2.64c-.63,1.27-1.73,2.64-3.41,2.64-2.62,0-4.42-1.85-4.42-5.28,0-5.35,2.59-8.37,6.13-8.37a3,3,0,0,1,3,2.37c.1-.65.19-1.24.34-2.06a19.12,19.12,0,0,0,3.75-.31Zm-3.07-4c.12-.65.33-2.09.79-4.94-.12-1.64-.85-3.22-2-3.22-2.17,0-3.32,5.45-3.32,9.26,0,2.19.55,2.74,1.37,2.74C115.81,64.43,117,61.35,117.25,60.59Z" fill="none"/>
    </clipPath>
    <clipPath id="clip-path-5">
      <path id="R1" d="M97.5,52.81a2.8,2.8,0,0,1,2.29-1.24,2.69,2.69,0,0,1,2.92,3v.2c1-2.22,2.05-3.22,3.57-3.22s2.35.82,2.35,2.74c0,2.71-2.69,4.7-2.69,6.86h-.73c0-2.46,2.62-4.39,2.62-6.72,0-1.82-.73-2.09-1.55-2.09-2.53,0-4,5.35-4,5.69v0l-1.1,6.82H97.47l2-12.65a2.17,2.17,0,0,0-1.52,1Z" fill="none"/>
    </clipPath>
    <clipPath id="clip-path-6">
      <path id="E2" d="M95.68,55c0,2.91-2.59,4.39-7,4.42,0,.62-.06,1.27-.06,2,0,2.19,1,3,2.22,3,3.23,0,4.33-4,4.33-4l.55.28a5.62,5.62,0,0,1-5.55,4.52c-3.35,0-5-1.95-5-4.94,0-5.52,2.66-8.71,6.62-8.71C94.58,51.57,95.68,52.94,95.68,55Zm-6.89,3.63c4.54,0,6.12-1.47,6.12-3.63,0-1.48-.79-2.61-2.22-2.61S89.31,54.28,88.79,58.67Z" fill="none"/>
    </clipPath>
    <clipPath id="clip-path-7">
      <path id="K3" d="M56.07,52.08C56.07,47.35,58.93,44,63,44a13.18,13.18,0,0,1,5.28,1.07,16.12,16.12,0,0,0,7.07,1.34v.72a21.74,21.74,0,0,1-3.66-.24c-.15.82-.58,3.22-2.74,13.34-1.34,6.41-3.51,12.38-10.06,12.38A7.73,7.73,0,0,1,53,69.79,9.8,9.8,0,0,1,51.19,63l.67.1a8.63,8.63,0,0,0,1.62,6.18,6.11,6.11,0,0,0,4.87,2.26c4,0,4.94-2.61,6.13-7.89C66.7,53.18,68,47.35,68.29,46l-.22-.11A11.77,11.77,0,0,0,63,44.78c-3.71,0-6.27,3-6.27,7.3Zm30.26-10c0,3.78-2.59,7.38-2.59,10.6h-.68c0-2.36,1.1-4.49,1.86-6.79-4,.28-7.28,4-9.72,7.51-.88,1.24-1.52,2.2-2,2.95,5.46,12.8,6.43,14.51,8.56,14.51a3,3,0,0,0,2.75-2.47h.76A4.41,4.41,0,0,1,80.48,72c-3.33,0-5.22-1.85-6.62-5.18l-3.35-8,4.36-6.38c2.5-3.67,5.76-7.24,10.3-7.37a10.64,10.64,0,0,0,.45-3Z" fill="none"/>
    </clipPath>
    <clipPath id="clip-path-8">
      <path id="A1" d="M46.23,29.07a2.19,2.19,0,0,0,1.53-1l.45.41a2.78,2.78,0,0,1-2.28,1.23A2.66,2.66,0,0,1,43,27.11c-.64,1.27-1.73,2.64-3.41,2.64-2.62,0-4.42-1.85-4.42-5.28,0-5.35,2.59-8.37,6.13-8.37a3,3,0,0,1,3,2.37c.09-.65.18-1.24.34-2.06a19.07,19.07,0,0,0,3.74-.31Zm-3.08-3.95c.13-.65.34-2.09.8-4.94-.13-1.64-.86-3.22-2-3.22-2.17,0-3.33,5.45-3.33,9.26,0,2.2.55,2.74,1.38,2.74C41.72,29,42.91,25.88,43.15,25.12Z" fill="none"/>
    </clipPath>
    <clipPath id="clip-path-9">
      <path id="E1" d="M86.3,19.57c0,2.91-2.59,4.39-7,4.42,0,.62-.06,1.27-.06,2,0,2.19,1,3,2.22,3,3.23,0,4.33-4,4.33-4l.55.28a5.6,5.6,0,0,1-5.55,4.52c-3.35,0-5-1.95-5-4.94,0-5.52,2.65-8.71,6.61-8.71C85.2,16.1,86.3,17.47,86.3,19.57ZM79.41,23.2c4.54,0,6.13-1.47,6.13-3.63,0-1.48-.8-2.61-2.23-2.61C81.73,17,79.93,18.81,79.41,23.2Z" fill="none"/>
    </clipPath>
    <clipPath id="clip-path-10">
      <path id="N1" d="M99.73,29.07c.8,0,1.53-1,1.53-1l.45.41a2.67,2.67,0,0,1-2.56,1.23,2.5,2.5,0,0,1-2.77-2.81c0-2.33,1.1-6.31,1.1-8.33,0-1.1-.43-1.48-1.25-1.48-1.34,0-2.65,2.13-3.47,5.52l-1,6.42a2.21,2.21,0,0,0,1.55-1l.46.41a2.78,2.78,0,0,1-2.28,1.23,2.69,2.69,0,0,1-2.93-2.84A28.25,28.25,0,0,1,89,23.13l1-6.34a2.17,2.17,0,0,0-1.52,1L88,17.34a2.8,2.8,0,0,1,2.29-1.24,2.69,2.69,0,0,1,2.92,3v.21c.7-1.82,1.8-3.23,3.9-3.23,2.38,0,3.81,1.61,3.81,4.32C101,22.58,99.86,26.12,99.73,29.07Z" fill="none"/>
    </clipPath>
    <clipPath id="clip-path-11">
      <path id="S1" d="M70.51,23.85a33.26,33.26,0,0,0-.7-5,7.57,7.57,0,0,1-4.17,2.6v-.82a8.49,8.49,0,0,0,4.11-2.81v-.14a6.08,6.08,0,0,1,.86-3.16h.73c0,4.53,2.74,5.05,2.74,9.57a5.54,5.54,0,0,1-5.76,5.66c-2.92,0-4.42-1.95-4.42-4S65.12,23,66.16,23a2.17,2.17,0,0,1,2.1,2.37,2.27,2.27,0,0,1-2.07,2.5,2.22,2.22,0,0,1-.83-.14,2.44,2.44,0,0,0,2.14,1.1C69.63,28.86,70.51,27.15,70.51,23.85Z" fill="none"/>
    </clipPath>
    <clipPath id="clip-path-12">
      <path id="Y1" d="M51.81,16.79c-.8,0-1.53,1-1.53,1l-.45-.41a2.66,2.66,0,0,1,2.56-1.24,2.51,2.51,0,0,1,2.77,2.82c0,2.33-1.16,5.59-1.16,7.61,0,1.1.4,1.65,1.22,1.65,1.34,0,2.71-2.23,3.53-5.7l1-6.07a18.07,18.07,0,0,0,3.69-.31L61.53,28.25c-.73,4.63-3.42,7.51-7.71,7.51-2.59,0-4-1.07-4-2.82a2.33,2.33,0,0,1,2.65-2.43c1.73,0,2.16.72,3.44.92l-.06.62c-1.28-.13-1.74-.89-3.38-.89-1.41,0-2,.79-2,1.72,0,1.5,1.43,2.19,3.07,2.19,2.56,0,3.51-2,3.9-4.29l.77-4.73c-.74,1.82-1.83,3.16-3.87,3.16-2.38,0-3.69-1.62-3.69-4.33C50.62,22.72,51.69,19.74,51.81,16.79Z" fill="none"/>
    </clipPath>
    <clipPath id="clip-path-13">
      <path id="K1" d="M6.23,16.62c0-4.74,2.86-8.06,6.94-8.06a13.2,13.2,0,0,1,5.28,1.06A16.1,16.1,0,0,0,25.51,11v.72a21.69,21.69,0,0,1-3.65-.24c-.15.82-.58,3.22-2.74,13.34-1.35,6.41-3.51,12.38-10.06,12.38a7.73,7.73,0,0,1-5.91-2.84,9.79,9.79,0,0,1-1.8-6.83l.67.1a8.63,8.63,0,0,0,1.62,6.18A6.11,6.11,0,0,0,8.51,36c4,0,4.94-2.61,6.13-7.89,2.22-10.43,3.5-16.26,3.81-17.66l-.22-.11a11.77,11.77,0,0,0-5.06-1.06c-3.71,0-6.27,3-6.27,7.31Zm30.25-10c0,3.78-2.59,7.38-2.59,10.6h-.67c0-2.36,1.1-4.49,1.86-6.79-4,.28-7.28,4-9.72,7.51-.88,1.24-1.52,2.2-2,2.95,5.46,12.8,6.43,14.51,8.56,14.51a3,3,0,0,0,2.75-2.47h.76c-.58,2.13-1.89,3.57-4.79,3.57-3.32,0-5.21-1.85-6.61-5.18l-3.35-8L25,17c2.5-3.67,5.76-7.23,10.3-7.37a10.64,10.64,0,0,0,.45-3Z" fill="none"/>
    </clipPath>
  </defs>
  <g id="Layer_3" data-name="Layer 3">
    <g id="K2_GROUP">
      <g clip-path="url(#clip-path)">
        <path id="K2_2_PATH" d="M157.5,57.5l5,2,1,5h0a4.62,4.62,0,0,0,4-1" fill="none" stroke="#4d511b" stroke-miterlimit="10" stroke-width="5"/>
        <path id="K2_1_PATH" d="M155.5,44.5c1-1.79,2-1.81,3,0l-3,21a68.59,68.59,0,0,1,2.85-7.94,2.29,2.29,0,0,1,.1-.23c1.33-2.93,2.77-5,4.36-5.54l2.69.71-1,3" fill="none" stroke="#4d511b" stroke-miterlimit="10" stroke-width="20"/>
      </g>
    </g>
    <g id="I_GROUP">
      <g clip-path="url(#clip-path-2)">
        <path id="I2_PATH" d="M151.5,45.5s1-1,1,1-1,2-1,2h0C150,47.09,149.68,46,151.5,45.5Z" fill="none" stroke="#4d511b" stroke-miterlimit="10" stroke-width="5"/>
        <path id="I1_PATH" d="M147,52h4l-2,12c1,1.48,2.18.86,3.5-.5" fill="none" stroke="#4d511b" stroke-miterlimit="10" stroke-width="5"/>
      </g>
    </g>
    <g id="M_GROUP">
      <g clip-path="url(#clip-path-3)">
        <path id="M_PATH" d="M124,53c1.78-1.17,3.24-1.5,4,0l-1.5,11.5c2.39-8.35,4.91-14.77,8-12v12c1,.55,2,.24,3-1-1.75,1.78-3,1.57-4,0h0c2.87-8,5.36-12.94,7-11,2.36.19,3.27,2.5,2,8v4h0c1,.71,2,.22,3-1h0" fill="none" stroke="#4d511b" stroke-miterlimit="10" stroke-width="20"/>
      </g>
    </g>
    <g id="A2_GROUP">
      <g clip-path="url(#clip-path-4)">
        <path id="A2_PATH" d="M119.5,54.5h0c-2.06-2.84-4.35-3.51-7-1A12.69,12.69,0,0,0,112,64c1.7,2,3.76.39,6-3h0a30.72,30.72,0,0,0,2.79-9.21L119,64c.44,1.7,2,.75,4-1" fill="none" stroke="#4d511b" stroke-miterlimit="10" stroke-width="10"/>
      </g>
    </g>
    <g id="R_GROUP">
      <g clip-path="url(#clip-path-5)">
        <path id="R_PATH" d="M97.5,53.5c1.33-2,2.67-2,4,0l-3,11c4-9.45,7-15,8-12.13,1.13-.2,1.87.36,2,2.13l-3,7h0" fill="none" stroke="#4d511b" stroke-miterlimit="10" stroke-width="21"/>
      </g>
    </g>
    <g id="E2_GROUP">
      <g clip-path="url(#clip-path-6)">
        <path id="E2_PATH" d="M87,59q7.59,1,8.67-4.3-3.84-7.25-8.17,2.8h0a9.83,9.83,0,0,0,1,7c4.27.78,6.72-.75,7-5h0" fill="none" stroke="#4d511b" stroke-miterlimit="10" stroke-width="5"/>
      </g>
    </g>
    <g id="K2_GROUP-2" data-name="K2_GROUP">
      <g clip-path="url(#clip-path-7)">
        <path id="K2_1_PATH-2" data-name="K2_1_PATH" d="M56,52h0c2.43-7.16,5.93-9.06,10.29-6.8l9.21,1.3h-5l-7,24c-7.61,3.76-11.69,1.25-12-8" fill="none" stroke="#4d511b" stroke-miterlimit="10" stroke-width="6"/>
        <path id="K2_2_PATH-2" data-name="K2_2_PATH" d="M86.5,41.5l-3,12h0l3-8C83.22,45,80.07,46.62,77,50.24l-.53.26-5,8h0l7,12h0c3.44,2.16,5.54.5,7-3" fill="none" stroke="#4d511b" stroke-miterlimit="10" stroke-width="6"/>
      </g>
    </g>
    <g id="A1_GROUP">
      <g clip-path="url(#clip-path-8)">
        <path id="A1_PATH" d="M45.5,20.5c-1.5-3.27-4.45-4.89-7-2a8.94,8.94,0,0,0-2,7c.75,3.51,2.27,4.92,5,3h0a22.79,22.79,0,0,0,5-11l-1,11c-.25,1.1.49,1.2,2.54,0h.46" fill="none" stroke="#4d511b" stroke-miterlimit="10" stroke-width="10"/>
      </g>
    </g>
    <g id="E1_GROUP">
      <g clip-path="url(#clip-path-9)">
        <path id="E1_PATH" d="M77.5,23.5c5.31.05,8.63-.94,8-4h0c.24-3.44-1.73-3.67-5-2a8.86,8.86,0,0,0-3,6c0,3.08.9,5.21,3,6,3.08.16,4.87-1.86,6-5" fill="none" stroke="#4d511b" stroke-miterlimit="10" stroke-width="5"/>
      </g>
    </g>
    <g id="N_GROUP">
      <g clip-path="url(#clip-path-10)">
        <path id="N_PATH" d="M88.5,17.5h0a1.94,1.94,0,0,1,3,0,38.89,38.89,0,0,0-1,11h0c.81,1.48,1.89.83,3,0h0c-3.49,1.89-4.48-.13-3-6,3.89-5.37,6.76-7.67,8-5a14.68,14.68,0,0,1,0,8h0c-.57,1.56-.84,3,0,4,2.33-.21,3.28-.89,3-2h0" fill="none" stroke="#4d511b" stroke-miterlimit="10" stroke-width="8"/>
      </g>
    </g>
    <g id="S_GROUP">
      <g clip-path="url(#clip-path-11)">
        <path id="S_PATH" d="M65.64,21c3.93-1.59,5.73-3.71,4.86-6.5,0,0,3,8,2,11a6.83,6.83,0,0,1-4,4,3.86,3.86,0,0,1-4-3l1-2,2,1h0l-1,1h0" fill="none" stroke="#4d511b" stroke-miterlimit="10" stroke-width="7"/>
      </g>
    </g>
    <g id="Y_GROUP">
      <g clip-path="url(#clip-path-12)">
        <path id="Y_PATH" d="M50,17c1.71-.88,3.1-.73,4,1l-1.5,9.5c2.26,2.61,4.17.82,6-2h0l3-9-3,16h0c-1,1.89-2.74,3.19-5.94,3.16-1.67-.33-2.78-1.32-2.46-4a5.57,5.57,0,0,1,5.4-.17" fill="none" stroke="#4d511b" stroke-miterlimit="10" stroke-width="25"/>
      </g>
    </g>
    <g id="K1_GROUP">
      <g clip-path="url(#clip-path-13)">
        <path id="K1_PATH" d="M6.52,16.62q.87-7.55,7-8.12l7,2-6,22h0c-5.19,7.73-11.66,4.61-13-5h0" fill="none" stroke="#4d511b" stroke-miterlimit="10" stroke-width="5"/>
        <line id="K2_PATH" x1="25.51" y1="11.15" x2="20.5" y2="10.5" fill="none" stroke="#4d511b" stroke-miterlimit="10" stroke-width="2"/>
        <path id="K3_PATH" d="M36.07,6.63l-2.63,10.6L35.38,10l.12-.46c-4.31.5-8.8,4.32-13.57,13.57l-.43.43,8,12c3.13,1.21,4.64-.06,5.35-2.56" fill="none" stroke="#4d511b" stroke-miterlimit="10" stroke-width="5"/>
      </g>
    </g>
  </g>
</svg>
