<svg id="Layer_1" data-name="Layer 1" xmlns="http://www.w3.org/2000/svg" width="449.78" height="494.22" viewBox="0 0 449.78 494.22">
  <g>
    <path d="M224.39,126.22a279,279,0,0,0-12.57-43.15,22.16,22.16,0,0,0-7.28-4.32l-4,.63c-1.23,5.2-4.34,6.8-9,5.41.68-3.51,2.52-6.3,8.56-6.48a10,10,0,0,0,3.56-.42L190.4,73.5c-7.53,3.59-13,1.49-17.1-4.49,5.71-2.26,11.32-2.19,16.71,3.56l10.29,3-1.91-3.85c-5.49-2.7-6.68-6.57-4.56-11.35,4.18.95,7.24,3.18,5.8,10.52-.11,1.74,1,3.44,2.38,5.14l8.36,3.23a83.79,83.79,0,0,0-16.91-27.8,40.09,40.09,0,0,0-7.83-.77c-5.19,6.52-9.71,7.59-13.46,2.52,1.23-5.4,4.91-7.66,13.13-4.1,1.64.65,4.25.71,7,.69l-9-8.5c-8.74.27-12.11-2.91-12.77-7.82,4.84-4,9.43-4.31,13.26,6.8A89.36,89.36,0,0,1,199.28,54.9l3-16.38C196,33.39,196,28.3,199.14,23.23c6.21,3.3,8.92,7.74,4.24,14.63l-1.55,9.78L206.92,45c2.35-5.17,6.17-7,12.07-4.11-1,6-4.63,8.27-11.72,5.4-1.54.18-3.61,1.92-5.65,3.58l-1.16,6.83c6.8,9.51,12.35,19.58,15.46,30.74,1.41-3.82,1.46-8.21.71-13-5.18-4.24-6.43-9.34-5.47-14.9,6,1.64,8.24,6.18,6.54,13.85l.19,7.74L222.76,69c.76-5.44,3.58-9.88,8.18-13.46,3.24,4.75,1.12,9.58-7.32,14.51l-3.56,7.74,6.42-1.59c1.71-4.77,5.12-7.12,10.5-6.66-1,5.32-3.92,8.08-9.59,7.24l-7.67,2.52-2.86,10.32,10.07,34.65Z" fill="#4d511b"/>
    <polyline points="122.34 408.59 173.91 457.22 278.69 457.22 331.82 404.09" fill="none" stroke="#4d511b" stroke-miterlimit="10" stroke-width="11"/>
    <polyline points="93.05 264.74 68.24 286.83 68.24 307.72" fill="none" stroke="#4d511b" stroke-miterlimit="10" stroke-width="11"/>
    <polyline points="356.1 264.74 380.91 286.83 380.91 307.72" fill="none" stroke="#4d511b" stroke-miterlimit="10" stroke-width="11"/>
    <polyline points="286.84 203.7 272.02 188.89 272.02 126.22 180.02 126.22 180.02 186.67 163.42 201.46" fill="none" stroke="#4d511b" stroke-miterlimit="10" stroke-width="11"/>
    <g>
      <path d="M117.26,239.45l-7.65,7.77V258h-6V216.2h6v23.37l22.71-23.37h6.81L121.26,235l19,23h-7Z" fill="#4d511b"/>
      <path d="M174.4,247.58H152.16L147.56,258H141.4l18.95-41.84h5.92l19,41.84H179Zm-2.1-4.78-9-20.5-9,20.5Z" fill="#4d511b"/>
      <path d="M207.81,243.58V258h-5.92V243.46L185.27,216.2h6.4l13.39,22.06L218.5,216.2h5.92Z" fill="#4d511b"/>
      <path d="M228.54,253.26l2.22-4.66c3.1,2.81,8.42,4.84,13.8,4.84,7.23,0,10.34-2.81,10.34-6.46,0-10.22-25.34-3.76-25.34-19.3,0-6.46,5-12,16-12,4.9,0,10,1.31,13.45,3.7l-2,4.78a21.59,21.59,0,0,0-11.47-3.4c-7.11,0-10.16,3-10.16,6.63,0,10.22,25.34,3.83,25.34,19.19,0,6.39-5.14,11.89-16.2,11.89C238.17,258.52,231.89,256.37,228.54,253.26Z" fill="#4d511b"/>
      <path d="M302.66,252.84V258H272.29V216.2h29.53v5.2H278.27v12.85h21v5.08h-21v13.51Z" fill="#4d511b"/>
      <path d="M351.13,216.2V258h-4.9l-25.11-31.2V258h-6V216.2h4.9l25.1,31.2V216.2Z" fill="#4d511b"/>
    </g>
    <g>
      <path d="M71.36,354.25l-8.51,8.66v12H56.19V328.37h6.66v26l25.28-26h7.59l-19.9,21L97,375H89.2Z" fill="#4d511b"/>
      <path d="M143,369.16V375h-33.8V328.37H142.1v5.79H115.88v14.31h23.36v5.65H115.88v15Z" fill="#4d511b"/>
      <path d="M190.14,375l-10-14.31c-.93.07-1.93.14-2.92.14H165.65V375H159V328.37h18.17c12.11,0,19.43,6.12,19.43,16.24,0,7.18-3.73,12.37-10.25,14.7L197.4,375Zm-.2-30.34c0-6.66-4.45-10.45-13-10.45H165.65v21H177C185.49,355.12,189.94,351.26,189.94,344.61Z" fill="#4d511b"/>
      <path d="M242.25,363.3H217.49L212.37,375h-6.86l21.1-46.58h6.59L254.36,375h-7ZM239.92,358l-10-22.82L219.82,358Z" fill="#4d511b"/>
      <path d="M309.65,375,309.59,341l-16.84,28.28h-3.06l-16.83-28.08V375h-6.39V328.37h5.45l19.44,32.74,19.16-32.74H316L316,375Z" fill="#4d511b"/>
      <path d="M335.21,328.37h6.65V375h-6.65Z" fill="#4d511b"/>
      <path d="M376.2,354.25l-8.52,8.66v12H361V328.37h6.65v26l25.29-26h7.58l-19.89,21L401.82,375H394Z" fill="#4d511b"/>
    </g>
  </g>
</svg>
