<svg id="Layer_1" data-name="Layer 1" xmlns="http://www.w3.org/2000/svg" width="193.19" height="184.87" viewBox="0 0 193.19 184.87">
  <path d="M99.73,129.59c-1.21-22.59-2.44-26.37-6.51-44.81a30.81,30.81,0,0,0-9-7.53l-5.68,0c-2.83,6.86-7.45,8.36-13.55,5.42,1.7-4.66,4.84-8.07,13.15-7a13.68,13.68,0,0,0,5,.21L66,66.93C54.88,70.2,47.83,66.11,43.55,57c8.32-1.84,16-.5,22.11,8.57L79.1,71.91l-1.77-5.69c-6.93-4.91-7.7-10.48-3.75-16.56,5.52,2.23,9.22,6,5.63,15.7-.54,2.35.67,4.94,2.13,7.56L92.08,79.2C88.87,63.81,83.4,49.74,75,37.38a55.34,55.34,0,0,0-10.56-2.79c-8.55,7.78-15,8.25-19,.49,2.88-7.13,8.42-9.42,18.89-2.72,2.11,1.25,5.67,1.91,9.4,2.48L63.34,21.21c-12-1.56-16-6.65-15.77-13.53C55.1,3.21,61.44,3.85,64.23,19.93c6.11,6.57,12.17,13.33,18,23.49l7.68-21.79C82.53,13.22,83.61,6.24,89.05,0c7.77,5.88,10.52,12.57,2.58,21L87.35,34l7.56-2.55c4.36-6.56,10-8.22,17.45-3-2.75,8-8.18,10.3-17.25,4.8C93,33.24,89.74,35.16,86.57,37l-3.09,9.09c7.21,14.54,12.59,29.56,14.4,45.53,2.77-4.92,3.81-10.92,3.82-17.58-6.16-7-6.74-14.21-4.19-21.62,7.79,3.56,9.91,10.28,5.89,20.42L102,83.47l9.35-15.57c2.25-7.29,7.09-12.75,14.18-16.64,3.38,7.23-.59,13.38-13.23,18.27l-6.59,9.82,9.15-.77c3.4-6.15,8.58-8.62,15.85-6.8-2.53,7.06-7.15,10.2-14.74,7.81l-11.06,1.75L98.68,94.85,103,129.42Z" fill="#4d511b"/>
  <path d="M96.09,184.87a47.78,47.78,0,0,1-19-3.93L48.24,168.41a109.29,109.29,0,0,0-32.75-8.53L6,158.93a3,3,0,0,1-2.75-3V126.23a3.09,3.09,0,0,1,.61-1.83c.71-.94,17.67-23.09,43.57-17.33A110,110,0,0,1,81,120.88a33.93,33.93,0,0,0,17.9,5h28.81a13.85,13.85,0,0,1,11.77,6.57l24.81-28.59a26.32,26.32,0,0,1,20.92-10.35h1.85a3,3,0,0,1,2.79,4.27l-22.44,51a40,40,0,0,1-26.72,22.53l-3.95,1-23,9.19A47.92,47.92,0,0,1,96.09,184.87ZM9.38,153.15l6.71.67a115.4,115.4,0,0,1,34.58,9l28.81,12.52a41.86,41.86,0,0,0,32.06.48l23.16-9.26a3,3,0,0,1,.39-.13l4.15-1a33.81,33.81,0,0,0,22.62-19.08l20.47-46.51a20.3,20.3,0,0,0-13.27,7.88l-27.49,31.67c0,.12,0,.24,0,.36a13.86,13.86,0,0,1-13.84,13.84H87.55A48.52,48.52,0,0,0,72.2,156l-1.12-2.84-.94-2.89.15-.05a54.59,54.59,0,0,1,17.26-2.8h40.19a7.75,7.75,0,1,0,0-15.49H98.93a40,40,0,0,1-21.11-5.92,104.12,104.12,0,0,0-31.68-13c-19.61-4.35-33.73,10.7-36.76,14.29v25.85Z" fill="#4d511b"/>
</svg>
