<svg id="Layer_1" data-name="Layer 1" xmlns="http://www.w3.org/2000/svg" width="144" height="141" viewBox="0 0 144 141">
  <circle cx="67.76" cy="73.24" r="67.5" fill="#4d511b"/>
  <g>
    <path d="M61,51.55A44.13,44.13,0,0,1,50.18,40.84l-2.51-3.76a2.18,2.18,0,0,0-4,1.21V72.42a8.56,8.56,0,0,0-4.35-1.21A8.71,8.71,0,1,0,48,79.91V45.43a53.36,53.36,0,0,0,10.37,9.63,6.53,6.53,0,0,1-3.85,11.8,2.18,2.18,0,0,0,0,4.35A10.88,10.88,0,0,0,61,51.55Z" fill="#fff"/>
    <path d="M102.12,53.89l-30.75,8.7a2.19,2.19,0,0,0-1.58,2.1V94.18A8.58,8.58,0,0,0,65.44,93a8.7,8.7,0,1,0,8.7,8.7V75l26.4-7.46V85.48a8.58,8.58,0,0,0-4.35-1.21,8.7,8.7,0,1,0,8.7,8.7V56A2.18,2.18,0,0,0,102.12,53.89Z" fill="#fff"/>
  </g>
</svg>
