<svg id="Layer_1" data-name="Layer 1" xmlns="http://www.w3.org/2000/svg" width="131" height="55.07" viewBox="0 0 131 55.07">
  <rect x="-0.49" y="-0.4" width="131.48" height="56" fill="#4d511b"/>
  <g>
    <g>
      <path d="M46.67,11.66a18.58,18.58,0,0,1-4.51-4.47l-1-1.57a.93.93,0,0,0-1-.37.91.91,0,0,0-.65.87V20.36a3.59,3.59,0,0,0-1.81-.51,3.63,3.63,0,1,0,3.63,3.63V9.1a22.2,22.2,0,0,0,4.33,4,2.69,2.69,0,0,1,1.11,2.2A2.72,2.72,0,0,1,44,18a.91.91,0,1,0,0,1.81,4.53,4.53,0,0,0,2.68-8.19Z" fill="#fff"/>
      <path d="M63.82,12.63,51,16.26a.91.91,0,0,0-.66.87v12.3a3.59,3.59,0,0,0-1.81-.5,3.63,3.63,0,1,0,3.63,3.63V21.45l11-3.12V25.8A3.62,3.62,0,1,0,65,28.93V13.5A.9.9,0,0,0,63.82,12.63Z" fill="#fff"/>
    </g>
    <text transform="translate(66.16 45.2)" font-size="18.36" fill="#fff" font-family="Montserrat-Light, Montserrat" font-weight="300">OFF</text>
  </g>
</svg>
