<svg id="Layer_1" data-name="Layer 1" xmlns="http://www.w3.org/2000/svg" width="63" height="36" viewBox="0 0 63 36">
  <g>
    <g>
      <path d="M11.28,5.56a16.68,16.68,0,0,1-4-4L6.33.18A.81.81,0,0,0,4.85.63V13.31a3.18,3.18,0,0,0-1.62-.45A3.24,3.24,0,1,0,6.47,16.1V3.28a19.72,19.72,0,0,0,3.85,3.58,2.39,2.39,0,0,1,1,2,2.42,2.42,0,0,1-2.43,2.42.81.81,0,1,0,0,1.62,4,4,0,0,0,2.39-7.3Z" fill="#4d511b"/>
      <path d="M26.57,6.42,15.14,9.66a.81.81,0,0,0-.59.78v11A3.17,3.17,0,0,0,12.94,21a3.23,3.23,0,1,0,3.23,3.23v-9.9L26,11.51v6.65a3.2,3.2,0,0,0-1.62-.45A3.24,3.24,0,1,0,27.6,21V7.2A.82.82,0,0,0,26.57,6.42Z" fill="#4d511b"/>
    </g>
    <text transform="translate(28.64 35.45)" font-size="16.36" fill="#4d511b" font-family="Montserrat-Light, Montserrat" font-weight="300">OFF</text>
  </g>
</svg>
