<svg id="Layer_1" data-name="Layer 1" xmlns="http://www.w3.org/2000/svg" width="131" height="50.07" viewBox="0 0 131 50.07">
  <rect x="0.02" width="131.48" height="50" fill="#4d511b"/>
  <g>
    <g>
      <path d="M48,11.89A14.4,14.4,0,0,1,44.5,8.4l-.82-1.23a.72.72,0,0,0-.8-.28.7.7,0,0,0-.5.67V18.69a2.83,2.83,0,1,0,1.42,2.44V9.89A17,17,0,0,0,47.18,13a2.13,2.13,0,0,1-1.26,3.85.71.71,0,0,0,0,1.42A3.55,3.55,0,0,0,48,11.89Z" fill="#fff"/>
      <path d="M61.43,12.65l-10,2.84a.7.7,0,0,0-.51.68v9.61a2.83,2.83,0,1,0,1.42,2.45V19.54l8.6-2.43V23a2.76,2.76,0,0,0-1.42-.4,2.84,2.84,0,1,0,2.84,2.84V13.33A.71.71,0,0,0,61.43,12.65Z" fill="#fff"/>
    </g>
    <text transform="translate(63.25 38.11)" font-size="14.35" fill="#fff" font-family="Montserrat-Light, Montserrat" font-weight="300">OFF</text>
  </g>
</svg>
