<svg id="Layer_1" data-name="Layer 1" xmlns="http://www.w3.org/2000/svg" width="131" height="50.07" viewBox="0 0 131 50.07">
  <rect x="0.07" y="-0.14" width="131.48" height="50" fill="#4d511b"/>
  <g>
    <g>
      <path d="M51.29,11.39A14.61,14.61,0,0,1,47.76,7.9L47,6.67a.72.72,0,0,0-.8-.28.7.7,0,0,0-.5.67V18.19a2.83,2.83,0,1,0,1.42,2.44V9.39a17,17,0,0,0,3.38,3.14,2.13,2.13,0,0,1-1.26,3.85.71.71,0,0,0,0,1.42,3.55,3.55,0,0,0,2.1-6.41Z" fill="#fff"/>
      <path d="M64.7,12.15,54.67,15a.71.71,0,0,0-.51.68v9.61a2.83,2.83,0,1,0,1.42,2.45V19l8.6-2.43v5.84a2.76,2.76,0,0,0-1.42-.4,2.84,2.84,0,1,0,2.84,2.84V12.83A.71.71,0,0,0,64.7,12.15Z" fill="#fff"/>
    </g>
    <text transform="translate(66.52 37.61)" font-size="14.35" fill="#fff" font-family="Montserrat-Light, Montserrat" font-weight="300">ON</text>
  </g>
</svg>
