<svg id="Layer_1" data-name="Layer 1" xmlns="http://www.w3.org/2000/svg" width="138" height="136" viewBox="0 0 138 136">
  <circle cx="68.65" cy="67.58" r="67.5" fill="#4d511b"/>
  <g>
    <path d="M40.47,47.77a22.7,22.7,0,0,1-5.6-5.55l-1.3-1.95a1.13,1.13,0,0,0-2.07.63V58.58A4.42,4.42,0,0,0,29.25,58a4.51,4.51,0,1,0,4.51,4.5V44.6a27.69,27.69,0,0,0,5.37,5,3.38,3.38,0,0,1-2,6.11,1.13,1.13,0,1,0,0,2.26,5.64,5.64,0,0,0,3.33-10.19Z" fill="#fff"/>
    <path d="M61.77,49,45.84,53.49A1.13,1.13,0,0,0,45,54.57V69.85a4.5,4.5,0,1,0,2.25,3.88V59.93L61,56.07v9.28a4.46,4.46,0,0,0-2.26-.63,4.51,4.51,0,1,0,4.51,4.51V50.07A1.13,1.13,0,0,0,61.77,49Z" fill="#fff"/>
  </g>
  <g>
    <path d="M69.26,75.28c0-6.12,4.68-10.68,11-10.68s11,4.53,11,10.68S86.6,86,80.3,86,69.26,81.4,69.26,75.28Zm19.83,0A8.82,8.82,0,1,0,80.3,84,8.51,8.51,0,0,0,89.09,75.28Z" fill="#fff"/>
    <path d="M98.51,66.7V75h10.86v1.92H98.51v8.91H96.29v-21h14.4V66.7Z" fill="#fff"/>
    <path d="M117.5,66.7V75h10.86v1.92H117.5v8.91h-2.22v-21h14.4V66.7Z" fill="#fff"/>
  </g>
</svg>
