<svg id="Layer_1" data-name="Layer 1" xmlns="http://www.w3.org/2000/svg" width="138" height="136" viewBox="0 0 138 136">
  <circle cx="68.65" cy="68.58" r="67.5" fill="#4d511b"/>
  <g>
    <path d="M40.47,48.77a22.7,22.7,0,0,1-5.6-5.55l-1.3-1.95a1.13,1.13,0,0,0-2.07.63V59.58A4.42,4.42,0,0,0,29.25,59a4.51,4.51,0,1,0,4.51,4.5V45.6a27.69,27.69,0,0,0,5.37,5,3.38,3.38,0,0,1-2,6.11,1.13,1.13,0,1,0,0,2.26,5.64,5.64,0,0,0,3.33-10.19Z" fill="#fff"/>
    <path d="M61.77,50,45.84,54.49A1.13,1.13,0,0,0,45,55.57V70.85a4.5,4.5,0,1,0,2.25,3.88V60.93L61,57.07v9.28a4.46,4.46,0,0,0-2.26-.63,4.51,4.51,0,1,0,4.51,4.51V51.07A1.13,1.13,0,0,0,61.77,50Z" fill="#fff"/>
  </g>
  <g>
    <path d="M69.26,76.28c0-6.12,4.68-10.68,11-10.68s11,4.53,11,10.68S86.6,87,80.3,87,69.26,82.4,69.26,76.28Zm19.83,0A8.82,8.82,0,1,0,80.3,85,8.51,8.51,0,0,0,89.09,76.28Z" fill="#fff"/>
    <path d="M113.84,65.78v21H112l-13.5-17v17H96.29v-21h1.83l13.53,17v-17Z" fill="#fff"/>
  </g>
</svg>
