<svg id="Layer_1" data-name="Layer 1" xmlns="http://www.w3.org/2000/svg" width="144" height="141" viewBox="0 0 144 141">
  <circle cx="67.76" cy="73.74" r="67.5" fill="#4d511b"/>
  <g>
    <path d="M61,53.05A44.13,44.13,0,0,1,50.18,42.34l-2.51-3.76a2.18,2.18,0,0,0-4,1.21V73.92a8.56,8.56,0,0,0-4.35-1.21A8.71,8.71,0,1,0,48,81.41V46.93a53.36,53.36,0,0,0,10.37,9.63,6.53,6.53,0,0,1-3.85,11.8,2.18,2.18,0,0,0,0,4.35A10.88,10.88,0,0,0,61,53.05Z" fill="#fff"/>
    <path d="M102.12,55.39l-30.75,8.7a2.19,2.19,0,0,0-1.58,2.1V95.68a8.58,8.58,0,0,0-4.35-1.21,8.7,8.7,0,1,0,8.7,8.7V76.53l26.4-7.46V87a8.58,8.58,0,0,0-4.35-1.21,8.7,8.7,0,1,0,8.7,8.7v-37A2.18,2.18,0,0,0,102.12,55.39Z" fill="#fff"/>
  </g>
  <circle cx="115.5" cy="29.5" r="27.5" fill="#fff" stroke="#000" stroke-miterlimit="10" stroke-width="0.5"/>
  <line x1="102" y1="15" x2="130" y2="43" fill="none" stroke="red" stroke-miterlimit="10" stroke-width="2"/>
  <line x1="130" y1="15" x2="102" y2="43" fill="none" stroke="red" stroke-miterlimit="10" stroke-width="2"/>
</svg>
