<svg id="Layer_1" data-name="Layer 1" xmlns="http://www.w3.org/2000/svg" width="141" height="144" viewBox="0 0 141 144">
  <circle cx="71.12" cy="71.01" r="69.5" fill="#737a39"/>
  <g>
    <path d="M36.68,58.83v21H34.85l-13.5-17v17H19.13v-21H21l13.53,17v-17Z" fill="#fff"/>
    <path d="M69.29,77.91v1.92H54.47V74.22H45.86l-3.39,5.61H40.16L53,58.83H68.84v1.92H56.66v7.47H67.55v1.89H56.66v7.8ZM54.47,72.42V60.75H54L46.94,72.42Z" fill="#fff"/>
    <path d="M72.5,77.28l.87-1.71a10.31,10.31,0,0,0,6.93,2.55c3.93,0,5.64-1.65,5.64-3.72,0-5.76-12.93-2.22-12.93-10,0-3.09,2.4-5.76,7.74-5.76a11.85,11.85,0,0,1,6.51,1.86l-.75,1.77a10.81,10.81,0,0,0-5.76-1.74c-3.84,0-5.55,1.71-5.55,3.81,0,5.76,12.93,2.28,12.93,9.93,0,3.09-2.46,5.73-7.83,5.73C77.15,80,74.06,78.9,72.5,77.28Z" fill="#fff"/>
    <path d="M96.74,60.75H89.36V58.83h17v1.92H99V79.83H96.74Z" fill="#fff"/>
    <path d="M124.73,77.91v1.92H109.88v-21h14.4v1.92H112.1v7.47H123v1.89H112.1v7.8Z" fill="#fff"/>
  </g>
</svg>
