<svg id="Layer_1" data-name="Layer 1" xmlns="http://www.w3.org/2000/svg" width="812" height="188" viewBox="0 0 812 188">
  <g>
    <polygon points="179.76 174.9 43.63 174.53 44.1 0.58 76 0.67 180.24 0.95 179.76 174.9" fill="#f2f1df"/>
    <circle cx="43.87" cy="91.52" r="43.87" fill="#f2f1df"/>
    <path d="M43.87,91.52,44,120.26h-.08a28.74,28.74,0,0,1,0-57.48Z" fill="#fff"/>
    <path d="M43.87,91.52,44,120.26h-.08a28.74,28.74,0,0,1,0-57.48Z" fill="#a08472"/>
  </g>
  <path d="M192.55,90.23s-.71-6.57-9.05-14.09c-3.38-3-8.8-3.44-14.05-2.83a64,64,0,0,0-15.07,4c-3.41-.92-5.48-4-7.25-7.64-1,4.87-1,9.86,7.92,16-.9,1.56-3.94.15-7.07-1.9.21,8.17,11.28,15.88,16.89,19,7.61,4.25,24.25-1.61,23.44-4.51Z" fill="#ccccb6"/>
  <path d="M174.29,79.12c.37-2.12-1.7-4-4.09-5.89a61.86,61.86,0,0,0-15.82,4c-1.78.11-4.63-3-7.52-8-2.09,6.12-.12,13.26,8.19,16.4-1.38,1.55-3,.36-7.07-1.9.38,5.67,4.91,11.09,10.27,15.07,5.11,3.86,9.67,2.59,12.87-1.83a16.76,16.76,0,0,1-4.94-6.78,46.26,46.26,0,0,0,14.62,0c-3.19-.84-6.3-3.06-9.59-6.72,3.47,1.73,6.37,2.06,8.47.42C178.8,81.31,176.82,79.92,174.29,79.12Z" fill="#4d511b"/>
  <rect x="220.82" y="67.25" width="14.28" height="95.06" rx="7.14" transform="translate(16.9 258.28) rotate(-60.94)" fill="#664923"/>
  <g>
    <path d="M62,65.45a5,5,0,0,1,5.11-5.27,10.64,10.64,0,0,1,3.87.69,13.08,13.08,0,0,0,5.2.88v.47a18.21,18.21,0,0,1-2.69-.16c-.11.54-.42,2.11-2,8.72-1,4.19-2.58,8.09-7.4,8.09A6,6,0,0,1,59.77,77a5.83,5.83,0,0,1-1.32-4.46l.49.07a5.18,5.18,0,0,0,1.19,4,4.76,4.76,0,0,0,3.59,1.48c2.91,0,3.63-1.7,4.5-5.15,1.64-6.82,2.58-10.63,2.8-11.55l-.15-.06a9.39,9.39,0,0,0-3.72-.7,4.48,4.48,0,0,0-4.62,4.78Zm22.25-6.53c0,2.47-1.9,4.82-1.9,6.93H81.9c0-1.55.8-2.94,1.36-4.44-3,.18-5.35,2.58-7.15,4.91-.65.81-1.12,1.43-1.48,1.93,4,8.36,4.73,9.48,6.3,9.48a2.11,2.11,0,0,0,2-1.62h.56c-.43,1.39-1.39,2.34-3.52,2.34-2.44,0-3.83-1.21-4.86-3.39l-2.47-5.2,3.21-4.17c1.83-2.4,4.23-4.73,7.57-4.82a6.13,6.13,0,0,0,.34-1.95Z" fill="#4d511b"/>
    <path d="M91.46,73.58A1.61,1.61,0,0,0,92.58,73l.34.27a2.13,2.13,0,0,1-1.68.81,1.88,1.88,0,0,1-2.15-1.73A3,3,0,0,1,86.58,74a3.1,3.1,0,0,1-3.26-3.45c0-3.5,1.91-5.47,4.51-5.47A2.12,2.12,0,0,1,90,66.66c.07-.43.14-.81.25-1.35a16,16,0,0,0,2.76-.2ZM89.2,71c.09-.42.24-1.36.58-3.22-.09-1.08-.63-2.11-1.48-2.11-1.59,0-2.44,3.56-2.44,6,0,1.44.4,1.79,1,1.79C88.14,73.51,89,71.5,89.2,71Z" fill="#4d511b"/>
    <path d="M95.56,65.56a1.84,1.84,0,0,0-1.12.62l-.34-.26A2,2,0,0,1,96,65.11c1.34,0,2,.65,2,1.84,0,1.52-.85,3.65-.85,5,0,.72.29,1.08.89,1.08,1,0,2-1.46,2.6-3.72l.74-4a15,15,0,0,0,2.71-.2L102.71,73c-.54,3-2.51,4.91-5.67,4.91-1.9,0-3-.69-3-1.84,0-.78.5-1.59,2-1.59,1.28,0,1.59.47,2.53.61l0,.4C97.58,75.44,97.24,75,96,75c-1,0-1.48.51-1.48,1.12,0,1,1.06,1.43,2.27,1.43,1.88,0,2.57-1.27,2.87-2.8l.56-3.09a3,3,0,0,1-2.85,2.06,2.52,2.52,0,0,1-2.71-2.82C94.69,69.43,95.47,67.48,95.56,65.56Z" fill="#4d511b"/>
    <path d="M109.32,70.17a20.85,20.85,0,0,0-.51-3.27,5.75,5.75,0,0,1-3.07,1.71v-.54a6.31,6.31,0,0,0,3-1.84v-.09a3.67,3.67,0,0,1,.63-2.06h.54c0,3,2,3.29,2,6.25,0,2.11-1.77,3.7-4.23,3.7-2.15,0-3.25-1.28-3.25-2.6a1.6,1.6,0,0,1,1.66-1.79,1.49,1.49,0,0,1,1.54,1.54,1.55,1.55,0,0,1-1.52,1.64,2,2,0,0,1-.61-.09,1.9,1.9,0,0,0,1.57.72C108.67,73.45,109.32,72.33,109.32,70.17Z" fill="#4d511b"/>
    <path d="M120.93,67.37c0,1.91-1.9,2.87-5.13,2.89,0,.41,0,.83,0,1.28,0,1.44.77,2,1.64,2,2.38,0,3.18-2.6,3.18-2.62l.41.18a4,4,0,0,1-4.08,3c-2.47,0-3.68-1.28-3.68-3.23,0-3.61,2-5.69,4.86-5.69C120.12,65.11,120.93,66,120.93,67.37Zm-5.06,2.38c3.34,0,4.5-1,4.5-2.38a1.57,1.57,0,0,0-1.64-1.7C117.57,65.67,116.25,66.88,115.87,69.75Z" fill="#4d511b"/>
    <path d="M130.81,73.58a1.83,1.83,0,0,0,1.13-.63l.33.27a2,2,0,0,1-1.88.81c-1.35,0-2-.65-2-1.84,0-1.52.81-4.12.81-5.44,0-.72-.32-1-.92-1-1,0-2,1.39-2.56,3.61l-.76,4.19a1.65,1.65,0,0,0,1.14-.63l.34.27a2.13,2.13,0,0,1-1.68.81c-1.39,0-2.15-.78-2.15-1.86a18.19,18.19,0,0,1,.35-2.47l.74-4.14a1.65,1.65,0,0,0-1.12.62l-.33-.26a2.12,2.12,0,0,1,1.68-.81c1.39,0,2.15.72,2.15,2v.14a3,3,0,0,1,2.87-2.11,2.58,2.58,0,0,1,2.8,2.82C131.71,69.34,130.9,71.65,130.81,73.58Z" fill="#4d511b"/>
  </g>
  <g>
    <polygon points="450.76 174.9 314.63 174.53 315.1 0.58 347 0.67 451.24 0.95 450.76 174.9" fill="#f2f1df"/>
    <circle cx="314.87" cy="91.52" r="43.87" fill="#f2f1df"/>
    <path d="M314.87,91.52l.08,28.74h-.08a28.74,28.74,0,0,1,0-57.48Z" fill="#fff"/>
    <path d="M314.87,91.52l.08,28.74h-.08a28.74,28.74,0,0,1,0-57.48Z" fill="#a08472"/>
  </g>
  <g>
    <path d="M333,65.45a5,5,0,0,1,5.11-5.27,10.64,10.64,0,0,1,3.87.69,13.08,13.08,0,0,0,5.2.88v.47a18.21,18.21,0,0,1-2.69-.16c-.11.54-.42,2.11-2,8.72-1,4.19-2.58,8.09-7.4,8.09A6,6,0,0,1,330.77,77a5.83,5.83,0,0,1-1.32-4.46l.49.07a5.18,5.18,0,0,0,1.19,4,4.76,4.76,0,0,0,3.59,1.48c2.91,0,3.63-1.7,4.5-5.15,1.64-6.82,2.58-10.63,2.8-11.55l-.15-.06a9.39,9.39,0,0,0-3.72-.7,4.48,4.48,0,0,0-4.62,4.78Zm22.25-6.53c0,2.47-1.9,4.82-1.9,6.93h-.49c0-1.55.8-2.94,1.36-4.44-3,.18-5.35,2.58-7.15,4.91-.65.81-1.12,1.43-1.48,1.93,4,8.36,4.73,9.48,6.3,9.48a2.11,2.11,0,0,0,2-1.62h.56c-.43,1.39-1.39,2.34-3.52,2.34-2.44,0-3.83-1.21-4.86-3.39l-2.47-5.2,3.21-4.17c1.83-2.4,4.23-4.73,7.57-4.82a6.13,6.13,0,0,0,.34-1.95Z" fill="#4d511b"/>
    <path d="M362.46,73.58a1.61,1.61,0,0,0,1.12-.63l.34.27a2.13,2.13,0,0,1-1.68.81,1.88,1.88,0,0,1-2.15-1.73A3,3,0,0,1,357.58,74a3.1,3.1,0,0,1-3.26-3.45c0-3.5,1.91-5.47,4.51-5.47A2.12,2.12,0,0,1,361,66.66c.07-.43.14-.81.25-1.35a16,16,0,0,0,2.76-.2ZM360.2,71c.09-.42.24-1.36.58-3.22-.09-1.08-.63-2.11-1.48-2.11-1.59,0-2.44,3.56-2.44,6,0,1.44.4,1.79,1,1.79C359.14,73.51,360,71.5,360.2,71Z" fill="#4d511b"/>
    <path d="M366.56,65.56a1.84,1.84,0,0,0-1.12.62l-.34-.26a2,2,0,0,1,1.89-.81c1.34,0,2,.65,2,1.84,0,1.52-.85,3.65-.85,5,0,.72.29,1.08.89,1.08,1,0,2-1.46,2.6-3.72l.74-4a15,15,0,0,0,2.71-.2L373.71,73c-.54,3-2.51,4.91-5.67,4.91-1.9,0-3-.69-3-1.84,0-.78.5-1.59,1.95-1.59,1.28,0,1.59.47,2.53.61l0,.4c-.94-.09-1.28-.58-2.49-.58-1,0-1.48.51-1.48,1.12,0,1,1.06,1.43,2.27,1.43,1.88,0,2.57-1.27,2.87-2.8l.56-3.09a3,3,0,0,1-2.85,2.06,2.52,2.52,0,0,1-2.71-2.82C365.69,69.43,366.47,67.48,366.56,65.56Z" fill="#4d511b"/>
    <path d="M380.32,70.17a20.85,20.85,0,0,0-.51-3.27,5.75,5.75,0,0,1-3.07,1.71v-.54a6.31,6.31,0,0,0,3-1.84v-.09a3.67,3.67,0,0,1,.63-2.06h.54c0,3,2,3.29,2,6.25,0,2.11-1.77,3.7-4.23,3.7-2.15,0-3.25-1.28-3.25-2.6a1.6,1.6,0,0,1,1.66-1.79,1.49,1.49,0,0,1,1.54,1.54,1.55,1.55,0,0,1-1.52,1.64,2,2,0,0,1-.61-.09,1.9,1.9,0,0,0,1.57.72C379.67,73.45,380.32,72.33,380.32,70.17Z" fill="#4d511b"/>
    <path d="M391.93,67.37c0,1.91-1.9,2.87-5.13,2.89,0,.41-.05.83-.05,1.28,0,1.44.77,2,1.64,2,2.38,0,3.18-2.6,3.18-2.62l.41.18a4,4,0,0,1-4.08,3c-2.47,0-3.68-1.28-3.68-3.23,0-3.61,1.95-5.69,4.86-5.69C391.12,65.11,391.93,66,391.93,67.37Zm-5.06,2.38c3.34,0,4.5-1,4.5-2.38a1.57,1.57,0,0,0-1.64-1.7C388.57,65.67,387.25,66.88,386.87,69.75Z" fill="#4d511b"/>
    <path d="M401.81,73.58a1.83,1.83,0,0,0,1.13-.63l.33.27a2,2,0,0,1-1.88.81c-1.35,0-2-.65-2-1.84,0-1.52.81-4.12.81-5.44,0-.72-.32-1-.92-1-1,0-1.95,1.39-2.56,3.61l-.76,4.19a1.65,1.65,0,0,0,1.14-.63l.34.27a2.13,2.13,0,0,1-1.68.81c-1.39,0-2.15-.78-2.15-1.86a18.19,18.19,0,0,1,.35-2.47l.74-4.14a1.65,1.65,0,0,0-1.12.62l-.33-.26a2.12,2.12,0,0,1,1.68-.81c1.39,0,2.15.72,2.15,2v.14a3,3,0,0,1,2.87-2.11,2.58,2.58,0,0,1,2.8,2.82C402.71,69.34,401.9,71.65,401.81,73.58Z" fill="#4d511b"/>
  </g>
  <g>
    <path d="M355,89.45a5,5,0,0,1,5.11-5.27,10.64,10.64,0,0,1,3.87.69,13.08,13.08,0,0,0,5.2.88v.47a18.21,18.21,0,0,1-2.69-.16c-.11.54-.42,2.11-2,8.72-1,4.19-2.58,8.09-7.4,8.09a6,6,0,0,1-4.35-1.86,5.83,5.83,0,0,1-1.32-4.46l.49.07a5.18,5.18,0,0,0,1.19,4,4.76,4.76,0,0,0,3.59,1.48c2.91,0,3.63-1.7,4.5-5.15,1.64-6.82,2.58-10.63,2.8-11.55l-.15-.06a9.39,9.39,0,0,0-3.72-.7,4.48,4.48,0,0,0-4.62,4.78Zm22.25-6.53c0,2.47-1.9,4.82-1.9,6.93h-.49c0-1.55.8-2.94,1.36-4.44-3,.18-5.35,2.58-7.15,4.91-.65.81-1.12,1.43-1.48,1.93,4,8.36,4.73,9.48,6.3,9.48a2.11,2.11,0,0,0,2-1.62h.56c-.43,1.39-1.39,2.34-3.52,2.34-2.44,0-3.83-1.21-4.86-3.39l-2.47-5.2,3.21-4.17c1.83-2.4,4.23-4.73,7.57-4.82a6.13,6.13,0,0,0,.34-2Z" fill="#4d511b"/>
    <path d="M384.17,91.37c0,1.91-1.91,2.87-5.13,2.89,0,.41-.05.83-.05,1.28,0,1.44.76,2,1.64,2,2.37,0,3.18-2.6,3.18-2.62l.4.18a3.94,3.94,0,0,1-4.07,3c-2.47,0-3.68-1.28-3.68-3.23,0-3.61,2-5.69,4.86-5.69C383.36,89.11,384.17,90,384.17,91.37Zm-5.07,2.38c3.34,0,4.51-1,4.51-2.38a1.57,1.57,0,0,0-1.64-1.7C380.81,89.67,379.49,90.88,379.1,93.75Z" fill="#4d511b"/>
    <path d="M385.51,89.92a2.13,2.13,0,0,1,1.68-.81c1.39,0,2.16.72,2.16,2v.14c.69-1.46,1.5-2.11,2.62-2.11s1.72.54,1.72,1.79c0,1.77-2,3.07-2,4.48h-.54c0-1.61,1.93-2.86,1.93-4.39,0-1.19-.54-1.37-1.14-1.37-1.86,0-2.92,3.5-3,3.72v0l-.81,4.46h-2.69L387,89.56a1.63,1.63,0,0,0-1.12.62Z" fill="#4d511b"/>
    <path d="M402.3,97.58a1.61,1.61,0,0,0,1.12-.63l.34.27a2.13,2.13,0,0,1-1.68.81,1.89,1.89,0,0,1-2.16-1.73A3,3,0,0,1,397.41,98a3.1,3.1,0,0,1-3.25-3.45c0-3.5,1.91-5.47,4.51-5.47a2.12,2.12,0,0,1,2.17,1.55c.07-.43.14-.81.25-1.35a16,16,0,0,0,2.76-.2ZM400,95c.09-.42.24-1.36.58-3.22-.09-1.08-.63-2.11-1.48-2.11-1.59,0-2.44,3.56-2.44,6,0,1.44.4,1.79,1,1.79C399,97.51,399.86,95.5,400,95Z" fill="#4d511b"/>
    <path d="M419.2,97.58a1.83,1.83,0,0,0,1.12-.63l.34.27a2,2,0,0,1-1.89.81c-1.34,0-2-.65-2-1.84,0-1.52.81-4.12.81-5.44,0-.72-.31-1-.92-1-1,0-1.79,1.48-2.4,3.86a27.24,27.24,0,0,0-.67,3.94,1.83,1.83,0,0,0,1.12-.63l.34.27a2,2,0,0,1-1.89.81c-1.34,0-2-.65-2-1.84,0-1.52.81-4.12.81-5.44,0-.72-.31-1-.92-1-1,0-1.75,1.37-2.33,3.56l-.81,4.49h-2.69l1.48-8.27a1.65,1.65,0,0,0-1.12.62l-.33-.26a2.12,2.12,0,0,1,1.68-.81c1.39,0,2.15.72,2.15,2v.07a2.77,2.77,0,0,1,2.65-2,2.55,2.55,0,0,1,2.77,2.6c.5-1.44,1.24-2.6,2.87-2.6a2.59,2.59,0,0,1,2.81,2.82C420.1,93.34,419.29,95.65,419.2,97.58Z" fill="#4d511b"/>
    <path d="M424.4,97.58a1.63,1.63,0,0,0,1.12-.63l.33.27a2.12,2.12,0,0,1-1.68.81c-1.39,0-2.15-.78-2.15-1.86a16.37,16.37,0,0,1,.36-2.44l.74-4h-.94l0-.4h1a15.93,15.93,0,0,0,2.75-.2Zm.62-13.4a1.63,1.63,0,1,1,0,3.25,1.63,1.63,0,0,1,0-3.25Z" fill="#4d511b"/>
    <path d="M436.19,97l.33.27a2,2,0,0,1-1.88.81c-3.74,0-2.29-4.17-4.28-4.53-.38,2.06-.61,3.18-.81,4.33h-2.67l2.54-14.08a1.69,1.69,0,0,0-1.13.63l-.33-.27a2.12,2.12,0,0,1,1.68-.81c1.39,0,2.15.72,2.15,2,0,.18,0,.38,0,.58L430.63,92a4.27,4.27,0,0,1,4.05-2.89c1.39,0,1.95.78,1.95,1.68a1.49,1.49,0,0,1-1.52,1.57A1.3,1.3,0,0,1,433.67,91a1.58,1.58,0,0,1,.54-1.37c-1.54.18-2.67,1.44-3.43,3.19a3.83,3.83,0,0,1,.54,0c4.3,0,2.18,4.62,4.06,4.62A.92.92,0,0,0,436.19,97Z" fill="#4d511b"/>
  </g>
  <path d="M458.51,134.37s1.34-6.47-4.3-16.18c-2.28-3.94-7.32-6-12.51-7a63.94,63.94,0,0,0-15.56-.84c-3-1.92-4-5.51-4.56-9.49-2.41,4.33-4,9.07,2.65,17.64-1.34,1.21-3.8-1.06-6.15-4-2.3,7.84,5.88,18.57,10.26,23.26,5.94,6.37,23.58,5.89,23.7,2.88Z" fill="#ccccb6"/>
  <path d="M444.53,118c1-1.91-.41-4.35-2.13-6.85a62.15,62.15,0,0,0-16.31-.89c-1.72-.42-3.53-4.2-4.75-9.93-3.83,5.21-4.1,12.61,2.89,18.1-1.79,1.06-3-.55-6.17-3.93-1.35,5.52,1.34,12,5.26,17.45,3.72,5.22,8.46,5.38,12.83,2.12a16.8,16.8,0,0,1-2.68-7.95,46.77,46.77,0,0,0,14,4.37c-2.79-1.76-5.1-4.82-7.13-9.29,2.79,2.68,5.46,3.87,7.95,2.94C448.18,121.47,446.71,119.55,444.53,118Z" fill="#4d511b"/>
  <rect x="486.82" y="111.25" width="14.28" height="95.06" rx="7.14" transform="translate(109.48 507.17) rotate(-60)" fill="#664923"/>
  <g>
    <polygon points="721.76 174.9 585.63 174.53 586.1 0.58 618 0.67 722.24 0.95 721.76 174.9" fill="#f2f1df"/>
    <circle cx="585.87" cy="91.52" r="43.87" fill="#f2f1df"/>
    <path d="M585.87,91.52l.08,28.74h-.08a28.74,28.74,0,0,1,0-57.48Z" fill="#fff"/>
    <path d="M585.87,91.52l.08,28.74h-.08a28.74,28.74,0,0,1,0-57.48Z" fill="#a08472"/>
  </g>
  <g>
    <path d="M604,65.45a5,5,0,0,1,5.11-5.27,10.64,10.64,0,0,1,3.87.69,13.08,13.08,0,0,0,5.2.88v.47a18.21,18.21,0,0,1-2.69-.16c-.11.54-.42,2.11-2,8.72-1,4.19-2.58,8.09-7.4,8.09A6,6,0,0,1,601.77,77a5.83,5.83,0,0,1-1.32-4.46l.49.07a5.18,5.18,0,0,0,1.19,4,4.76,4.76,0,0,0,3.59,1.48c2.91,0,3.63-1.7,4.5-5.15,1.64-6.82,2.58-10.63,2.8-11.55l-.15-.06a9.39,9.39,0,0,0-3.72-.7,4.48,4.48,0,0,0-4.62,4.78Zm22.25-6.53c0,2.47-1.9,4.82-1.9,6.93h-.49c0-1.55.8-2.94,1.36-4.44-3,.18-5.35,2.58-7.15,4.91-.65.81-1.12,1.43-1.48,1.93,4,8.36,4.73,9.48,6.3,9.48a2.11,2.11,0,0,0,2-1.62h.56c-.43,1.39-1.39,2.34-3.52,2.34-2.44,0-3.83-1.21-4.86-3.39l-2.47-5.2,3.21-4.17c1.83-2.4,4.23-4.73,7.57-4.82a6.13,6.13,0,0,0,.34-1.95Z" fill="#4d511b"/>
    <path d="M633.46,73.58a1.61,1.61,0,0,0,1.12-.63l.34.27a2.13,2.13,0,0,1-1.68.81,1.88,1.88,0,0,1-2.15-1.73A3,3,0,0,1,628.58,74a3.1,3.1,0,0,1-3.26-3.45c0-3.5,1.91-5.47,4.51-5.47A2.12,2.12,0,0,1,632,66.66c.07-.43.14-.81.25-1.35a16,16,0,0,0,2.76-.2ZM631.2,71c.09-.42.24-1.36.58-3.22-.09-1.08-.63-2.11-1.48-2.11-1.59,0-2.44,3.56-2.44,6,0,1.44.4,1.79,1,1.79C630.14,73.51,631,71.5,631.2,71Z" fill="#4d511b"/>
    <path d="M637.56,65.56a1.84,1.84,0,0,0-1.12.62l-.34-.26a2,2,0,0,1,1.89-.81c1.34,0,2,.65,2,1.84,0,1.52-.85,3.65-.85,5,0,.72.29,1.08.89,1.08,1,0,2-1.46,2.6-3.72l.74-4a15,15,0,0,0,2.71-.2L644.71,73c-.54,3-2.51,4.91-5.67,4.91-1.9,0-3-.69-3-1.84,0-.78.5-1.59,1.95-1.59,1.28,0,1.59.47,2.53.61l0,.4c-.94-.09-1.28-.58-2.49-.58-1,0-1.48.51-1.48,1.12,0,1,1.06,1.43,2.27,1.43,1.88,0,2.57-1.27,2.87-2.8l.56-3.09a3,3,0,0,1-2.85,2.06,2.52,2.52,0,0,1-2.71-2.82C636.69,69.43,637.47,67.48,637.56,65.56Z" fill="#4d511b"/>
    <path d="M651.32,70.17a20.85,20.85,0,0,0-.51-3.27,5.75,5.75,0,0,1-3.07,1.71v-.54a6.31,6.31,0,0,0,3-1.84v-.09a3.67,3.67,0,0,1,.63-2.06h.54c0,3,2,3.29,2,6.25,0,2.11-1.77,3.7-4.23,3.7-2.15,0-3.25-1.28-3.25-2.6a1.6,1.6,0,0,1,1.66-1.79,1.49,1.49,0,0,1,1.54,1.54,1.55,1.55,0,0,1-1.52,1.64,2,2,0,0,1-.61-.09,1.9,1.9,0,0,0,1.57.72C650.67,73.45,651.32,72.33,651.32,70.17Z" fill="#4d511b"/>
    <path d="M662.93,67.37c0,1.91-1.9,2.87-5.13,2.89,0,.41,0,.83,0,1.28,0,1.44.77,2,1.64,2,2.38,0,3.18-2.6,3.18-2.62l.41.18a4,4,0,0,1-4.08,3c-2.47,0-3.68-1.28-3.68-3.23,0-3.61,1.95-5.69,4.86-5.69C662.12,65.11,662.93,66,662.93,67.37Zm-5.06,2.38c3.34,0,4.5-1,4.5-2.38a1.57,1.57,0,0,0-1.64-1.7C659.57,65.67,658.25,66.88,657.87,69.75Z" fill="#4d511b"/>
    <path d="M672.81,73.58a1.83,1.83,0,0,0,1.13-.63l.33.27a2,2,0,0,1-1.88.81c-1.35,0-2-.65-2-1.84,0-1.52.81-4.12.81-5.44,0-.72-.32-1-.92-1-1,0-2,1.39-2.56,3.61l-.76,4.19a1.65,1.65,0,0,0,1.14-.63l.34.27a2.13,2.13,0,0,1-1.68.81c-1.39,0-2.15-.78-2.15-1.86a18.19,18.19,0,0,1,.35-2.47l.74-4.14a1.65,1.65,0,0,0-1.12.62l-.33-.26a2.12,2.12,0,0,1,1.68-.81c1.39,0,2.15.72,2.15,2v.14a3,3,0,0,1,2.87-2.11,2.58,2.58,0,0,1,2.8,2.82C673.71,69.34,672.9,71.65,672.81,73.58Z" fill="#4d511b"/>
  </g>
  <g>
    <path d="M626,89.45a5,5,0,0,1,5.11-5.27,10.64,10.64,0,0,1,3.87.69,13.08,13.08,0,0,0,5.2.88v.47a18.21,18.21,0,0,1-2.69-.16c-.11.54-.42,2.11-2,8.72-1,4.19-2.58,8.09-7.4,8.09a6,6,0,0,1-4.35-1.86,5.83,5.83,0,0,1-1.32-4.46l.49.07a5.18,5.18,0,0,0,1.19,4,4.76,4.76,0,0,0,3.59,1.48c2.91,0,3.63-1.7,4.5-5.15,1.64-6.82,2.58-10.63,2.8-11.55l-.15-.06a9.39,9.39,0,0,0-3.72-.7,4.48,4.48,0,0,0-4.62,4.78Zm22.25-6.53c0,2.47-1.9,4.82-1.9,6.93h-.49c0-1.55.8-2.94,1.36-4.44-3,.18-5.35,2.58-7.15,4.91-.65.81-1.12,1.43-1.48,1.93,4,8.36,4.73,9.48,6.3,9.48a2.11,2.11,0,0,0,2-1.62h.56c-.43,1.39-1.39,2.34-3.52,2.34-2.44,0-3.83-1.21-4.86-3.39l-2.47-5.2,3.21-4.17c1.83-2.4,4.23-4.73,7.57-4.82a6.13,6.13,0,0,0,.34-2Z" fill="#4d511b"/>
    <path d="M655.17,91.37c0,1.91-1.91,2.87-5.13,2.89,0,.41,0,.83,0,1.28,0,1.44.76,2,1.64,2,2.37,0,3.18-2.6,3.18-2.62l.4.18a3.94,3.94,0,0,1-4.07,3c-2.47,0-3.68-1.28-3.68-3.23,0-3.61,1.95-5.69,4.86-5.69C654.36,89.11,655.17,90,655.17,91.37Zm-5.07,2.38c3.34,0,4.51-1,4.51-2.38a1.57,1.57,0,0,0-1.64-1.7C651.81,89.67,650.49,90.88,650.1,93.75Z" fill="#4d511b"/>
    <path d="M656.51,89.92a2.13,2.13,0,0,1,1.68-.81c1.39,0,2.16.72,2.16,2v.14c.69-1.46,1.5-2.11,2.62-2.11s1.72.54,1.72,1.79c0,1.77-2,3.07-2,4.48h-.54c0-1.61,1.93-2.86,1.93-4.39,0-1.19-.54-1.37-1.14-1.37-1.86,0-2.92,3.5-3,3.72v0l-.81,4.46h-2.69L658,89.56a1.63,1.63,0,0,0-1.12.62Z" fill="#4d511b"/>
    <path d="M673.3,97.58a1.61,1.61,0,0,0,1.12-.63l.34.27a2.13,2.13,0,0,1-1.68.81,1.89,1.89,0,0,1-2.16-1.73A3,3,0,0,1,668.41,98a3.1,3.1,0,0,1-3.25-3.45c0-3.5,1.91-5.47,4.51-5.47a2.12,2.12,0,0,1,2.17,1.55c.07-.43.14-.81.25-1.35a16,16,0,0,0,2.76-.2ZM671,95c.09-.42.24-1.36.58-3.22-.09-1.08-.63-2.11-1.48-2.11-1.59,0-2.44,3.56-2.44,6,0,1.44.4,1.79,1,1.79C670,97.51,670.86,95.5,671,95Z" fill="#4d511b"/>
    <path d="M690.2,97.58a1.83,1.83,0,0,0,1.12-.63l.34.27a2,2,0,0,1-1.89.81c-1.34,0-2-.65-2-1.84,0-1.52.81-4.12.81-5.44,0-.72-.31-1-.92-1-1,0-1.79,1.48-2.4,3.86a27.24,27.24,0,0,0-.67,3.94,1.83,1.83,0,0,0,1.12-.63l.34.27a2,2,0,0,1-1.89.81c-1.34,0-2-.65-2-1.84,0-1.52.81-4.12.81-5.44,0-.72-.31-1-.92-1-1,0-1.75,1.37-2.33,3.56l-.81,4.49h-2.69l1.48-8.27a1.65,1.65,0,0,0-1.12.62l-.33-.26a2.12,2.12,0,0,1,1.68-.81c1.39,0,2.15.72,2.15,2v.07a2.77,2.77,0,0,1,2.65-2,2.55,2.55,0,0,1,2.77,2.6c.5-1.44,1.24-2.6,2.87-2.6a2.59,2.59,0,0,1,2.81,2.82C691.1,93.34,690.29,95.65,690.2,97.58Z" fill="#4d511b"/>
    <path d="M695.4,97.58a1.63,1.63,0,0,0,1.12-.63l.33.27a2.12,2.12,0,0,1-1.68.81c-1.39,0-2.15-.78-2.15-1.86a16.37,16.37,0,0,1,.36-2.44l.74-4h-.94l0-.4h1a15.93,15.93,0,0,0,2.75-.2Zm.62-13.4a1.63,1.63,0,1,1,0,3.25,1.63,1.63,0,0,1,0-3.25Z" fill="#4d511b"/>
    <path d="M707.19,97l.33.27a2,2,0,0,1-1.88.81c-3.74,0-2.29-4.17-4.28-4.53-.38,2.06-.61,3.18-.81,4.33h-2.67l2.54-14.08a1.69,1.69,0,0,0-1.13.63l-.33-.27a2.12,2.12,0,0,1,1.68-.81c1.39,0,2.15.72,2.15,2,0,.18,0,.38,0,.58L701.63,92a4.27,4.27,0,0,1,4-2.89c1.39,0,2,.78,2,1.68a1.49,1.49,0,0,1-1.52,1.57A1.3,1.3,0,0,1,704.67,91a1.58,1.58,0,0,1,.54-1.37c-1.54.18-2.67,1.44-3.43,3.19a3.83,3.83,0,0,1,.54,0c4.3,0,2.18,4.62,4.06,4.62A.92.92,0,0,0,707.19,97Z" fill="#4d511b"/>
  </g>
  <path d="M699.08,130.84S696,125,685.47,121.08c-4.26-1.58-9.44,0-14.1,2.56a63.84,63.84,0,0,0-12.54,9.25c-3.51.4-6.58-1.72-9.55-4.43.89,4.89,2.7,9.53,13.26,11.93-.26,1.79-3.61,1.61-7.27.85,3.2,7.51,16.34,10.6,22.71,11.43,8.63,1.14,21.94-10.44,20.11-12.84Z" fill="#ccccb6"/>
  <path d="M678,126.11c-.55-2.09-3.23-2.94-6.18-3.64a61.53,61.53,0,0,0-12.68,10.3c-1.56.84-5.44-.75-10.19-4.17.66,6.43,5.43,12.1,14.3,11.46-.61,2-2.55,1.58-7.22,1.24,2.72,5,9.1,8,15.63,9.39,6.26,1.37,9.87-1.7,10.92-7.05a16.7,16.7,0,0,1-7.32-4.09,46.19,46.19,0,0,0,13.27-6.14c-3.25.57-7-.14-11.52-2.09,3.87.11,6.64-.8,7.86-3.16C683,126.2,680.62,125.77,678,126.11Z" fill="#4d511b"/>
  <rect x="735.82" y="100.25" width="14.28" height="95.06" rx="7.14" transform="translate(404.15 825.3) rotate(-74.68)" fill="#664923"/>
  <circle cx="630" cy="123" r="4" fill="#4d511b"/>
  <circle cx="629" cy="129" r="4" fill="#4d511b"/>
  <circle cx="632" cy="133" r="4" fill="#4d511b"/>
  <circle cx="638" cy="133" r="4" fill="#4d511b"/>
  <circle cx="642" cy="130" r="4" fill="#4d511b"/>
  <circle cx="642" cy="125" r="4" fill="#4d511b"/>
  <circle cx="637" cy="122" r="4" fill="#4d511b"/>
  <circle cx="635.75" cy="127.75" r="4.25" fill="#f2f1df"/>
  <line x1="635.75" y1="134" x2="636" y2="164" fill="#664923" stroke="#4d511b" stroke-miterlimit="10" stroke-width="2"/>
</svg>
