<svg id="Layer_1" data-name="Layer 1" xmlns="http://www.w3.org/2000/svg" width="780" height="188" viewBox="0 0 780 188">
  <g>
    <polygon points="179.76 174.9 43.63 174.53 44.1 0.58 76 0.67 180.24 0.95 179.76 174.9" fill="#f2f1df"/>
    <circle cx="43.87" cy="91.52" r="43.87" fill="#f2f1df"/>
    <path d="M43.87,91.52,44,120.26h-.08a28.74,28.74,0,0,1,0-57.48Z" fill="#fff"/>
    <path d="M43.87,91.52,44,120.26h-.08a28.74,28.74,0,0,1,0-57.48Z" fill="#a08472"/>
  </g>
  <path d="M138.55,85.23s-.71-6.57-9.05-14.09c-3.38-3-8.8-3.44-14-2.83a64,64,0,0,0-15.07,4c-3.41-.92-5.48-4-7.25-7.64-1,4.87-1,9.86,7.92,16-.9,1.56-3.94.15-7.07-1.9.21,8.17,11.28,15.88,16.89,19,7.61,4.25,24.25-1.61,23.44-4.51Z" fill="#ccccb6"/>
  <path d="M120.29,74.12c.37-2.12-1.7-4-4.09-5.89a61.86,61.86,0,0,0-15.82,4c-1.78.11-4.63-3-7.52-8-2.09,6.12-.12,13.26,8.19,16.4-1.38,1.55-3,.36-7.07-1.9.38,5.67,4.91,11.09,10.27,15.07,5.11,3.86,9.67,2.59,12.87-1.83a16.76,16.76,0,0,1-4.94-6.78,46.26,46.26,0,0,0,14.62,0c-3.19-.84-6.3-3.06-9.59-6.72,3.47,1.73,6.37,2.06,8.47.42C124.8,76.31,122.82,74.92,120.29,74.12Z" fill="#4d511b"/>
  <rect x="166.82" y="62.25" width="14.28" height="95.06" rx="7.14" transform="translate(-6.5 208.51) rotate(-60.94)" fill="#664923"/>
  <g>
    <circle cx="69" cy="56" r="4" fill="#4d511b"/>
    <circle cx="68" cy="62" r="4" fill="#4d511b"/>
    <circle cx="71" cy="66" r="4" fill="#4d511b"/>
    <circle cx="77" cy="66" r="4" fill="#4d511b"/>
    <circle cx="81" cy="63" r="4" fill="#4d511b"/>
    <circle cx="81" cy="58" r="4" fill="#4d511b"/>
    <circle cx="76" cy="55" r="4" fill="#4d511b"/>
    <circle cx="74.75" cy="60.75" r="4.25" fill="#f2f1df"/>
    <line x1="74.75" y1="67" x2="75" y2="97" fill="#664923" stroke="#4d511b" stroke-miterlimit="10" stroke-width="2"/>
  </g>
  <g>
    <polygon points="439.76 174.9 303.63 174.53 304.1 0.58 336 0.67 440.24 0.95 439.76 174.9" fill="#f2f1df"/>
    <circle cx="303.87" cy="91.52" r="43.87" fill="#f2f1df"/>
    <path d="M303.87,91.52l.08,28.74h-.08a28.74,28.74,0,0,1,0-57.48Z" fill="#fff"/>
    <path d="M303.87,91.52l.08,28.74h-.08a28.74,28.74,0,0,1,0-57.48Z" fill="#a08472"/>
  </g>
  <path d="M423.55,144.23s-.71-6.57-9.05-14.09c-3.38-3-8.8-3.44-14.05-2.83a64,64,0,0,0-15.07,4c-3.41-.92-5.48-4-7.25-7.64-1,4.87-1,9.86,7.92,16-.9,1.56-3.94.15-7.07-1.9.21,8.17,11.28,15.88,16.89,19,7.61,4.25,24.25-1.61,23.44-4.51Z" fill="#ccccb6"/>
  <path d="M405.29,133.12c.37-2.12-1.7-4-4.09-5.89a61.86,61.86,0,0,0-15.82,4c-1.78.11-4.63-2.95-7.52-8-2.09,6.12-.12,13.26,8.19,16.4-1.38,1.55-3,.36-7.07-1.9.38,5.67,4.91,11.09,10.27,15.07,5.11,3.86,9.67,2.59,12.87-1.83a16.76,16.76,0,0,1-4.94-6.78,46.26,46.26,0,0,0,14.62,0c-3.19-.84-6.3-3.06-9.59-6.72,3.47,1.73,6.37,2.06,8.47.42C409.8,135.31,407.82,133.92,405.29,133.12Z" fill="#4d511b"/>
  <rect x="458.82" y="113.25" width="14.28" height="95.06" rx="7.14" transform="translate(186.15 566.58) rotate(-74.45)" fill="#664923"/>
  <g>
    <circle cx="329" cy="56" r="4" fill="#4d511b"/>
    <circle cx="328" cy="62" r="4" fill="#4d511b"/>
    <circle cx="331" cy="66" r="4" fill="#4d511b"/>
    <circle cx="337" cy="66" r="4" fill="#4d511b"/>
    <circle cx="341" cy="63" r="4" fill="#4d511b"/>
    <circle cx="341" cy="58" r="4" fill="#4d511b"/>
    <circle cx="336" cy="55" r="4" fill="#4d511b"/>
    <circle cx="334.75" cy="60.75" r="4.25" fill="#f2f1df"/>
    <line x1="334.75" y1="67" x2="335" y2="97" fill="#664923" stroke="#4d511b" stroke-miterlimit="10" stroke-width="2"/>
  </g>
  <g>
    <circle cx="360" cy="123" r="4" fill="#4d511b"/>
    <circle cx="359" cy="129" r="4" fill="#4d511b"/>
    <circle cx="362" cy="133" r="4" fill="#4d511b"/>
    <circle cx="368" cy="133" r="4" fill="#4d511b"/>
    <circle cx="372" cy="130" r="4" fill="#4d511b"/>
    <circle cx="372" cy="125" r="4" fill="#4d511b"/>
    <circle cx="367" cy="122" r="4" fill="#4d511b"/>
    <circle cx="365.75" cy="127.75" r="4.25" fill="#f2f1df"/>
    <line x1="365.75" y1="134" x2="366" y2="164" fill="#664923" stroke="#4d511b" stroke-miterlimit="10" stroke-width="2"/>
  </g>
  <g>
    <polygon points="699.76 174.9 563.63 174.53 564.1 0.58 596 0.67 700.24 0.95 699.76 174.9" fill="#f2f1df"/>
    <circle cx="563.87" cy="91.52" r="43.87" fill="#f2f1df"/>
    <path d="M563.87,91.52l.08,28.74h-.08a28.74,28.74,0,0,1,0-57.48Z" fill="#fff"/>
    <path d="M563.87,91.52l.08,28.74h-.08a28.74,28.74,0,0,1,0-57.48Z" fill="#a08472"/>
  </g>
  <path d="M713,69.52s1.08-6.52-4.94-16c-2.43-3.84-7.55-5.67-12.77-6.49a64.24,64.24,0,0,0-15.58-.22c-3-1.8-4.21-5.35-4.94-9.31-2.24,4.43-3.61,9.23,3.35,17.53-1.29,1.26-3.84-.91-6.3-3.73-2,7.93,6.6,18.33,11.17,22.84,6.19,6.13,23.79,5,23.79,1.94Z" fill="#ccccb6"/>
  <path d="M698.59,53.09c.84-2-.74-4.31-2.64-6.67a61.52,61.52,0,0,0-16.32.3c-1.76-.29-3.83-3.93-5.47-9.56C670.72,42.63,671,50,678.37,55c-1.71,1.19-3-.33-6.45-3.47-.93,5.61,2.23,11.92,6.53,17,4.09,4.94,8.83,4.75,12.95,1.18A16.74,16.74,0,0,1,688.15,62a46.37,46.37,0,0,0,14.23,3.34c-2.91-1.55-5.43-4.43-7.78-8.75,3,2.48,5.72,3.47,8.14,2.35C702.47,56.25,700.86,54.45,698.59,53.09Z" fill="#4d511b"/>
  <rect x="733.82" y="56.25" width="14.28" height="95.06" rx="7.14" transform="translate(143.64 554.33) rotate(-45)" fill="#664923"/>
  <g>
    <circle cx="589" cy="56" r="4" fill="#4d511b"/>
    <circle cx="588" cy="62" r="4" fill="#4d511b"/>
    <circle cx="591" cy="66" r="4" fill="#4d511b"/>
    <circle cx="597" cy="66" r="4" fill="#4d511b"/>
    <circle cx="601" cy="63" r="4" fill="#4d511b"/>
    <circle cx="601" cy="58" r="4" fill="#4d511b"/>
    <circle cx="596" cy="55" r="4" fill="#4d511b"/>
    <circle cx="594.75" cy="60.75" r="4.25" fill="#f2f1df"/>
    <line x1="594.75" y1="67" x2="595" y2="97" fill="#664923" stroke="#4d511b" stroke-miterlimit="10" stroke-width="2"/>
  </g>
  <g>
    <circle cx="620" cy="123" r="4" fill="#4d511b"/>
    <circle cx="619" cy="129" r="4" fill="#4d511b"/>
    <circle cx="622" cy="133" r="4" fill="#4d511b"/>
    <circle cx="628" cy="133" r="4" fill="#4d511b"/>
    <circle cx="632" cy="130" r="4" fill="#4d511b"/>
    <circle cx="632" cy="125" r="4" fill="#4d511b"/>
    <circle cx="627" cy="122" r="4" fill="#4d511b"/>
    <circle cx="625.75" cy="127.75" r="4.25" fill="#f2f1df"/>
    <line x1="625.75" y1="134" x2="626" y2="164" fill="#664923" stroke="#4d511b" stroke-miterlimit="10" stroke-width="2"/>
  </g>
  <g>
    <circle cx="664" cy="21" r="4" fill="#4d511b"/>
    <circle cx="663" cy="27" r="4" fill="#4d511b"/>
    <circle cx="666" cy="31" r="4" fill="#4d511b"/>
    <circle cx="672" cy="31" r="4" fill="#4d511b"/>
    <circle cx="676" cy="28" r="4" fill="#4d511b"/>
    <circle cx="676" cy="23" r="4" fill="#4d511b"/>
    <circle cx="671" cy="20" r="4" fill="#4d511b"/>
    <circle cx="669.75" cy="25.75" r="4.25" fill="#f2f1df"/>
    <line x1="669.75" y1="32" x2="670" y2="62" fill="#664923" stroke="#4d511b" stroke-miterlimit="10" stroke-width="2"/>
  </g>
</svg>
