<svg id="Layer_1" data-name="Layer 1" xmlns="http://www.w3.org/2000/svg" width="250" height="583" viewBox="0 0 250 583">
  <defs>
    <style>
      .cls-1, .cls-2 {
        fill: #4d511b;
      }

      .cls-2 {
        opacity: 0.5;
      }
    </style>
  </defs>
  <path class="cls-1" d="M60.13,173.32h89.79c3.46-30.06,3.64-49.49,0-57.72-2.59-16.21-16.63-25.77-37-31.5C94.22,100.7,79.79,98.75,70.69,73.74c20.11-16.65,35-17.42,42.26,5.16,18.37,6.13,34,15,42.27,31.5.52-25.34,2.59-48.44,10.56-63C146.58,26.57,155,11.93,176.34.17c16.08,18,21.32,34.55-5.19,47.25L160.51,84.05c10.77-9,22.81-15,37-15.7,17.3-24.28,32.84-19.25,47.53,0-14.17,21.09-29.79,25.78-47.53,5.16-14.9,3.07-29.11,7.17-37,21a654.43,654.43,0,0,0,0,78.73h89.83L218.6,367.6H91.83Z"/>
  <path class="cls-2" d="M169.29,509.14l-63.53-33.79c-13.34,18.94-20.52,31.95-20.94,38.86-4,11.89,2.42,23.61,14.73,35.11,19.28-4.12,28.77,2.62,26.14,22.88-20.27,3.65-31.08-1.44-28-19.37-10.77-11-18.61-22.92-18.47-37.11-9.56,16.86-19.41,31.63-30.32,38.42,6,21.27-5.24,28-24.61,27.84-4.84-18.2-2.56-31.28,20.81-29.86l20.82-20.65c-10.89,2-21.56,1.48-31.84-3.34C13,538,3.83,528.74.43,510.25c17.67-8.87,30.42-6.15,35.5,14.41,11.64,3.54,23.19,6.13,33.76-.21a477.79,477.79,0,0,0,28.57-53l-63.55-33.8,93-118.93,89.68,47.69Z"/>
</svg>
