<svg id="Layer_1" data-name="Layer 1" xmlns="http://www.w3.org/2000/svg" width="160" height="161.19" viewBox="0 0 160 161.19">
  <path d="M135,27A76.68,76.68,0,1,0,26.6,135.41,76.68,76.68,0,0,0,135,27ZM80.82,148.74a67.55,67.55,0,1,1,67.55-67.55A67.62,67.62,0,0,1,80.82,148.74Z" fill="#4d511b"/>
  <path d="M64.23,61a19.18,19.18,0,0,0-27.11,0,4.56,4.56,0,1,0,6.46,6.45,10.06,10.06,0,0,1,14.2,0A4.56,4.56,0,1,0,64.23,61Z" fill="#4d511b"/>
  <path d="M124.51,61A19.18,19.18,0,0,0,97.4,61a4.56,4.56,0,1,0,6.46,6.45,10.05,10.05,0,0,1,14.2,0A4.56,4.56,0,0,0,124.51,61Z" fill="#4d511b"/>
  <path d="M121.29,84.54H40.35a4.58,4.58,0,0,0-4.57,4.57,45,45,0,0,0,90.07,0A4.56,4.56,0,0,0,121.29,84.54ZM80.82,125A36,36,0,0,1,45.2,93.67h71.23A36,36,0,0,1,80.82,125Z" fill="#4d511b"/>
</svg>
