<svg id="Layer_1" data-name="Layer 1" xmlns="http://www.w3.org/2000/svg" width="294" height="645" viewBox="0 0 294 645">
  <defs>
    <style>
      .cls-1, .cls-2 {
        fill: #4d511b;
      }

      .cls-2 {
        opacity: 0.5;
      }
    </style>
  </defs>
  <path class="cls-1" d="M90.13,173.32h89.79c3.46-30.06,3.64-49.49,0-57.72-2.59-16.21-16.63-25.77-37-31.5-18.73,16.6-33.16,14.65-42.26-10.36,20.11-16.65,35-17.42,42.26,5.16,18.37,6.13,34,15,42.27,31.5.52-25.34,2.59-48.44,10.56-63C176.58,26.57,185,11.93,206.34.17c16.08,18,21.32,34.55-5.19,47.25L190.51,84.05c10.77-9,22.81-15,37-15.7,17.3-24.28,32.84-19.25,47.53,0-14.17,21.09-29.79,25.78-47.53,5.16-14.9,3.07-29.11,7.17-37,21a654.43,654.43,0,0,0,0,78.73h89.83L248.6,367.6H121.83Z"/>
  <path class="cls-2" d="M182.54,543.33,117.82,509c-16.14,24.06-25.1,40.39-26.21,48.72-5.5,14.68.27,28.13,12.33,40.75,21-6.84,30.55.33,25.76,24.93-22.06,6.35-33.14,1.31-28.12-20.54C91.13,590.6,83.89,577.11,85.43,560c-11.89,21.19-23.88,39.9-36.22,49.12,4.36,25-8.35,34.09-29.07,35.84-3.4-21.39.31-37.32,25.2-37.9l24.3-26.85c-11.85,3.5-23.22,3.89-33.76-.89C12.38,593.23,3.46,583,1.63,561.16,21.41,548.79,34.8,550.81,38.23,575c12.12,3.11,24.23,5.1,36.18-3.56A734.52,734.52,0,0,0,110.17,505L45.43,470.61,156.58,318.66l91.36,48.54Z"/>
</svg>
