<svg id="Layer_1" data-name="Layer 1" xmlns="http://www.w3.org/2000/svg" xmlns:xlink="http://www.w3.org/1999/xlink" width="1920" height="1108" viewBox="0 0 1920 1108">
  <defs>
    <style>
      .cls-1 {
        fill: none;
      }

      .cls-2 {
        clip-path: url(#clip-path);
      }

      .cls-3 {
        fill: #a8e5b5;
      }

      .cls-4 {
        fill: #93cc9a;
      }

      .cls-5 {
        fill: #e4ed9f;
      }

      .cls-6 {
        fill: #cee6ef;
      }

      .cls-7 {
        fill: #bee2ea;
      }

      .cls-8 {
        fill: #a2d9ea;
      }

      .cls-9 {
        fill: #a08472;
      }

      .cls-10, .cls-11 {
        fill: #4d511b;
      }

      .cls-11 {
        opacity: 0.5;
      }
    </style>
    <clipPath id="clip-path">
      <path class="cls-1" d="M372.69,1072.83c-218.41-43.46-213-170.6-307.52-243.41S88,466.48,270.55,379.55,807.36,236.11,865,110.05s523.77-9.78,596.57,0,190.17-145.61,327.09-52.16S1839.69,393,1829.9,539.28c0,0,120.62,292.31-67.37,434.67s-143.44,108.66-341.21,128.22S1230.07,985.9,1052.94,994.59,591.11,1116.3,372.69,1072.83Z"/>
    </clipPath>
  </defs>
  <g class="cls-2">
    <rect class="cls-3" x="-0.5" y="804" width="1921" height="130"/>
    <rect class="cls-4" x="-1" y="923" width="1921" height="185"/>
    <circle class="cls-5" cx="1693" cy="194" r="114"/>
    <rect class="cls-6" x="-2" y="545" width="1922" height="259"/>
    <rect class="cls-7" x="-1" y="286" width="1922" height="259"/>
    <rect class="cls-8" x="-1" y="28" width="1922" height="259"/>
    <rect class="cls-9" x="-5" y="760" width="865" height="350"/>
    <path class="cls-10" d="M428.13,635.45h89.79c3.46-30.25,3.64-49.82,0-58.09-2.59-16.32-16.63-26-37-31.71-18.73,16.71-33.16,14.74-42.26-10.43,20.11-16.76,35-17.54,42.26,5.19,18.37,6.18,34,15.13,42.27,31.71.52-25.51,2.59-48.75,10.56-63.39-19.2-21-10.8-35.72,10.56-47.56,16.08,18.17,21.32,34.77-5.19,47.56L528.51,545.6c10.77-9.08,22.81-15.05,37-15.8,17.3-24.44,32.84-19.38,47.53,0-14.17,21.22-29.79,26-47.53,5.19-14.9,3.09-29.11,7.21-37,21.12a662.93,662.93,0,0,0,0,79.24h89.83L586.6,831H459.83Z"/>
    <path class="cls-11" d="M523.54,1006.88l-66.95-35.8c-16.22,24.17-25.19,40.61-26.22,49-5.43,14.81.7,28.53,13.26,41.5,21.51-6.63,31.37.78,26.81,25.65-22.56,6.14-34,.86-29.17-21.22-10.91-12.54-18.54-26.33-17.21-43.61-11.89,21.32-23.93,40.11-36.48,49.29,4.85,25.37-8.07,34.46-29.33,35.94-3.8-21.75-.21-37.85,25.33-38.08l24.57-26.88c-12.13,3.37-23.8,3.61-34.68-1.39-23.93,13.73-33.23,3.27-35.44-18.95,20.14-12.27,33.92-10,37.78,14.57,12.5,3.33,25,5.51,37.1-3.09A716.05,716.05,0,0,0,448.67,967l-67-35.8L493.64,778.64l94.52,50.53Z"/>
  </g>
</svg>
