<svg id="Layer_1" data-name="Layer 1" xmlns="http://www.w3.org/2000/svg" xmlns:xlink="http://www.w3.org/1999/xlink" width="1920" height="1108" viewBox="0 0 1920 1108">
  <defs>
    <clipPath id="clip-path">
      <path d="M372.69,1064.83c-218.41-43.46-213-170.6-307.52-243.41S88,458.48,270.55,371.55,807.36,228.11,865,102.05s523.77-9.78,596.57,0,190.17-145.61,327.09-52.16S1839.69,385,1829.9,531.28c0,0,120.62,292.31-67.37,434.67s-143.44,108.66-341.21,128.22S1230.07,977.9,1052.94,986.59,591.11,1108.3,372.69,1064.83Z" fill="none"/>
    </clipPath>
  </defs>
  <g clip-path="url(#clip-path)">
    <path d="M1418.13,658.45h89.79c3.46-30.25,3.64-49.82,0-58.09-2.59-16.32-16.63-26-37-31.71-18.73,16.71-33.16,14.74-42.26-10.43,20.11-16.76,35-17.54,42.26,5.19,18.37,6.18,34,15.13,42.27,31.71.52-25.51,2.59-48.75,10.56-63.39-19.2-21-10.8-35.72,10.56-47.56,16.08,18.17,21.32,34.77-5.19,47.56l-10.64,36.87c10.77-9.08,22.81-15.05,37-15.8,17.3-24.44,32.84-19.38,47.53,0-14.17,21.22-29.79,26-47.53,5.19-14.9,3.09-29.11,7.21-37,21.12a662.93,662.93,0,0,0,0,79.24h89.83L1576.6,854H1449.83Z" fill="#4d511b"/>
    <rect y="-8" width="1926" height="1107" fill="#c1cde5"/>
    <path d="M963,1099.13l-963,.38v-.38c0-296.78,434.71-541,963-541s963,244.22,963,541Z" fill="#a08472"/>
    <rect y="-8" width="1920" height="459" fill="#edb266"/>
    <polygon points="1720 558 1637.67 526 1473 462 1473 -8 1720 -8 1720 558" fill="#447271"/>
    <rect x="1233" y="20" width="26" height="450" fill="#6d521b"/>
    <rect x="1019" y="20" width="26" height="450" fill="#6d521b"/>
    <rect x="592" y="129" width="26" height="355" fill="#6d521b"/>
    <rect x="392" y="129" width="26" height="355" fill="#6d521b"/>
    <rect x="486.25" y="287.75" width="26" height="293.5" transform="translate(933.75 -64.75) rotate(90)" fill="#6d521b"/>
    <rect x="1122.25" y="-65.25" width="26" height="293.5" transform="translate(1216.75 -1053.75) rotate(90)" fill="#6d521b"/>
    <rect x="1122.25" y="15.75" width="26" height="293.5" transform="translate(1297.75 -972.75) rotate(90)" fill="#6d521b"/>
    <rect x="490.25" y="158.75" width="26" height="293.5" transform="translate(808.75 -197.75) rotate(90)" fill="#6d521b"/>
    <rect x="490.25" y="41.75" width="26" height="293.5" transform="translate(691.75 -314.75) rotate(90)" fill="#6d521b"/>
    <rect x="1122.25" y="197.75" width="26" height="293.5" transform="translate(1479.75 -790.75) rotate(90)" fill="#6d521b"/>
    <polygon points="1473 151.78 1720 511.78 1720 461.11 1473 134 1473 151.78" fill="#fff" opacity="0.5"/>
    <polygon points="1473 74.78 1720 434.78 1720 384.11 1473 57 1473 74.78" fill="#fff" opacity="0.5"/>
    <path d="M223,479.9h34.61c1.33-11.66,1.4-19.2,0-22.39-1-6.29-6.41-10-14.25-12.22-7.22,6.44-12.78,5.68-16.29-4,7.75-6.46,13.49-6.76,16.29,2,7.08,2.38,13.11,5.83,16.29,12.22.2-9.83,1-18.79,4.07-24.43-7.4-8.09-4.16-13.77,4.07-18.33,6.2,7,8.22,13.4-2,18.33l-4.1,14.21c4.15-3.5,8.79-5.8,14.24-6.09,6.67-9.42,12.66-7.47,18.32,0-5.46,8.18-11.48,10-18.32,2-5.74,1.19-11.22,2.78-14.25,8.14a255.06,255.06,0,0,0,0,30.54h34.62L284.1,555.27H235.24Z" fill="#4d511b"/>
    <path d="M311,480.45h25.17c1-8.48,1-14,0-16.29-.72-4.57-4.66-7.27-10.36-8.89-5.25,4.69-9.3,4.13-11.85-2.92,5.64-4.7,9.81-4.92,11.85,1.45,5.15,1.74,9.54,4.24,11.85,8.89.14-7.15.73-13.66,3-17.77-5.38-5.88-3-10,3-13.33,4.51,5.09,6,9.75-1.46,13.33l-3,10.34a17.26,17.26,0,0,1,10.36-4.43c4.85-6.85,9.21-5.43,13.33,0-4,5.95-8.35,7.27-13.33,1.45-4.18.87-8.16,2-10.37,5.92a187.18,187.18,0,0,0,0,22.22h25.19l-8.89,54.85H319.89Z" fill="#4d511b"/>
    <path d="M105.07,529.86h53c2-17.86,2.14-29.4,0-34.29-1.53-9.63-9.81-15.31-21.82-18.71-11.06,9.86-19.57,8.7-24.94-6.16,11.86-9.89,20.65-10.35,24.94,3.07,10.84,3.64,20.08,8.92,24.94,18.71.31-15.05,1.54-28.77,6.24-37.41C156.1,442.68,161.06,434,173.66,427c9.49,10.72,12.59,20.52-3.06,28.07l-6.28,21.76c6.35-5.36,13.46-8.88,21.8-9.33,10.22-14.42,19.39-11.44,28.06,0-8.36,12.53-17.58,15.32-28.06,3.07-8.79,1.82-17.18,4.25-21.82,12.46a392.36,392.36,0,0,0,0,46.77h53L198.6,645.27H123.79Z" fill="#4d511b"/>
    <path d="M427,393.46h14.15c.54-4.77.57-7.85,0-9.15-.41-2.58-2.63-4.09-5.83-5-2.95,2.63-5.22,2.32-6.66-1.64,3.17-2.64,5.52-2.77,6.66.81,2.89,1,5.36,2.39,6.66,5,.08-4,.41-7.68,1.66-10-3-3.3-1.7-5.63,1.67-7.49,2.53,2.86,3.36,5.48-.82,7.49l-1.68,5.81a9.74,9.74,0,0,1,5.82-2.49c2.73-3.85,5.18-3.05,7.49,0-2.23,3.35-4.69,4.09-7.49.82-2.34.49-4.58,1.14-5.82,3.33a103.93,103.93,0,0,0,0,12.48H457l-5,30.83H432Z"/>
    <path d="M473,393.46h14.15c.54-4.77.57-7.85,0-9.15-.41-2.58-2.63-4.09-5.83-5-2.95,2.63-5.22,2.32-6.66-1.64,3.17-2.64,5.52-2.77,6.66.81,2.89,1,5.36,2.39,6.66,5,.08-4,.41-7.68,1.66-10-3-3.3-1.7-5.63,1.67-7.49,2.53,2.86,3.36,5.48-.82,7.49l-1.68,5.81a9.74,9.74,0,0,1,5.82-2.49c2.73-3.85,5.18-3.05,7.49,0-2.23,3.35-4.69,4.09-7.49.82-2.34.49-4.58,1.14-5.82,3.33a103.93,103.93,0,0,0,0,12.48H503l-5,30.83H478Z"/>
    <path d="M516,393.46h14.15c.54-4.77.57-7.85,0-9.15-.41-2.58-2.63-4.09-5.83-5-3,2.63-5.22,2.32-6.66-1.64,3.17-2.64,5.52-2.77,6.66.81,2.89,1,5.36,2.39,6.66,5,.08-4,.41-7.68,1.66-10-3-3.3-1.7-5.63,1.67-7.49,2.53,2.86,3.36,5.48-.82,7.49l-1.68,5.81a9.74,9.74,0,0,1,5.82-2.49c2.73-3.85,5.18-3.05,7.49,0-2.23,3.35-4.69,4.09-7.49.82-2.34.49-4.58,1.14-5.82,3.33a103.93,103.93,0,0,0,0,12.48H546l-5,30.83H521Z"/>
    <path d="M522,261.46h14.15c.54-4.77.57-7.85,0-9.15-.41-2.58-2.63-4.09-5.83-5-3,2.63-5.22,2.32-6.66-1.64,3.17-2.64,5.52-2.77,6.66.81,2.89,1,5.36,2.39,6.66,5,.08-4,.41-7.68,1.66-10-3-3.3-1.7-5.63,1.67-7.49,2.53,2.86,3.36,5.48-.82,7.49l-1.68,5.81a9.74,9.74,0,0,1,5.82-2.49c2.73-3.85,5.18-3.05,7.49,0-2.23,3.35-4.69,4.09-7.49.82-2.34.49-4.58,1.14-5.82,3.33a103.93,103.93,0,0,0,0,12.48H552l-5,30.83H527Z"/>
    <path d="M677,381.91h39.65c1.52-13.35,1.61-22,0-25.65-1.14-7.21-7.34-11.46-16.33-14-8.27,7.38-14.64,6.51-18.66-4.61,8.88-7.4,15.46-7.74,18.66,2.3,8.12,2.72,15,6.68,18.67,14,.23-11.27,1.14-21.53,4.66-28-8.48-9.27-4.76-15.78,4.66-21,7.11,8,9.42,15.35-2.29,21l-4.69,16.28c4.75-4,10.07-6.65,16.31-7,7.64-10.79,14.51-8.56,21,0-6.25,9.37-13.15,11.46-21,2.29-6.58,1.37-12.85,3.19-16.33,9.33a296,296,0,0,0,0,35H761l-14,86.4H691Z" fill="#4d511b"/>
    <path d="M1105,52h9.29c.36-3.13.37-5.15,0-6-.27-1.69-1.72-2.68-3.83-3.28-1.94,1.73-3.43,1.53-4.37-1.08,2.08-1.73,3.62-1.81,4.37.54a7,7,0,0,1,4.38,3.28c.05-2.64.27-5,1.09-6.56-2-2.17-1.12-3.7,1.09-4.92,1.67,1.88,2.21,3.6-.53,4.92l-1.11,3.82a6.41,6.41,0,0,1,3.83-1.64c1.79-2.53,3.4-2,4.92,0-1.47,2.2-3.09,2.69-4.92.54-1.54.32-3,.74-3.83,2.18a70.1,70.1,0,0,0,0,8.2h9.3l-3.28,20.25H1108.3Z"/>
    <path d="M558,393.46h14.15c.54-4.77.57-7.85,0-9.15-.41-2.58-2.63-4.09-5.83-5-3,2.63-5.22,2.32-6.66-1.64,3.17-2.64,5.52-2.77,6.66.81,2.89,1,5.36,2.39,6.66,5,.08-4,.41-7.68,1.66-10-3-3.3-1.7-5.63,1.67-7.49,2.53,2.86,3.36,5.48-.82,7.49l-1.68,5.81a9.74,9.74,0,0,1,5.82-2.49c2.73-3.85,5.18-3.05,7.49,0-2.23,3.35-4.69,4.09-7.49.82-2.34.49-4.58,1.14-5.82,3.33a103.93,103.93,0,0,0,0,12.48H588l-5,30.83H563Z"/>
    <path d="M458,261.46h14.15c.54-4.77.57-7.85,0-9.15-.41-2.58-2.63-4.09-5.83-5-2.95,2.63-5.22,2.32-6.66-1.64,3.17-2.64,5.52-2.77,6.66.81,2.89,1,5.36,2.39,6.66,5,.08-4,.41-7.68,1.66-10-3-3.3-1.7-5.63,1.67-7.49,2.53,2.86,3.36,5.48-.82,7.49l-1.68,5.81a9.74,9.74,0,0,1,5.82-2.49c2.73-3.85,5.18-3.05,7.49,0-2.23,3.35-4.69,4.09-7.49.82-2.34.49-4.58,1.14-5.82,3.33a103.93,103.93,0,0,0,0,12.48H488l-5,30.83H463Z"/>
    <path d="M1720,558V434.74L1920,451V578c15,39.36-7,57.25,0,105Z" fill="#edb266"/>
    <path d="M1194.81,336h-33s-8.13-6.52-6.72-22.41,11.56-20.77,11.56-20.77c2.91-4,3.1-8.44.31-13.25l-3.58-6.57c11.28,4.81,18.9,4.6,29.42,0l-4.74,5.76c-2.32,4.77-3.22,9.66-.47,14.87,0,0,14.38,9,14.38,22.61S1194.81,336,1194.81,336Z"/>
    <path d="M1103.89,338H1072.5s-7.73-4.76-6.39-16.36a18.53,18.53,0,0,1,11-15.17c2.76-3,2.94-6.16.29-9.67L1074,292c10.73,3.51,18,3.36,28,0l-4.51,4.21c-2.21,3.48-3.06,7.05-.44,10.85,0,0,13.68,6.55,13.68,16.51S1103.89,338,1103.89,338Z"/>
    <ellipse cx="1177.5" cy="272.5" rx="14.5" ry="4.5"/>
    <ellipse cx="1087.5" cy="291.5" rx="14.5" ry="4.5"/>
    <line x1="879" y1="688" x2="890" y2="714" fill="#6d521b"/>
    <ellipse cx="618.5" cy="838.84" rx="71.5" ry="39.84" fill="#664923" opacity="0.5"/>
    <ellipse cx="427.5" cy="839.84" rx="71.5" ry="39.84" fill="#664923" opacity="0.5"/>
    <polygon points="1555.01 75.34 1553.68 73.34 1552.3 75.3 1552.4 72.91 1550.13 73.68 1551.62 71.8 1549.33 71.09 1551.64 70.45 1550.2 68.53 1552.45 69.36 1552.42 66.97 1553.74 68.96 1555.12 67 1555.02 69.4 1557.29 68.63 1555.81 70.5 1558.09 71.21 1555.79 71.86 1557.22 73.78 1554.97 72.94 1555.01 75.34" fill="#eddb5a"/>
    <polygon points="1591.01 104.34 1589.68 102.34 1588.3 104.3 1588.4 101.91 1586.13 102.68 1587.62 100.8 1585.33 100.09 1587.64 99.45 1586.2 97.53 1588.45 98.36 1588.42 95.97 1589.74 97.96 1591.12 96 1591.02 98.4 1593.29 97.63 1591.81 99.5 1594.09 100.21 1591.79 100.86 1593.22 102.78 1590.97 101.94 1591.01 104.34" fill="#eddb5a"/>
    <polygon points="1595.01 154.34 1593.68 152.34 1592.3 154.3 1592.4 151.91 1590.13 152.68 1591.62 150.8 1589.33 150.09 1591.64 149.45 1590.2 147.53 1592.45 148.36 1592.42 145.97 1593.74 147.96 1595.12 146 1595.02 148.4 1597.29 147.63 1595.81 149.5 1598.09 150.21 1595.79 150.86 1597.22 152.78 1594.97 151.94 1595.01 154.34" fill="#eddb5a"/>
    <polygon points="1677.01 150.34 1675.68 148.34 1674.3 150.3 1674.4 147.91 1672.13 148.68 1673.62 146.8 1671.33 146.09 1673.64 145.45 1672.2 143.53 1674.45 144.36 1674.42 141.97 1675.74 143.96 1677.12 142 1677.02 144.4 1679.29 143.63 1677.81 145.5 1680.09 146.21 1677.79 146.86 1679.22 148.78 1676.97 147.94 1677.01 150.34" fill="#eddb5a"/>
    <polygon points="1646.01 44.34 1644.68 42.34 1643.3 44.3 1643.4 41.91 1641.13 42.68 1642.62 40.8 1640.33 40.09 1642.64 39.45 1641.2 37.53 1643.45 38.36 1643.42 35.97 1644.74 37.96 1646.12 36 1646.02 38.4 1648.29 37.63 1646.81 39.5 1649.09 40.21 1646.79 40.86 1648.22 42.78 1645.97 41.94 1646.01 44.34" fill="#eddb5a"/>
    <polygon points="1648.53 185.58 1644.95 180.21 1641.23 185.48 1641.5 179.04 1635.39 181.12 1639.4 176.06 1633.23 174.15 1639.45 172.41 1635.58 167.24 1641.63 169.49 1641.54 163.04 1645.12 168.41 1648.84 163.14 1648.57 169.59 1654.68 167.51 1650.67 172.56 1656.84 174.47 1650.62 176.21 1654.48 181.38 1648.44 179.13 1648.53 185.58" fill="#eddb5a"/>
    <polygon points="1662.53 100.58 1658.95 95.21 1655.23 100.48 1655.5 94.04 1649.39 96.11 1653.4 91.06 1647.23 89.15 1653.45 87.41 1649.58 82.24 1655.63 84.49 1655.54 78.04 1659.12 83.41 1662.84 78.14 1662.57 84.58 1668.68 82.51 1664.67 87.56 1670.84 89.47 1664.62 91.21 1668.48 96.38 1662.44 94.13 1662.53 100.58" fill="#eddb5a"/>
    <polygon points="1588.53 37.58 1584.95 32.21 1581.23 37.48 1581.5 31.04 1575.39 33.12 1579.4 28.06 1573.23 26.15 1579.45 24.41 1575.58 19.24 1581.63 21.49 1581.54 15.04 1585.12 20.41 1588.84 15.14 1588.57 21.59 1594.68 19.51 1590.67 24.56 1596.84 26.47 1590.62 28.21 1594.48 33.38 1588.44 31.13 1588.53 37.58" fill="#eddb5a"/>
  </g>
</svg>
