<svg id="Layer_1" data-name="Layer 1" xmlns="http://www.w3.org/2000/svg" xmlns:xlink="http://www.w3.org/1999/xlink" width="1920" height="1108" viewBox="0 0 1920 1108">
  <defs>
    <clipPath id="clip-path">
      <path d="M372.69,1072.83c-218.41-43.46-213-170.6-307.52-243.41S88,466.48,270.55,379.55,807.36,236.11,865,110.05s523.77-9.78,596.57,0,190.17-145.61,327.09-52.16S1839.69,393,1829.9,539.28c0,0,120.62,292.31-67.37,434.67s-143.44,108.66-341.21,128.22S1230.07,985.9,1052.94,994.59,591.11,1116.3,372.69,1072.83Z" fill="none"/>
    </clipPath>
  </defs>
  <g clip-path="url(#clip-path)">
    <path d="M1418.13,666.45h89.79c3.46-30.25,3.64-49.82,0-58.09-2.59-16.32-16.63-26-37-31.71-18.73,16.71-33.16,14.74-42.26-10.43,20.11-16.76,35-17.54,42.26,5.19,18.37,6.18,34,15.13,42.27,31.71.52-25.51,2.59-48.75,10.56-63.39-19.2-21-10.8-35.72,10.56-47.56,16.08,18.17,21.32,34.77-5.19,47.56l-10.64,36.87c10.77-9.08,22.81-15.05,37-15.8,17.3-24.44,32.84-19.38,47.53,0-14.17,21.22-29.79,26-47.53,5.19-14.9,3.09-29.11,7.21-37,21.12a662.93,662.93,0,0,0,0,79.24h89.83L1576.6,862H1449.83Z" fill="#4d511b"/>
    <rect width="1926" height="1107" fill="#c1cde5"/>
    <path d="M963,1107.13l-963,.38v-.38c0-296.78,434.71-541,963-541s963,244.22,963,541Z" fill="#a08472"/>
    <rect width="1920" height="459" fill="#f4f0df"/>
    <polygon points="1720 566 1637.67 534 1473 470 1473 0 1720 0 1720 566" fill="#e9f4f4"/>
    <rect x="1233" y="28" width="26" height="450" fill="#6d521b"/>
    <rect x="1019" y="28" width="26" height="450" fill="#6d521b"/>
    <rect x="592" y="137" width="26" height="355" fill="#6d521b"/>
    <rect x="392" y="137" width="26" height="355" fill="#6d521b"/>
    <rect x="486.25" y="295.75" width="26" height="293.5" transform="translate(941.75 -56.75) rotate(90)" fill="#6d521b"/>
    <rect x="1122.25" y="-57.25" width="26" height="293.5" transform="translate(1224.75 -1045.75) rotate(90)" fill="#6d521b"/>
    <rect x="1122.25" y="23.75" width="26" height="293.5" transform="translate(1305.75 -964.75) rotate(90)" fill="#6d521b"/>
    <rect x="490.25" y="166.75" width="26" height="293.5" transform="translate(816.75 -189.75) rotate(90)" fill="#6d521b"/>
    <rect x="490.25" y="49.75" width="26" height="293.5" transform="translate(699.75 -306.75) rotate(90)" fill="#6d521b"/>
    <rect x="1122.25" y="205.75" width="26" height="293.5" transform="translate(1487.75 -782.75) rotate(90)" fill="#6d521b"/>
    <polygon points="1473 159.78 1720 519.78 1720 469.11 1473 142 1473 159.78" fill="#fff"/>
    <polygon points="1473 82.78 1720 442.78 1720 392.11 1473 65 1473 82.78" fill="#fff"/>
    <path d="M223,487.9h34.61c1.33-11.66,1.4-19.2,0-22.39-1-6.29-6.41-10-14.25-12.22-7.22,6.44-12.78,5.68-16.29-4,7.75-6.46,13.49-6.76,16.29,2,7.08,2.38,13.11,5.83,16.29,12.22.2-9.83,1-18.79,4.07-24.43-7.4-8.09-4.16-13.77,4.07-18.33,6.2,7,8.22,13.4-2,18.33l-4.1,14.21c4.15-3.5,8.79-5.8,14.24-6.09,6.67-9.42,12.66-7.47,18.32,0-5.46,8.18-11.48,10-18.32,2-5.74,1.19-11.22,2.78-14.25,8.14a255.06,255.06,0,0,0,0,30.54h34.62L284.1,563.27H235.24Z" fill="#4d511b"/>
    <path d="M311,488.45h25.17c1-8.48,1-14,0-16.29-.72-4.57-4.66-7.27-10.36-8.89-5.25,4.69-9.3,4.13-11.85-2.92,5.64-4.7,9.81-4.92,11.85,1.45,5.15,1.74,9.54,4.24,11.85,8.89.14-7.15.73-13.66,3-17.77-5.38-5.88-3-10,3-13.33,4.51,5.09,6,9.75-1.46,13.33l-3,10.34a17.26,17.26,0,0,1,10.36-4.43c4.85-6.85,9.21-5.43,13.33,0-4,5.95-8.35,7.27-13.33,1.45-4.18.87-8.16,2-10.37,5.92a187.18,187.18,0,0,0,0,22.22h25.19l-8.89,54.85H319.89Z" fill="#4d511b"/>
    <path d="M105.07,537.86h53c2-17.86,2.14-29.4,0-34.29-1.53-9.63-9.81-15.31-21.82-18.71-11.06,9.86-19.57,8.7-24.94-6.16,11.86-9.89,20.65-10.35,24.94,3.07,10.84,3.64,20.08,8.92,24.94,18.71.31-15.05,1.54-28.77,6.24-37.41C156.1,450.68,161.06,442,173.66,435c9.49,10.72,12.59,20.52-3.06,28.07l-6.28,21.76c6.35-5.36,13.46-8.88,21.8-9.33,10.22-14.42,19.39-11.44,28.06,0-8.36,12.53-17.58,15.32-28.06,3.07-8.79,1.82-17.18,4.25-21.82,12.46a392.36,392.36,0,0,0,0,46.77h53L198.6,653.27H123.79Z" fill="#4d511b"/>
    <path d="M427,401.46h14.15c.54-4.77.57-7.85,0-9.15-.41-2.58-2.63-4.09-5.83-5-2.95,2.63-5.22,2.32-6.66-1.64,3.17-2.64,5.52-2.77,6.66.81,2.89,1,5.36,2.39,6.66,5,.08-4,.41-7.68,1.66-10-3-3.3-1.7-5.63,1.67-7.49,2.53,2.86,3.36,5.48-.82,7.49l-1.68,5.81a9.74,9.74,0,0,1,5.82-2.49c2.73-3.85,5.18-3.05,7.49,0-2.23,3.35-4.69,4.09-7.49.82-2.34.49-4.58,1.14-5.82,3.33a103.93,103.93,0,0,0,0,12.48H457l-5,30.83H432Z"/>
    <path d="M473,401.46h14.15c.54-4.77.57-7.85,0-9.15-.41-2.58-2.63-4.09-5.83-5-2.95,2.63-5.22,2.32-6.66-1.64,3.17-2.64,5.52-2.77,6.66.81,2.89,1,5.36,2.39,6.66,5,.08-4,.41-7.68,1.66-10-3-3.3-1.7-5.63,1.67-7.49,2.53,2.86,3.36,5.48-.82,7.49l-1.68,5.81a9.74,9.74,0,0,1,5.82-2.49c2.73-3.85,5.18-3.05,7.49,0-2.23,3.35-4.69,4.09-7.49.82-2.34.49-4.58,1.14-5.82,3.33a103.93,103.93,0,0,0,0,12.48H503l-5,30.83H478Z"/>
    <path d="M516,401.46h14.15c.54-4.77.57-7.85,0-9.15-.41-2.58-2.63-4.09-5.83-5-3,2.63-5.22,2.32-6.66-1.64,3.17-2.64,5.52-2.77,6.66.81,2.89,1,5.36,2.39,6.66,5,.08-4,.41-7.68,1.66-10-3-3.3-1.7-5.63,1.67-7.49,2.53,2.86,3.36,5.48-.82,7.49l-1.68,5.81a9.74,9.74,0,0,1,5.82-2.49c2.73-3.85,5.18-3.05,7.49,0-2.23,3.35-4.69,4.09-7.49.82-2.34.49-4.58,1.14-5.82,3.33a103.93,103.93,0,0,0,0,12.48H546l-5,30.83H521Z"/>
    <path d="M522,269.46h14.15c.54-4.77.57-7.85,0-9.15-.41-2.58-2.63-4.09-5.83-5-3,2.63-5.22,2.32-6.66-1.64,3.17-2.64,5.52-2.77,6.66.81,2.89,1,5.36,2.39,6.66,5,.08-4,.41-7.68,1.66-10-3-3.3-1.7-5.63,1.67-7.49,2.53,2.86,3.36,5.48-.82,7.49l-1.68,5.81a9.74,9.74,0,0,1,5.82-2.49c2.73-3.85,5.18-3.05,7.49,0-2.23,3.35-4.69,4.09-7.49.82-2.34.49-4.58,1.14-5.82,3.33a103.93,103.93,0,0,0,0,12.48H552l-5,30.83H527Z"/>
    <path d="M1334,389.91h39.65c1.52-13.35,1.61-22,0-25.65-1.14-7.21-7.34-11.46-16.33-14-8.27,7.38-14.64,6.51-18.66-4.61,8.88-7.4,15.46-7.74,18.66,2.3,8.12,2.72,15,6.68,18.67,14,.23-11.27,1.14-21.53,4.66-28-8.48-9.27-4.76-15.78,4.66-21,7.11,8,9.42,15.35-2.29,21l-4.69,16.28c4.75-4,10.07-6.65,16.31-7,7.64-10.79,14.51-8.56,21,0-6.25,9.37-13.15,11.46-21,2.29-6.58,1.37-12.85,3.19-16.33,9.33a296,296,0,0,0,0,35H1418l-14,86.4h-56Z" fill="#4d511b"/>
    <path d="M1105,60h9.29c.36-3.13.37-5.15,0-6-.27-1.69-1.72-2.68-3.83-3.28-1.94,1.73-3.43,1.53-4.37-1.08,2.08-1.73,3.62-1.81,4.37.54a7,7,0,0,1,4.38,3.28c.05-2.64.27-5,1.09-6.56-2-2.17-1.12-3.7,1.09-4.92,1.67,1.88,2.21,3.6-.53,4.92l-1.11,3.82a6.41,6.41,0,0,1,3.83-1.64c1.79-2.53,3.4-2,4.92,0-1.47,2.2-3.09,2.69-4.92.54-1.54.32-3,.74-3.83,2.18a70.1,70.1,0,0,0,0,8.2h9.3l-3.28,20.25H1108.3Z"/>
    <path d="M558,401.46h14.15c.54-4.77.57-7.85,0-9.15-.41-2.58-2.63-4.09-5.83-5-3,2.63-5.22,2.32-6.66-1.64,3.17-2.64,5.52-2.77,6.66.81,2.89,1,5.36,2.39,6.66,5,.08-4,.41-7.68,1.66-10-3-3.3-1.7-5.63,1.67-7.49,2.53,2.86,3.36,5.48-.82,7.49l-1.68,5.81a9.74,9.74,0,0,1,5.82-2.49c2.73-3.85,5.18-3.05,7.49,0-2.23,3.35-4.69,4.09-7.49.82-2.34.49-4.58,1.14-5.82,3.33a103.93,103.93,0,0,0,0,12.48H588l-5,30.83H563Z"/>
    <path d="M458,269.46h14.15c.54-4.77.57-7.85,0-9.15-.41-2.58-2.63-4.09-5.83-5-2.95,2.63-5.22,2.32-6.66-1.64,3.17-2.64,5.52-2.77,6.66.81,2.89,1,5.36,2.39,6.66,5,.08-4,.41-7.68,1.66-10-3-3.3-1.7-5.63,1.67-7.49,2.53,2.86,3.36,5.48-.82,7.49l-1.68,5.81a9.74,9.74,0,0,1,5.82-2.49c2.73-3.85,5.18-3.05,7.49,0-2.23,3.35-4.69,4.09-7.49.82-2.34.49-4.58,1.14-5.82,3.33a103.93,103.93,0,0,0,0,12.48H488l-5,30.83H463Z"/>
    <path d="M1720,566V442.74L1920,459V586c15,39.36-7,57.25,0,105Z" fill="#f4f0df"/>
    <path d="M1194.81,344h-33s-8.13-6.52-6.72-22.41,11.56-20.77,11.56-20.77c2.91-4,3.1-8.44.31-13.25l-3.58-6.57c11.28,4.81,18.9,4.6,29.42,0l-4.74,5.76c-2.32,4.77-3.22,9.66-.47,14.87,0,0,14.38,9,14.38,22.61S1194.81,344,1194.81,344Z"/>
    <path d="M1103.89,346H1072.5s-7.73-4.76-6.39-16.36a18.53,18.53,0,0,1,11-15.17c2.76-3,2.94-6.16.29-9.67L1074,300c10.73,3.51,18,3.36,28,0l-4.51,4.21c-2.21,3.48-3.06,7.05-.44,10.85,0,0,13.68,6.55,13.68,16.51S1103.89,346,1103.89,346Z"/>
    <ellipse cx="1177.5" cy="280.5" rx="14.5" ry="4.5"/>
    <ellipse cx="1087.5" cy="299.5" rx="14.5" ry="4.5"/>
    <line x1="879" y1="696" x2="890" y2="722" fill="#6d521b"/>
    <ellipse cx="974.5" cy="804" rx="170.5" ry="95" fill="#664923" opacity="0.5"/>
  </g>
</svg>
