<svg id="Layer_1" data-name="Layer 1" xmlns="http://www.w3.org/2000/svg" xmlns:xlink="http://www.w3.org/1999/xlink" width="1920" height="1108" viewBox="0 0 1920 1108">
  <defs>
    <style>
      .cls-1 {
        fill: none;
      }

      .cls-2 {
        clip-path: url(#clip-path);
      }

      .cls-3 {
        fill: #c1cde5;
      }

      .cls-4 {
        fill: #edb266;
      }

      .cls-5 {
        fill: #9b9b9b;
      }

      .cls-6 {
        fill: url(#radial-gradient);
      }

      .cls-7 {
        fill: #683123;
      }

      .cls-8 {
        fill: #87480f;
      }

      .cls-9 {
        fill: #447271;
      }

      .cls-10 {
        fill: #fff;
      }

      .cls-11 {
        fill: #eddb5a;
      }
    </style>
    <clipPath id="clip-path">
      <path class="cls-1" d="M372.69,1072.83c-218.41-43.46-213-170.6-307.52-243.41S88,466.48,270.55,379.55,807.36,236.11,865,110.05s523.77-9.78,596.57,0,190.17-145.61,327.09-52.16S1839.69,393,1829.9,539.28c0,0,120.62,292.31-67.37,434.67s-143.44,108.66-341.21,128.22S1230.07,985.9,1052.94,994.59,591.11,1116.3,372.69,1072.83Z"/>
    </clipPath>
    <radialGradient id="radial-gradient" cx="787.31" cy="568.66" r="266.66" gradientUnits="userSpaceOnUse">
      <stop offset="0.22" stop-color="#efc04d"/>
      <stop offset="0.48" stop-color="#e87e0c"/>
      <stop offset="0.72" stop-color="#c91c1c"/>
      <stop offset="1" stop-color="#2a2a2a"/>
    </radialGradient>
  </defs>
  <g class="cls-2">
    <rect class="cls-3" y="763" width="1920" height="345"/>
    <rect class="cls-4" width="1920" height="763"/>
    <rect class="cls-5" x="407.74" y="377.36" width="767.19" height="389.64"/>
    <rect class="cls-6" x="444.58" y="411.32" width="685.46" height="314.68"/>
    <circle class="cls-5" cx="404.58" cy="522.69" r="34.82"/>
    <circle class="cls-5" cx="404.58" cy="592.33" r="34.82"/>
    <circle class="cls-5" cx="404" cy="661.96" r="34.82"/>
    <circle class="cls-5" cx="402.85" cy="731.6" r="34.82"/>
    <circle class="cls-5" cx="406.88" cy="385.13" r="34.82"/>
    <circle class="cls-5" cx="473.64" cy="374.2" r="34.82"/>
    <circle class="cls-5" cx="543.28" cy="374.2" r="34.82"/>
    <circle class="cls-5" cx="612.92" cy="374.2" r="34.82"/>
    <circle class="cls-5" cx="682.56" cy="374.2" r="34.82"/>
    <circle class="cls-5" cx="752.2" cy="374.2" r="34.82"/>
    <circle class="cls-5" cx="822.99" cy="374.2" r="34.82"/>
    <circle class="cls-5" cx="892.63" cy="375.35" r="34.82"/>
    <circle class="cls-5" cx="962.85" cy="374.2" r="34.82"/>
    <circle class="cls-5" cx="1032.49" cy="374.2" r="34.82"/>
    <circle class="cls-5" cx="1102.13" cy="374.2" r="34.82"/>
    <circle class="cls-5" cx="1171.77" cy="385.13" r="34.82"/>
    <circle class="cls-5" cx="1171.77" cy="453.05" r="34.82"/>
    <circle class="cls-5" cx="1171.77" cy="522.69" r="34.82"/>
    <circle class="cls-5" cx="1171.77" cy="592.33" r="34.82"/>
    <circle class="cls-5" cx="1171.77" cy="661.96" r="34.82"/>
    <circle class="cls-5" cx="1171.77" cy="732.18" r="34.82"/>
    <circle class="cls-5" cx="407.46" cy="453.05" r="34.82"/>
    <rect class="cls-5" x="600.39" width="378.43" height="410.52"/>
    <path class="cls-7" d="M791.5,1110.25,293,1111.42v-1.17c0-161.83,225-295,498.5-295s498.5,133.17,498.5,295Z"/>
    <path class="cls-8" d="M361,1112S462,863,801,863s413.28,249,413.28,249Z"/>
    <rect class="cls-9" x="1423" y="94" width="362" height="362" rx="57.8"/>
    <polygon class="cls-10" points="1587.25 93 1587.25 259.55 1423 259.55 1423 274.5 1587.39 274.5 1587.39 456 1604 456 1604 274.93 1785 274.93 1785 259.83 1603.57 259.83 1603.57 93 1587.25 93"/>
    <polygon class="cls-11" points="1665.76 368.87 1663.64 365.69 1661.44 368.81 1661.6 365 1657.98 366.23 1660.35 363.23 1656.7 362.1 1660.38 361.07 1658.1 358.01 1661.68 359.34 1661.62 355.52 1663.74 358.7 1665.94 355.58 1665.79 359.4 1669.4 358.17 1667.03 361.16 1670.68 362.29 1667 363.32 1669.29 366.38 1665.71 365.05 1665.76 368.87"/>
    <polygon class="cls-11" points="1726.76 183.87 1724.64 180.69 1722.44 183.81 1722.6 180 1718.98 181.23 1721.35 178.23 1717.7 177.1 1721.38 176.07 1719.1 173.01 1722.68 174.34 1722.62 170.52 1724.74 173.7 1726.94 170.58 1726.79 174.4 1730.4 173.17 1728.03 176.16 1731.68 177.29 1728 178.32 1730.29 181.38 1726.71 180.05 1726.76 183.87"/>
    <polygon class="cls-11" points="1509.76 202.87 1507.64 199.69 1505.44 202.81 1505.6 199 1501.98 200.23 1504.35 197.23 1500.7 196.1 1504.38 195.07 1502.1 192.01 1505.68 193.34 1505.62 189.52 1507.74 192.7 1509.94 189.58 1509.79 193.4 1513.4 192.17 1511.03 195.16 1514.68 196.29 1511 197.32 1513.29 200.38 1509.71 199.05 1509.76 202.87"/>
    <polygon class="cls-11" points="1686.76 149.87 1684.64 146.69 1682.44 149.81 1682.6 146 1678.98 147.23 1681.35 144.23 1677.7 143.1 1681.38 142.07 1679.1 139.01 1682.68 140.34 1682.62 136.52 1684.74 139.7 1686.94 136.58 1686.79 140.4 1690.4 139.17 1688.03 142.16 1691.68 143.29 1688 144.32 1690.29 147.38 1686.71 146.05 1686.76 149.87"/>
    <polygon class="cls-11" points="1556.76 161.87 1554.64 158.69 1552.44 161.81 1552.6 158 1548.98 159.23 1551.35 156.23 1547.7 155.1 1551.38 154.07 1549.1 151.01 1552.68 152.34 1552.62 148.52 1554.74 151.7 1556.94 148.58 1556.79 152.4 1560.4 151.17 1558.03 154.16 1561.68 155.29 1558 156.32 1560.29 159.38 1556.71 158.05 1556.76 161.87"/>
    <polygon class="cls-11" points="1627.76 440.87 1625.64 437.69 1623.44 440.81 1623.6 437 1619.98 438.23 1622.35 435.23 1618.7 434.1 1622.38 433.07 1620.1 430.01 1623.68 431.34 1623.62 427.52 1625.74 430.7 1627.94 427.58 1627.79 431.4 1631.4 430.17 1629.03 433.16 1632.68 434.29 1629 435.32 1631.29 438.38 1627.71 437.05 1627.76 440.87"/>
    <polygon class="cls-11" points="1547.76 320.87 1545.64 317.69 1543.44 320.81 1543.6 317 1539.98 318.23 1542.35 315.23 1538.7 314.1 1542.38 313.07 1540.1 310.01 1543.68 311.34 1543.62 307.52 1545.74 310.7 1547.94 307.58 1547.79 311.4 1551.4 310.17 1549.03 313.16 1552.68 314.29 1549 315.32 1551.29 318.38 1547.71 317.05 1547.76 320.87"/>
    <polygon class="cls-11" points="1714.55 314.17 1711.77 309.99 1708.88 314.1 1709.08 309.08 1704.33 310.69 1707.45 306.76 1702.65 305.27 1707.49 303.92 1704.48 299.9 1709.19 301.64 1709.12 296.62 1711.9 300.81 1714.79 296.7 1714.59 301.72 1719.34 300.1 1716.22 304.04 1721.02 305.52 1716.18 306.88 1719.19 310.9 1714.48 309.15 1714.55 314.17"/>
    <polygon class="cls-11" points="1736.55 247.17 1733.77 242.99 1730.88 247.09 1731.08 242.08 1726.33 243.69 1729.45 239.76 1724.65 238.27 1729.49 236.92 1726.48 232.9 1731.19 234.65 1731.12 229.62 1733.9 233.81 1736.79 229.7 1736.59 234.72 1741.34 233.1 1738.22 237.04 1743.02 238.52 1738.18 239.88 1741.19 243.9 1736.48 242.15 1736.55 247.17"/>
    <polygon class="cls-11" points="1459.55 329.17 1456.77 324.99 1453.88 329.1 1454.08 324.08 1449.33 325.69 1452.45 321.76 1447.65 320.27 1452.49 318.92 1449.48 314.9 1454.19 316.64 1454.12 311.62 1456.9 315.81 1459.79 311.7 1459.59 316.72 1464.34 315.1 1461.22 319.04 1466.02 320.52 1461.18 321.88 1464.19 325.9 1459.48 324.15 1459.55 329.17"/>
    <polygon class="cls-11" points="1732.41 381.83 1728.72 376.28 1724.89 381.72 1725.16 375.07 1718.86 377.22 1722.99 372 1716.63 370.03 1723.05 368.24 1719.06 362.91 1725.3 365.22 1725.21 358.57 1728.89 364.11 1732.73 358.67 1732.45 365.32 1738.76 363.18 1734.62 368.4 1740.98 370.37 1734.57 372.16 1738.56 377.49 1732.32 375.17 1732.41 381.83"/>
    <polygon class="cls-11" points="1672.41 427.83 1668.72 422.28 1664.89 427.72 1665.16 421.07 1658.86 423.22 1662.99 418 1656.63 416.03 1663.05 414.24 1659.06 408.91 1665.3 411.22 1665.21 404.57 1668.89 410.11 1672.73 404.67 1672.45 411.32 1678.76 409.18 1674.62 414.4 1680.98 416.37 1674.57 418.16 1678.56 423.49 1672.32 421.17 1672.41 427.83"/>
    <polygon class="cls-11" points="1635.41 331.83 1631.72 326.28 1627.89 331.72 1628.16 325.07 1621.86 327.22 1625.99 322 1619.63 320.03 1626.05 318.24 1622.06 312.91 1628.3 315.22 1628.21 308.57 1631.89 314.11 1635.73 308.67 1635.45 315.32 1641.76 313.18 1637.62 318.4 1643.98 320.37 1637.57 322.16 1641.56 327.49 1635.32 325.17 1635.41 331.83"/>
    <polygon class="cls-11" points="1645.41 220.83 1641.72 215.28 1637.89 220.72 1638.16 214.07 1631.86 216.22 1635.99 211 1629.63 209.03 1636.05 207.24 1632.06 201.91 1638.3 204.22 1638.21 197.57 1641.89 203.11 1645.73 197.67 1645.45 204.32 1651.76 202.18 1647.62 207.4 1653.98 209.37 1647.57 211.16 1651.56 216.49 1645.32 214.17 1645.41 220.83"/>
    <polygon class="cls-11" points="1558.41 243.83 1554.72 238.28 1550.89 243.72 1551.16 237.07 1544.86 239.22 1548.99 234 1542.63 232.03 1549.05 230.24 1545.06 224.91 1551.3 227.22 1551.21 220.57 1554.89 226.11 1558.73 220.67 1558.45 227.32 1564.76 225.18 1560.62 230.4 1566.98 232.37 1560.57 234.16 1564.56 239.49 1558.32 237.17 1558.41 243.83"/>
    <polygon class="cls-11" points="1499.41 154.83 1495.72 149.28 1491.89 154.72 1492.16 148.07 1485.86 150.22 1489.99 145 1483.63 143.03 1490.05 141.24 1486.06 135.91 1492.3 138.22 1492.21 131.57 1495.89 137.11 1499.73 131.67 1499.45 138.32 1505.76 136.18 1501.62 141.4 1507.98 143.37 1501.57 145.16 1505.56 150.49 1499.32 148.17 1499.41 154.83"/>
    <polygon class="cls-11" points="1537.41 380.83 1533.72 375.28 1529.89 380.72 1530.16 374.07 1523.86 376.22 1527.99 371 1521.63 369.03 1528.05 367.24 1524.06 361.91 1530.3 364.22 1530.21 357.57 1533.89 363.11 1537.73 357.67 1537.45 364.32 1543.76 362.18 1539.62 367.4 1545.98 369.37 1539.57 371.16 1543.56 376.49 1537.32 374.17 1537.41 380.83"/>
    <circle class="cls-10" cx="1075" cy="578" r="27"/>
  </g>
</svg>
