<svg id="Layer_1" data-name="Layer 1" xmlns="http://www.w3.org/2000/svg" xmlns:xlink="http://www.w3.org/1999/xlink" width="1920" height="1108" viewBox="0 0 1920 1108"><defs><style>.cls-1{fill:none;}.cls-2{clip-path:url(#clip-path);}.cls-3{fill:#c1cde5;}.cls-4{fill:#f2e8aa;}.cls-5{fill:#9b9b9b;}.cls-6{fill:#565656;}.cls-7{fill:#683123;}.cls-8{fill:#87480f;}</style><clipPath id="clip-path"><path class="cls-1" d="M372.69,1072.83c-218.41-43.46-213-170.6-307.52-243.41S88,466.48,270.55,379.55,807.36,236.11,865,110.05s523.77-9.78,596.57,0,190.17-145.61,327.09-52.16S1839.69,393,1829.9,539.28c0,0,120.62,292.31-67.37,434.67s-143.44,108.66-341.21,128.22S1230.07,985.9,1052.94,994.59,591.11,1116.3,372.69,1072.83Z"/></clipPath></defs><g class="cls-2"><rect class="cls-3" y="763" width="1920" height="345"/><rect class="cls-4" width="1920" height="763"/><rect class="cls-5" x="348.72" y="298.82" width="921.83" height="468.18"/><rect class="cls-6" x="392.98" y="339.62" width="823.63" height="385.88" rx="45.04"/><circle class="cls-5" cx="344.91" cy="473.44" r="41.84"/><circle class="cls-5" cx="344.91" cy="557.12" r="41.84"/><circle class="cls-5" cx="344.22" cy="640.79" r="41.84"/><circle class="cls-5" cx="342.84" cy="724.47" r="41.84"/><circle class="cls-5" cx="347.68" cy="308.16" r="41.84"/><circle class="cls-5" cx="427.9" cy="295.02" r="41.84"/><circle class="cls-5" cx="511.58" cy="295.02" r="41.84"/><circle class="cls-5" cx="595.25" cy="295.02" r="41.84"/><circle class="cls-5" cx="678.93" cy="295.02" r="41.84"/><circle class="cls-5" cx="762.61" cy="295.02" r="41.84"/><circle class="cls-5" cx="847.67" cy="295.02" r="41.84"/><circle class="cls-5" cx="931.35" cy="296.4" r="41.84"/><circle class="cls-5" cx="1015.71" cy="295.02" r="41.84"/><circle class="cls-5" cx="1099.39" cy="295.02" r="41.84"/><circle class="cls-5" cx="1183.07" cy="295.02" r="41.84"/><circle class="cls-5" cx="1266.75" cy="308.16" r="41.84"/><circle class="cls-5" cx="1266.75" cy="389.76" r="41.84"/><circle class="cls-5" cx="1266.75" cy="473.44" r="41.84"/><circle class="cls-5" cx="1266.75" cy="557.12" r="41.84"/><circle class="cls-5" cx="1266.75" cy="640.79" r="41.84"/><circle class="cls-5" cx="1266.75" cy="725.16" r="41.84"/><circle class="cls-5" cx="348.37" cy="389.76" r="41.84"/><rect class="cls-5" x="580.19" y="4" width="454.71" height="334.67"/><path class="cls-7" d="M791.5,1110.25,293,1111.42v-1.17c0-161.83,225-295,498.5-295s498.5,133.17,498.5,295Z"/><path class="cls-8" d="M361,1112S462,863,801,863s413.28,249,413.28,249Z"/></g></svg>