<svg id="Layer_1" data-name="Layer 1" xmlns="http://www.w3.org/2000/svg" xmlns:xlink="http://www.w3.org/1999/xlink" width="1920" height="1108" viewBox="0 0 1920 1108">
  <defs>
    <style>
      .cls-1 {
        fill: none;
      }

      .cls-2 {
        clip-path: url(#clip-path);
      }

      .cls-3 {
        fill: #a8e5b5;
      }

      .cls-4 {
        fill: #93cc9a;
      }

      .cls-5 {
        fill: #e4ed9f;
      }

      .cls-6 {
        fill: #cee6ef;
      }

      .cls-7 {
        fill: #bee2ea;
      }

      .cls-8 {
        fill: #a2d9ea;
      }

      .cls-9 {
        fill: #a08472;
      }
    </style>
    <clipPath id="clip-path">
      <path class="cls-1" d="M372.69,1072.83c-218.41-43.46-213-170.6-307.52-243.41S88,466.48,270.55,379.55,807.36,236.11,865,110.05s523.77-9.78,596.57,0,190.17-145.61,327.09-52.16S1839.69,393,1829.9,539.28c0,0,120.62,292.31-67.37,434.67s-143.44,108.66-341.21,128.22S1230.07,985.9,1052.94,994.59,591.11,1116.3,372.69,1072.83Z"/>
    </clipPath>
  </defs>
  <g class="cls-2">
    <rect class="cls-3" x="-0.5" y="804" width="1921" height="130"/>
    <rect class="cls-4" x="-1" y="923" width="1921" height="185"/>
    <circle class="cls-5" cx="1693" cy="194" r="114"/>
    <rect class="cls-6" x="-2" y="545" width="1922" height="259"/>
    <rect class="cls-7" x="-1" y="286" width="1922" height="259"/>
    <rect class="cls-8" x="-1" y="28" width="1922" height="259"/>
    <rect class="cls-9" x="-5" y="760" width="865" height="350"/>
  </g>
</svg>
