<svg id="Layer_1" data-name="Layer 1" xmlns="http://www.w3.org/2000/svg" xmlns:xlink="http://www.w3.org/1999/xlink" width="1920" height="1108" viewBox="0 0 1920 1108">
  <defs>
    <style>
      .cls-1 {
        fill: none;
      }

      .cls-2 {
        clip-path: url(#clip-path);
      }

      .cls-3 {
        fill: #a8e5b5;
      }

      .cls-4 {
        fill: #93cc9a;
      }

      .cls-5 {
        fill: #e4ed9f;
      }

      .cls-6 {
        fill: #cee6ef;
      }

      .cls-7 {
        fill: #bee2ea;
      }

      .cls-8 {
        fill: #a2d9ea;
      }

      .cls-9 {
        fill: #a08472;
      }

      .cls-10, .cls-11 {
        fill: #4d511b;
      }

      .cls-11 {
        opacity: 0.5;
      }
    </style>
    <clipPath id="clip-path">
      <path class="cls-1" d="M372.69,1072.83c-218.41-43.46-213-170.6-307.52-243.41S88,466.48,270.55,379.55,807.36,236.11,865,110.05s523.77-9.78,596.57,0,190.17-145.61,327.09-52.16S1839.69,393,1829.9,539.28c0,0,120.62,292.31-67.37,434.67s-143.44,108.66-341.21,128.22S1230.07,985.9,1052.94,994.59,591.11,1116.3,372.69,1072.83Z"/>
    </clipPath>
  </defs>
  <g id="screen2">
    <g class="cls-2">
      <rect class="cls-3" x="-0.5" y="804" width="1921" height="130"/>
      <rect class="cls-4" x="-1" y="923" width="1921" height="185"/>
      <circle class="cls-5" cx="1693" cy="194" r="114"/>
      <rect class="cls-6" x="-2" y="545" width="1922" height="259"/>
      <rect class="cls-7" x="-1" y="286" width="1922" height="259"/>
      <rect class="cls-8" x="-1" y="28" width="1922" height="259"/>
      <rect class="cls-9" x="-5" y="608.67" width="1239" height="501.33"/>
      <path class="cls-10" d="M347.13,588.09H489.9c5.49-48.1,5.77-79.21,0-92.37-4.13-25.94-26.44-41.25-58.78-50.4-29.79,26.56-52.72,23.43-67.2-16.59,32-26.65,55.65-27.88,67.2,8.25,29.2,9.82,54.08,24,67.19,50.41.83-40.55,4.13-77.51,16.79-100.78-30.52-33.37-17.16-56.8,16.79-75.61,25.58,28.88,33.91,55.28-8.25,75.61l-16.91,58.62c17.12-14.44,36.26-23.92,58.74-25.12,27.52-38.86,52.23-30.81,75.58,0-22.53,33.74-47.36,41.25-75.58,8.25-23.68,4.91-46.28,11.47-58.78,33.58a1050.61,1050.61,0,0,0,0,126H649.5L599.09,899H397.54Z"/>
      <path class="cls-11" d="M495.05,1172.2l-102-54.52c-24.71,36.8-38.37,61.85-39.93,74.7-8.27,22.56,1.05,43.46,20.19,63.22,32.77-10.11,47.79,1.18,40.84,39.07-34.36,9.34-51.81,1.3-44.44-32.33-16.62-19.1-28.23-40.11-26.21-66.44C325.39,1228.38,307.05,1257,288,1271c7.37,38.65-12.31,52.5-44.69,54.75-5.79-33.13-.32-57.66,38.59-58l37.42-41c-18.47,5.14-36.24,5.51-52.82-2.11-36.46,20.92-50.63,5-54-28.86,30.68-18.69,51.67-15.28,57.56,22.19,19,5.07,38,8.4,56.51-4.71A1091.33,1091.33,0,0,0,381,1111.4l-102-54.54L449.5,824.52l144,77Z"/>
    </g>
  </g>
</svg>
