<svg id="Layer_1" data-name="Layer 1" xmlns="http://www.w3.org/2000/svg" width="600" height="523" viewBox="0 0 600 523"><defs><style>.cls-1{fill:#d1d1d1;}.cls-2{fill:#fff;}</style></defs><path class="cls-1" d="M530,266.4A250.07,250.07,0,0,1,279.72,516.63c-138.2,0-250.23-112-250.23-250.23s112-250.24,250.23-250.24S530,128.2,530,266.4Z"/><path class="cls-1" d="M593,442.92q-27.54-73.62-83.47-77.35l-58.31,83Q514.24,410.69,593,442.92Z"/><path class="cls-2" d="M512.5,254.76A250.07,250.07,0,0,1,262.27,505C124.07,505,12,393,12,254.76S124.07,4.53,262.27,4.53,512.5,116.56,512.5,254.76Z"/><path class="cls-2" d="M575.54,431.28Q548,357.67,492.08,353.93l-58.32,83Q496.78,399,575.54,431.28Z"/><path d="M57.49,214.13v24.51H54.93V227.33H39.6v11.31H37V214.13H39.6v10.93H54.93V214.13Z"/><path d="M81,230.2H65.57c.28,3.85,3.22,6.41,7.24,6.41a7.27,7.27,0,0,0,5.64-2.42l1.4,1.61a9.07,9.07,0,0,1-7.11,3c-5.74,0-9.66-3.92-9.66-9.38s3.82-9.35,9-9.35S81,223.9,81,229.43C81,229.64,81,229.92,81,230.2Zm-15.4-1.85H78.62a6.54,6.54,0,0,0-13.05,0Z"/><path d="M95.35,220.08v2.42c-.21,0-.42,0-.59,0-3.85,0-6.2,2.46-6.2,6.8v9.38H86.08V220.22h2.38v3.61C89.61,221.38,92,220.08,95.35,220.08Z"/><path d="M115.69,230.2h-15.4c.28,3.85,3.22,6.41,7.24,6.41a7.27,7.27,0,0,0,5.64-2.42l1.4,1.61a9.07,9.07,0,0,1-7.11,3c-5.74,0-9.66-3.92-9.66-9.38s3.82-9.35,9-9.35,8.92,3.82,8.92,9.35C115.72,229.64,115.69,229.92,115.69,230.2Zm-15.4-1.85h13a6.54,6.54,0,0,0-13,0Z"/><path d="M123.63,218.05v2.17h5.67v2.11h-5.6v16.31h-2.48V222.33h-3.29v-2.11h3.29V218c0-3.29,2-5.46,5.56-5.46a5.84,5.84,0,0,1,3.68,1.15l-.84,1.86a4.18,4.18,0,0,0-2.73-.91C124.75,214.59,123.63,215.78,123.63,218.05Z"/><path d="M142.36,237.52a6,6,0,0,1-3.89,1.29c-3.46,0-5.39-2-5.39-5.35V222.33h-3.29v-2.11h3.29v-4h2.49v4h5.6v2.11h-5.6v11c0,2.17,1.12,3.36,3.18,3.36a4.11,4.11,0,0,0,2.73-1Z"/><path d="M162.24,230.2h-15.4c.28,3.85,3.22,6.41,7.24,6.41a7.27,7.27,0,0,0,5.64-2.42l1.4,1.61a9.07,9.07,0,0,1-7.11,3c-5.74,0-9.66-3.92-9.66-9.38s3.82-9.35,9-9.35,8.92,3.82,8.92,9.35C162.27,229.64,162.24,229.92,162.24,230.2Zm-15.4-1.85h13a6.54,6.54,0,0,0-13,0Z"/><path d="M176.62,220.08v2.42c-.21,0-.42,0-.59,0-3.85,0-6.2,2.46-6.2,6.8v9.38h-2.48V220.22h2.38v3.61C170.88,221.38,173.23,220.08,176.62,220.08Z"/><path d="M209.21,229.43c0,5.57-3.92,9.38-9.17,9.38a8,8,0,0,1-7.11-3.81v3.64h-2.38v-26H193v11.07a8,8,0,0,1,7-3.65A8.91,8.91,0,0,1,209.21,229.43Zm-2.49,0c0-4.3-3-7.18-6.86-7.18s-6.86,2.88-6.86,7.18,2.94,7.18,6.86,7.18S206.72,233.74,206.72,229.43Z"/><path d="M223.56,220.08v2.42c-.21,0-.42,0-.6,0-3.85,0-6.19,2.46-6.19,6.8v9.38h-2.49V220.22h2.38v3.61C217.82,221.38,220.16,220.08,223.56,220.08Z"/><path d="M257.37,230.13H241.93c.25,3.89,3.15,6.48,7.25,6.48a7.29,7.29,0,0,0,5.63-2.42l1.4,1.61a9,9,0,0,1-7.1,3,9.22,9.22,0,0,1-8.23-4.23c-1.36,3.08-4.37,4.23-7.45,4.23-4.38,0-7-2.2-7-5.42,0-2.7,1.82-5.11,7.11-5.11h5.84v-1.16c0-3.15-1.78-4.87-5.21-4.87a9.4,9.4,0,0,0-6.13,2.17L227,222.57a11.76,11.76,0,0,1,7.46-2.49c3.53,0,5.81,1.3,6.75,3.79a8.62,8.62,0,0,1,7.32-3.79,8.81,8.81,0,0,1,9,9.21A7.13,7.13,0,0,1,257.37,230.13Zm-18,1.47v-1.47h-5.77c-3.54,0-4.73,1.4-4.73,3.19,0,2.2,1.75,3.53,4.69,3.53C237.14,236.85,239.41,234.86,239.41,231.6Zm2.52-3.32H255a6.55,6.55,0,0,0-13.06,0Z"/><path d="M279.45,228v10.68H277V228.21c0-3.89-2-5.88-5.53-5.88-4,0-6.44,2.45-6.44,6.65v9.66h-2.49V220.22h2.38v3.4c1.33-2.24,3.82-3.54,7-3.54C276.37,220.08,279.45,222.67,279.45,228Z"/><path d="M303.08,212.66v26H300.7V235a8,8,0,0,1-7.11,3.81c-5.25,0-9.17-3.81-9.17-9.38a8.91,8.91,0,0,1,9.17-9.35,8,8,0,0,1,7,3.65V212.66Zm-2.45,16.77c0-4.3-2.94-7.18-6.83-7.18s-6.86,2.88-6.86,7.18,2.94,7.18,6.86,7.18S300.63,233.74,300.63,229.43Z"/><path d="M326,230.2H310.63c.28,3.85,3.22,6.41,7.25,6.41a7.27,7.27,0,0,0,5.64-2.42l1.4,1.61a9.09,9.09,0,0,1-7.11,3c-5.74,0-9.66-3.92-9.66-9.38s3.81-9.35,9-9.35,8.93,3.82,8.93,9.35C326.07,229.64,326,229.92,326,230.2Zm-15.41-1.85h13.06a6.54,6.54,0,0,0-13.06,0Z"/><path d="M328.59,236.54l1.12-2a11.14,11.14,0,0,0,6.54,2.06c3.5,0,4.94-1.19,4.94-3,0-4.79-11.94-1-11.94-8.3,0-3,2.59-5.25,7.28-5.25A12.45,12.45,0,0,1,343,221.8l-1.08,2a9.45,9.45,0,0,0-5.43-1.57c-3.32,0-4.79,1.29-4.79,3.05,0,5,11.93,1.22,11.93,8.29,0,3.19-2.79,5.25-7.59,5.25A12.31,12.31,0,0,1,328.59,236.54Z"/><path d="M374.23,212.66v26h-2.38V235a8,8,0,0,1-7.11,3.81c-5.25,0-9.17-3.81-9.17-9.38a8.91,8.91,0,0,1,9.17-9.35,8,8,0,0,1,7,3.65V212.66Zm-2.45,16.77c0-4.3-2.94-7.18-6.83-7.18s-6.86,2.88-6.86,7.18,2.94,7.18,6.86,7.18S371.78,233.74,371.78,229.43Z"/><path d="M397.19,230.2h-15.4c.28,3.85,3.22,6.41,7.24,6.41a7.27,7.27,0,0,0,5.64-2.42l1.4,1.61a9.07,9.07,0,0,1-7.11,3c-5.74,0-9.66-3.92-9.66-9.38s3.82-9.35,9-9.35,8.92,3.82,8.92,9.35C397.22,229.64,397.19,229.92,397.19,230.2Zm-15.4-1.85h13a6.54,6.54,0,0,0-13,0Z"/><path d="M412,237.52a5.94,5.94,0,0,1-3.88,1.29c-3.47,0-5.39-2-5.39-5.35V222.33h-3.29v-2.11h3.29v-4h2.48v4h5.6v2.11h-5.6v11c0,2.17,1.12,3.36,3.19,3.36a4.13,4.13,0,0,0,2.73-1Z"/><path d="M425.12,214.41a1.79,1.79,0,0,1,1.82-1.75,1.77,1.77,0,0,1,1.82,1.72,1.82,1.82,0,0,1-3.64,0Zm.56,5.81h2.48v18.42h-2.48Z"/><path d="M442.41,229.43a9.36,9.36,0,1,1,9.38,9.38A9.06,9.06,0,0,1,442.41,229.43Zm16.2,0c0-4.3-2.9-7.18-6.82-7.18s-6.86,2.88-6.86,7.18,2.94,7.18,6.86,7.18S458.61,233.74,458.61,229.43Z"/><path d="M481.15,220.22,473,238.64h-2.55l-8.16-18.42h2.59l6.9,15.69,7-15.69Z"/><path d="M501.59,228v10.68h-2.48V228.21c0-3.89-2-5.88-5.53-5.88-4,0-6.44,2.45-6.44,6.65v9.66h-2.49V220.22H487v3.4c1.33-2.24,3.82-3.54,7-3.54C498.51,220.08,501.59,222.67,501.59,228Z"/><path d="M89,264.41v2.17h5.67v2.1h-5.6V285H86.57V268.68H83.28v-2.1h3.29V264.3c0-3.29,2-5.46,5.56-5.46A5.84,5.84,0,0,1,95.81,260L95,261.85a4.24,4.24,0,0,0-2.73-.91C90.1,260.94,89,262.13,89,264.41Z"/><path d="M95.84,275.79a9.37,9.37,0,1,1,9.38,9.38A9.06,9.06,0,0,1,95.84,275.79Zm16.21,0c0-4.31-2.91-7.18-6.83-7.18s-6.86,2.87-6.86,7.18,2.94,7.17,6.86,7.17S112.05,280.09,112.05,275.79Z"/><path d="M128.92,266.44v2.42c-.21,0-.42,0-.6,0-3.85,0-6.19,2.45-6.19,6.79V285h-2.49V266.58H122v3.61C123.18,267.74,125.52,266.44,128.92,266.44Z"/><path d="M145.68,264.41v2.17h5.67v2.1h-5.6V285h-2.48V268.68H140v-2.1h3.29V264.3c0-3.29,2-5.46,5.56-5.46a5.84,5.84,0,0,1,3.68,1.16l-.84,1.85a4.24,4.24,0,0,0-2.73-.91C146.8,260.94,145.68,262.13,145.68,264.41Z"/><path d="M171.27,275.79a9.06,9.06,0,0,1-9.35,9.38,10.34,10.34,0,0,1-4.69-1.12L155,287.48h-1.68l2.8-4.2a9.15,9.15,0,0,1-3.54-7.49,9.06,9.06,0,0,1,9.38-9.35,9.54,9.54,0,0,1,4.62,1.12l2.24-3.36h1.65l-2.73,4.1A9.13,9.13,0,0,1,171.27,275.79Zm-13.9,5.53,7.91-11.87a6.65,6.65,0,0,0-3.36-.84c-3.92,0-6.86,2.87-6.86,7.18A7.2,7.2,0,0,0,157.37,281.32Zm11.38-5.53a7.23,7.23,0,0,0-2.31-5.57l-7.91,11.9a6.76,6.76,0,0,0,3.39.84C165.84,283,168.75,280.09,168.75,275.79Z"/><path d="M185.62,266.44v2.42c-.21,0-.42,0-.6,0-3.85,0-6.19,2.45-6.19,6.79V285h-2.49V266.58h2.38v3.61C179.88,267.74,182.22,266.44,185.62,266.44Z"/><path d="M187.68,282.89l1.12-2a11.1,11.1,0,0,0,6.55,2.07c3.5,0,4.93-1.19,4.93-3,0-4.8-11.93-1-11.93-8.3,0-3,2.59-5.25,7.28-5.25a12.48,12.48,0,0,1,6.51,1.72l-1.09,2a9.42,9.42,0,0,0-5.42-1.57c-3.33,0-4.8,1.29-4.8,3,0,5,11.94,1.23,11.94,8.3,0,3.18-2.8,5.25-7.6,5.25A12.29,12.29,0,0,1,187.68,282.89Z"/><path d="M217.05,283.87a5.9,5.9,0,0,1-3.89,1.3c-3.46,0-5.39-2-5.39-5.36V268.68h-3.29v-2.1h3.29v-4h2.49v4h5.6v2.1h-5.6v11c0,2.17,1.12,3.36,3.18,3.36a4.1,4.1,0,0,0,2.73-.94Z"/><path d="M236.93,276.56h-15.4c.28,3.85,3.22,6.4,7.24,6.4a7.26,7.26,0,0,0,5.64-2.41l1.4,1.61a9.07,9.07,0,0,1-7.11,3c-5.74,0-9.66-3.92-9.66-9.38s3.82-9.35,9-9.35,8.92,3.82,8.92,9.35C237,276,236.93,276.28,236.93,276.56Zm-15.4-1.86h13.05a6.54,6.54,0,0,0-13.05,0Z"/><path d="M268.25,266.58v16.17c0,6.34-3.11,9.21-9.2,9.21-3.36,0-6.65-1-8.58-2.84l1.26-1.89a10.94,10.94,0,0,0,7.25,2.52c4.65,0,6.79-2.13,6.79-6.68v-2.35a8.28,8.28,0,0,1-7.18,3.57c-5.25,0-9.24-3.67-9.24-9s4-8.89,9.24-8.89a8.3,8.3,0,0,1,7.28,3.68v-3.54Zm-2.41,8.75c0-4-2.94-6.72-7-6.72s-7,2.73-7,6.72a6.59,6.59,0,0,0,7,6.76C262.9,282.09,265.84,279.32,265.84,275.33Z"/><path d="M289.11,273.58V285h-2.38v-2.87c-1.12,1.89-3.29,3.05-6.33,3.05-4.17,0-6.73-2.17-6.73-5.36,0-2.83,1.83-5.21,7.11-5.21h5.85v-1.12c0-3.15-1.79-4.87-5.22-4.87a9.4,9.4,0,0,0-6.13,2.17l-1.12-1.85a11.69,11.69,0,0,1,7.5-2.49C286.42,266.44,289.11,268.82,289.11,273.58Zm-2.48,5.88v-3h-5.78c-3.57,0-4.72,1.4-4.72,3.29,0,2.14,1.71,3.47,4.65,3.47A5.89,5.89,0,0,0,286.63,279.46Z"/><path d="M312.81,274.32V285h-2.49V274.56c0-3.88-2-5.88-5.53-5.88-4,0-6.44,2.45-6.44,6.65V285h-2.49V266.58h2.39V270c1.33-2.24,3.81-3.54,7-3.54C309.73,266.44,312.81,269,312.81,274.32Z"/><path d="M336.68,266.58v16.17c0,6.34-3.12,9.21-9.21,9.21-3.36,0-6.65-1-8.58-2.84l1.26-1.89a10.94,10.94,0,0,0,7.25,2.52c4.66,0,6.79-2.13,6.79-6.68v-2.35a8.27,8.27,0,0,1-7.18,3.57c-5.25,0-9.24-3.67-9.24-9s4-8.89,9.24-8.89a8.31,8.31,0,0,1,7.29,3.68v-3.54Zm-2.42,8.75c0-4-2.94-6.72-7-6.72s-7,2.73-7,6.72a6.59,6.59,0,0,0,7,6.76C331.32,282.09,334.26,279.32,334.26,275.33Z"/><path d="M342,283.24a1.85,1.85,0,0,1,1.85-1.89,1.88,1.88,0,0,1,1.89,1.89,1.91,1.91,0,0,1-1.89,1.93A1.88,1.88,0,0,1,342,283.24Z"/><path d="M360.75,260.49h10c7.84,0,13.13,5,13.13,12.25S378.57,285,370.73,285h-10Zm9.84,22.26c6.51,0,10.71-4.13,10.71-10s-4.2-10-10.71-10h-7.25v20Z"/><path d="M405.17,276.56h-15.4c.28,3.85,3.22,6.4,7.24,6.4a7.26,7.26,0,0,0,5.64-2.41l1.4,1.61a9.07,9.07,0,0,1-7.11,3c-5.74,0-9.66-3.92-9.66-9.38s3.82-9.35,9-9.35,8.93,3.82,8.93,9.35C405.21,276,405.17,276.28,405.17,276.56Zm-15.4-1.86h13.05a6.54,6.54,0,0,0-13.05,0Z"/><path d="M420,283.87a5.89,5.89,0,0,1-3.88,1.3c-3.47,0-5.39-2-5.39-5.36V268.68h-3.29v-2.1h3.29v-4h2.48v4h5.6v2.1h-5.6v11c0,2.17,1.12,3.36,3.19,3.36a4.12,4.12,0,0,0,2.73-.94Z"/><path d="M433.69,283.87a5.89,5.89,0,0,1-3.88,1.3c-3.47,0-5.39-2-5.39-5.36V268.68h-3.29v-2.1h3.29v-4h2.48v4h5.6v2.1h-5.6v11c0,2.17,1.12,3.36,3.19,3.36a4.12,4.12,0,0,0,2.73-.94Z"/><path d="M453.57,276.56h-15.4c.28,3.85,3.22,6.4,7.25,6.4a7.24,7.24,0,0,0,5.63-2.41l1.4,1.61a9.05,9.05,0,0,1-7.1,3c-5.74,0-9.66-3.92-9.66-9.38s3.81-9.35,9-9.35,8.93,3.82,8.93,9.35C453.61,276,453.57,276.28,453.57,276.56Zm-15.4-1.86h13.06a6.54,6.54,0,0,0-13.06,0Z"/><path d="M115.63,322.11l-4.34,4v5.25h-2.48v-26h2.48V323l11-10.05h3.08l-7.88,7.53,8.61,10.89h-3Z"/><path d="M143.39,319.94v11.41H141v-2.87c-1.12,1.89-3.29,3-6.34,3-4.16,0-6.72-2.17-6.72-5.35,0-2.84,1.82-5.22,7.11-5.22h5.84v-1.12c0-3.15-1.78-4.87-5.21-4.87a9.4,9.4,0,0,0-6.13,2.17l-1.12-1.85a11.74,11.74,0,0,1,7.49-2.49C140.69,312.79,143.39,315.17,143.39,319.94Zm-2.49,5.88v-3h-5.77c-3.57,0-4.73,1.4-4.73,3.29,0,2.13,1.72,3.46,4.66,3.46A5.89,5.89,0,0,0,140.9,325.82Z"/><path d="M150.14,305.37h2.49v26h-2.49Z"/><path d="M176.36,305.37v26H174v-3.64a8,8,0,0,1-7.11,3.81c-5.25,0-9.17-3.81-9.17-9.38a8.91,8.91,0,0,1,9.17-9.35,8.06,8.06,0,0,1,7,3.65V305.37Zm-2.45,16.77c0-4.31-2.94-7.18-6.83-7.18s-6.86,2.87-6.86,7.18,2.94,7.18,6.86,7.18S173.91,326.45,173.91,322.14Z"/><path d="M199.32,322.91h-15.4c.28,3.85,3.22,6.41,7.24,6.41a7.27,7.27,0,0,0,5.64-2.42l1.4,1.61a9.07,9.07,0,0,1-7.11,3c-5.74,0-9.66-3.92-9.66-9.38s3.82-9.35,9-9.35,8.92,3.82,8.92,9.35C199.35,322.35,199.32,322.63,199.32,322.91Zm-15.4-1.85H197a6.54,6.54,0,0,0-13.05,0Z"/><path d="M201.87,329.25l1.12-2a11.17,11.17,0,0,0,6.55,2.06c3.5,0,4.93-1.19,4.93-3,0-4.79-11.93-1-11.93-8.3,0-3,2.59-5.25,7.28-5.25a12.48,12.48,0,0,1,6.51,1.72l-1.09,2a9.42,9.42,0,0,0-5.42-1.57c-3.33,0-4.8,1.3-4.8,3.05,0,5,11.94,1.22,11.94,8.29,0,3.19-2.8,5.25-7.6,5.25A12.35,12.35,0,0,1,201.87,329.25Z"/><path d="M233.55,310.76v2.17h5.67V315h-5.6v16.31h-2.49V315h-3.29v-2.11h3.29v-2.27c0-3.29,2-5.46,5.57-5.46a5.83,5.83,0,0,1,3.67,1.15l-.84,1.86a4.18,4.18,0,0,0-2.73-.91C234.67,307.3,233.55,308.49,233.55,310.76Z"/><path d="M240.41,322.14a9.36,9.36,0,1,1,9.38,9.38A9.06,9.06,0,0,1,240.41,322.14Zm16.2,0c0-4.31-2.9-7.18-6.82-7.18s-6.86,2.87-6.86,7.18,2.94,7.18,6.86,7.18S256.61,326.45,256.61,322.14Z"/><path d="M273.48,312.79v2.42c-.21,0-.42,0-.59,0-3.85,0-6.2,2.46-6.2,6.8v9.38h-2.48V312.93h2.38v3.61C267.74,314.09,270.09,312.79,273.48,312.79Z"/><path d="M294.83,312.93v16.18c0,6.33-3.11,9.2-9.2,9.2-3.36,0-6.65-1-8.58-2.83l1.26-1.89a11,11,0,0,0,7.25,2.52c4.65,0,6.79-2.14,6.79-6.69v-2.34a8.31,8.31,0,0,1-7.18,3.57c-5.25,0-9.24-3.68-9.24-9s4-8.9,9.24-8.9a8.3,8.3,0,0,1,7.28,3.68v-3.54Zm-2.41,8.76c0-4-2.94-6.73-7-6.73s-7,2.74-7,6.73,2.91,6.75,7,6.75S292.42,325.68,292.42,321.69Z"/><path d="M301.8,305.37h2.48v26H301.8Z"/><path d="M328.08,322.14a9.05,9.05,0,0,1-9.34,9.38,10.27,10.27,0,0,1-4.69-1.12l-2.28,3.43h-1.68l2.8-4.2a9.16,9.16,0,0,1-3.53-7.49,9.06,9.06,0,0,1,9.38-9.35,9.46,9.46,0,0,1,4.62,1.13l2.24-3.37h1.64l-2.73,4.1A9.12,9.12,0,0,1,328.08,322.14Zm-13.89,5.53,7.91-11.87a6.75,6.75,0,0,0-3.36-.84c-3.92,0-6.86,2.87-6.86,7.18A7.15,7.15,0,0,0,314.19,327.67Zm11.37-5.53a7.16,7.16,0,0,0-2.31-5.56l-7.91,11.9a6.8,6.8,0,0,0,3.4.84C322.66,329.32,325.56,326.45,325.56,322.14Z"/><path d="M350,305.37v26h-2.38v-3.64a8,8,0,0,1-7.11,3.81c-5.25,0-9.17-3.81-9.17-9.38a8.91,8.91,0,0,1,9.17-9.35,8,8,0,0,1,7,3.65V305.37Zm-2.45,16.77c0-4.31-2.94-7.18-6.83-7.18s-6.86,2.87-6.86,7.18,2.94,7.18,6.86,7.18S347.51,326.45,347.51,322.14Z"/><path d="M373.83,320.67v10.68h-2.49V320.92c0-3.89-2-5.88-5.53-5.88-3.95,0-6.44,2.45-6.44,6.65v9.66h-2.48V312.93h2.38v3.4c1.33-2.24,3.81-3.54,7-3.54C370.75,312.79,373.83,315.38,373.83,320.67Z"/><path d="M380,307.12a1.8,1.8,0,0,1,1.82-1.75,1.76,1.76,0,0,1,1.82,1.72,1.79,1.79,0,0,1-1.82,1.82A1.81,1.81,0,0,1,380,307.12Zm.56,5.81h2.49v18.42h-2.49Z"/><path d="M406.94,320.67v10.68h-2.49V320.92c0-3.89-2-5.88-5.53-5.88-3.95,0-6.44,2.45-6.44,6.65v9.66H390V312.93h2.38v3.4c1.33-2.24,3.81-3.54,7-3.54C403.86,312.79,406.94,315.38,406.94,320.67Z"/><path d="M430.81,312.93v16.18c0,6.33-3.12,9.2-9.21,9.2-3.36,0-6.65-1-8.57-2.83l1.26-1.89a11,11,0,0,0,7.24,2.52c4.66,0,6.79-2.14,6.79-6.69v-2.34a8.29,8.29,0,0,1-7.17,3.57c-5.25,0-9.24-3.68-9.24-9s4-8.9,9.24-8.9a8.3,8.3,0,0,1,7.28,3.68v-3.54Zm-2.42,8.76c0-4-2.94-6.73-7-6.73s-7,2.74-7,6.73a6.57,6.57,0,0,0,7,6.75C425.45,328.44,428.39,325.68,428.39,321.69Z"/><path d="M436.16,329.6a1.85,1.85,0,0,1,1.86-1.89,1.88,1.88,0,0,1,1.89,1.89,1.91,1.91,0,0,1-1.89,1.92A1.88,1.88,0,0,1,436.16,329.6Z"/></svg>