<svg id="Layer_1" data-name="Layer 1" xmlns="http://www.w3.org/2000/svg" width="591" height="530" viewBox="0 0 591 530">
  <defs>
    <style>
      .cls-1 {
        fill: #d1d1d1;
      }

      .cls-2 {
        fill: #fff;
      }

      .cls-3 {
        font-size: 30px;
        font-family: Montserrat-Regular, Montserrat;
      }

      .cls-4 {
        letter-spacing: -0.02em;
      }

      .cls-5 {
        letter-spacing: -0.01em;
      }

      .cls-6 {
        letter-spacing: -0.01em;
      }

      .cls-7 {
        letter-spacing: 0.02em;
      }

      .cls-8 {
        letter-spacing: -0.02em;
      }

      .cls-9 {
        letter-spacing: 0em;
      }

      .cls-10 {
        letter-spacing: -0.01em;
      }

      .cls-11 {
        letter-spacing: 0.01em;
      }

      .cls-12 {
        letter-spacing: 0em;
      }
    </style>
  </defs>
  <g>
    <g>
      <path class="cls-1" d="M528,272.4A250.07,250.07,0,0,1,277.72,522.63c-138.2,0-250.23-112-250.23-250.23s112-250.24,250.23-250.24S528,134.2,528,272.4Z"/>
      <path class="cls-1" d="M591,448.92q-27.54-73.62-83.47-77.35l-58.31,83Q512.24,416.69,591,448.92Z"/>
    </g>
    <g>
      <path class="cls-2" d="M510.5,260.76A250.07,250.07,0,0,1,260.27,511C122.07,511,10,399,10,260.76s112-250.23,250.24-250.23S510.5,122.56,510.5,260.76Z"/>
      <path class="cls-2" d="M573.54,437.28Q546,363.67,490.08,359.93l-58.32,83Q494.78,405,573.54,437.28Z"/>
    </g>
  </g>
  <text class="cls-3" transform="translate(45.99 252.22)"><tspan class="cls-4">P</tspan><tspan class="cls-5" x="20.85" y="0">r</tspan><tspan x="32.49" y="0">o</tspan><tspan class="cls-6" x="51.3" y="0">c</tspan><tspan x="67.92" y="0">essen sta</tspan><tspan class="cls-7" x="206.22" y="0">r</tspan><tspan class="cls-8" x="218.7" y="0">t</tspan><tspan x="230.31" y="0">er </tspan><tspan class="cls-9" x="268.32" y="0">m</tspan><tspan x="300.21" y="0">ed en </tspan><tspan class="cls-10" x="392.81" y="0">n</tspan><tspan x="412.82" y="0">y</tspan><tspan x="82.15" y="46.36" xml:space="preserve"> idé til et p</tspan><tspan class="cls-5" x="239.08" y="46.36">r</tspan><tspan x="250.72" y="46.36">oduk</tspan><tspan class="cls-11" x="328.09" y="46.36">t</tspan><tspan class="cls-12" x="340.57" y="46.36">.</tspan></text>
</svg>
