<svg id="Layer_1" data-name="Layer 1" xmlns="http://www.w3.org/2000/svg" width="104" height="99" viewBox="0 0 104 99">
  <g>
    <path d="M94.79,31.35a30.55,30.55,0,0,0-2-10.18A20.41,20.41,0,0,0,88,13.72a20.69,20.69,0,0,0-7.43-4.84,31,31,0,0,0-10.19-2c-4.49-.21-5.92-.26-17.32-.26s-12.83,0-17.3.24a30.57,30.57,0,0,0-10.19,2,20.41,20.41,0,0,0-7.45,4.85,20.69,20.69,0,0,0-4.84,7.43,31,31,0,0,0-1.95,10.19c-.21,4.49-.26,5.92-.26,17.32s0,12.83.25,17.3a30.34,30.34,0,0,0,1.95,10.19A21.48,21.48,0,0,0,25.53,88.44a31,31,0,0,0,10.19,2c4.48.2,5.91.24,17.31.24s12.82,0,17.3-.24a30.9,30.9,0,0,0,10.19-2A21.51,21.51,0,0,0,92.8,76.15a30.4,30.4,0,0,0,2-10.19c.2-4.47.25-5.9.25-17.3S95,35.83,94.79,31.35ZM87.23,65.64a23.07,23.07,0,0,1-1.45,7.79,13.91,13.91,0,0,1-8,8A23.26,23.26,0,0,1,70,82.84c-4.43.2-5.76.25-17,.25s-12.55,0-17-.25a23.08,23.08,0,0,1-7.79-1.44,13,13,0,0,1-4.83-3.13,13.17,13.17,0,0,1-3.13-4.83,23.14,23.14,0,0,1-1.44-7.79c-.2-4.43-.25-5.76-.25-17s.05-12.55.25-17a23.14,23.14,0,0,1,1.44-7.79,12.7,12.7,0,0,1,3.15-4.82A13.07,13.07,0,0,1,28.32,16a23.26,23.26,0,0,1,7.79-1.44c4.43-.2,5.76-.25,17-.25s12.55.05,17,.25A23.16,23.16,0,0,1,77.83,16a13,13,0,0,1,4.82,3.14,13,13,0,0,1,3.13,4.82,23.19,23.19,0,0,1,1.45,7.79c.19,4.43.24,5.76.24,17S87.42,61.21,87.23,65.64Z" fill="#fff"/>
    <path d="M53,27.09A21.57,21.57,0,1,0,74.61,48.66,21.57,21.57,0,0,0,53,27.09Zm0,35.56a14,14,0,1,1,14-14A14,14,0,0,1,53,62.65Z" fill="#fff"/>
    <path d="M80.5,26.24a5,5,0,1,1-5-5A5,5,0,0,1,80.5,26.24Z" fill="#fff"/>
  </g>
</svg>
