<svg id="Layer_1" data-name="Layer 1" xmlns="http://www.w3.org/2000/svg" width="62" height="41" viewBox="0 0 62 41">
  <g>
    <g>
      <path d="M12.77,6.47A18.56,18.56,0,0,1,8.24,2L7.19.41a.9.9,0,0,0-1-.37.91.91,0,0,0-.65.87V15.22a3.56,3.56,0,0,0-1.82-.51,3.65,3.65,0,1,0,3.64,3.65V3.91a22.63,22.63,0,0,0,4.35,4,2.72,2.72,0,0,1,1.13,2.21,2.74,2.74,0,0,1-2.74,2.74.91.91,0,0,0,0,1.82,4.56,4.56,0,0,0,2.69-8.24Z" fill="#4d511b"/>
      <path d="M30,7.45,17.12,11.1a.91.91,0,0,0-.66.88V24.34a3.53,3.53,0,0,0-1.82-.51,3.65,3.65,0,1,0,3.65,3.65V16.31l11.06-3.12v7.5a3.63,3.63,0,1,0,1.83,3.14V8.33A.92.92,0,0,0,30,7.45Z" fill="#4d511b"/>
    </g>
    <text transform="translate(32.36 40.18)" font-size="18.45" fill="#4d511b" font-family="Montserrat-Light, Montserrat" font-weight="300">ON</text>
  </g>
</svg>
