<svg id="Layer_1" data-name="Layer 1" xmlns="http://www.w3.org/2000/svg" width="591" height="530" viewBox="0 0 591 530">
  <defs>
    <style>
      .cls-1 {
        fill: #d1d1d1;
      }

      .cls-2 {
        fill: #fff;
      }
    </style>
  </defs>
  <g>
    <g>
      <path class="cls-1" d="M528,272.4A250.07,250.07,0,0,1,277.72,522.63c-138.2,0-250.23-112-250.23-250.23s112-250.24,250.23-250.24S528,134.2,528,272.4Z"/>
      <path class="cls-1" d="M591,448.92q-27.54-73.62-83.47-77.35l-58.31,83Q512.24,416.69,591,448.92Z"/>
    </g>
    <g>
      <path class="cls-2" d="M510.5,260.76A250.07,250.07,0,0,1,260.27,511C122.07,511,10,399,10,260.76s112-250.23,250.24-250.23S510.5,122.56,510.5,260.76Z"/>
      <path class="cls-2" d="M573.54,437.28Q546,363.67,490.08,359.93l-58.32,83Q494.78,405,573.54,437.28Z"/>
    </g>
  </g>
  <g>
    <path d="M54.56,236.12c0,5.21-3.78,8.36-10,8.36H38v7.74H35.38v-24.5h9.17C50.78,227.72,54.56,230.87,54.56,236.12Zm-2.59,0c0-3.92-2.59-6.16-7.49-6.16H38v12.25h6.51C49.38,242.21,52,240,52,236.12Z"/>
    <path d="M68.46,233.67v2.41c-.21,0-.42,0-.6,0-3.85,0-6.19,2.45-6.19,6.79v9.38H59.18V233.81h2.38v3.6C62.72,235,65.06,233.67,68.46,233.67Z"/>
    <path d="M70.91,243a9.36,9.36,0,1,1,9.38,9.38A9.05,9.05,0,0,1,70.91,243Zm16.2,0c0-4.3-2.9-7.17-6.82-7.17s-6.86,2.87-6.86,7.17,2.94,7.18,6.86,7.18S87.11,247.32,87.11,243Z"/>
    <path d="M92.85,243c0-5.49,4-9.34,9.49-9.34a8,8,0,0,1,7.21,3.64l-1.86,1.26a6.24,6.24,0,0,0-5.35-2.73,6.76,6.76,0,0,0-7,7.17c0,4.34,2.94,7.18,7,7.18a6.22,6.22,0,0,0,5.35-2.7l1.86,1.26a8.12,8.12,0,0,1-7.21,3.64A9.09,9.09,0,0,1,92.85,243Z"/>
    <path d="M130.13,243.78h-15.4c.28,3.85,3.22,6.41,7.24,6.41a7.27,7.27,0,0,0,5.64-2.42l1.4,1.61a9.07,9.07,0,0,1-7.11,3c-5.74,0-9.66-3.92-9.66-9.38s3.82-9.34,9-9.34,8.92,3.81,8.92,9.34C130.16,243.22,130.13,243.5,130.13,243.78Zm-15.4-1.85h13a6.54,6.54,0,0,0-13,0Z"/>
    <path d="M132.68,250.12l1.12-2a11.17,11.17,0,0,0,6.55,2.06c3.5,0,4.93-1.19,4.93-3,0-4.79-11.93-1-11.93-8.29,0-3,2.59-5.25,7.28-5.25a12.47,12.47,0,0,1,6.51,1.71l-1.09,2a9.43,9.43,0,0,0-5.42-1.58c-3.33,0-4.8,1.3-4.8,3,0,5,11.94,1.22,11.94,8.29,0,3.19-2.8,5.25-7.6,5.25A12.29,12.29,0,0,1,132.68,250.12Z"/>
    <path d="M149.8,250.12l1.12-2a11.14,11.14,0,0,0,6.54,2.06c3.5,0,4.94-1.19,4.94-3,0-4.79-11.94-1-11.94-8.29,0-3,2.59-5.25,7.28-5.25a12.47,12.47,0,0,1,6.51,1.71l-1.08,2a9.46,9.46,0,0,0-5.43-1.58c-3.32,0-4.79,1.3-4.79,3,0,5,11.93,1.22,11.93,8.29,0,3.19-2.8,5.25-7.59,5.25A12.24,12.24,0,0,1,149.8,250.12Z"/>
    <path d="M185.5,243.78H170.1c.28,3.85,3.22,6.41,7.24,6.41a7.27,7.27,0,0,0,5.64-2.42l1.4,1.61a9.07,9.07,0,0,1-7.11,3c-5.74,0-9.66-3.92-9.66-9.38s3.82-9.34,9-9.34,8.92,3.81,8.92,9.34C185.53,243.22,185.5,243.5,185.5,243.78Zm-15.4-1.85h13.05a6.54,6.54,0,0,0-13.05,0Z"/>
    <path d="M207.55,241.54v10.68h-2.49V241.79c0-3.89-2-5.88-5.53-5.88-3.95,0-6.44,2.45-6.44,6.65v9.66h-2.48V233.81H193v3.39c1.33-2.24,3.81-3.53,7-3.53C204.47,233.67,207.55,236.26,207.55,241.54Z"/>
    <path d="M220.92,250.12l1.12-2a11.14,11.14,0,0,0,6.54,2.06c3.5,0,4.94-1.19,4.94-3,0-4.79-11.94-1-11.94-8.29,0-3,2.59-5.25,7.28-5.25a12.47,12.47,0,0,1,6.51,1.71l-1.08,2a9.46,9.46,0,0,0-5.43-1.58c-3.32,0-4.79,1.3-4.79,3,0,5,11.93,1.22,11.93,8.29,0,3.19-2.8,5.25-7.59,5.25A12.24,12.24,0,0,1,220.92,250.12Z"/>
    <path d="M250.28,251.1a5.94,5.94,0,0,1-3.88,1.29c-3.47,0-5.39-2-5.39-5.35V235.91h-3.29v-2.1H241v-4h2.48v4h5.6v2.1h-5.6v11c0,2.17,1.12,3.36,3.19,3.36a4.13,4.13,0,0,0,2.73-.95Z"/>
    <path d="M268.69,240.81v11.41h-2.38v-2.87c-1.12,1.89-3.29,3-6.33,3-4.17,0-6.72-2.17-6.72-5.35,0-2.84,1.82-5.22,7.1-5.22h5.85V240.7c0-3.15-1.79-4.86-5.22-4.86a9.35,9.35,0,0,0-6.12,2.17l-1.12-1.86a11.7,11.7,0,0,1,7.49-2.48C266,233.67,268.69,236.05,268.69,240.81Zm-2.48,5.88v-3h-5.78c-3.57,0-4.72,1.4-4.72,3.29,0,2.13,1.71,3.46,4.65,3.46A5.9,5.9,0,0,0,266.21,246.69Z"/>
    <path d="M284.72,233.67v2.41c-.21,0-.42,0-.59,0-3.85,0-6.2,2.45-6.2,6.79v9.38h-2.48V233.81h2.38v3.6C279,235,281.33,233.67,284.72,233.67Z"/>
    <path d="M299.7,251.1a5.94,5.94,0,0,1-3.88,1.29c-3.47,0-5.4-2-5.4-5.35V235.91h-3.29v-2.1h3.29v-4h2.49v4h5.6v2.1h-5.6v11c0,2.17,1.12,3.36,3.19,3.36a4.13,4.13,0,0,0,2.73-.95Z"/>
    <path d="M319.58,243.78h-15.4c.28,3.85,3.22,6.41,7.25,6.41a7.25,7.25,0,0,0,5.63-2.42l1.4,1.61a9.05,9.05,0,0,1-7.1,3c-5.74,0-9.67-3.92-9.67-9.38s3.82-9.34,9-9.34,8.93,3.81,8.93,9.34C319.62,243.22,319.58,243.5,319.58,243.78Zm-15.4-1.85h13.06a6.54,6.54,0,0,0-13.06,0Z"/>
    <path d="M334,233.67v2.41c-.21,0-.42,0-.59,0-3.85,0-6.2,2.45-6.2,6.79v9.38h-2.48V233.81h2.38v3.6C328.22,235,330.57,233.67,334,233.67Z"/>
    <path d="M378.28,241.54v10.68h-2.49V241.79c0-3.89-2-5.88-5.28-5.88-3.78,0-6.17,2.45-6.17,6.65v9.66h-2.48V241.79c0-3.89-2-5.88-5.32-5.88-3.75,0-6.16,2.45-6.16,6.65v9.66h-2.49V233.81h2.38v3.36a7.45,7.45,0,0,1,6.76-3.5c3,0,5.43,1.29,6.55,3.88a8,8,0,0,1,7.28-3.88C375.34,233.67,378.28,236.26,378.28,241.54Z"/>
    <path d="M401.13,243.78h-15.4c.28,3.85,3.22,6.41,7.24,6.41a7.27,7.27,0,0,0,5.64-2.42l1.4,1.61a9.07,9.07,0,0,1-7.11,3c-5.74,0-9.66-3.92-9.66-9.38s3.82-9.34,9-9.34,8.93,3.81,8.93,9.34C401.17,243.22,401.13,243.5,401.13,243.78Zm-15.4-1.85h13a6.54,6.54,0,0,0-13,0Z"/>
    <path d="M423,226.25v26h-2.38v-3.64a8,8,0,0,1-7.11,3.81c-5.25,0-9.17-3.81-9.17-9.38a8.9,8.9,0,0,1,9.17-9.34,8,8,0,0,1,7,3.64V226.25ZM420.59,243c0-4.3-2.94-7.17-6.83-7.17s-6.86,2.87-6.86,7.17,2.94,7.18,6.86,7.18S420.59,247.32,420.59,243Z"/>
    <path d="M455.17,243.78h-15.4c.28,3.85,3.22,6.41,7.24,6.41a7.27,7.27,0,0,0,5.64-2.42l1.4,1.61a9.07,9.07,0,0,1-7.11,3c-5.74,0-9.66-3.92-9.66-9.38s3.82-9.34,9-9.34,8.92,3.81,8.92,9.34C455.2,243.22,455.17,243.5,455.17,243.78Zm-15.4-1.85h13.05a6.54,6.54,0,0,0-13.05,0Z"/>
    <path d="M477.22,241.54v10.68h-2.49V241.79c0-3.89-2-5.88-5.53-5.88-3.95,0-6.44,2.45-6.44,6.65v9.66h-2.48V233.81h2.38v3.39c1.33-2.24,3.81-3.53,7-3.53C474.14,233.67,477.22,236.26,477.22,241.54Z"/>
    <path d="M80.46,274.35a1.8,1.8,0,0,1,1.82-1.75,1.76,1.76,0,0,1,1.82,1.72,1.79,1.79,0,0,1-1.82,1.82A1.81,1.81,0,0,1,80.46,274.35Zm.56,5.81h2.49v18.42H81Z"/>
    <path d="M107.24,272.6v26h-2.38v-3.65a8,8,0,0,1-7.11,3.82c-5.25,0-9.17-3.82-9.17-9.38S92.5,280,97.75,280a8,8,0,0,1,7,3.64V272.6Zm-2.45,16.77c0-4.31-2.94-7.18-6.83-7.18s-6.86,2.87-6.86,7.18S94,296.54,98,296.54,104.79,293.67,104.79,289.37Z"/>
    <path d="M130.2,290.14H114.8c.28,3.85,3.22,6.4,7.24,6.4a7.26,7.26,0,0,0,5.64-2.41l1.4,1.61a9.07,9.07,0,0,1-7.11,3c-5.74,0-9.66-3.92-9.66-9.38s3.82-9.35,9-9.35,8.92,3.82,8.92,9.35C130.23,289.58,130.2,289.86,130.2,290.14Zm-15.4-1.86h13a6.54,6.54,0,0,0-13,0Zm6.68-10.95H119l4.8-4.34h3.32Z"/>
    <path d="M154.17,297.46a5.94,5.94,0,0,1-3.88,1.29c-3.47,0-5.39-2-5.39-5.36V282.26h-3.29v-2.1h3.29v-4h2.48v4H153v2.1h-5.6v11c0,2.17,1.12,3.37,3.19,3.37a4.13,4.13,0,0,0,2.73-.95Z"/>
    <path d="M158.13,274.35A1.79,1.79,0,0,1,160,272.6a1.77,1.77,0,0,1,1.82,1.72,1.82,1.82,0,0,1-3.64,0Zm.56,5.81h2.48v18.42h-2.48Z"/>
    <path d="M168.1,272.6h2.49v26H168.1Z"/>
    <path d="M202.72,290.14h-15.4c.28,3.85,3.22,6.4,7.24,6.4a7.26,7.26,0,0,0,5.64-2.41l1.4,1.61a9.07,9.07,0,0,1-7.11,3c-5.74,0-9.66-3.92-9.66-9.38s3.82-9.35,9-9.35,8.92,3.82,8.92,9.35C202.75,289.58,202.72,289.86,202.72,290.14Zm-15.4-1.86h13.05a6.54,6.54,0,0,0-13.05,0Z"/>
    <path d="M217.52,297.46a5.94,5.94,0,0,1-3.88,1.29c-3.47,0-5.39-2-5.39-5.36V282.26H205v-2.1h3.29v-4h2.48v4h5.6v2.1h-5.6v11c0,2.17,1.12,3.37,3.19,3.37a4.13,4.13,0,0,0,2.73-.95Z"/>
    <path d="M248.15,287.9v10.68h-2.49V288.14c0-3.88-2-5.88-5.53-5.88-4,0-6.44,2.45-6.44,6.65v9.67H231.2V280.16h2.38v3.4c1.34-2.24,3.82-3.54,7-3.54C245.07,280,248.15,282.61,248.15,287.9Z"/>
    <path d="M270,280.16l-9.21,20.62c-1.54,3.61-3.5,4.76-6.12,4.76a6.29,6.29,0,0,1-4.48-1.68l1.15-1.85a4.6,4.6,0,0,0,3.36,1.4c1.65,0,2.77-.77,3.82-3.08l.8-1.79-8.22-18.38h2.59l6.93,15.65,6.93-15.65Z"/>
    <path d="M283.74,297.46a6,6,0,0,1-3.89,1.29c-3.46,0-5.39-2-5.39-5.36V282.26h-3.29v-2.1h3.29v-4H277v4h5.6v2.1H277v11c0,2.17,1.12,3.37,3.18,3.37a4.13,4.13,0,0,0,2.74-.95Z"/>
    <path d="M316.08,289.37c0,5.6-3.92,9.38-9.17,9.38a8,8,0,0,1-7-3.64v10.26h-2.49V280.16h2.38v3.64a8,8,0,0,1,7.11-3.78C312.16,280,316.08,283.8,316.08,289.37Zm-2.48,0c0-4.27-3-7.18-6.87-7.18s-6.86,2.91-6.86,7.18,2.94,7.17,6.86,7.17S313.6,293.67,313.6,289.37Z"/>
    <path d="M330.43,280v2.42c-.21,0-.42,0-.6,0-3.85,0-6.19,2.45-6.19,6.79v9.39h-2.49V280.16h2.38v3.61C324.69,281.32,327,280,330.43,280Z"/>
    <path d="M332.88,289.37a9.36,9.36,0,1,1,9.38,9.38A9.06,9.06,0,0,1,332.88,289.37Zm16.2,0c0-4.31-2.9-7.18-6.82-7.18s-6.86,2.87-6.86,7.18,2.94,7.17,6.86,7.17S349.08,293.67,349.08,289.37Z"/>
    <path d="M373.48,272.6v26H371.1v-3.65a8,8,0,0,1-7.11,3.82c-5.25,0-9.17-3.82-9.17-9.38S358.74,280,364,280a8.06,8.06,0,0,1,7,3.64V272.6ZM371,289.37c0-4.31-2.94-7.18-6.83-7.18s-6.86,2.87-6.86,7.18,2.94,7.17,6.86,7.17S371,293.67,371,289.37Z"/>
    <path d="M397,280.16v18.42h-2.38v-3.37a7.32,7.32,0,0,1-6.62,3.54c-4.69,0-7.77-2.62-7.77-7.91V280.16h2.49v10.43c0,3.92,2,5.92,5.53,5.92,3.85,0,6.26-2.49,6.26-6.69v-9.66Z"/>
    <path d="M410.79,289.33l-4.34,4v5.26H404v-26h2.49v17.61l11-10h3.08l-7.88,7.53,8.61,10.89h-3Z"/>
    <path d="M434.69,297.46a5.94,5.94,0,0,1-3.88,1.29c-3.47,0-5.39-2-5.39-5.36V282.26h-3.29v-2.1h3.29v-4h2.48v4h5.6v2.1h-5.6v11c0,2.17,1.12,3.37,3.19,3.37a4.13,4.13,0,0,0,2.73-.95Z"/>
    <path d="M438,296.83a1.86,1.86,0,0,1,1.85-1.9,1.88,1.88,0,0,1,1.89,1.9,1.91,1.91,0,0,1-1.89,1.92A1.88,1.88,0,0,1,438,296.83Z"/>
  </g>
</svg>
