<svg id="Layer_1" data-name="Layer 1" xmlns="http://www.w3.org/2000/svg" width="602" height="539" viewBox="0 0 602 539">
  <g>
    <g>
      <path d="M533,279.11A250.09,250.09,0,0,1,282.72,529.34c-138.2,0-250.23-112-250.23-250.23s112-250.24,250.23-250.24S533,140.91,533,279.11Z" fill="#d1d1d1"/>
      <path d="M596,455.63Q568.46,382,512.53,378.28l-58.31,83Q517.24,423.4,596,455.63Z" fill="#d1d1d1"/>
    </g>
    <g>
      <path d="M515.5,267.47A250.07,250.07,0,0,1,265.27,517.7C127.07,517.7,15,405.67,15,267.47s112-250.24,250.24-250.24S515.5,129.27,515.5,267.47Z" fill="#fff"/>
      <path d="M578.54,444Q551,370.37,495.08,366.64l-58.32,83Q499.78,411.76,578.54,444Z" fill="#fff"/>
    </g>
  </g>
  <g>
    <path d="M78.81,219.16h10c7.84,0,13.12,5.05,13.12,12.26s-5.28,12.25-13.12,12.25h-10Zm9.84,22.27c6.51,0,10.71-4.13,10.71-10s-4.2-10-10.71-10H81.4v20Z"/>
    <path d="M123.23,235.23h-15.4c.28,3.85,3.22,6.41,7.24,6.41a7.27,7.27,0,0,0,5.64-2.42l1.4,1.61a9.07,9.07,0,0,1-7.11,3c-5.74,0-9.66-3.92-9.66-9.38s3.82-9.34,9-9.34,8.92,3.81,8.92,9.34C123.26,234.67,123.23,235,123.23,235.23Zm-15.4-1.85h13a6.54,6.54,0,0,0-13,0Z"/>
    <path d="M138,242.55a5.94,5.94,0,0,1-3.88,1.29c-3.47,0-5.39-2-5.39-5.35V227.36h-3.29v-2.11h3.29v-4h2.48v4h5.6v2.11h-5.6v11c0,2.17,1.12,3.36,3.19,3.36a4.13,4.13,0,0,0,2.73-1Z"/>
    <path d="M168.76,225.25v16.18c0,6.33-3.11,9.2-9.2,9.2-3.36,0-6.66-1-8.58-2.83l1.26-1.89a11,11,0,0,0,7.25,2.52c4.65,0,6.79-2.14,6.79-6.69V239.4A8.31,8.31,0,0,1,159.1,243c-5.25,0-9.24-3.68-9.24-9s4-8.89,9.24-8.89a8.32,8.32,0,0,1,7.28,3.67v-3.54ZM166.35,234c0-4-2.94-6.72-7-6.72s-7,2.73-7,6.72,2.91,6.75,7,6.75S166.35,238,166.35,234Z"/>
    <path d="M175.72,217.69h2.49v26h-2.49Z"/>
    <path d="M199,232.26v11.41h-2.38V240.8c-1.12,1.89-3.29,3-6.34,3-4.17,0-6.72-2.17-6.72-5.35,0-2.84,1.82-5.22,7.1-5.22h5.85v-1.12c0-3.15-1.78-4.86-5.22-4.86a9.35,9.35,0,0,0-6.12,2.17l-1.12-1.86a11.7,11.7,0,0,1,7.49-2.48C196.34,225.12,199,227.5,199,232.26Zm-2.49,5.88v-3h-5.78c-3.57,0-4.72,1.4-4.72,3.29,0,2.13,1.71,3.46,4.65,3.46A5.9,5.9,0,0,0,196.55,238.14Z"/>
    <path d="M203.23,241.57l1.12-2a11.17,11.17,0,0,0,6.55,2.06c3.5,0,4.93-1.19,4.93-3,0-4.79-11.93-1-11.93-8.29,0-3,2.59-5.25,7.28-5.25a12.47,12.47,0,0,1,6.51,1.71l-1.08,2a9.46,9.46,0,0,0-5.43-1.58c-3.33,0-4.8,1.29-4.8,3.05,0,5,11.94,1.22,11.94,8.29,0,3.19-2.8,5.25-7.6,5.25A12.35,12.35,0,0,1,203.23,241.57Z"/>
    <path d="M238.94,235.23H223.53c.28,3.85,3.22,6.41,7.25,6.41a7.27,7.27,0,0,0,5.64-2.42l1.4,1.61a9.07,9.07,0,0,1-7.11,3c-5.74,0-9.66-3.92-9.66-9.38s3.81-9.34,9-9.34,8.93,3.81,8.93,9.34C239,234.67,238.94,235,238.94,235.23Zm-15.41-1.85h13.06a6.54,6.54,0,0,0-13.06,0Z"/>
    <path d="M253.32,225.12v2.41c-.21,0-.42,0-.59,0-3.86,0-6.2,2.45-6.2,6.79v9.38H244V225.25h2.38v3.61C247.58,226.41,249.92,225.12,253.32,225.12Z"/>
    <path d="M273.66,235.23H258.25c.28,3.85,3.22,6.41,7.25,6.41a7.25,7.25,0,0,0,5.63-2.42l1.41,1.61a9.09,9.09,0,0,1-7.11,3c-5.74,0-9.66-3.92-9.66-9.38s3.81-9.34,9-9.34,8.93,3.81,8.93,9.34C273.69,234.67,273.66,235,273.66,235.23Zm-15.41-1.85h13.06a6.54,6.54,0,0,0-13.06,0Z"/>
    <path d="M295.56,217.69v26h-2.38V240a8,8,0,0,1-7.1,3.81c-5.25,0-9.17-3.81-9.17-9.38a8.9,8.9,0,0,1,9.17-9.34,8,8,0,0,1,7,3.64V217.69Zm-2.45,16.77c0-4.3-2.94-7.17-6.82-7.17s-6.86,2.87-6.86,7.17,2.94,7.18,6.86,7.18S293.11,238.77,293.11,234.46Z"/>
    <path d="M318.52,235.23h-15.4c.28,3.85,3.22,6.41,7.25,6.41a7.25,7.25,0,0,0,5.63-2.42l1.4,1.61a9.05,9.05,0,0,1-7.1,3c-5.74,0-9.66-3.92-9.66-9.38s3.81-9.34,9-9.34,8.93,3.81,8.93,9.34C318.56,234.67,318.52,235,318.52,235.23Zm-15.4-1.85h13.06a6.54,6.54,0,0,0-13.06,0Z"/>
    <path d="M351.46,234.46c0,5.6-3.92,9.38-9.17,9.38a8,8,0,0,1-7-3.64v10.26H332.8V225.25h2.38v3.65a8,8,0,0,1,7.11-3.78A8.9,8.9,0,0,1,351.46,234.46Zm-2.49,0c0-4.27-3-7.17-6.86-7.17s-6.86,2.9-6.86,7.17,2.94,7.18,6.86,7.18S349,238.77,349,234.46Z"/>
    <path d="M365.81,225.12v2.41c-.21,0-.42,0-.6,0-3.85,0-6.19,2.45-6.19,6.79v9.38h-2.49V225.25h2.38v3.61C360.07,226.41,362.41,225.12,365.81,225.12Z"/>
    <path d="M368.26,234.46a9.36,9.36,0,1,1,9.38,9.38A9.05,9.05,0,0,1,368.26,234.46Zm16.2,0c0-4.3-2.9-7.17-6.82-7.17s-6.86,2.87-6.86,7.17,2.94,7.18,6.86,7.18S384.46,238.77,384.46,234.46Z"/>
    <path d="M408.86,217.69v26h-2.38V240a8,8,0,0,1-7.11,3.81c-5.25,0-9.17-3.81-9.17-9.38a8.9,8.9,0,0,1,9.17-9.34,8,8,0,0,1,7,3.64V217.69Zm-2.45,16.77c0-4.3-2.94-7.17-6.83-7.17s-6.86,2.87-6.86,7.17,2.94,7.18,6.86,7.18S406.41,238.77,406.41,234.46Z"/>
    <path d="M432.38,225.25v18.42H430v-3.36a7.33,7.33,0,0,1-6.62,3.53c-4.69,0-7.77-2.62-7.77-7.91V225.25h2.49v10.44c0,3.92,2,5.91,5.53,5.91,3.85,0,6.26-2.48,6.26-6.68v-9.67Z"/>
    <path d="M446.17,234.43l-4.34,4v5.25h-2.49v-26h2.49V235.3l11-10.05h3.08L448,232.78l8.61,10.89h-3Z"/>
    <path d="M470.07,242.55a5.94,5.94,0,0,1-3.88,1.29c-3.47,0-5.39-2-5.39-5.35V227.36h-3.29v-2.11h3.29v-4h2.48v4h5.6v2.11h-5.6v11c0,2.17,1.12,3.36,3.19,3.36a4.13,4.13,0,0,0,2.73-1Z"/>
    <path d="M83,276.46c0,5.57-3.92,9.38-9.17,9.38A8,8,0,0,1,66.7,282v3.64H64.32v-26h2.49v11.07a8,8,0,0,1,7-3.64A8.9,8.9,0,0,1,83,276.46Zm-2.49,0c0-4.3-3-7.17-6.86-7.17s-6.86,2.87-6.86,7.17,2.94,7.18,6.86,7.18S80.49,280.77,80.49,276.46Z"/>
    <path d="M88.05,259.69h2.49v26H88.05Z"/>
    <path d="M96.91,261.44a1.79,1.79,0,0,1,1.82-1.75,1.77,1.77,0,0,1,1.82,1.72,1.82,1.82,0,0,1-3.64,0Zm.56,5.81H100v18.42H97.47Z"/>
    <path d="M122.35,267.25l-8.19,18.42h-2.55l-8.16-18.42H106l6.9,15.69,7-15.69Z"/>
    <path d="M141.36,277.23H126c.28,3.85,3.22,6.41,7.24,6.41a7.27,7.27,0,0,0,5.64-2.42l1.4,1.61a9.07,9.07,0,0,1-7.11,3c-5.74,0-9.66-3.92-9.66-9.38s3.82-9.34,9-9.34,8.92,3.81,8.92,9.34C141.39,276.67,141.36,277,141.36,277.23ZM126,275.38h13a6.54,6.54,0,0,0-13,0Z"/>
    <path d="M155.74,267.12v2.41c-.21,0-.42,0-.59,0-3.85,0-6.2,2.45-6.2,6.79v9.38h-2.48V267.25h2.38v3.61C150,268.41,152.35,267.12,155.74,267.12Z"/>
    <path d="M167.11,283.57l1.12-2a11.19,11.19,0,0,0,6.55,2.06c3.5,0,4.94-1.19,4.94-3,0-4.79-11.94-1-11.94-8.29,0-3,2.59-5.25,7.28-5.25a12.47,12.47,0,0,1,6.51,1.71l-1.08,2a9.46,9.46,0,0,0-5.43-1.58c-3.32,0-4.79,1.29-4.79,3.05,0,5,11.93,1.22,11.93,8.29,0,3.19-2.8,5.25-7.59,5.25A12.36,12.36,0,0,1,167.11,283.57Z"/>
    <path d="M202.82,277.23h-15.4c.28,3.85,3.22,6.41,7.24,6.41a7.27,7.27,0,0,0,5.64-2.42l1.4,1.61a9.07,9.07,0,0,1-7.11,3c-5.74,0-9.66-3.92-9.66-9.38s3.82-9.34,9-9.34,8.92,3.81,8.92,9.34C202.85,276.67,202.82,277,202.82,277.23Zm-15.4-1.85h13.05a6.54,6.54,0,0,0-13.05,0Z"/>
    <path d="M224.87,275v10.68h-2.49V275.24c0-3.89-2-5.88-5.53-5.88-3.95,0-6.44,2.45-6.44,6.65v9.66h-2.49V267.25h2.38v3.4c1.33-2.24,3.82-3.53,7-3.53C221.79,267.12,224.87,269.71,224.87,275Z"/>
    <path d="M248.49,259.69v26h-2.38V282a8,8,0,0,1-7.11,3.81c-5.25,0-9.17-3.81-9.17-9.38a8.9,8.9,0,0,1,9.17-9.34,8,8,0,0,1,7,3.64V259.69ZM246,276.46c0-4.3-2.94-7.17-6.83-7.17s-6.86,2.87-6.86,7.17,2.94,7.18,6.86,7.18S246,280.77,246,276.46Z"/>
    <path d="M265.18,284.55a5.94,5.94,0,0,1-3.88,1.29c-3.47,0-5.39-2-5.39-5.35V269.36h-3.29v-2.11h3.29v-4h2.48v4H264v2.11h-5.6v11c0,2.17,1.12,3.36,3.19,3.36a4.13,4.13,0,0,0,2.73-.95Z"/>
    <path d="M288.56,284.55a5.94,5.94,0,0,1-3.88,1.29c-3.47,0-5.39-2-5.39-5.35V269.36H276v-2.11h3.29v-4h2.48v4h5.6v2.11h-5.6v11c0,2.17,1.12,3.36,3.19,3.36a4.13,4.13,0,0,0,2.73-.95Z"/>
    <path d="M292.52,261.44a1.79,1.79,0,0,1,1.82-1.75,1.77,1.77,0,0,1,1.82,1.72,1.82,1.82,0,0,1-3.64,0Zm.56,5.81h2.48v18.42h-2.48Z"/>
    <path d="M302.49,259.69H305v26h-2.49Z"/>
    <path d="M339.73,276.46c0,5.57-3.92,9.38-9.17,9.38a8,8,0,0,1-7.1-3.81v3.64h-2.38v-26h2.48v11.07a8,8,0,0,1,7-3.64A8.9,8.9,0,0,1,339.73,276.46Zm-2.48,0c0-4.3-3-7.17-6.86-7.17s-6.86,2.87-6.86,7.17,2.94,7.18,6.86,7.18S337.25,280.77,337.25,276.46Z"/>
    <path d="M354.08,267.12v2.41c-.21,0-.42,0-.59,0-3.85,0-6.2,2.45-6.2,6.79v9.38h-2.48V267.25h2.38v3.61C348.34,268.41,350.69,267.12,354.08,267.12Z"/>
    <path d="M387.9,277.16H372.46c.24,3.89,3.15,6.48,7.24,6.48a7.32,7.32,0,0,0,5.64-2.42l1.4,1.61a9,9,0,0,1-7.11,3,9.2,9.2,0,0,1-8.22-4.23c-1.37,3.08-4.38,4.23-7.46,4.23-4.37,0-7-2.2-7-5.42,0-2.7,1.82-5.11,7.1-5.11h5.85v-1.16c0-3.15-1.79-4.86-5.22-4.86a9.35,9.35,0,0,0-6.12,2.17l-1.12-1.86a11.74,11.74,0,0,1,7.45-2.48c3.54,0,5.81,1.29,6.76,3.78a8.6,8.6,0,0,1,7.31-3.78,8.81,8.81,0,0,1,9,9.2A7.13,7.13,0,0,1,387.9,277.16Zm-18,1.47v-1.47h-5.78c-3.53,0-4.72,1.4-4.72,3.19,0,2.2,1.75,3.53,4.69,3.53C367.66,283.88,369.94,281.89,369.94,278.63Zm2.52-3.32h13.06a6.55,6.55,0,0,0-13.06,0Z"/>
    <path d="M410,275v10.68h-2.49V275.24c0-3.89-2-5.88-5.53-5.88-3.95,0-6.44,2.45-6.44,6.65v9.66H393V267.25h2.38v3.4c1.33-2.24,3.81-3.53,7-3.53C406.9,267.12,410,269.71,410,275Z"/>
    <path d="M433.6,259.69v26h-2.38V282a8,8,0,0,1-7.1,3.81c-5.25,0-9.17-3.81-9.17-9.38a8.9,8.9,0,0,1,9.17-9.34,8,8,0,0,1,7,3.64V259.69Zm-2.45,16.77c0-4.3-2.94-7.17-6.82-7.17s-6.86,2.87-6.86,7.17,2.94,7.18,6.86,7.18S431.15,280.77,431.15,276.46Z"/>
    <path d="M440,261.44a1.8,1.8,0,0,1,1.82-1.75,1.76,1.76,0,0,1,1.82,1.72,1.79,1.79,0,0,1-1.82,1.82A1.81,1.81,0,0,1,440,261.44Zm.56,5.81H443v18.42h-2.49Z"/>
    <path d="M466.89,275v10.68H464.4V275.24c0-3.89-2-5.88-5.53-5.88-3.95,0-6.44,2.45-6.44,6.65v9.66H450V267.25h2.38v3.4c1.33-2.24,3.81-3.53,7-3.53C463.81,267.12,466.89,269.71,466.89,275Z"/>
    <path d="M490.76,267.25v16.18c0,6.33-3.12,9.2-9.21,9.2-3.36,0-6.65-1-8.57-2.83l1.26-1.89a11,11,0,0,0,7.24,2.52c4.66,0,6.79-2.14,6.79-6.69V281.4A8.29,8.29,0,0,1,481.1,285c-5.25,0-9.24-3.68-9.24-9s4-8.89,9.24-8.89a8.32,8.32,0,0,1,7.28,3.67v-3.54ZM488.34,276c0-4-2.94-6.72-7-6.72s-7,2.73-7,6.72a6.57,6.57,0,0,0,7,6.75C485.4,282.76,488.34,280,488.34,276Z"/>
  </g>
</svg>
