<svg id="Layer_1" data-name="Layer 1" xmlns="http://www.w3.org/2000/svg" width="592" height="555" viewBox="0 0 592 555">
  <g>
    <g>
      <path d="M524,273.55A250.07,250.07,0,0,1,273.72,523.78c-138.2,0-250.23-112-250.23-250.23s112-250.24,250.23-250.24S524,135.35,524,273.55Z" fill="#d1d1d1"/>
      <path d="M587,450.07q-27.54-73.6-83.47-77.35l-58.31,83Q508.24,417.84,587,450.07Z" fill="#d1d1d1"/>
    </g>
    <g>
      <path d="M506.5,261.91A250.07,250.07,0,0,1,256.27,512.14C118.07,512.14,6,400.11,6,261.91s112-250.23,250.24-250.23S506.5,123.71,506.5,261.91Z" fill="#fff"/>
      <path d="M569.54,438.43q-27.54-73.6-83.46-77.35l-58.32,83Q490.78,406.2,569.54,438.43Z" fill="#fff"/>
    </g>
  </g>
  <g>
    <path d="M76.67,171.74h10c7.84,0,13.13,5,13.13,12.25s-5.29,12.25-13.13,12.25h-10ZM86.5,194c6.51,0,10.71-4.13,10.71-10S93,174,86.5,174H79.26v20Z"/>
    <path d="M121.08,187.81h-15.4c.28,3.85,3.22,6.4,7.24,6.4a7.25,7.25,0,0,0,5.64-2.41l1.4,1.61a9.05,9.05,0,0,1-7.1,3c-5.75,0-9.67-3.92-9.67-9.38s3.82-9.35,9-9.35,8.93,3.82,8.93,9.35C121.12,187.25,121.08,187.53,121.08,187.81ZM105.68,186h13.06a6.54,6.54,0,0,0-13.06,0Z"/>
    <path d="M143.13,185.57v10.67h-2.48V185.81c0-3.88-2-5.88-5.53-5.88-4,0-6.45,2.45-6.45,6.65v9.66h-2.48V177.83h2.38v3.4c1.33-2.24,3.81-3.54,7-3.54C140.05,177.69,143.13,180.28,143.13,185.57Z"/>
    <path d="M156.5,194.14l1.12-2a11.07,11.07,0,0,0,6.54,2.07c3.5,0,4.94-1.19,4.94-3,0-4.8-11.94-1-11.94-8.3,0-3,2.59-5.25,7.28-5.25a12.48,12.48,0,0,1,6.51,1.72l-1.08,2a9.45,9.45,0,0,0-5.43-1.57c-3.32,0-4.79,1.29-4.79,3,0,5,11.93,1.23,11.93,8.3,0,3.18-2.8,5.25-7.59,5.25A12.24,12.24,0,0,1,156.5,194.14Z"/>
    <path d="M175.61,172a1.79,1.79,0,0,1,1.82-1.75,1.77,1.77,0,1,1,0,3.53A1.79,1.79,0,0,1,175.61,172Zm.56,5.81h2.48v18.41h-2.48Z"/>
    <path d="M202.39,170.27v26H200V192.6a8,8,0,0,1-7.1,3.82c-5.25,0-9.17-3.82-9.17-9.38s3.92-9.35,9.17-9.35a8,8,0,0,1,7,3.64V170.27ZM199.93,187c0-4.31-2.93-7.18-6.82-7.18s-6.86,2.87-6.86,7.18,2.94,7.17,6.86,7.17S199.93,191.34,199.93,187Z"/>
    <path d="M206.76,194.14l1.12-2a11.07,11.07,0,0,0,6.54,2.07c3.5,0,4.94-1.19,4.94-3,0-4.8-11.94-1-11.94-8.3,0-3,2.59-5.25,7.28-5.25a12.48,12.48,0,0,1,6.51,1.72l-1.08,2a9.45,9.45,0,0,0-5.43-1.57c-3.32,0-4.79,1.29-4.79,3,0,5,11.93,1.23,11.93,8.3,0,3.18-2.8,5.25-7.59,5.25A12.24,12.24,0,0,1,206.76,194.14Z"/>
    <path d="M236.12,195.12a5.89,5.89,0,0,1-3.88,1.3c-3.47,0-5.39-2-5.39-5.36V179.93h-3.29v-2.1h3.29v-4h2.48v4h5.6v2.1h-5.6v11c0,2.17,1.12,3.36,3.19,3.36a4.12,4.12,0,0,0,2.73-.94Z"/>
    <path d="M256,187.81H240.6c.28,3.85,3.22,6.4,7.25,6.4a7.24,7.24,0,0,0,5.63-2.41l1.4,1.61a9.05,9.05,0,0,1-7.1,3c-5.74,0-9.66-3.92-9.66-9.38s3.81-9.35,9-9.35S256,181.51,256,187C256,187.25,256,187.53,256,187.81ZM240.6,186h13.06a6.54,6.54,0,0,0-13.06,0Z"/>
    <path d="M288.94,187c0,5.56-3.92,9.38-9.17,9.38a8,8,0,0,1-7.11-3.82v3.64h-2.38v-26h2.49v11.06a8,8,0,0,1,7-3.64C285,177.69,288.94,181.47,288.94,187Zm-2.49,0c0-4.31-3-7.18-6.86-7.18s-6.86,2.87-6.86,7.18,2.94,7.17,6.86,7.17S286.45,191.34,286.45,187Z"/>
    <path d="M303.29,177.69v2.42c-.21,0-.42,0-.6,0-3.85,0-6.19,2.45-6.19,6.79v9.38H294V177.83h2.38v3.61C297.55,179,299.89,177.69,303.29,177.69Z"/>
    <path d="M337.1,187.74H321.66c.25,3.88,3.15,6.47,7.25,6.47a7.29,7.29,0,0,0,5.63-2.41l1.41,1.61a9,9,0,0,1-7.11,3,9.22,9.22,0,0,1-8.23-4.24c-1.36,3.08-4.37,4.24-7.45,4.24-4.38,0-7-2.21-7-5.43,0-2.69,1.82-5.11,7.11-5.11h5.84v-1.15c0-3.15-1.78-4.87-5.21-4.87A9.4,9.4,0,0,0,307.8,182l-1.12-1.85a11.72,11.72,0,0,1,7.46-2.49c3.53,0,5.81,1.3,6.75,3.78a8.64,8.64,0,0,1,7.32-3.78,8.81,8.81,0,0,1,9,9.21A7.31,7.31,0,0,1,337.1,187.74Zm-18,1.47v-1.47h-5.77c-3.54,0-4.73,1.4-4.73,3.18,0,2.21,1.75,3.54,4.69,3.54C316.87,194.46,319.14,192.46,319.14,189.21Zm2.52-3.33h13.06a6.55,6.55,0,0,0-13.06,0Z"/>
    <path d="M359.18,185.57v10.67H356.7V185.81c0-3.88-2-5.88-5.53-5.88-4,0-6.44,2.45-6.44,6.65v9.66h-2.49V177.83h2.38v3.4c1.33-2.24,3.82-3.54,7-3.54C356.1,177.69,359.18,180.28,359.18,185.57Z"/>
    <path d="M382.81,170.27v26h-2.38V192.6a8,8,0,0,1-7.11,3.82c-5.25,0-9.17-3.82-9.17-9.38s3.92-9.35,9.17-9.35a8,8,0,0,1,7,3.64V170.27ZM380.36,187c0-4.31-2.94-7.18-6.83-7.18s-6.86,2.87-6.86,7.18,2.94,7.17,6.86,7.17S380.36,191.34,380.36,187Z"/>
    <path d="M389.18,172a1.79,1.79,0,0,1,1.82-1.75,1.77,1.77,0,1,1,0,3.53A1.79,1.79,0,0,1,389.18,172Zm.56,5.81h2.48v18.41h-2.48Z"/>
    <path d="M416.09,185.57v10.67h-2.48V185.81c0-3.88-2-5.88-5.53-5.88-4,0-6.44,2.45-6.44,6.65v9.66h-2.49V177.83h2.38v3.4c1.33-2.24,3.82-3.54,7-3.54C413,177.69,416.09,180.28,416.09,185.57Z"/>
    <path d="M440,177.83V194c0,6.34-3.11,9.21-9.2,9.21-3.36,0-6.65-1-8.58-2.84l1.26-1.89a10.94,10.94,0,0,0,7.25,2.52c4.65,0,6.79-2.13,6.79-6.68V192a8.28,8.28,0,0,1-7.18,3.57c-5.25,0-9.24-3.67-9.24-9s4-8.89,9.24-8.89a8.3,8.3,0,0,1,7.28,3.68v-3.54Zm-2.41,8.75c0-4-2.94-6.72-7-6.72s-7,2.73-7,6.72a6.59,6.59,0,0,0,7,6.76C434.61,193.34,437.55,190.57,437.55,186.58Z"/>
    <path d="M449.06,194.49a5.69,5.69,0,0,1-.49,2l-1.47,4.83h-1.68l1.19-5.07a1.78,1.78,0,0,1-1.26-1.79,1.86,1.86,0,1,1,3.71,0Z"/>
    <path d="M86.08,212.27v26H83.7V234.6a8,8,0,0,1-7.1,3.82c-5.26,0-9.18-3.82-9.18-9.38s3.92-9.35,9.18-9.35a8,8,0,0,1,7,3.64V212.27ZM83.63,229c0-4.31-2.94-7.18-6.82-7.18S70,224.73,70,229s2.93,7.17,6.86,7.17S83.63,233.34,83.63,229Z"/>
    <path d="M109,229.81H93.64c.28,3.85,3.22,6.4,7.24,6.4a7.25,7.25,0,0,0,5.64-2.41l1.4,1.61a9.05,9.05,0,0,1-7.1,3c-5.75,0-9.67-3.92-9.67-9.38s3.82-9.35,9-9.35,8.93,3.82,8.93,9.35C109.08,229.25,109,229.53,109,229.81ZM93.64,228H106.7a6.54,6.54,0,0,0-13.06,0Z"/>
    <path d="M121,229l-4.34,4v5.25h-2.48v-26h2.48v17.61l11-10h3.08l-7.88,7.53,8.61,10.88h-3Z"/>
    <path d="M132.59,229a9.37,9.37,0,1,1,9.39,9.38A9.06,9.06,0,0,1,132.59,229Zm16.21,0c0-4.31-2.9-7.18-6.82-7.18s-6.86,2.87-6.86,7.18,2.93,7.17,6.86,7.17S148.8,233.34,148.8,229Z"/>
    <path d="M165.67,219.69v2.42c-.21,0-.42,0-.59,0-3.86,0-6.2,2.45-6.2,6.79v9.38h-2.49V219.83h2.38v3.61C159.93,221,162.27,219.69,165.67,219.69Z"/>
    <path d="M184,226.83v11.41h-2.38v-2.87c-1.12,1.89-3.29,3-6.34,3-4.16,0-6.72-2.17-6.72-5.36,0-2.83,1.82-5.21,7.11-5.21h5.85v-1.12c0-3.15-1.79-4.87-5.22-4.87a9.4,9.4,0,0,0-6.13,2.17l-1.12-1.85a11.68,11.68,0,0,1,7.49-2.49C181.32,219.69,184,222.07,184,226.83Zm-2.48,5.88v-3h-5.78c-3.57,0-4.73,1.4-4.73,3.29,0,2.14,1.72,3.47,4.66,3.47A5.9,5.9,0,0,0,181.53,232.71Z"/>
    <path d="M200.46,237.12a5.89,5.89,0,0,1-3.88,1.3c-3.47,0-5.4-2-5.4-5.36V221.93h-3.29v-2.1h3.29v-4h2.49v4h5.6v2.1h-5.6v11c0,2.17,1.12,3.36,3.18,3.36a4.1,4.1,0,0,0,2.73-.94Z"/>
    <path d="M204.41,214a1.79,1.79,0,0,1,1.82-1.75,1.76,1.76,0,0,1,1.82,1.71,1.82,1.82,0,0,1-3.64,0Zm.56,5.81h2.49v18.41H205Z"/>
    <path d="M212.53,229a9.37,9.37,0,1,1,9.38,9.38A9.06,9.06,0,0,1,212.53,229Zm16.21,0c0-4.31-2.91-7.18-6.83-7.18s-6.86,2.87-6.86,7.18,2.94,7.17,6.86,7.17S228.74,233.34,228.74,229Z"/>
    <path d="M253.28,227.57v10.67h-2.49V227.81c0-3.88-2-5.88-5.53-5.88-4,0-6.44,2.45-6.44,6.65v9.66h-2.49V219.83h2.38v3.4c1.33-2.24,3.82-3.54,7-3.54C250.2,219.69,253.28,222.28,253.28,227.57Z"/>
    <path d="M257.47,236.14l1.12-2a11.1,11.1,0,0,0,6.55,2.07c3.5,0,4.93-1.19,4.93-3,0-4.8-11.93-1-11.93-8.3,0-3,2.59-5.25,7.28-5.25a12.48,12.48,0,0,1,6.51,1.72l-1.09,2a9.42,9.42,0,0,0-5.42-1.57c-3.33,0-4.8,1.29-4.8,3,0,5,11.94,1.23,11.94,8.3,0,3.18-2.8,5.25-7.6,5.25A12.29,12.29,0,0,1,257.47,236.14Z"/>
    <path d="M295.8,229c0,5.56-3.92,9.38-9.17,9.38a8,8,0,0,1-7.11-3.82v3.64h-2.38v-26h2.49v11.06a8,8,0,0,1,7-3.64C291.88,219.69,295.8,223.47,295.8,229Zm-2.49,0c0-4.31-3-7.18-6.86-7.18s-6.86,2.87-6.86,7.18,2.94,7.17,6.86,7.17S293.31,233.34,293.31,229Z"/>
    <path d="M310.15,219.69v2.42c-.21,0-.42,0-.6,0-3.85,0-6.19,2.45-6.19,6.79v9.38h-2.49V219.83h2.38v3.61C304.41,221,306.75,219.69,310.15,219.69Z"/>
    <path d="M344,229.74H328.52c.25,3.88,3.15,6.47,7.25,6.47a7.32,7.32,0,0,0,5.64-2.41l1.4,1.61a9,9,0,0,1-7.11,3,9.22,9.22,0,0,1-8.23-4.24c-1.36,3.08-4.37,4.24-7.45,4.24-4.38,0-7-2.21-7-5.43,0-2.69,1.82-5.11,7.11-5.11H326v-1.15c0-3.15-1.78-4.87-5.21-4.87a9.4,9.4,0,0,0-6.13,2.17l-1.12-1.85a11.72,11.72,0,0,1,7.46-2.49c3.53,0,5.81,1.3,6.75,3.78a8.64,8.64,0,0,1,7.32-3.78,8.81,8.81,0,0,1,9,9.21A5.6,5.6,0,0,1,344,229.74Zm-18,1.47v-1.47h-5.77c-3.54,0-4.73,1.4-4.73,3.18,0,2.21,1.75,3.54,4.69,3.54C323.73,236.46,326,234.46,326,231.21Zm2.52-3.33h13.06a6.55,6.55,0,0,0-13.06,0Z"/>
    <path d="M366,227.57v10.67h-2.48V227.81c0-3.88-2-5.88-5.53-5.88-4,0-6.44,2.45-6.44,6.65v9.66H349.1V219.83h2.38v3.4c1.33-2.24,3.82-3.54,7-3.54C363,219.69,366,222.28,366,227.57Z"/>
    <path d="M389.67,212.27v26h-2.38V234.6a8,8,0,0,1-7.11,3.82c-5.25,0-9.17-3.82-9.17-9.38s3.92-9.35,9.17-9.35a8,8,0,0,1,7,3.64V212.27ZM387.22,229c0-4.31-2.94-7.18-6.83-7.18s-6.86,2.87-6.86,7.18,2.94,7.17,6.86,7.17S387.22,233.34,387.22,229Z"/>
    <path d="M396,214a1.79,1.79,0,0,1,1.82-1.75,1.77,1.77,0,1,1,0,3.53A1.79,1.79,0,0,1,396,214Zm.56,5.81h2.48v18.41H396.6Z"/>
    <path d="M423,227.57v10.67h-2.48V227.81c0-3.88-2-5.88-5.53-5.88-4,0-6.44,2.45-6.44,6.65v9.66H406V219.83h2.38v3.4c1.33-2.24,3.82-3.54,7-3.54C419.87,219.69,423,222.28,423,227.57Z"/>
    <path d="M446.82,219.83V236c0,6.34-3.11,9.21-9.2,9.21-3.36,0-6.65-1-8.58-2.84l1.26-1.89a10.94,10.94,0,0,0,7.25,2.52c4.65,0,6.79-2.13,6.79-6.68V234a8.28,8.28,0,0,1-7.18,3.57c-5.25,0-9.24-3.67-9.24-9s4-8.89,9.24-8.89a8.3,8.3,0,0,1,7.28,3.68v-3.54Zm-2.41,8.75c0-4-2.94-6.72-7-6.72s-7,2.73-7,6.72a6.59,6.59,0,0,0,7,6.76C441.47,235.34,444.41,232.57,444.41,228.58Z"/>
    <path d="M455.92,236.49a5.69,5.69,0,0,1-.49,2L454,243.35h-1.68l1.19-5.07a1.78,1.78,0,0,1-1.26-1.79,1.86,1.86,0,1,1,3.71,0Z"/>
    <path d="M164.38,254.09a5.83,5.83,0,0,1,3.67,1.16l-.84,1.85a4.24,4.24,0,0,0-2.73-.91c-2.13,0-3.25,1.19-3.25,3.47v2.17h5.67v2.1h-5.6v16.31h-2.49V263.93h-3.29v-2.1h3.29v-2.28C158.81,256.26,160.77,254.09,164.38,254.09ZM176.14,256a1.82,1.82,0,1,1-1.82-1.71A1.78,1.78,0,0,1,176.14,256Zm-3.08,5.85h2.48v18.41h-2.48Z"/>
    <path d="M199.41,269.57v10.67h-2.48V269.81c0-3.88-2-5.88-5.53-5.88-4,0-6.45,2.45-6.45,6.65v9.66h-2.48V261.83h2.38v3.4c1.33-2.24,3.82-3.54,7-3.54C196.33,261.69,199.41,264.28,199.41,269.57Z"/>
    <path d="M223,254.27v26h-2.38V276.6a8,8,0,0,1-7.11,3.82c-5.25,0-9.17-3.82-9.17-9.38s3.92-9.35,9.17-9.35a8,8,0,0,1,7,3.64V254.27ZM220.58,271c0-4.31-2.93-7.18-6.82-7.18s-6.86,2.87-6.86,7.18,2.94,7.17,6.86,7.17S220.58,275.34,220.58,271Z"/>
    <path d="M246,271.81H230.59c.28,3.85,3.22,6.4,7.25,6.4a7.26,7.26,0,0,0,5.64-2.41l1.4,1.61a9.07,9.07,0,0,1-7.11,3c-5.74,0-9.66-3.92-9.66-9.38s3.81-9.35,9-9.35S246,265.51,246,271C246,271.25,246,271.53,246,271.81ZM230.59,270h13.06a6.54,6.54,0,0,0-13.06,0Z"/>
    <path d="M260.38,261.69v2.42c-.21,0-.42,0-.59,0-3.86,0-6.2,2.45-6.2,6.79v9.38H251.1V261.83h2.38v3.61C254.64,263,257,261.69,260.38,261.69Z"/>
    <path d="M271.75,278.14l1.12-2a11.1,11.1,0,0,0,6.55,2.07c3.5,0,4.93-1.19,4.93-3,0-4.8-11.93-1-11.93-8.3,0-3,2.59-5.25,7.28-5.25a12.48,12.48,0,0,1,6.51,1.72l-1.09,2a9.42,9.42,0,0,0-5.42-1.57c-3.33,0-4.8,1.29-4.8,3,0,5,11.94,1.23,11.94,8.3,0,3.18-2.8,5.25-7.6,5.25A12.29,12.29,0,0,1,271.75,278.14Z"/>
    <path d="M301.12,279.12a5.9,5.9,0,0,1-3.89,1.3c-3.46,0-5.39-2-5.39-5.36V263.93h-3.29v-2.1h3.29v-4h2.49v4h5.6v2.1h-5.6v11c0,2.17,1.12,3.36,3.18,3.36a4.1,4.1,0,0,0,2.73-.94Z"/>
    <path d="M321,271.81H305.6c.28,3.85,3.22,6.4,7.24,6.4a7.26,7.26,0,0,0,5.64-2.41l1.4,1.61a9.07,9.07,0,0,1-7.11,3c-5.74,0-9.66-3.92-9.66-9.38s3.82-9.35,9-9.35S321,265.51,321,271C321,271.25,321,271.53,321,271.81ZM305.6,270h13a6.54,6.54,0,0,0-13,0Z"/>
    <path d="M342.91,254.27v26h-2.38V276.6a8,8,0,0,1-7.11,3.82c-5.25,0-9.17-3.82-9.17-9.38s3.92-9.35,9.17-9.35a8,8,0,0,1,7,3.64V254.27ZM340.46,271c0-4.31-2.94-7.18-6.83-7.18s-6.86,2.87-6.86,7.18,2.94,7.17,6.86,7.17S340.46,275.34,340.46,271Z"/>
    <path d="M348.23,278.49a1.85,1.85,0,0,1,1.85-1.89,1.88,1.88,0,0,1,1.89,1.89,1.91,1.91,0,0,1-1.89,1.93A1.88,1.88,0,0,1,348.23,278.49Z"/>
    <path d="M355.65,278.49a1.85,1.85,0,0,1,1.85-1.89,1.88,1.88,0,0,1,1.89,1.89,1.91,1.91,0,0,1-1.89,1.93A1.88,1.88,0,0,1,355.65,278.49Z"/>
    <path d="M363.07,278.49a1.85,1.85,0,0,1,1.85-1.89,1.88,1.88,0,0,1,1.89,1.89,1.91,1.91,0,0,1-1.89,1.93A1.88,1.88,0,0,1,363.07,278.49Z"/>
    <path d="M75.18,297.74v24.5H73L57.29,302.36v19.88H54.7v-24.5h2.14l15.79,19.88V297.74Z"/>
    <path d="M99.22,303.83v18.41H96.84v-3.36a7.31,7.31,0,0,1-6.61,3.54c-4.69,0-7.77-2.63-7.77-7.91V303.83h2.48v10.43c0,3.92,2,5.92,5.53,5.92,3.85,0,6.27-2.49,6.27-6.69v-9.66Z"/>
    <path d="M131.39,313.81H116c.28,3.85,3.22,6.4,7.24,6.4a7.26,7.26,0,0,0,5.64-2.41l1.4,1.61a9.07,9.07,0,0,1-7.11,3c-5.74,0-9.66-3.92-9.66-9.38s3.82-9.35,9-9.35,8.92,3.82,8.92,9.35C131.42,313.25,131.39,313.53,131.39,313.81ZM116,312h13a6.54,6.54,0,0,0-13,0Z"/>
    <path d="M145.77,303.69v2.42c-.21,0-.42,0-.59,0-3.85,0-6.2,2.45-6.2,6.79v9.38H136.5V303.83h2.38v3.61C140,305,142.38,303.69,145.77,303.69Z"/>
    <path d="M178.36,313c0,5.6-3.92,9.38-9.17,9.38a8,8,0,0,1-7-3.64V329H159.7v-25.2h2.38v3.64a8,8,0,0,1,7.11-3.78C174.44,303.69,178.36,307.47,178.36,313Zm-2.49,0c0-4.27-3-7.18-6.86-7.18s-6.86,2.91-6.86,7.18,2.94,7.17,6.86,7.17S175.87,317.34,175.87,313Z"/>
    <path d="M192.71,303.69v2.42c-.21,0-.42,0-.6,0-3.85,0-6.19,2.45-6.19,6.79v9.38h-2.49V303.83h2.38v3.61C187,305,189.31,303.69,192.71,303.69Z"/>
    <path d="M195.16,313a9.36,9.36,0,1,1,9.38,9.38A9.06,9.06,0,0,1,195.16,313Zm16.2,0c0-4.31-2.9-7.18-6.82-7.18s-6.86,2.87-6.86,7.18,2.94,7.17,6.86,7.17S211.36,317.34,211.36,313Z"/>
    <path d="M235.76,296.27v26h-2.38V318.6a8,8,0,0,1-7.11,3.82c-5.25,0-9.17-3.82-9.17-9.38s3.92-9.35,9.17-9.35a8,8,0,0,1,7,3.64V296.27ZM233.31,313c0-4.31-2.94-7.18-6.83-7.18s-6.86,2.87-6.86,7.18,2.94,7.17,6.86,7.17S233.31,317.34,233.31,313Z"/>
    <path d="M259.28,303.83v18.41H256.9v-3.36a7.34,7.34,0,0,1-6.62,3.54c-4.69,0-7.77-2.63-7.77-7.91V303.83H245v10.43c0,3.92,2,5.92,5.53,5.92,3.85,0,6.26-2.49,6.26-6.69v-9.66Z"/>
    <path d="M273.07,313l-4.35,4v5.25h-2.48v-26h2.48v17.61l11-10.05h3.08l-7.88,7.53,8.61,10.88h-3Z"/>
    <path d="M297,321.12a5.89,5.89,0,0,1-3.88,1.3c-3.47,0-5.39-2-5.39-5.36V305.93h-3.3v-2.1h3.3v-4h2.48v4h5.6v2.1h-5.6v11c0,2.17,1.12,3.36,3.19,3.36a4.12,4.12,0,0,0,2.73-.94Z"/>
    <path d="M316.85,313.81h-15.4c.28,3.85,3.22,6.4,7.25,6.4a7.24,7.24,0,0,0,5.63-2.41l1.4,1.61a9.05,9.05,0,0,1-7.1,3c-5.75,0-9.67-3.92-9.67-9.38s3.82-9.35,9-9.35,8.93,3.82,8.93,9.35C316.89,313.25,316.85,313.53,316.85,313.81ZM301.45,312h13.06a6.54,6.54,0,0,0-13.06,0Z"/>
    <path d="M331.66,321.12a5.9,5.9,0,0,1-3.89,1.3c-3.47,0-5.39-2-5.39-5.36V305.93h-3.29v-2.1h3.29v-4h2.49v4h5.6v2.1h-5.6v11c0,2.17,1.12,3.36,3.18,3.36a4.1,4.1,0,0,0,2.73-.94Z"/>
    <path d="M348.17,301.66v2.17h5.68v2.1h-5.6v16.31h-2.49V305.93h-3.29v-2.1h3.29v-2.28c0-3.29,2-5.46,5.57-5.46a5.83,5.83,0,0,1,3.67,1.16l-.84,1.85a4.24,4.24,0,0,0-2.73-.91C349.29,298.19,348.17,299.38,348.17,301.66Z"/>
    <path d="M386.22,313.74H370.79c.24,3.88,3.15,6.47,7.24,6.47a7.32,7.32,0,0,0,5.64-2.41l1.4,1.61a9,9,0,0,1-7.11,3,9.21,9.21,0,0,1-8.22-4.24c-1.37,3.08-4.38,4.24-7.46,4.24-4.38,0-7-2.21-7-5.43,0-2.69,1.82-5.11,7.11-5.11h5.85v-1.15c0-3.15-1.79-4.87-5.22-4.87a9.4,9.4,0,0,0-6.13,2.17l-1.12-1.85a11.72,11.72,0,0,1,7.46-2.49c3.53,0,5.81,1.3,6.76,3.78a8.62,8.62,0,0,1,7.31-3.78c5.15,0,9,3.85,9,9.21A5.6,5.6,0,0,1,386.22,313.74Zm-18,1.47v-1.47h-5.78c-3.54,0-4.73,1.4-4.73,3.18,0,2.21,1.75,3.54,4.7,3.54C366,320.46,368.27,318.46,368.27,315.21Zm2.52-3.33h13a6.54,6.54,0,0,0-13,0Z"/>
    <path d="M400.64,303.69v2.42c-.21,0-.42,0-.6,0-3.85,0-6.19,2.45-6.19,6.79v9.38h-2.49V303.83h2.38v3.61C394.9,305,397.24,303.69,400.64,303.69Z"/>
    <path d="M421.75,296.27v26h-2.38V318.6a8,8,0,0,1-7.11,3.82c-5.25,0-9.17-3.82-9.17-9.38s3.92-9.35,9.17-9.35a8,8,0,0,1,7,3.64V296.27ZM419.29,313c0-4.31-2.93-7.18-6.82-7.18s-6.86,2.87-6.86,7.18,2.94,7.17,6.86,7.17S419.29,317.34,419.29,313Z"/>
    <path d="M428.11,298a1.79,1.79,0,0,1,1.82-1.75,1.76,1.76,0,0,1,1.82,1.71,1.82,1.82,0,0,1-3.64,0Zm.56,5.81h2.49v18.41h-2.49Z"/>
    <path d="M455.13,303.83V320c0,6.34-3.11,9.21-9.2,9.21-3.36,0-6.65-1-8.58-2.84l1.26-1.89a10.94,10.94,0,0,0,7.25,2.52c4.65,0,6.79-2.13,6.79-6.68V318a8.28,8.28,0,0,1-7.18,3.57c-5.25,0-9.24-3.67-9.24-9s4-8.89,9.24-8.89a8.3,8.3,0,0,1,7.28,3.68v-3.54Zm-2.41,8.75c0-4-2.94-6.72-7-6.72s-7,2.73-7,6.72a6.59,6.59,0,0,0,7,6.76C449.78,319.34,452.72,316.57,452.72,312.58Z"/>
    <path d="M471.79,321.12a5.89,5.89,0,0,1-3.88,1.3c-3.47,0-5.39-2-5.39-5.36V305.93h-3.29v-2.1h3.29v-4H465v4h5.6v2.1H465v11c0,2.17,1.12,3.36,3.19,3.36a4.12,4.12,0,0,0,2.73-.94Z"/>
    <path d="M62.61,355A9.37,9.37,0,1,1,72,364.42,9.06,9.06,0,0,1,62.61,355Zm16.21,0c0-4.31-2.91-7.18-6.83-7.18s-6.86,2.87-6.86,7.18,2.94,7.17,6.86,7.17S78.82,359.34,78.82,355Z"/>
    <path d="M103.46,345.83V362c0,6.34-3.12,9.21-9.21,9.21-3.36,0-6.65-1-8.57-2.84l1.26-1.89A10.93,10.93,0,0,0,94.18,369c4.66,0,6.8-2.13,6.8-6.68V360a8.29,8.29,0,0,1-7.18,3.57c-5.25,0-9.24-3.67-9.24-9s4-8.89,9.24-8.89a8.3,8.3,0,0,1,7.28,3.68v-3.54ZM101,354.58c0-4-2.94-6.72-7-6.72s-7,2.73-7,6.72a6.58,6.58,0,0,0,7,6.76C98.1,361.34,101,358.57,101,354.58Z"/>
    <path d="M126.42,355l-4.34,4v5.25h-2.49v-26h2.49v17.61l11-10.05h3.08l-7.88,7.53,8.61,10.88h-3Z"/>
    <path d="M140.63,338.27h2.48v26h-2.48Z"/>
    <path d="M163.94,352.83v11.41h-2.38v-2.87c-1.12,1.89-3.29,3.05-6.34,3.05-4.16,0-6.72-2.17-6.72-5.36,0-2.83,1.82-5.21,7.11-5.21h5.84v-1.12c0-3.15-1.78-4.87-5.21-4.87a9.4,9.4,0,0,0-6.13,2.17L149,348.18a11.68,11.68,0,0,1,7.49-2.49C161.24,345.69,163.94,348.07,163.94,352.83Zm-2.49,5.88v-3h-5.77c-3.57,0-4.73,1.4-4.73,3.29,0,2.14,1.72,3.47,4.66,3.47A5.88,5.88,0,0,0,161.45,358.71Z"/>
    <path d="M180,345.69v2.42c-.21,0-.42,0-.6,0-3.85,0-6.19,2.45-6.19,6.79v9.38h-2.49V345.83h2.38v3.61C174.23,347,176.57,345.69,180,345.69Z"/>
    <path d="M203.59,363.12a5.89,5.89,0,0,1-3.88,1.3c-3.47,0-5.39-2-5.39-5.36V347.93H191v-2.1h3.29v-4h2.48v4h5.6v2.1h-5.6v11c0,2.17,1.12,3.36,3.19,3.36a4.12,4.12,0,0,0,2.73-.94Z"/>
    <path d="M207.55,340a1.79,1.79,0,0,1,1.82-1.75,1.77,1.77,0,1,1,0,3.53A1.79,1.79,0,0,1,207.55,340Zm.56,5.81h2.48v18.41h-2.48Z"/>
    <path d="M217.52,338.27H220v26h-2.49Z"/>
    <path d="M233.55,362.14l1.12-2a11.1,11.1,0,0,0,6.55,2.07c3.5,0,4.93-1.19,4.93-3,0-4.8-11.93-1-11.93-8.3,0-3,2.59-5.25,7.28-5.25a12.48,12.48,0,0,1,6.51,1.72l-1.09,2a9.42,9.42,0,0,0-5.42-1.57c-3.33,0-4.8,1.29-4.8,3,0,5,11.94,1.23,11.94,8.3,0,3.18-2.8,5.25-7.6,5.25A12.29,12.29,0,0,1,233.55,362.14Z"/>
    <path d="M267.12,352.83v11.41h-2.38v-2.87c-1.12,1.89-3.29,3.05-6.34,3.05-4.16,0-6.72-2.17-6.72-5.36,0-2.83,1.82-5.21,7.11-5.21h5.84v-1.12c0-3.15-1.78-4.87-5.21-4.87a9.4,9.4,0,0,0-6.13,2.17l-1.12-1.85a11.68,11.68,0,0,1,7.49-2.49C264.42,345.69,267.12,348.07,267.12,352.83Zm-2.49,5.88v-3h-5.77c-3.57,0-4.73,1.4-4.73,3.29,0,2.14,1.72,3.47,4.66,3.47A5.88,5.88,0,0,0,264.63,358.71Z"/>
    <path d="M273.87,338.27h2.49v26h-2.49Z"/>
    <path d="M300.33,345.83V362c0,6.34-3.11,9.21-9.2,9.21-3.36,0-6.65-1-8.58-2.84l1.26-1.89a10.94,10.94,0,0,0,7.25,2.52c4.65,0,6.79-2.13,6.79-6.68V360a8.28,8.28,0,0,1-7.18,3.57c-5.25,0-9.24-3.67-9.24-9s4-8.89,9.24-8.89a8.3,8.3,0,0,1,7.28,3.68v-3.54Zm-2.41,8.75c0-4-2.94-6.72-7-6.72s-7,2.73-7,6.72a6.59,6.59,0,0,0,7,6.76C295,361.34,297.92,358.57,297.92,354.58Z"/>
    <path d="M314.61,355a9.37,9.37,0,1,1,9.38,9.38A9.06,9.06,0,0,1,314.61,355Zm16.21,0c0-4.31-2.91-7.18-6.83-7.18s-6.86,2.87-6.86,7.18,2.94,7.17,6.86,7.17S330.82,359.34,330.82,355Z"/>
    <path d="M355.46,345.83V362c0,6.34-3.12,9.21-9.21,9.21-3.36,0-6.65-1-8.58-2.84l1.26-1.89a11,11,0,0,0,7.25,2.52c4.66,0,6.79-2.13,6.79-6.68V360a8.26,8.26,0,0,1-7.17,3.57c-5.26,0-9.25-3.67-9.25-9s4-8.89,9.25-8.89a8.3,8.3,0,0,1,7.28,3.68v-3.54ZM353,354.58c0-4-2.94-6.72-7-6.72s-7,2.73-7,6.72a6.58,6.58,0,0,0,7,6.76C350.1,361.34,353,358.57,353,354.58Z"/>
    <path d="M390.25,355c0,5.56-3.92,9.38-9.17,9.38A8,8,0,0,1,374,360.6v3.64h-2.38v-26h2.48v11.06a8.06,8.06,0,0,1,7-3.64C386.33,345.69,390.25,349.47,390.25,355Zm-2.49,0c0-4.31-3-7.18-6.86-7.18S374,350.73,374,355s2.94,7.17,6.86,7.17S387.76,359.34,387.76,355Z"/>
    <path d="M404.59,345.69v2.42c-.21,0-.42,0-.59,0-3.85,0-6.2,2.45-6.2,6.79v9.38h-2.48V345.83h2.38v3.61C398.85,347,401.2,345.69,404.59,345.69Z"/>
    <path d="M426,345.83v18.41h-2.38v-3.36a7.34,7.34,0,0,1-6.62,3.54c-4.69,0-7.77-2.63-7.77-7.91V345.83h2.48v10.43c0,3.92,2,5.92,5.54,5.92,3.84,0,6.26-2.49,6.26-6.69v-9.66Z"/>
    <path d="M450,345.83V362c0,6.34-3.12,9.21-9.21,9.21-3.36,0-6.65-1-8.58-2.84l1.26-1.89a10.94,10.94,0,0,0,7.25,2.52c4.65,0,6.79-2.13,6.79-6.68V360a8.28,8.28,0,0,1-7.18,3.57c-5.25,0-9.24-3.67-9.24-9s4-8.89,9.24-8.89a8.31,8.31,0,0,1,7.29,3.68v-3.54Zm-2.42,8.75c0-4-2.94-6.72-7-6.72s-7,2.73-7,6.72a6.59,6.59,0,0,0,7,6.76C444.6,361.34,447.54,358.57,447.54,354.58Z"/>
    <path d="M456.15,362.6a1.78,1.78,0,0,1,1.85-1.79,1.76,1.76,0,0,1,1.82,1.79,1.81,1.81,0,0,1-1.82,1.82A1.83,1.83,0,0,1,456.15,362.6Zm.38-22.86h2.94L459,356.89H457Z"/>
  </g>
</svg>
