<svg id="Layer_1" data-name="Layer 1" xmlns="http://www.w3.org/2000/svg" width="602" height="539" viewBox="0 0 602 539">
  <defs>
    <style>
      .cls-1 {
        fill: #d1d1d1;
      }

      .cls-2 {
        fill: #fff;
      }
    </style>
  </defs>
  <g>
    <g>
      <path class="cls-1" d="M533,279.11A250.09,250.09,0,0,1,282.72,529.34c-138.2,0-250.23-112-250.23-250.23s112-250.24,250.23-250.24S533,140.91,533,279.11Z"/>
      <path class="cls-1" d="M596,455.63Q568.46,382,512.53,378.28l-58.31,83Q517.24,423.4,596,455.63Z"/>
    </g>
    <g>
      <path class="cls-2" d="M515.5,267.47A250.07,250.07,0,0,1,265.27,517.7C127.07,517.7,15,405.67,15,267.47s112-250.24,250.24-250.24S515.5,129.27,515.5,267.47Z"/>
      <path class="cls-2" d="M578.54,444Q551,370.37,495.08,366.64l-58.32,83Q499.78,411.76,578.54,444Z"/>
    </g>
  </g>
  <g>
    <path d="M74.79,234.42h10c7.84,0,13.12,5.05,13.12,12.26s-5.28,12.25-13.12,12.25h-10Zm9.84,22.27c6.51,0,10.71-4.13,10.71-10s-4.2-10-10.71-10H77.38v20Z"/>
    <path d="M119.21,250.49H103.8c.28,3.85,3.22,6.41,7.25,6.41a7.27,7.27,0,0,0,5.64-2.42l1.4,1.61a9.09,9.09,0,0,1-7.11,3c-5.74,0-9.66-3.92-9.66-9.38s3.81-9.34,9-9.34,8.93,3.81,8.93,9.34C119.24,249.93,119.21,250.21,119.21,250.49Zm-15.41-1.85h13.06a6.54,6.54,0,0,0-13.06,0Z"/>
    <path d="M134,257.81a6,6,0,0,1-3.89,1.29c-3.46,0-5.39-2-5.39-5.35V242.62h-3.29v-2.1h3.29v-4h2.49v4h5.6v2.1h-5.6v11c0,2.17,1.12,3.36,3.18,3.36a4.11,4.11,0,0,0,2.73-1Z"/>
    <path d="M164.74,240.52v16.17c0,6.33-3.11,9.2-9.21,9.2-3.36,0-6.65-1-8.57-2.83l1.26-1.89a11,11,0,0,0,7.24,2.52c4.66,0,6.79-2.14,6.79-6.69v-2.34a8.29,8.29,0,0,1-7.17,3.57c-5.25,0-9.24-3.68-9.24-9s4-8.89,9.24-8.89a8.32,8.32,0,0,1,7.28,3.67v-3.53Zm-2.42,8.75c0-4-2.94-6.72-7-6.72s-7,2.73-7,6.72a6.57,6.57,0,0,0,7,6.75C159.38,256,162.32,253.26,162.32,249.27Z"/>
    <path d="M171.7,233h2.49v26H171.7Z"/>
    <path d="M195,247.52v11.41h-2.38v-2.87c-1.12,1.89-3.29,3-6.33,3-4.17,0-6.72-2.17-6.72-5.35,0-2.84,1.82-5.22,7.1-5.22h5.85v-1.12c0-3.15-1.79-4.86-5.22-4.86a9.35,9.35,0,0,0-6.12,2.17l-1.12-1.86a11.7,11.7,0,0,1,7.49-2.48C192.32,240.38,195,242.76,195,247.52Zm-2.48,5.88v-3h-5.78c-3.57,0-4.72,1.4-4.72,3.29,0,2.13,1.71,3.46,4.65,3.46A5.9,5.9,0,0,0,192.53,253.4Z"/>
    <path d="M199.21,256.83l1.12-2a11.17,11.17,0,0,0,6.55,2.06c3.5,0,4.93-1.19,4.93-3,0-4.79-11.93-1-11.93-8.29,0-3,2.59-5.25,7.28-5.25a12.47,12.47,0,0,1,6.51,1.71l-1.09,2a9.43,9.43,0,0,0-5.42-1.58c-3.33,0-4.8,1.3-4.8,3.05,0,5,11.94,1.22,11.94,8.29,0,3.19-2.8,5.25-7.6,5.25A12.35,12.35,0,0,1,199.21,256.83Z"/>
    <path d="M234.91,250.49h-15.4c.28,3.85,3.22,6.41,7.25,6.41a7.25,7.25,0,0,0,5.63-2.42l1.4,1.61a9.05,9.05,0,0,1-7.1,3c-5.74,0-9.66-3.92-9.66-9.38s3.81-9.34,9-9.34,8.93,3.81,8.93,9.34C235,249.93,234.91,250.21,234.91,250.49Zm-15.4-1.85h13.06a6.54,6.54,0,0,0-13.06,0Z"/>
    <path d="M249.3,240.38v2.41c-.21,0-.42,0-.6,0-3.85,0-6.19,2.45-6.19,6.79v9.38H240V240.52h2.38v3.6C243.56,241.67,245.9,240.38,249.3,240.38Z"/>
    <path d="M269.63,250.49h-15.4c.28,3.85,3.22,6.41,7.25,6.41a7.25,7.25,0,0,0,5.63-2.42l1.4,1.61a9.05,9.05,0,0,1-7.1,3c-5.74,0-9.66-3.92-9.66-9.38s3.81-9.34,9-9.34,8.93,3.81,8.93,9.34C269.67,249.93,269.63,250.21,269.63,250.49Zm-15.4-1.85h13.06a6.54,6.54,0,0,0-13.06,0Z"/>
    <path d="M291.54,233v26h-2.38v-3.64a8,8,0,0,1-7.1,3.81c-5.25,0-9.17-3.81-9.17-9.38a8.9,8.9,0,0,1,9.17-9.34,8,8,0,0,1,7,3.64V233Zm-2.45,16.76c0-4.3-2.94-7.17-6.82-7.17s-6.86,2.87-6.86,7.17,2.94,7.18,6.86,7.18S289.09,254,289.09,249.72Z"/>
    <path d="M314.5,250.49H299.1c.28,3.85,3.22,6.41,7.25,6.41a7.25,7.25,0,0,0,5.63-2.42l1.4,1.61a9.05,9.05,0,0,1-7.1,3c-5.74,0-9.66-3.92-9.66-9.38s3.81-9.34,9-9.34,8.93,3.81,8.93,9.34C314.54,249.93,314.5,250.21,314.5,250.49Zm-15.4-1.85h13.06a6.54,6.54,0,0,0-13.06,0Z"/>
    <path d="M347.44,249.72c0,5.6-3.92,9.38-9.17,9.38a8,8,0,0,1-7-3.64v10.26h-2.49v-25.2h2.38v3.64a8,8,0,0,1,7.11-3.78A8.9,8.9,0,0,1,347.44,249.72Zm-2.49,0c0-4.27-3-7.17-6.86-7.17s-6.86,2.9-6.86,7.17,2.94,7.18,6.86,7.18S345,254,345,249.72Z"/>
    <path d="M361.79,240.38v2.41c-.21,0-.42,0-.6,0-3.85,0-6.19,2.45-6.19,6.79v9.38h-2.49V240.52h2.38v3.6C356.05,241.67,358.39,240.38,361.79,240.38Z"/>
    <path d="M364.24,249.72a9.36,9.36,0,1,1,9.38,9.38A9.05,9.05,0,0,1,364.24,249.72Zm16.2,0c0-4.3-2.9-7.17-6.82-7.17s-6.86,2.87-6.86,7.17,2.94,7.18,6.86,7.18S380.44,254,380.44,249.72Z"/>
    <path d="M404.84,233v26h-2.38v-3.64a8,8,0,0,1-7.11,3.81c-5.25,0-9.17-3.81-9.17-9.38a8.9,8.9,0,0,1,9.17-9.34,8,8,0,0,1,7,3.64V233Zm-2.45,16.76c0-4.3-2.94-7.17-6.83-7.17s-6.86,2.87-6.86,7.17,2.94,7.18,6.86,7.18S402.39,254,402.39,249.72Z"/>
    <path d="M428.36,240.52v18.41H426v-3.36a7.33,7.33,0,0,1-6.62,3.53c-4.69,0-7.77-2.62-7.77-7.91V240.52h2.49V251c0,3.92,2,5.91,5.53,5.91,3.85,0,6.26-2.48,6.26-6.68v-9.66Z"/>
    <path d="M442.15,249.69l-4.34,4v5.25h-2.49V233h2.49v17.6l11-10h3.08L444,248l8.61,10.89h-3Z"/>
    <path d="M466.05,257.81a5.94,5.94,0,0,1-3.88,1.29c-3.47,0-5.4-2-5.4-5.35V242.62h-3.29v-2.1h3.29v-4h2.49v4h5.6v2.1h-5.6v11c0,2.17,1.12,3.36,3.19,3.36a4.13,4.13,0,0,0,2.73-1Z"/>
    <path d="M87.13,296.08c0,5.56-3.92,9.38-9.17,9.38a8,8,0,0,1-7.11-3.82v3.64H68.47v-26H71v11.06a8,8,0,0,1,7-3.64C83.21,286.73,87.13,290.51,87.13,296.08Zm-2.49,0c0-4.31-3-7.18-6.86-7.18s-6.86,2.87-6.86,7.18,2.94,7.17,6.86,7.17S84.64,300.38,84.64,296.08Z"/>
    <path d="M92.2,279.31h2.49v26H92.2Z"/>
    <path d="M101.06,281.06a1.79,1.79,0,0,1,1.82-1.75A1.77,1.77,0,0,1,104.7,281a1.82,1.82,0,0,1-3.64,0Zm.56,5.81h2.48v18.41h-2.48Z"/>
    <path d="M126.5,286.87l-8.19,18.41h-2.55l-8.16-18.41h2.59l6.9,15.68,7-15.68Z"/>
    <path d="M145.51,296.85h-15.4c.28,3.85,3.22,6.4,7.24,6.4a7.26,7.26,0,0,0,5.64-2.41l1.4,1.61a9.07,9.07,0,0,1-7.11,3c-5.74,0-9.66-3.92-9.66-9.38s3.82-9.35,9-9.35,8.92,3.82,8.92,9.35C145.54,296.29,145.51,296.57,145.51,296.85ZM130.11,295h13a6.54,6.54,0,0,0-13,0Z"/>
    <path d="M159.89,286.73v2.42c-.21,0-.42,0-.59,0-3.85,0-6.2,2.45-6.2,6.79v9.38h-2.48V286.87H153v3.61C154.15,288,156.5,286.73,159.89,286.73Z"/>
    <path d="M171.27,303.18l1.12-2a11.07,11.07,0,0,0,6.54,2.07c3.5,0,4.94-1.19,4.94-3,0-4.8-11.94-1-11.94-8.3,0-3,2.59-5.25,7.28-5.25a12.48,12.48,0,0,1,6.51,1.72l-1.08,2a9.45,9.45,0,0,0-5.43-1.57c-3.32,0-4.79,1.29-4.79,3,0,5,11.93,1.23,11.93,8.3,0,3.18-2.8,5.25-7.59,5.25A12.24,12.24,0,0,1,171.27,303.18Z"/>
    <path d="M207,296.85h-15.4c.28,3.85,3.22,6.4,7.24,6.4a7.26,7.26,0,0,0,5.64-2.41l1.4,1.61a9.07,9.07,0,0,1-7.11,3c-5.74,0-9.66-3.92-9.66-9.38s3.82-9.35,9-9.35,8.92,3.82,8.92,9.35C207,296.29,207,296.57,207,296.85ZM191.57,295h13.05a6.54,6.54,0,0,0-13.05,0Z"/>
    <path d="M229,294.61v10.67h-2.49V294.85c0-3.88-2-5.88-5.53-5.88-3.95,0-6.44,2.45-6.44,6.65v9.66h-2.48V286.87h2.38v3.4c1.33-2.24,3.81-3.54,7-3.54C225.94,286.73,229,289.32,229,294.61Z"/>
    <path d="M252.64,279.31v26h-2.38v-3.64a8,8,0,0,1-7.1,3.82c-5.25,0-9.18-3.82-9.18-9.38a8.92,8.92,0,0,1,9.18-9.35,8,8,0,0,1,7,3.64V279.31Zm-2.45,16.77c0-4.31-2.94-7.18-6.82-7.18s-6.87,2.87-6.87,7.18,2.95,7.17,6.87,7.17S250.19,300.38,250.19,296.08Z"/>
    <path d="M269.33,304.16a5.87,5.87,0,0,1-3.88,1.3c-3.47,0-5.39-2-5.39-5.36V289h-3.29v-2.1h3.29v-4h2.48v4h5.61V289h-5.61v11c0,2.17,1.13,3.36,3.19,3.36a4.1,4.1,0,0,0,2.73-.94Z"/>
    <path d="M292.71,304.16a5.89,5.89,0,0,1-3.88,1.3c-3.47,0-5.39-2-5.39-5.36V289h-3.29v-2.1h3.29v-4h2.48v4h5.6V289h-5.6v11c0,2.17,1.12,3.36,3.19,3.36a4.1,4.1,0,0,0,2.73-.94Z"/>
    <path d="M296.67,281.06a1.79,1.79,0,0,1,1.82-1.75,1.77,1.77,0,0,1,1.82,1.72,1.82,1.82,0,0,1-3.64,0Zm.56,5.81h2.48v18.41h-2.48Z"/>
    <path d="M306.64,279.31h2.49v26h-2.49Z"/>
    <path d="M343.88,296.08c0,5.56-3.92,9.38-9.17,9.38a8,8,0,0,1-7.1-3.82v3.64h-2.38v-26h2.48v11.06a8,8,0,0,1,7-3.64C340,286.73,343.88,290.51,343.88,296.08Zm-2.48,0c0-4.31-3-7.18-6.86-7.18s-6.86,2.87-6.86,7.18,2.94,7.17,6.86,7.17S341.4,300.38,341.4,296.08Z"/>
    <path d="M358.23,286.73v2.42c-.21,0-.42,0-.59,0-3.85,0-6.2,2.45-6.2,6.79v9.38H349V286.87h2.38v3.61C352.49,288,354.84,286.73,358.23,286.73Z"/>
    <path d="M392.05,296.78H376.61c.24,3.88,3.15,6.47,7.25,6.47a7.29,7.29,0,0,0,5.63-2.41l1.4,1.61a9,9,0,0,1-7.1,3,9.21,9.21,0,0,1-8.23-4.24c-1.37,3.08-4.38,4.24-7.46,4.24-4.37,0-7-2.21-7-5.43,0-2.69,1.82-5.11,7.1-5.11h5.85v-1.15c0-3.15-1.79-4.87-5.22-4.87a9.35,9.35,0,0,0-6.12,2.17l-1.12-1.85a11.69,11.69,0,0,1,7.45-2.49c3.54,0,5.81,1.3,6.76,3.78a8.63,8.63,0,0,1,7.32-3.78,8.81,8.81,0,0,1,9,9.21A7.31,7.31,0,0,1,392.05,296.78Zm-18,1.47v-1.47h-5.78c-3.53,0-4.72,1.4-4.72,3.18,0,2.21,1.75,3.54,4.69,3.54C371.81,303.5,374.09,301.5,374.09,298.25Zm2.52-3.33h13.06a6.55,6.55,0,0,0-13.06,0Z"/>
    <path d="M414.13,294.61v10.67h-2.49V294.85c0-3.88-2-5.88-5.53-5.88-3.95,0-6.44,2.45-6.44,6.65v9.66h-2.48V286.87h2.38v3.4c1.33-2.24,3.81-3.54,7-3.54C411.05,286.73,414.13,289.32,414.13,294.61Z"/>
    <path d="M437.75,279.31v26h-2.38v-3.64a8,8,0,0,1-7.1,3.82c-5.25,0-9.17-3.82-9.17-9.38s3.92-9.35,9.17-9.35a8,8,0,0,1,7,3.64V279.31Zm-2.45,16.77c0-4.31-2.94-7.18-6.82-7.18s-6.86,2.87-6.86,7.18,2.94,7.17,6.86,7.17S435.3,300.38,435.3,296.08Z"/>
    <path d="M444.12,281.06a1.8,1.8,0,0,1,1.82-1.75,1.76,1.76,0,0,1,1.82,1.72,1.79,1.79,0,0,1-1.82,1.82A1.81,1.81,0,0,1,444.12,281.06Zm.56,5.81h2.49v18.41h-2.49Z"/>
    <path d="M471.14,286.87V303c0,6.34-3.11,9.21-9.2,9.21-3.36,0-6.65-1-8.58-2.84l1.26-1.89a10.94,10.94,0,0,0,7.25,2.52c4.65,0,6.79-2.13,6.79-6.68V301a8.28,8.28,0,0,1-7.18,3.57c-5.25,0-9.24-3.67-9.24-9s4-8.89,9.24-8.89a8.3,8.3,0,0,1,7.28,3.68v-3.54Zm-2.41,8.75c0-4-2.94-6.72-7-6.72s-7,2.73-7,6.72a6.59,6.59,0,0,0,7,6.76C465.79,302.38,468.73,299.61,468.73,295.62Z"/>
    <path d="M476.5,303.53a1.85,1.85,0,0,1,1.85-1.89,1.88,1.88,0,0,1,1.89,1.89,1.91,1.91,0,0,1-1.89,1.93A1.88,1.88,0,0,1,476.5,303.53Z"/>
  </g>
</svg>
