<svg id="Layer_1" data-name="Layer 1" xmlns="http://www.w3.org/2000/svg" width="589" height="539" viewBox="0 0 589 539">
  <defs>
    <style>
      .cls-1 {
        fill: #d1d1d1;
      }

      .cls-2 {
        fill: #fff;
      }
    </style>
  </defs>
  <g>
    <g>
      <path class="cls-1" d="M524,272.11A250.09,250.09,0,0,1,273.72,522.34c-138.2,0-250.23-112-250.23-250.23s112-250.24,250.23-250.24S524,133.91,524,272.11Z"/>
      <path class="cls-1" d="M587,448.63Q559.46,375,503.53,371.28l-58.31,83Q508.24,416.4,587,448.63Z"/>
    </g>
    <g>
      <path class="cls-2" d="M506.5,260.47A250.07,250.07,0,0,1,256.27,510.7C118.07,510.7,6,398.67,6,260.47s112-250.24,250.24-250.24S506.5,122.27,506.5,260.47Z"/>
      <path class="cls-2" d="M569.54,437Q542,363.37,486.08,359.64l-58.32,83Q490.78,404.76,569.54,437Z"/>
    </g>
  </g>
  <g>
    <path d="M60.43,249l1-2a12.07,12.07,0,0,0,8.09,3c4.58,0,6.58-1.92,6.58-4.34C76.12,238.87,61,243,61,233.94c0-3.61,2.8-6.73,9-6.73a13.8,13.8,0,0,1,7.6,2.18l-.88,2.06a12.57,12.57,0,0,0-6.72-2c-4.48,0-6.48,2-6.48,4.45,0,6.72,15.09,2.66,15.09,11.58,0,3.61-2.87,6.69-9.13,6.69C65.86,252.14,62.25,250.84,60.43,249Z"/>
    <path d="M97.68,240.52v11.41H95.3v-2.87c-1.12,1.89-3.29,3-6.34,3-4.17,0-6.72-2.17-6.72-5.35,0-2.84,1.82-5.22,7.11-5.22h5.84v-1.12c0-3.15-1.78-4.86-5.21-4.86a9.38,9.38,0,0,0-6.13,2.17l-1.12-1.86a11.72,11.72,0,0,1,7.49-2.48C95,233.38,97.68,235.76,97.68,240.52Zm-2.49,5.88v-3H89.42c-3.57,0-4.73,1.4-4.73,3.29,0,2.13,1.72,3.46,4.66,3.46A5.89,5.89,0,0,0,95.19,246.4Zm-8.57-18.87a3.66,3.66,0,1,1,7.31,0,3.66,3.66,0,0,1-7.31,0Zm1.29,0a2.27,2.27,0,0,0,2.35,2.35,2.29,2.29,0,0,0,2.38-2.35,2.38,2.38,0,0,0-2.38-2.45A2.33,2.33,0,0,0,87.91,227.53Z"/>
    <path d="M132.26,242.72c0,5.57-3.92,9.38-9.18,9.38a8,8,0,0,1-7.1-3.81v3.64H113.6V226h2.48V237a8.05,8.05,0,0,1,7-3.64A8.91,8.91,0,0,1,132.26,242.72Zm-2.49,0c0-4.3-3-7.17-6.86-7.17s-6.86,2.87-6.86,7.17,2.94,7.18,6.86,7.18S129.77,247,129.77,242.72Z"/>
    <path d="M137.33,226h2.48v26h-2.48Z"/>
    <path d="M146.18,227.71A1.79,1.79,0,0,1,148,226a1.76,1.76,0,0,1,1.82,1.71,1.82,1.82,0,0,1-3.64,0Zm.56,5.81h2.49v18.41h-2.49Z"/>
    <path d="M171.63,233.52l-8.19,18.41h-2.56l-8.15-18.41h2.59l6.89,15.68,7-15.68Z"/>
    <path d="M190.64,243.49H175.23c.28,3.85,3.22,6.41,7.25,6.41a7.25,7.25,0,0,0,5.63-2.42l1.41,1.61a9.09,9.09,0,0,1-7.11,3c-5.74,0-9.66-3.92-9.66-9.38s3.81-9.34,9-9.34,8.93,3.81,8.93,9.34C190.67,242.93,190.64,243.21,190.64,243.49Zm-15.41-1.85h13.06a6.54,6.54,0,0,0-13.06,0Z"/>
    <path d="M205,233.38v2.41c-.21,0-.42,0-.6,0-3.85,0-6.19,2.45-6.19,6.79v9.38h-2.49V233.52h2.38v3.6C199.28,234.67,201.62,233.38,205,233.38Z"/>
    <path d="M232.84,240.52v11.41h-2.38v-2.87c-1.12,1.89-3.29,3-6.33,3-4.17,0-6.72-2.17-6.72-5.35,0-2.84,1.82-5.22,7.1-5.22h5.85v-1.12c0-3.15-1.79-4.86-5.22-4.86a9.35,9.35,0,0,0-6.12,2.17l-1.12-1.86a11.7,11.7,0,0,1,7.49-2.48C230.15,233.38,232.84,235.76,232.84,240.52Zm-2.48,5.88v-3h-5.78c-3.57,0-4.72,1.4-4.72,3.29,0,2.13,1.71,3.46,4.65,3.46A5.9,5.9,0,0,0,230.36,246.4Z"/>
    <path d="M239.6,226h2.48v26H239.6Z"/>
    <path d="M249,226h2.49v26H249Z"/>
    <path d="M274.46,243.49h-15.4c.28,3.85,3.22,6.41,7.24,6.41a7.27,7.27,0,0,0,5.64-2.42l1.4,1.61a9.07,9.07,0,0,1-7.11,3c-5.74,0-9.66-3.92-9.66-9.38s3.82-9.34,9-9.34,8.92,3.81,8.92,9.34C274.49,242.93,274.46,243.21,274.46,243.49Zm-15.4-1.85h13.05a6.54,6.54,0,0,0-13.05,0Z"/>
    <path d="M304.77,243.49h-15.4c.28,3.85,3.22,6.41,7.24,6.41a7.27,7.27,0,0,0,5.64-2.42l1.4,1.61a9.07,9.07,0,0,1-7.11,3c-5.74,0-9.66-3.92-9.66-9.38s3.82-9.34,9-9.34,8.92,3.81,8.92,9.34C304.8,242.93,304.77,243.21,304.77,243.49Zm-15.4-1.85h13.05a6.54,6.54,0,0,0-13.05,0Z"/>
    <path d="M340.26,241.25v10.68h-2.49V241.5c0-3.89-2-5.88-5.28-5.88-3.78,0-6.16,2.45-6.16,6.65v9.66h-2.49V241.5c0-3.89-2-5.88-5.32-5.88-3.74,0-6.16,2.45-6.16,6.65v9.66h-2.48V233.52h2.38v3.36a7.42,7.42,0,0,1,6.75-3.5c3.05,0,5.43,1.29,6.55,3.88a8,8,0,0,1,7.28-3.88C337.32,233.38,340.26,236,340.26,241.25Z"/>
    <path d="M364,241.25v10.68h-2.48V241.5c0-3.89-2-5.88-5.53-5.88-4,0-6.44,2.45-6.44,6.65v9.66H347V233.52h2.38v3.39c1.33-2.24,3.82-3.53,7-3.53C360.87,233.38,364,236,364,241.25Z"/>
    <path d="M386.81,243.49H371.4c.29,3.85,3.23,6.41,7.25,6.41a7.27,7.27,0,0,0,5.64-2.42l1.4,1.61a9.07,9.07,0,0,1-7.11,3c-5.74,0-9.66-3.92-9.66-9.38s3.82-9.34,9-9.34,8.92,3.81,8.92,9.34C386.84,242.93,386.81,243.21,386.81,243.49Zm-15.41-1.85h13.06a6.54,6.54,0,0,0-13.06,0Z"/>
    <path d="M401.19,233.38v2.41c-.21,0-.42,0-.59,0-3.85,0-6.2,2.45-6.2,6.79v9.38h-2.49V233.52h2.38v3.6C395.45,234.67,397.8,233.38,401.19,233.38Z"/>
    <path d="M422.61,241.25v10.68h-2.48V241.5c0-3.89-2-5.88-5.53-5.88-4,0-6.45,2.45-6.45,6.65v9.66h-2.48V233.52h2.38v3.39c1.33-2.24,3.82-3.53,7-3.53C419.53,233.38,422.61,236,422.61,241.25Z"/>
    <path d="M445.47,243.49H430.06c.28,3.85,3.22,6.41,7.25,6.41a7.27,7.27,0,0,0,5.64-2.42l1.4,1.61a9.07,9.07,0,0,1-7.11,3c-5.74,0-9.66-3.92-9.66-9.38s3.81-9.34,9-9.34,8.93,3.81,8.93,9.34C445.5,242.93,445.47,243.21,445.47,243.49Zm-15.41-1.85h13.06a6.54,6.54,0,0,0-13.06,0Z"/>
    <path d="M97.9,279.87V296c0,6.34-3.11,9.21-9.2,9.21-3.36,0-6.65-1-8.58-2.84l1.26-1.89A10.94,10.94,0,0,0,88.63,303c4.65,0,6.79-2.13,6.79-6.68V294a8.28,8.28,0,0,1-7.18,3.57c-5.25,0-9.24-3.67-9.24-9s4-8.89,9.24-8.89a8.3,8.3,0,0,1,7.28,3.68v-3.54Zm-2.41,8.75c0-4-2.94-6.72-7-6.72s-7,2.73-7,6.72a6.59,6.59,0,0,0,7,6.76C92.55,295.38,95.49,292.61,95.49,288.62Z"/>
    <path d="M104.87,272.31h2.48v26h-2.48Z"/>
    <path d="M128.18,286.87v11.41H125.8v-2.87c-1.12,1.89-3.29,3-6.34,3-4.16,0-6.72-2.17-6.72-5.36,0-2.83,1.82-5.21,7.11-5.21h5.84v-1.12c0-3.15-1.78-4.87-5.21-4.87a9.4,9.4,0,0,0-6.13,2.17l-1.12-1.85a11.68,11.68,0,0,1,7.49-2.49C125.48,279.73,128.18,282.11,128.18,286.87Zm-2.49,5.88v-3h-5.77c-3.57,0-4.73,1.4-4.73,3.29,0,2.14,1.72,3.47,4.66,3.47A5.88,5.88,0,0,0,125.69,292.75Z"/>
    <path d="M132.38,296.18l1.12-2a11.07,11.07,0,0,0,6.54,2.07c3.5,0,4.94-1.19,4.94-3,0-4.8-11.94-1-11.94-8.3,0-3,2.59-5.25,7.28-5.25a12.48,12.48,0,0,1,6.51,1.72l-1.08,2a9.45,9.45,0,0,0-5.43-1.57c-3.32,0-4.79,1.29-4.79,3,0,5,11.93,1.23,11.93,8.3,0,3.18-2.8,5.25-7.59,5.25A12.24,12.24,0,0,1,132.38,296.18Z"/>
    <path d="M168.08,289.85h-15.4c.28,3.85,3.22,6.4,7.24,6.4a7.26,7.26,0,0,0,5.64-2.41l1.4,1.61a9.07,9.07,0,0,1-7.11,3c-5.74,0-9.66-3.92-9.66-9.38s3.82-9.35,9-9.35,8.92,3.82,8.92,9.35C168.11,289.29,168.08,289.57,168.08,289.85ZM152.68,288h13a6.54,6.54,0,0,0-13,0Z"/>
    <path d="M182.46,279.73v2.42c-.21,0-.42,0-.59,0-3.85,0-6.2,2.45-6.2,6.79v9.38h-2.48V279.87h2.38v3.61C176.72,281,179.07,279.73,182.46,279.73Z"/>
    <path d="M202.8,289.85H187.4c.28,3.85,3.22,6.4,7.24,6.4a7.26,7.26,0,0,0,5.64-2.41l1.4,1.61a9.07,9.07,0,0,1-7.11,3c-5.74,0-9.66-3.92-9.66-9.38s3.82-9.35,9-9.35,8.92,3.82,8.92,9.35C202.83,289.29,202.8,289.57,202.8,289.85ZM187.4,288h13a6.54,6.54,0,0,0-13,0Z"/>
    <path d="M217.6,297.16a5.89,5.89,0,0,1-3.88,1.3c-3.47,0-5.4-2-5.4-5.36V282H205v-2.1h3.29v-4h2.49v4h5.6V282h-5.6v11c0,2.17,1.12,3.36,3.19,3.36a4.12,4.12,0,0,0,2.73-.94Z"/>
    <path d="M247.88,279.87v18.41H245.5v-3.36a7.34,7.34,0,0,1-6.62,3.54c-4.69,0-7.77-2.63-7.77-7.91V279.87h2.48V290.3c0,3.92,2,5.92,5.54,5.92,3.85,0,6.26-2.49,6.26-6.69v-9.66Z"/>
    <path d="M271.64,272.31v26h-2.38v-3.64a8,8,0,0,1-7.11,3.82c-5.25,0-9.17-3.82-9.17-9.38s3.92-9.35,9.17-9.35a8.06,8.06,0,0,1,7,3.64V272.31Zm-2.45,16.77c0-4.31-2.94-7.18-6.83-7.18s-6.86,2.87-6.86,7.18,2.94,7.17,6.86,7.17S269.19,293.38,269.19,289.08Z"/>
    <path d="M294.6,289.85H279.2c.28,3.85,3.22,6.4,7.24,6.4a7.25,7.25,0,0,0,5.64-2.41l1.4,1.61a9.06,9.06,0,0,1-7.11,3c-5.74,0-9.66-3.92-9.66-9.38s3.82-9.35,9-9.35,8.93,3.82,8.93,9.35C294.64,289.29,294.6,289.57,294.6,289.85ZM279.2,288h13.06a6.54,6.54,0,0,0-13.06,0Z"/>
    <path d="M316.65,287.61v10.67h-2.48V287.85c0-3.88-2-5.88-5.54-5.88-3.95,0-6.44,2.45-6.44,6.65v9.66h-2.48V279.87h2.38v3.4c1.33-2.24,3.81-3.54,7-3.54C313.57,279.73,316.65,282.32,316.65,287.61Z"/>
    <path d="M351.23,289.08c0,5.6-3.92,9.38-9.17,9.38a8,8,0,0,1-7-3.64v10.25h-2.49v-25.2H335v3.64a8,8,0,0,1,7.11-3.78C347.31,279.73,351.23,283.51,351.23,289.08Zm-2.49,0c0-4.27-3-7.18-6.86-7.18s-6.86,2.91-6.86,7.18,2.94,7.17,6.86,7.17S348.74,293.38,348.74,289.08Z"/>
    <path d="M370.09,286.87v11.41h-2.38v-2.87c-1.12,1.89-3.29,3-6.33,3-4.17,0-6.72-2.17-6.72-5.36,0-2.83,1.82-5.21,7.1-5.21h5.85v-1.12c0-3.15-1.79-4.87-5.22-4.87a9.35,9.35,0,0,0-6.12,2.17l-1.12-1.85a11.64,11.64,0,0,1,7.49-2.49C367.4,279.73,370.09,282.11,370.09,286.87Zm-2.48,5.88v-3h-5.78c-3.57,0-4.72,1.4-4.72,3.29,0,2.14,1.71,3.47,4.65,3.47A5.89,5.89,0,0,0,367.61,292.75ZM359,273.89a3.66,3.66,0,1,1,7.32,0,3.66,3.66,0,0,1-7.32,0Zm1.3,0a2.25,2.25,0,0,0,2.34,2.34,2.29,2.29,0,0,0,2.38-2.34,2.37,2.37,0,0,0-2.38-2.45A2.33,2.33,0,0,0,360.33,273.89Z"/>
    <path d="M384.16,289.08a9.37,9.37,0,1,1,9.38,9.38A9.06,9.06,0,0,1,384.16,289.08Zm16.21,0c0-4.31-2.91-7.18-6.83-7.18s-6.86,2.87-6.86,7.18,2.94,7.17,6.86,7.17S400.37,293.38,400.37,289.08Z"/>
    <path d="M425,279.87V296c0,6.34-3.12,9.21-9.21,9.21-3.36,0-6.65-1-8.57-2.84l1.26-1.89a10.93,10.93,0,0,0,7.24,2.52c4.66,0,6.79-2.13,6.79-6.68V294a8.26,8.26,0,0,1-7.17,3.57c-5.25,0-9.24-3.67-9.24-9s4-8.89,9.24-8.89a8.3,8.3,0,0,1,7.28,3.68v-3.54Zm-2.42,8.75c0-4-2.94-6.72-7-6.72s-7,2.73-7,6.72a6.58,6.58,0,0,0,7,6.76C419.65,295.38,422.59,292.61,422.59,288.62Z"/>
    <path d="M196.56,320.42a1.8,1.8,0,0,1,1.83-1.75,1.76,1.76,0,0,1,1.82,1.71,1.78,1.78,0,0,1-1.82,1.82A1.8,1.8,0,0,1,196.56,320.42Zm.57,5.81h2.48v18.41h-2.48Z"/>
    <path d="M223.48,334v10.68H221V334.21c0-3.89-2-5.88-5.53-5.88-4,0-6.44,2.45-6.44,6.65v9.66h-2.49V326.23h2.38v3.39c1.33-2.24,3.82-3.53,7-3.53C220.4,326.09,223.48,328.68,223.48,334Z"/>
    <path d="M247.11,318.67v26h-2.38V341a8,8,0,0,1-7.11,3.81c-5.25,0-9.17-3.81-9.17-9.38a8.9,8.9,0,0,1,9.17-9.34,8,8,0,0,1,7,3.64V318.67Zm-2.45,16.76c0-4.3-2.94-7.17-6.83-7.17s-6.86,2.87-6.86,7.17,2.94,7.18,6.86,7.18S244.66,339.74,244.66,335.43Z"/>
    <path d="M270.07,336.2H254.66c.28,3.85,3.22,6.41,7.25,6.41a7.27,7.27,0,0,0,5.64-2.42l1.4,1.61a9.07,9.07,0,0,1-7.11,3c-5.74,0-9.66-3.92-9.66-9.38s3.81-9.34,9-9.34,8.93,3.81,8.93,9.34C270.1,335.64,270.07,335.92,270.07,336.2Zm-15.41-1.85h13.06a6.54,6.54,0,0,0-13.06,0Z"/>
    <path d="M292.12,334v10.68h-2.49V334.21c0-3.89-2-5.88-5.53-5.88-4,0-6.44,2.45-6.44,6.65v9.66h-2.49V326.23h2.38v3.39c1.33-2.24,3.82-3.53,7-3.53C289,326.09,292.12,328.68,292.12,334Z"/>
    <path d="M307.48,320.42a1.79,1.79,0,0,1,1.82-1.75,1.76,1.76,0,0,1,1.82,1.71,1.82,1.82,0,0,1-3.64,0Zm.56,5.81h2.48v18.41H308Z"/>
    <path d="M315.84,342.89A1.85,1.85,0,0,1,317.7,341a1.88,1.88,0,0,1,1.89,1.89,1.91,1.91,0,0,1-1.89,1.92A1.88,1.88,0,0,1,315.84,342.89Z"/>
  </g>
</svg>
