<svg id="Layer_1" data-name="Layer 1" xmlns="http://www.w3.org/2000/svg" width="581" height="521" viewBox="0 0 581 521">
  <defs>
    <style>
      .cls-1 {
        fill: #d1d1d1;
      }

      .cls-2 {
        fill: #fff;
      }
    </style>
  </defs>
  <g>
    <g>
      <path class="cls-1" d="M518,272.4A250.07,250.07,0,0,1,267.72,522.63c-138.2,0-250.23-112-250.23-250.23s112-250.24,250.23-250.24S518,134.2,518,272.4Z"/>
      <path class="cls-1" d="M581,448.92q-27.54-73.62-83.47-77.35l-58.31,83Q502.24,416.69,581,448.92Z"/>
    </g>
    <g>
      <path class="cls-2" d="M500.5,260.76A250.07,250.07,0,0,1,250.27,511C112.07,511,0,399,0,260.76s112-250.23,250.24-250.23S500.5,122.56,500.5,260.76Z"/>
      <path class="cls-2" d="M563.54,437.28Q536,363.67,480.08,359.93l-58.32,83Q484.78,405,563.54,437.28Z"/>
    </g>
  </g>
  <g>
    <path d="M62.85,228.15v24.5H60.29v-11.3H45v11.3H42.37v-24.5H45v10.92H60.29V228.15Z"/>
    <path d="M86.33,244.22H70.93c.28,3.85,3.22,6.4,7.24,6.4a7.26,7.26,0,0,0,5.64-2.41l1.4,1.61a9.07,9.07,0,0,1-7.11,3c-5.74,0-9.66-3.92-9.66-9.38s3.82-9.35,9-9.35,8.93,3.82,8.93,9.35C86.37,243.66,86.33,243.94,86.33,244.22Zm-15.4-1.86H84a6.54,6.54,0,0,0-13,0Z"/>
    <path d="M100.71,234.1v2.42c-.21,0-.42,0-.59,0-3.85,0-6.2,2.45-6.2,6.79v9.38H91.44V234.24h2.38v3.61C95,235.4,97.32,234.1,100.71,234.1Z"/>
    <path d="M131.58,242v10.67H129.1V242.22c0-3.88-2-5.88-5.53-5.88-4,0-6.44,2.45-6.44,6.65v9.66h-2.49v-26h2.49v10.78A7.78,7.78,0,0,1,124,234.1C128.5,234.1,131.58,236.69,131.58,242Z"/>
    <path d="M136.55,243.45a9.37,9.37,0,1,1,9.38,9.38A9.06,9.06,0,0,1,136.55,243.45Zm16.21,0c0-4.31-2.91-7.18-6.83-7.18s-6.86,2.87-6.86,7.18,2.94,7.17,6.86,7.17S152.76,247.75,152.76,243.45Z"/>
    <path d="M157.8,250.55l1.12-2a11.07,11.07,0,0,0,6.54,2.07c3.5,0,4.94-1.19,4.94-3,0-4.8-11.94-1-11.94-8.3,0-3,2.59-5.25,7.28-5.25a12.48,12.48,0,0,1,6.51,1.72l-1.08,2a9.45,9.45,0,0,0-5.43-1.57c-3.32,0-4.79,1.29-4.79,3,0,5,11.93,1.23,11.93,8.3,0,3.18-2.8,5.25-7.59,5.25A12.24,12.24,0,0,1,157.8,250.55Z"/>
    <path d="M194.76,241.14l-5,5.07v6.44h-2.59v-24.5h2.59V243l14.39-14.81h3l-10.6,11.1,11.34,13.4h-3.08Z"/>
    <path d="M224.93,241.24v11.41h-2.38v-2.87c-1.12,1.89-3.29,3.05-6.34,3.05-4.16,0-6.72-2.17-6.72-5.36,0-2.83,1.82-5.21,7.11-5.21h5.84v-1.12c0-3.15-1.78-4.87-5.21-4.87a9.4,9.4,0,0,0-6.13,2.17L210,236.59a11.68,11.68,0,0,1,7.49-2.49C222.23,234.1,224.93,236.48,224.93,241.24Zm-2.49,5.88v-3h-5.77c-3.57,0-4.73,1.4-4.73,3.29,0,2.14,1.72,3.47,4.66,3.47A5.88,5.88,0,0,0,222.44,247.12Z"/>
    <path d="M246.8,234.24l-9.2,20.62c-1.54,3.6-3.5,4.76-6.13,4.76a6.31,6.31,0,0,1-4.48-1.68l1.16-1.86a4.6,4.6,0,0,0,3.36,1.4c1.64,0,2.76-.77,3.81-3.08l.81-1.78-8.23-18.38h2.59l6.93,15.65,6.93-15.65Z"/>
    <path d="M247.54,250.55l1.12-2a11.07,11.07,0,0,0,6.54,2.07c3.5,0,4.94-1.19,4.94-3,0-4.8-11.94-1-11.94-8.3,0-3,2.59-5.25,7.28-5.25a12.48,12.48,0,0,1,6.51,1.72l-1.08,2a9.45,9.45,0,0,0-5.43-1.57c-3.32,0-4.79,1.29-4.79,3,0,5,11.93,1.23,11.93,8.3,0,3.18-2.8,5.25-7.59,5.25A12.24,12.24,0,0,1,247.54,250.55Z"/>
    <path d="M283.24,244.22h-15.4c.28,3.85,3.22,6.4,7.24,6.4a7.26,7.26,0,0,0,5.64-2.41l1.4,1.61a9.07,9.07,0,0,1-7.11,3c-5.74,0-9.66-3.92-9.66-9.38s3.82-9.35,9-9.35,8.92,3.82,8.92,9.35C283.27,243.66,283.24,243.94,283.24,244.22Zm-15.4-1.86h13.05a6.54,6.54,0,0,0-13.05,0Z"/>
    <path d="M305.29,242v10.67H302.8V242.22c0-3.88-2-5.88-5.53-5.88-3.95,0-6.44,2.45-6.44,6.65v9.66h-2.48V234.24h2.38v3.4c1.33-2.24,3.81-3.54,7-3.54C302.21,234.1,305.29,236.69,305.29,242Z"/>
    <path d="M329.33,241.14l-5,5.07v6.44h-2.6v-24.5h2.6V243l14.38-14.81h3l-10.61,11.1,11.34,13.4h-3.08Z"/>
    <path d="M361.29,244.22h-15.4c.28,3.85,3.22,6.4,7.24,6.4a7.26,7.26,0,0,0,5.64-2.41l1.4,1.61a9.07,9.07,0,0,1-7.11,3c-5.74,0-9.66-3.92-9.66-9.38s3.82-9.35,9-9.35,8.92,3.82,8.92,9.35C361.32,243.66,361.29,243.94,361.29,244.22Zm-15.4-1.86h13.05a6.54,6.54,0,0,0-13.05,0Z"/>
    <path d="M375.67,234.1v2.42c-.21,0-.42,0-.59,0-3.85,0-6.2,2.45-6.2,6.79v9.38H366.4V234.24h2.38v3.61C369.93,235.4,372.28,234.1,375.67,234.1Z"/>
    <path d="M394,241.24v11.41h-2.38v-2.87c-1.12,1.89-3.29,3.05-6.33,3.05-4.17,0-6.73-2.17-6.73-5.36,0-2.83,1.83-5.21,7.11-5.21h5.85v-1.12c0-3.15-1.79-4.87-5.22-4.87a9.4,9.4,0,0,0-6.13,2.17l-1.12-1.85a11.69,11.69,0,0,1,7.5-2.49C391.32,234.1,394,236.48,394,241.24Zm-2.48,5.88v-3h-5.78c-3.57,0-4.73,1.4-4.73,3.29,0,2.14,1.72,3.47,4.66,3.47A5.89,5.89,0,0,0,391.53,247.12Z"/>
    <path d="M431.15,242v10.67h-2.49V242.22c0-3.88-2-5.88-5.28-5.88-3.78,0-6.16,2.45-6.16,6.65v9.66h-2.49V242.22c0-3.88-2-5.88-5.32-5.88-3.74,0-6.16,2.45-6.16,6.65v9.66h-2.49V234.24h2.39v3.36a7.44,7.44,0,0,1,6.75-3.5c3.05,0,5.43,1.3,6.55,3.89a8,8,0,0,1,7.28-3.89C428.21,234.1,431.15,236.69,431.15,242Z"/>
    <path d="M437.34,228.43a1.79,1.79,0,0,1,1.82-1.75A1.77,1.77,0,0,1,441,228.4a1.82,1.82,0,0,1-3.64,0Zm.56,5.81h2.48v18.41H437.9Z"/>
    <path d="M454.14,243.41l-4.34,4v5.25h-2.49v-26h2.49v17.61l11-10h3.08L456,241.77l8.61,10.88h-3.05Z"/>
    <path d="M103.6,289.18H88.2c.28,3.85,3.22,6.4,7.25,6.4a7.24,7.24,0,0,0,5.63-2.41l1.4,1.61a9.05,9.05,0,0,1-7.1,3c-5.74,0-9.66-3.92-9.66-9.38s3.81-9.35,9-9.35,8.93,3.82,8.93,9.35C103.64,288.62,103.6,288.9,103.6,289.18Zm-15.4-1.86h13.06a6.54,6.54,0,0,0-13.06,0Z"/>
    <path d="M118,279.06v2.42c-.21,0-.42,0-.6,0-3.85,0-6.19,2.45-6.19,6.79v9.38h-2.49V279.2h2.38v3.61C112.25,280.36,114.59,279.06,118,279.06Z"/>
    <path d="M145.81,286.2v11.41h-2.38v-2.87c-1.12,1.89-3.29,3.05-6.33,3.05-4.17,0-6.72-2.17-6.72-5.36,0-2.83,1.82-5.21,7.1-5.21h5.85V286.1c0-3.15-1.79-4.87-5.22-4.87A9.35,9.35,0,0,0,132,283.4l-1.12-1.85a11.64,11.64,0,0,1,7.49-2.49C143.12,279.06,145.81,281.44,145.81,286.2Zm-2.48,5.88v-3h-5.78c-3.57,0-4.72,1.4-4.72,3.29,0,2.14,1.71,3.47,4.65,3.47A5.89,5.89,0,0,0,143.33,292.08Z"/>
    <path d="M152.57,271.64h2.48v26h-2.48Z"/>
    <path d="M162,271.64h2.49v26H162Z"/>
    <path d="M187.43,289.18H172c.28,3.85,3.22,6.4,7.24,6.4a7.26,7.26,0,0,0,5.64-2.41l1.4,1.61a9.07,9.07,0,0,1-7.11,3c-5.74,0-9.66-3.92-9.66-9.38s3.82-9.35,9-9.35,8.92,3.82,8.92,9.35C187.46,288.62,187.43,288.9,187.43,289.18ZM172,287.32h13.05a6.54,6.54,0,0,0-13.05,0Z"/>
    <path d="M220.36,288.41c0,5.6-3.92,9.38-9.17,9.38a8,8,0,0,1-7-3.64V304.4h-2.48V279.2h2.38v3.64a8,8,0,0,1,7.1-3.78C216.44,279.06,220.36,282.84,220.36,288.41Zm-2.48,0c0-4.27-3-7.18-6.86-7.18s-6.86,2.91-6.86,7.18,2.94,7.17,6.86,7.17S217.88,292.71,217.88,288.41Z"/>
    <path d="M234.71,279.06v2.42c-.21,0-.42,0-.59,0-3.85,0-6.2,2.45-6.2,6.79v9.38h-2.48V279.2h2.38v3.61C229,280.36,231.32,279.06,234.71,279.06Z"/>
    <path d="M237.16,288.41a9.37,9.37,0,1,1,9.38,9.38A9.06,9.06,0,0,1,237.16,288.41Zm16.21,0c0-4.31-2.91-7.18-6.83-7.18s-6.86,2.87-6.86,7.18,2.94,7.17,6.86,7.17S253.37,292.71,253.37,288.41Z"/>
    <path d="M277.76,271.64v26h-2.38V294a8,8,0,0,1-7.1,3.82c-5.25,0-9.17-3.82-9.17-9.38s3.92-9.35,9.17-9.35a8,8,0,0,1,7,3.64V271.64Zm-2.45,16.77c0-4.31-2.94-7.18-6.82-7.18s-6.86,2.87-6.86,7.18,2.94,7.17,6.86,7.17S275.31,292.71,275.31,288.41Z"/>
    <path d="M301.28,279.2v18.41H298.9v-3.36a7.31,7.31,0,0,1-6.61,3.54c-4.69,0-7.77-2.63-7.77-7.91V279.2H287v10.43c0,3.92,2,5.92,5.53,5.92,3.85,0,6.27-2.49,6.27-6.69V279.2Z"/>
    <path d="M315.07,288.37l-4.34,4v5.25h-2.48v-26h2.48v17.61l11-10.05h3.08l-7.87,7.53,8.61,10.88h-3.05Z"/>
    <path d="M339,296.49a5.9,5.9,0,0,1-3.89,1.3c-3.46,0-5.39-2-5.39-5.36V281.3h-3.29v-2.1h3.29v-4h2.49v4h5.6v2.1h-5.6v11c0,2.17,1.12,3.36,3.18,3.36a4.1,4.1,0,0,0,2.73-.94Z"/>
    <path d="M358.86,289.18H343.45c.28,3.85,3.23,6.4,7.25,6.4a7.26,7.26,0,0,0,5.64-2.41l1.4,1.61a9.07,9.07,0,0,1-7.11,3c-5.74,0-9.66-3.92-9.66-9.38s3.82-9.35,9-9.35,8.92,3.82,8.92,9.35C358.89,288.62,358.86,288.9,358.86,289.18Zm-15.41-1.86h13.06a6.54,6.54,0,0,0-13.06,0Z"/>
    <path d="M373.24,279.06v2.42c-.21,0-.42,0-.59,0-3.86,0-6.2,2.45-6.2,6.79v9.38H364V279.2h2.38v3.61C367.5,280.36,369.85,279.06,373.24,279.06Z"/>
    <path d="M394.66,286.94v10.67h-2.48V287.18c0-3.88-2-5.88-5.53-5.88-4,0-6.45,2.45-6.45,6.65v9.66h-2.48V279.2h2.38v3.4c1.33-2.24,3.82-3.54,7-3.54C391.58,279.06,394.66,281.65,394.66,286.94Z"/>
    <path d="M417.52,289.18H402.11c.28,3.85,3.22,6.4,7.25,6.4a7.26,7.26,0,0,0,5.64-2.41l1.4,1.61a9.09,9.09,0,0,1-7.11,3c-5.74,0-9.66-3.92-9.66-9.38s3.81-9.35,9-9.35,8.93,3.82,8.93,9.35C417.55,288.62,417.52,288.9,417.52,289.18Zm-15.41-1.86h13.06a6.54,6.54,0,0,0-13.06,0Z"/>
    <path d="M169.91,331.9v10.67h-2.49V332.14c0-3.88-2-5.88-5.53-5.88-3.95,0-6.44,2.45-6.44,6.65v9.66H153v-26h2.48v10.78a7.8,7.8,0,0,1,6.9-3.36C166.83,324,169.91,326.61,169.91,331.9Z"/>
    <path d="M190.56,331.16v11.41h-2.38V339.7c-1.12,1.89-3.29,3.05-6.34,3.05-4.16,0-6.72-2.17-6.72-5.36,0-2.83,1.82-5.21,7.11-5.21h5.84v-1.12c0-3.15-1.78-4.87-5.21-4.87a9.4,9.4,0,0,0-6.13,2.17l-1.12-1.85A11.68,11.68,0,0,1,183.1,324C187.86,324,190.56,326.4,190.56,331.16ZM188.07,337v-3H182.3c-3.57,0-4.73,1.4-4.73,3.29,0,2.14,1.72,3.47,4.66,3.47A5.88,5.88,0,0,0,188.07,337Zm-8.57-18.87a3.66,3.66,0,1,1,7.31,0,3.66,3.66,0,0,1-7.31,0Zm1.29,0a2.27,2.27,0,0,0,2.35,2.35,2.29,2.29,0,0,0,2.38-2.35,2.38,2.38,0,0,0-2.38-2.45A2.33,2.33,0,0,0,180.79,318.17Z"/>
    <path d="M214.25,331.9v10.67h-2.48V332.14c0-3.88-2-5.88-5.53-5.88-4,0-6.44,2.45-6.44,6.65v9.66h-2.49V324.16h2.38v3.4c1.33-2.24,3.82-3.54,7-3.54C211.17,324,214.25,326.61,214.25,331.9Z"/>
    <path d="M237.88,316.6v26H235.5v-3.64a8,8,0,0,1-7.11,3.82c-5.25,0-9.17-3.82-9.17-9.38s3.92-9.35,9.17-9.35a8,8,0,0,1,7,3.64V316.6Zm-2.45,16.77c0-4.31-2.94-7.18-6.83-7.18s-6.86,2.87-6.86,7.18,2.94,7.17,6.86,7.17S235.43,337.67,235.43,333.37Z"/>
    <path d="M244.81,316.6h2.48v26h-2.48Z"/>
    <path d="M268.12,331.16v11.41h-2.38V339.7c-1.12,1.89-3.29,3.05-6.34,3.05-4.16,0-6.72-2.17-6.72-5.36,0-2.83,1.82-5.21,7.11-5.21h5.84v-1.12c0-3.15-1.78-4.87-5.21-4.87a9.4,9.4,0,0,0-6.13,2.17l-1.12-1.85a11.68,11.68,0,0,1,7.49-2.49C265.42,324,268.12,326.4,268.12,331.16ZM265.63,337v-3h-5.77c-3.57,0-4.73,1.4-4.73,3.29,0,2.14,1.72,3.47,4.66,3.47A5.88,5.88,0,0,0,265.63,337Z"/>
    <path d="M290,324.16l-8.19,18.41h-2.55l-8.16-18.41h2.59l6.9,15.68,7-15.68Z"/>
    <path d="M309,334.14H293.6c.28,3.85,3.22,6.4,7.24,6.4a7.26,7.26,0,0,0,5.64-2.41l1.4,1.61a9.07,9.07,0,0,1-7.11,3c-5.74,0-9.66-3.92-9.66-9.38s3.82-9.35,9-9.35,8.92,3.82,8.92,9.35C309,333.58,309,333.86,309,334.14Zm-15.4-1.86h13a6.54,6.54,0,0,0-13,0Z"/>
    <path d="M330.91,316.6v26h-2.38v-3.64a8,8,0,0,1-7.11,3.82c-5.25,0-9.17-3.82-9.17-9.38s3.92-9.35,9.17-9.35a8,8,0,0,1,7,3.64V316.6Zm-2.45,16.77c0-4.31-2.94-7.18-6.83-7.18s-6.86,2.87-6.86,7.18,2.94,7.17,6.86,7.17S328.46,337.67,328.46,333.37Z"/>
    <path d="M353.87,334.14h-15.4c.28,3.85,3.22,6.4,7.24,6.4a7.26,7.26,0,0,0,5.64-2.41l1.4,1.61a9.07,9.07,0,0,1-7.11,3c-5.74,0-9.66-3.92-9.66-9.38s3.82-9.35,9-9.35,8.92,3.82,8.92,9.35C353.9,333.58,353.87,333.86,353.87,334.14Zm-15.4-1.86h13a6.54,6.54,0,0,0-13,0Z"/>
    <path d="M357.37,340.82a1.85,1.85,0,0,1,1.85-1.89,1.88,1.88,0,0,1,1.89,1.89,1.91,1.91,0,0,1-1.89,1.93A1.88,1.88,0,0,1,357.37,340.82Z"/>
  </g>
</svg>
