<svg id="Layer_1" data-name="Layer 1" xmlns="http://www.w3.org/2000/svg" width="600" height="523" viewBox="0 0 600 523">
  <defs>
    <style>
      .cls-1 {
        fill: #d1d1d1;
      }

      .cls-2 {
        fill: #fff;
      }
    </style>
  </defs>
  <g>
    <g>
      <path class="cls-1" d="M530,266.4A250.07,250.07,0,0,1,279.72,516.63c-138.2,0-250.23-112-250.23-250.23s112-250.24,250.23-250.24S530,128.2,530,266.4Z"/>
      <path class="cls-1" d="M593,442.92q-27.54-73.62-83.47-77.35l-58.31,83Q514.24,410.69,593,442.92Z"/>
    </g>
    <g>
      <path class="cls-2" d="M512.5,254.76A250.07,250.07,0,0,1,262.27,505C124.07,505,12,393,12,254.76S124.07,4.53,262.27,4.53,512.5,116.56,512.5,254.76Z"/>
      <path class="cls-2" d="M575.54,431.28Q548,357.67,492.08,353.93l-58.32,83Q496.78,399,575.54,431.28Z"/>
    </g>
  </g>
  <g>
    <path d="M52.49,220.13v24.51H49.93V233.33H34.6v11.31H32V220.13H34.6v10.93H49.93V220.13Z"/>
    <path d="M76,236.2H60.57c.28,3.85,3.22,6.41,7.24,6.41a7.27,7.27,0,0,0,5.64-2.42l1.4,1.61a9.07,9.07,0,0,1-7.11,3c-5.74,0-9.66-3.92-9.66-9.38s3.82-9.35,9-9.35S76,229.9,76,235.43C76,235.64,76,235.92,76,236.2Zm-15.4-1.85H73.62a6.54,6.54,0,0,0-13.05,0Z"/>
    <path d="M90.35,226.08v2.42c-.21,0-.42,0-.59,0-3.85,0-6.2,2.46-6.2,6.8v9.38H81.08V226.22h2.38v3.61C84.61,227.38,87,226.08,90.35,226.08Z"/>
    <path d="M110.69,236.2H95.29c.28,3.85,3.22,6.41,7.24,6.41a7.27,7.27,0,0,0,5.64-2.42l1.4,1.61a9.07,9.07,0,0,1-7.11,3c-5.74,0-9.66-3.92-9.66-9.38s3.82-9.35,9-9.35,8.92,3.82,8.92,9.35C110.72,235.64,110.69,235.92,110.69,236.2Zm-15.4-1.85h13a6.54,6.54,0,0,0-13,0Z"/>
    <path d="M118.63,224.05v2.17h5.67v2.11h-5.6v16.31h-2.48V228.33h-3.29v-2.11h3.29V224c0-3.29,2-5.46,5.56-5.46a5.84,5.84,0,0,1,3.68,1.15l-.84,1.86a4.18,4.18,0,0,0-2.73-.91C119.75,220.59,118.63,221.78,118.63,224.05Z"/>
    <path d="M137.36,243.52a6,6,0,0,1-3.89,1.29c-3.46,0-5.39-2-5.39-5.35V228.33h-3.29v-2.11h3.29v-4h2.49v4h5.6v2.11h-5.6v11c0,2.17,1.12,3.36,3.18,3.36a4.11,4.11,0,0,0,2.73-1Z"/>
    <path d="M157.24,236.2h-15.4c.28,3.85,3.22,6.41,7.24,6.41a7.27,7.27,0,0,0,5.64-2.42l1.4,1.61a9.07,9.07,0,0,1-7.11,3c-5.74,0-9.66-3.92-9.66-9.38s3.82-9.35,9-9.35,8.92,3.82,8.92,9.35C157.27,235.64,157.24,235.92,157.24,236.2Zm-15.4-1.85h13a6.54,6.54,0,0,0-13,0Z"/>
    <path d="M171.62,226.08v2.42c-.21,0-.42,0-.59,0-3.85,0-6.2,2.46-6.2,6.8v9.38h-2.48V226.22h2.38v3.61C165.88,227.38,168.23,226.08,171.62,226.08Z"/>
    <path d="M204.21,235.43c0,5.57-3.92,9.38-9.17,9.38a8,8,0,0,1-7.11-3.81v3.64h-2.38v-26H188v11.07a8,8,0,0,1,7-3.65A8.91,8.91,0,0,1,204.21,235.43Zm-2.49,0c0-4.3-3-7.18-6.86-7.18s-6.86,2.88-6.86,7.18,2.94,7.18,6.86,7.18S201.72,239.74,201.72,235.43Z"/>
    <path d="M218.56,226.08v2.42c-.21,0-.42,0-.6,0-3.85,0-6.19,2.46-6.19,6.8v9.38h-2.49V226.22h2.38v3.61C212.82,227.38,215.16,226.08,218.56,226.08Z"/>
    <path d="M252.37,236.13H236.93c.25,3.89,3.15,6.48,7.25,6.48a7.29,7.29,0,0,0,5.63-2.42l1.4,1.61a9,9,0,0,1-7.1,3,9.22,9.22,0,0,1-8.23-4.23c-1.36,3.08-4.37,4.23-7.45,4.23-4.38,0-7-2.2-7-5.42,0-2.7,1.82-5.11,7.11-5.11h5.84v-1.16c0-3.15-1.78-4.87-5.21-4.87a9.4,9.4,0,0,0-6.13,2.17L222,228.57a11.76,11.76,0,0,1,7.46-2.49c3.53,0,5.81,1.3,6.75,3.79a8.62,8.62,0,0,1,7.32-3.79,8.81,8.81,0,0,1,9,9.21A7.13,7.13,0,0,1,252.37,236.13Zm-18,1.47v-1.47h-5.77c-3.54,0-4.73,1.4-4.73,3.19,0,2.2,1.75,3.53,4.69,3.53C232.14,242.85,234.41,240.86,234.41,237.6Zm2.52-3.32H250a6.55,6.55,0,0,0-13.06,0Z"/>
    <path d="M274.45,234v10.68H272V234.21c0-3.89-2-5.88-5.53-5.88-4,0-6.44,2.45-6.44,6.65v9.66h-2.49V226.22h2.38v3.4c1.33-2.24,3.82-3.54,7-3.54C271.37,226.08,274.45,228.67,274.45,234Z"/>
    <path d="M298.08,218.66v26H295.7V241a8,8,0,0,1-7.11,3.81c-5.25,0-9.17-3.81-9.17-9.38a8.91,8.91,0,0,1,9.17-9.35,8,8,0,0,1,7,3.65V218.66Zm-2.45,16.77c0-4.3-2.94-7.18-6.83-7.18s-6.86,2.88-6.86,7.18,2.94,7.18,6.86,7.18S295.63,239.74,295.63,235.43Z"/>
    <path d="M321,236.2H305.63c.28,3.85,3.22,6.41,7.25,6.41a7.27,7.27,0,0,0,5.64-2.42l1.4,1.61a9.09,9.09,0,0,1-7.11,3c-5.74,0-9.66-3.92-9.66-9.38s3.81-9.35,9-9.35,8.93,3.82,8.93,9.35C321.07,235.64,321,235.92,321,236.2Zm-15.41-1.85h13.06a6.54,6.54,0,0,0-13.06,0Z"/>
    <path d="M323.59,242.54l1.12-2a11.14,11.14,0,0,0,6.54,2.06c3.5,0,4.94-1.19,4.94-3,0-4.79-11.94-1-11.94-8.3,0-3,2.59-5.25,7.28-5.25A12.45,12.45,0,0,1,338,227.8l-1.08,2a9.45,9.45,0,0,0-5.43-1.57c-3.32,0-4.79,1.29-4.79,3.05,0,5,11.93,1.22,11.93,8.29,0,3.19-2.79,5.25-7.59,5.25A12.31,12.31,0,0,1,323.59,242.54Z"/>
    <path d="M369.23,218.66v26h-2.38V241a8,8,0,0,1-7.11,3.81c-5.25,0-9.17-3.81-9.17-9.38a8.91,8.91,0,0,1,9.17-9.35,8,8,0,0,1,7,3.65V218.66Zm-2.45,16.77c0-4.3-2.94-7.18-6.83-7.18s-6.86,2.88-6.86,7.18,2.94,7.18,6.86,7.18S366.78,239.74,366.78,235.43Z"/>
    <path d="M392.19,236.2h-15.4c.28,3.85,3.22,6.41,7.24,6.41a7.27,7.27,0,0,0,5.64-2.42l1.4,1.61a9.07,9.07,0,0,1-7.11,3c-5.74,0-9.66-3.92-9.66-9.38s3.82-9.35,9-9.35,8.92,3.82,8.92,9.35C392.22,235.64,392.19,235.92,392.19,236.2Zm-15.4-1.85h13a6.54,6.54,0,0,0-13,0Z"/>
    <path d="M407,243.52a5.94,5.94,0,0,1-3.88,1.29c-3.47,0-5.39-2-5.39-5.35V228.33h-3.29v-2.11h3.29v-4h2.48v4h5.6v2.11h-5.6v11c0,2.17,1.12,3.36,3.19,3.36a4.13,4.13,0,0,0,2.73-1Z"/>
    <path d="M420.12,220.41a1.79,1.79,0,0,1,1.82-1.75,1.77,1.77,0,0,1,1.82,1.72,1.82,1.82,0,0,1-3.64,0Zm.56,5.81h2.48v18.42h-2.48Z"/>
    <path d="M437.41,235.43a9.36,9.36,0,1,1,9.38,9.38A9.06,9.06,0,0,1,437.41,235.43Zm16.2,0c0-4.3-2.9-7.18-6.82-7.18s-6.86,2.88-6.86,7.18,2.94,7.18,6.86,7.18S453.61,239.74,453.61,235.43Z"/>
    <path d="M476.15,226.22,468,244.64h-2.55l-8.16-18.42h2.59l6.9,15.69,7-15.69Z"/>
    <path d="M496.59,234v10.68h-2.48V234.21c0-3.89-2-5.88-5.53-5.88-4,0-6.44,2.45-6.44,6.65v9.66h-2.49V226.22H482v3.4c1.33-2.24,3.82-3.54,7-3.54C493.51,226.08,496.59,228.67,496.59,234Z"/>
    <path d="M84,270.41v2.17h5.67v2.1h-5.6V291H81.57V274.68H78.28v-2.1h3.29V270.3c0-3.29,2-5.46,5.56-5.46A5.84,5.84,0,0,1,90.81,266L90,267.85a4.24,4.24,0,0,0-2.73-.91C85.1,266.94,84,268.13,84,270.41Z"/>
    <path d="M90.84,281.79a9.37,9.37,0,1,1,9.38,9.38A9.06,9.06,0,0,1,90.84,281.79Zm16.21,0c0-4.31-2.91-7.18-6.83-7.18s-6.86,2.87-6.86,7.18S96.3,289,100.22,289,107.05,286.09,107.05,281.79Z"/>
    <path d="M123.92,272.44v2.42c-.21,0-.42,0-.6,0-3.85,0-6.19,2.45-6.19,6.79V291h-2.49V272.58H117v3.61C118.18,273.74,120.52,272.44,123.92,272.44Z"/>
    <path d="M140.68,270.41v2.17h5.67v2.1h-5.6V291h-2.48V274.68H135v-2.1h3.29V270.3c0-3.29,2-5.46,5.56-5.46a5.84,5.84,0,0,1,3.68,1.16l-.84,1.85a4.24,4.24,0,0,0-2.73-.91C141.8,266.94,140.68,268.13,140.68,270.41Z"/>
    <path d="M166.27,281.79a9.06,9.06,0,0,1-9.35,9.38,10.34,10.34,0,0,1-4.69-1.12L150,293.48h-1.68l2.8-4.2a9.15,9.15,0,0,1-3.54-7.49,9.06,9.06,0,0,1,9.38-9.35,9.54,9.54,0,0,1,4.62,1.12l2.24-3.36h1.65l-2.73,4.1A9.13,9.13,0,0,1,166.27,281.79Zm-13.9,5.53,7.91-11.87a6.65,6.65,0,0,0-3.36-.84c-3.92,0-6.86,2.87-6.86,7.18A7.2,7.2,0,0,0,152.37,287.32Zm11.38-5.53a7.23,7.23,0,0,0-2.31-5.57l-7.91,11.9a6.76,6.76,0,0,0,3.39.84C160.84,289,163.75,286.09,163.75,281.79Z"/>
    <path d="M180.62,272.44v2.42c-.21,0-.42,0-.6,0-3.85,0-6.19,2.45-6.19,6.79V291h-2.49V272.58h2.38v3.61C174.88,273.74,177.22,272.44,180.62,272.44Z"/>
    <path d="M182.68,288.89l1.12-2a11.1,11.1,0,0,0,6.55,2.07c3.5,0,4.93-1.19,4.93-3,0-4.8-11.93-1-11.93-8.3,0-3,2.59-5.25,7.28-5.25a12.48,12.48,0,0,1,6.51,1.72l-1.09,2a9.42,9.42,0,0,0-5.42-1.57c-3.33,0-4.8,1.29-4.8,3,0,5,11.94,1.23,11.94,8.3,0,3.18-2.8,5.25-7.6,5.25A12.29,12.29,0,0,1,182.68,288.89Z"/>
    <path d="M212.05,289.87a5.9,5.9,0,0,1-3.89,1.3c-3.46,0-5.39-2-5.39-5.36V274.68h-3.29v-2.1h3.29v-4h2.49v4h5.6v2.1h-5.6v11c0,2.17,1.12,3.36,3.18,3.36a4.1,4.1,0,0,0,2.73-.94Z"/>
    <path d="M231.93,282.56h-15.4c.28,3.85,3.22,6.4,7.24,6.4a7.26,7.26,0,0,0,5.64-2.41l1.4,1.61a9.07,9.07,0,0,1-7.11,3c-5.74,0-9.66-3.92-9.66-9.38s3.82-9.35,9-9.35,8.92,3.82,8.92,9.35C232,282,231.93,282.28,231.93,282.56Zm-15.4-1.86h13.05a6.54,6.54,0,0,0-13.05,0Z"/>
    <path d="M263.25,272.58v16.17c0,6.34-3.11,9.21-9.2,9.21-3.36,0-6.65-1-8.58-2.84l1.26-1.89a10.94,10.94,0,0,0,7.25,2.52c4.65,0,6.79-2.13,6.79-6.68v-2.35a8.28,8.28,0,0,1-7.18,3.57c-5.25,0-9.24-3.67-9.24-9s4-8.89,9.24-8.89a8.3,8.3,0,0,1,7.28,3.68v-3.54Zm-2.41,8.75c0-4-2.94-6.72-7-6.72s-7,2.73-7,6.72a6.59,6.59,0,0,0,7,6.76C257.9,288.09,260.84,285.32,260.84,281.33Z"/>
    <path d="M284.11,279.58V291h-2.38v-2.87c-1.12,1.89-3.29,3.05-6.33,3.05-4.17,0-6.73-2.17-6.73-5.36,0-2.83,1.83-5.21,7.11-5.21h5.85v-1.12c0-3.15-1.79-4.87-5.22-4.87a9.4,9.4,0,0,0-6.13,2.17l-1.12-1.85a11.69,11.69,0,0,1,7.5-2.49C281.42,272.44,284.11,274.82,284.11,279.58Zm-2.48,5.88v-3h-5.78c-3.57,0-4.72,1.4-4.72,3.29,0,2.14,1.71,3.47,4.65,3.47A5.89,5.89,0,0,0,281.63,285.46Z"/>
    <path d="M307.81,280.32V291h-2.49V280.56c0-3.88-2-5.88-5.53-5.88-4,0-6.44,2.45-6.44,6.65V291h-2.49V272.58h2.39V276c1.33-2.24,3.81-3.54,7-3.54C304.73,272.44,307.81,275,307.81,280.32Z"/>
    <path d="M331.68,272.58v16.17c0,6.34-3.12,9.21-9.21,9.21-3.36,0-6.65-1-8.58-2.84l1.26-1.89a10.94,10.94,0,0,0,7.25,2.52c4.66,0,6.79-2.13,6.79-6.68v-2.35a8.27,8.27,0,0,1-7.18,3.57c-5.25,0-9.24-3.67-9.24-9s4-8.89,9.24-8.89a8.31,8.31,0,0,1,7.29,3.68v-3.54Zm-2.42,8.75c0-4-2.94-6.72-7-6.72s-7,2.73-7,6.72a6.59,6.59,0,0,0,7,6.76C326.32,288.09,329.26,285.32,329.26,281.33Z"/>
    <path d="M337,289.24a1.85,1.85,0,0,1,1.85-1.89,1.88,1.88,0,0,1,1.89,1.89,1.91,1.91,0,0,1-1.89,1.93A1.88,1.88,0,0,1,337,289.24Z"/>
    <path d="M355.75,266.49h10c7.84,0,13.13,5,13.13,12.25S373.57,291,365.73,291h-10Zm9.84,22.26c6.51,0,10.71-4.13,10.71-10s-4.2-10-10.71-10h-7.25v20Z"/>
    <path d="M400.17,282.56h-15.4c.28,3.85,3.22,6.4,7.24,6.4a7.26,7.26,0,0,0,5.64-2.41l1.4,1.61a9.07,9.07,0,0,1-7.11,3c-5.74,0-9.66-3.92-9.66-9.38s3.82-9.35,9-9.35,8.93,3.82,8.93,9.35C400.21,282,400.17,282.28,400.17,282.56Zm-15.4-1.86h13.05a6.54,6.54,0,0,0-13.05,0Z"/>
    <path d="M415,289.87a5.89,5.89,0,0,1-3.88,1.3c-3.47,0-5.39-2-5.39-5.36V274.68h-3.29v-2.1h3.29v-4h2.48v4h5.6v2.1h-5.6v11c0,2.17,1.12,3.36,3.19,3.36a4.12,4.12,0,0,0,2.73-.94Z"/>
    <path d="M428.69,289.87a5.89,5.89,0,0,1-3.88,1.3c-3.47,0-5.39-2-5.39-5.36V274.68h-3.29v-2.1h3.29v-4h2.48v4h5.6v2.1h-5.6v11c0,2.17,1.12,3.36,3.19,3.36a4.12,4.12,0,0,0,2.73-.94Z"/>
    <path d="M448.57,282.56h-15.4c.28,3.85,3.22,6.4,7.25,6.4a7.24,7.24,0,0,0,5.63-2.41l1.4,1.61a9.05,9.05,0,0,1-7.1,3c-5.74,0-9.66-3.92-9.66-9.38s3.81-9.35,9-9.35,8.93,3.82,8.93,9.35C448.61,282,448.57,282.28,448.57,282.56Zm-15.4-1.86h13.06a6.54,6.54,0,0,0-13.06,0Z"/>
    <path d="M110.63,328.11l-4.34,4v5.25h-2.48v-26h2.48V329l11-10.05h3.08l-7.88,7.53,8.61,10.89h-3Z"/>
    <path d="M138.39,325.94v11.41H136v-2.87c-1.12,1.89-3.29,3-6.34,3-4.16,0-6.72-2.17-6.72-5.35,0-2.84,1.82-5.22,7.11-5.22h5.84v-1.12c0-3.15-1.78-4.87-5.21-4.87a9.4,9.4,0,0,0-6.13,2.17l-1.12-1.85a11.74,11.74,0,0,1,7.49-2.49C135.69,318.79,138.39,321.17,138.39,325.94Zm-2.49,5.88v-3h-5.77c-3.57,0-4.73,1.4-4.73,3.29,0,2.13,1.72,3.46,4.66,3.46A5.89,5.89,0,0,0,135.9,331.82Z"/>
    <path d="M145.14,311.37h2.49v26h-2.49Z"/>
    <path d="M171.36,311.37v26H169v-3.64a8,8,0,0,1-7.11,3.81c-5.25,0-9.17-3.81-9.17-9.38a8.91,8.91,0,0,1,9.17-9.35,8.06,8.06,0,0,1,7,3.65V311.37Zm-2.45,16.77c0-4.31-2.94-7.18-6.83-7.18s-6.86,2.87-6.86,7.18,2.94,7.18,6.86,7.18S168.91,332.45,168.91,328.14Z"/>
    <path d="M194.32,328.91h-15.4c.28,3.85,3.22,6.41,7.24,6.41a7.27,7.27,0,0,0,5.64-2.42l1.4,1.61a9.07,9.07,0,0,1-7.11,3c-5.74,0-9.66-3.92-9.66-9.38s3.82-9.35,9-9.35,8.92,3.82,8.92,9.35C194.35,328.35,194.32,328.63,194.32,328.91Zm-15.4-1.85H192a6.54,6.54,0,0,0-13.05,0Z"/>
    <path d="M196.87,335.25l1.12-2a11.17,11.17,0,0,0,6.55,2.06c3.5,0,4.93-1.19,4.93-3,0-4.79-11.93-1-11.93-8.3,0-3,2.59-5.25,7.28-5.25a12.48,12.48,0,0,1,6.51,1.72l-1.09,2a9.42,9.42,0,0,0-5.42-1.57c-3.33,0-4.8,1.3-4.8,3.05,0,5,11.94,1.22,11.94,8.29,0,3.19-2.8,5.25-7.6,5.25A12.35,12.35,0,0,1,196.87,335.25Z"/>
    <path d="M228.55,316.76v2.17h5.67V321h-5.6v16.31h-2.49V321h-3.29v-2.11h3.29v-2.27c0-3.29,2-5.46,5.57-5.46a5.83,5.83,0,0,1,3.67,1.15l-.84,1.86a4.18,4.18,0,0,0-2.73-.91C229.67,313.3,228.55,314.49,228.55,316.76Z"/>
    <path d="M235.41,328.14a9.36,9.36,0,1,1,9.38,9.38A9.06,9.06,0,0,1,235.41,328.14Zm16.2,0c0-4.31-2.9-7.18-6.82-7.18s-6.86,2.87-6.86,7.18,2.94,7.18,6.86,7.18S251.61,332.45,251.61,328.14Z"/>
    <path d="M268.48,318.79v2.42c-.21,0-.42,0-.59,0-3.85,0-6.2,2.46-6.2,6.8v9.38h-2.48V318.93h2.38v3.61C262.74,320.09,265.09,318.79,268.48,318.79Z"/>
    <path d="M289.83,318.93v16.18c0,6.33-3.11,9.2-9.2,9.2-3.36,0-6.65-1-8.58-2.83l1.26-1.89a11,11,0,0,0,7.25,2.52c4.65,0,6.79-2.14,6.79-6.69v-2.34a8.31,8.31,0,0,1-7.18,3.57c-5.25,0-9.24-3.68-9.24-9s4-8.9,9.24-8.9a8.3,8.3,0,0,1,7.28,3.68v-3.54Zm-2.41,8.76c0-4-2.94-6.73-7-6.73s-7,2.74-7,6.73,2.91,6.75,7,6.75S287.42,331.68,287.42,327.69Z"/>
    <path d="M296.8,311.37h2.48v26H296.8Z"/>
    <path d="M323.08,328.14a9.05,9.05,0,0,1-9.34,9.38,10.27,10.27,0,0,1-4.69-1.12l-2.28,3.43h-1.68l2.8-4.2a9.16,9.16,0,0,1-3.53-7.49,9.06,9.06,0,0,1,9.38-9.35,9.46,9.46,0,0,1,4.62,1.13l2.24-3.37h1.64l-2.73,4.1A9.12,9.12,0,0,1,323.08,328.14Zm-13.89,5.53,7.91-11.87a6.75,6.75,0,0,0-3.36-.84c-3.92,0-6.86,2.87-6.86,7.18A7.15,7.15,0,0,0,309.19,333.67Zm11.37-5.53a7.16,7.16,0,0,0-2.31-5.56l-7.91,11.9a6.8,6.8,0,0,0,3.4.84C317.66,335.32,320.56,332.45,320.56,328.14Z"/>
    <path d="M345,311.37v26h-2.38v-3.64a8,8,0,0,1-7.11,3.81c-5.25,0-9.17-3.81-9.17-9.38a8.91,8.91,0,0,1,9.17-9.35,8,8,0,0,1,7,3.65V311.37Zm-2.45,16.77c0-4.31-2.94-7.18-6.83-7.18s-6.86,2.87-6.86,7.18,2.94,7.18,6.86,7.18S342.51,332.45,342.51,328.14Z"/>
    <path d="M368.83,326.67v10.68h-2.49V326.92c0-3.89-2-5.88-5.53-5.88-3.95,0-6.44,2.45-6.44,6.65v9.66h-2.48V318.93h2.38v3.4c1.33-2.24,3.81-3.54,7-3.54C365.75,318.79,368.83,321.38,368.83,326.67Z"/>
    <path d="M375,313.12a1.8,1.8,0,0,1,1.82-1.75,1.76,1.76,0,0,1,1.82,1.72,1.79,1.79,0,0,1-1.82,1.82A1.81,1.81,0,0,1,375,313.12Zm.56,5.81h2.49v18.42h-2.49Z"/>
    <path d="M401.94,326.67v10.68h-2.49V326.92c0-3.89-2-5.88-5.53-5.88-3.95,0-6.44,2.45-6.44,6.65v9.66H385V318.93h2.38v3.4c1.33-2.24,3.81-3.54,7-3.54C398.86,318.79,401.94,321.38,401.94,326.67Z"/>
    <path d="M425.81,318.93v16.18c0,6.33-3.12,9.2-9.21,9.2-3.36,0-6.65-1-8.57-2.83l1.26-1.89a11,11,0,0,0,7.24,2.52c4.66,0,6.79-2.14,6.79-6.69v-2.34a8.29,8.29,0,0,1-7.17,3.57c-5.25,0-9.24-3.68-9.24-9s4-8.9,9.24-8.9a8.3,8.3,0,0,1,7.28,3.68v-3.54Zm-2.42,8.76c0-4-2.94-6.73-7-6.73s-7,2.74-7,6.73a6.57,6.57,0,0,0,7,6.75C420.45,334.44,423.39,331.68,423.39,327.69Z"/>
    <path d="M431.16,335.6a1.85,1.85,0,0,1,1.86-1.89,1.88,1.88,0,0,1,1.89,1.89,1.91,1.91,0,0,1-1.89,1.92A1.88,1.88,0,0,1,431.16,335.6Z"/>
  </g>
</svg>
