<svg id="Layer_1" data-name="Layer 1" xmlns="http://www.w3.org/2000/svg" width="581" height="546" viewBox="0 0 581 546">
  <defs>
    <style>
      .cls-1 {
        fill: #d1d1d1;
      }

      .cls-2 {
        fill: #fff;
      }
    </style>
  </defs>
  <g>
    <g>
      <path class="cls-1" d="M519,282.78A250.09,250.09,0,0,1,268.72,533C130.52,533,18.49,421,18.49,282.78s112-250.23,250.23-250.23S519,144.58,519,282.78Z"/>
      <path class="cls-1" d="M582,459.3Q554.46,385.7,498.53,382L440.22,465Q503.24,427.06,582,459.3Z"/>
    </g>
    <g>
      <path class="cls-2" d="M501.5,271.14A250.09,250.09,0,0,1,251.27,521.38C113.07,521.38,1,409.34,1,271.14s112-250.23,250.24-250.23S501.5,132.94,501.5,271.14Z"/>
      <path class="cls-2" d="M564.54,447.66Q537,374.05,481.08,370.32l-58.32,83Q485.78,415.42,564.54,447.66Z"/>
    </g>
  </g>
  <g>
    <path d="M43,193.75v24.5H40.9L25.15,198.37v19.88H22.56v-24.5h2.13l15.79,19.88V193.75Z"/>
    <path d="M67.08,199.84v18.41H64.7v-3.36a7.34,7.34,0,0,1-6.62,3.54c-4.69,0-7.77-2.63-7.77-7.91V199.84H52.8v10.43c0,3.92,2,5.92,5.53,5.92,3.85,0,6.26-2.49,6.26-6.69v-9.66Z"/>
    <path d="M99.24,209.82H83.84c.28,3.85,3.22,6.4,7.25,6.4a7.24,7.24,0,0,0,5.63-2.41l1.4,1.61a9.05,9.05,0,0,1-7.1,3c-5.74,0-9.66-3.92-9.66-9.39s3.81-9.34,9-9.34,8.93,3.81,8.93,9.34C99.28,209.25,99.24,209.54,99.24,209.82ZM83.84,208H96.9a6.54,6.54,0,0,0-13.06,0Z"/>
    <path d="M113.63,199.7v2.41c-.21,0-.42,0-.6,0-3.85,0-6.19,2.45-6.19,6.79v9.38h-2.49V199.84h2.38v3.6C107.89,201,110.23,199.7,113.63,199.7Z"/>
    <path d="M141.45,206.84v11.41h-2.38v-2.87c-1.12,1.89-3.29,3.05-6.33,3.05-4.17,0-6.72-2.17-6.72-5.36,0-2.83,1.82-5.22,7.1-5.22H139v-1.12c0-3.15-1.79-4.86-5.22-4.86a9.35,9.35,0,0,0-6.12,2.17l-1.12-1.86A11.7,11.7,0,0,1,134,199.7C138.76,199.7,141.45,202.08,141.45,206.84ZM139,212.72v-3h-5.78c-3.57,0-4.72,1.4-4.72,3.29,0,2.14,1.71,3.47,4.65,3.47A5.89,5.89,0,0,0,139,212.72Z"/>
    <path d="M148.21,192.28h2.48v26h-2.48Z"/>
    <path d="M167.39,217.13a5.9,5.9,0,0,1-3.89,1.3c-3.46,0-5.39-2-5.39-5.36V201.94h-3.29v-2.1h3.29v-4h2.49v4h5.6v2.1h-5.6v11c0,2.17,1.12,3.36,3.18,3.36a4.1,4.1,0,0,0,2.73-.94Z"/>
    <path d="M198.12,199.84V216c0,6.34-3.12,9.21-9.21,9.21-3.36,0-6.65-1-8.58-2.84l1.26-1.89a11,11,0,0,0,7.25,2.52c4.66,0,6.79-2.13,6.79-6.68V214a8.26,8.26,0,0,1-7.17,3.57c-5.25,0-9.25-3.67-9.25-9s4-8.89,9.25-8.89a8.32,8.32,0,0,1,7.28,3.67v-3.53Zm-2.42,8.75c0-4-2.94-6.72-7-6.72s-7,2.73-7,6.72a6.58,6.58,0,0,0,7,6.76C192.76,215.35,195.7,212.58,195.7,208.59Z"/>
    <path d="M205.08,192.28h2.49v26h-2.49Z"/>
    <path d="M228.39,206.84v11.41H226v-2.87c-1.12,1.89-3.29,3.05-6.34,3.05-4.16,0-6.72-2.17-6.72-5.36,0-2.83,1.82-5.22,7.11-5.22h5.85v-1.12c0-3.15-1.79-4.86-5.22-4.86a9.4,9.4,0,0,0-6.13,2.17l-1.12-1.86a11.74,11.74,0,0,1,7.5-2.48C225.7,199.7,228.39,202.08,228.39,206.84Zm-2.48,5.88v-3h-5.78c-3.57,0-4.73,1.4-4.73,3.29,0,2.14,1.72,3.47,4.66,3.47A5.89,5.89,0,0,0,225.91,212.72Z"/>
    <path d="M232.59,216.15l1.12-2a11.09,11.09,0,0,0,6.54,2.07c3.5,0,4.94-1.19,4.94-3,0-4.8-11.94-1-11.94-8.3,0-3,2.59-5.25,7.29-5.25a12.47,12.47,0,0,1,6.51,1.71l-1.09,2a9.45,9.45,0,0,0-5.42-1.58c-3.33,0-4.8,1.3-4.8,3,0,5,11.94,1.22,11.94,8.3,0,3.18-2.8,5.25-7.6,5.25A12.24,12.24,0,0,1,232.59,216.15Z"/>
    <path d="M268.29,209.82h-15.4c.28,3.85,3.22,6.4,7.25,6.4a7.24,7.24,0,0,0,5.63-2.41l1.4,1.61a9.05,9.05,0,0,1-7.1,3c-5.74,0-9.67-3.92-9.67-9.39s3.82-9.34,9-9.34,8.93,3.81,8.93,9.34C268.33,209.25,268.29,209.54,268.29,209.82ZM252.89,208H266a6.54,6.54,0,0,0-13.06,0Z"/>
    <path d="M282.67,199.7v2.41c-.21,0-.42,0-.59,0-3.85,0-6.2,2.45-6.2,6.79v9.38H273.4V199.84h2.38v3.6C276.93,201,279.28,199.7,282.67,199.7Z"/>
    <path d="M303,209.82h-15.4c.28,3.85,3.22,6.4,7.24,6.4a7.26,7.26,0,0,0,5.64-2.41l1.4,1.61a9.06,9.06,0,0,1-7.11,3c-5.74,0-9.66-3.92-9.66-9.39s3.82-9.34,9-9.34,8.93,3.81,8.93,9.34C303.05,209.25,303,209.54,303,209.82ZM287.61,208h13.06a6.54,6.54,0,0,0-13.06,0Z"/>
    <path d="M317.81,217.13a5.89,5.89,0,0,1-3.88,1.3c-3.47,0-5.39-2-5.39-5.36V201.94h-3.29v-2.1h3.29v-4H311v4h5.6v2.1H311v11c0,2.17,1.12,3.36,3.19,3.36a4.12,4.12,0,0,0,2.73-.94Z"/>
    <path d="M329.64,209a9.37,9.37,0,1,1,9.38,9.39A9.05,9.05,0,0,1,329.64,209Zm16.21,0c0-4.3-2.91-7.17-6.83-7.17s-6.86,2.87-6.86,7.17,2.94,7.18,6.86,7.18S345.85,213.35,345.85,209Z"/>
    <path d="M370.49,199.84V216c0,6.34-3.11,9.21-9.21,9.21-3.36,0-6.65-1-8.57-2.84l1.26-1.89a10.93,10.93,0,0,0,7.24,2.52c4.66,0,6.79-2.13,6.79-6.68V214a8.26,8.26,0,0,1-7.17,3.57c-5.25,0-9.24-3.67-9.24-9s4-8.89,9.24-8.89a8.32,8.32,0,0,1,7.28,3.67v-3.53Zm-2.42,8.75c0-4-2.94-6.72-7-6.72s-7,2.73-7,6.72a6.58,6.58,0,0,0,7,6.76C365.13,215.35,368.07,212.58,368.07,208.59Z"/>
    <path d="M393.45,209l-4.34,4v5.25h-2.49v-26h2.49v17.6l11-10h3.08l-7.88,7.53,8.61,10.88h-3Z"/>
    <path d="M407.66,192.28h2.48v26h-2.48Z"/>
    <path d="M431,206.84v11.41h-2.38v-2.87c-1.12,1.89-3.29,3.05-6.34,3.05-4.16,0-6.72-2.17-6.72-5.36,0-2.83,1.82-5.22,7.11-5.22h5.84v-1.12c0-3.15-1.78-4.86-5.21-4.86a9.4,9.4,0,0,0-6.13,2.17L416,202.18a11.74,11.74,0,0,1,7.49-2.48C428.27,199.7,431,202.08,431,206.84Zm-2.49,5.88v-3h-5.77c-3.57,0-4.73,1.4-4.73,3.29,0,2.14,1.72,3.47,4.66,3.47A5.88,5.88,0,0,0,428.48,212.72Z"/>
    <path d="M447,199.7v2.41c-.21,0-.42,0-.6,0-3.85,0-6.19,2.45-6.19,6.79v9.38h-2.49V199.84h2.38v3.6C441.26,201,443.6,199.7,447,199.7Z"/>
    <path d="M470.62,217.13a5.89,5.89,0,0,1-3.88,1.3c-3.47,0-5.39-2-5.39-5.36V201.94h-3.29v-2.1h3.29v-4h2.48v4h5.6v2.1h-5.6v11c0,2.17,1.12,3.36,3.19,3.36a4.12,4.12,0,0,0,2.73-.94Z"/>
    <path d="M474.58,194a1.79,1.79,0,0,1,1.82-1.75,1.77,1.77,0,1,1,0,3.53A1.79,1.79,0,0,1,474.58,194Zm.56,5.81h2.48v18.41h-2.48Z"/>
    <path d="M484.55,192.28H487v26h-2.49Z"/>
    <path d="M41.06,238.63v26H38.68V261a8,8,0,0,1-7.11,3.81c-5.25,0-9.17-3.81-9.17-9.38s3.92-9.35,9.17-9.35a8,8,0,0,1,7,3.65V238.63ZM38.61,255.4c0-4.31-2.94-7.18-6.83-7.18s-6.86,2.87-6.86,7.18,2.94,7.18,6.86,7.18S38.61,259.71,38.61,255.4Z"/>
    <path d="M64,256.17H48.61c.28,3.85,3.22,6.41,7.25,6.41a7.27,7.27,0,0,0,5.64-2.42l1.4,1.61a9.07,9.07,0,0,1-7.11,3c-5.74,0-9.66-3.92-9.66-9.38s3.82-9.35,9-9.35,8.92,3.82,8.92,9.35C64.05,255.61,64,255.89,64,256.17Zm-15.41-1.85H61.67a6.54,6.54,0,0,0-13.06,0Z"/>
    <path d="M76,255.37l-4.34,4v5.25H69.12v-26h2.49v17.61l11-10.05h3.08l-7.88,7.53,8.62,10.89h-3Z"/>
    <path d="M87.57,255.4A9.37,9.37,0,1,1,97,264.78,9.06,9.06,0,0,1,87.57,255.4Zm16.21,0c0-4.31-2.91-7.18-6.83-7.18s-6.86,2.87-6.86,7.18S93,262.58,97,262.58,103.78,259.71,103.78,255.4Z"/>
    <path d="M120.64,246.05v2.42c-.21,0-.42,0-.59,0-3.85,0-6.2,2.45-6.2,6.8v9.38h-2.48V246.19h2.38v3.61C114.9,247.35,117.25,246.05,120.64,246.05Z"/>
    <path d="M141,256.17h-15.4c.28,3.85,3.22,6.41,7.25,6.41a7.25,7.25,0,0,0,5.63-2.42l1.4,1.61a9.06,9.06,0,0,1-7.11,3c-5.74,0-9.66-3.92-9.66-9.38s3.82-9.35,9-9.35,8.93,3.82,8.93,9.35C141,255.61,141,255.89,141,256.17Zm-15.4-1.85h13.06a6.54,6.54,0,0,0-13.06,0Z"/>
    <path d="M155.36,246.05v2.42c-.21,0-.42,0-.59,0-3.85,0-6.2,2.45-6.2,6.8v9.38h-2.48V246.19h2.38v3.61C149.62,247.35,152,246.05,155.36,246.05Z"/>
    <path d="M159.28,240.38a1.8,1.8,0,0,1,1.82-1.75,1.76,1.76,0,0,1,1.82,1.72,1.79,1.79,0,0,1-1.82,1.82A1.81,1.81,0,0,1,159.28,240.38Zm.56,5.81h2.49v18.42h-2.49Z"/>
    <path d="M186.2,253.93v10.68h-2.49V254.18c0-3.89-2-5.89-5.53-5.89-4,0-6.44,2.46-6.44,6.66v9.66h-2.48V246.19h2.38v3.4c1.33-2.24,3.81-3.54,7-3.54C183.12,246.05,186.2,248.64,186.2,253.93Z"/>
    <path d="M210.07,246.19v16.18c0,6.33-3.12,9.2-9.21,9.2-3.36,0-6.65-1-8.57-2.83l1.26-1.89a11,11,0,0,0,7.24,2.52c4.66,0,6.79-2.14,6.79-6.69v-2.34a8.29,8.29,0,0,1-7.17,3.57c-5.25,0-9.24-3.68-9.24-9s4-8.9,9.24-8.9a8.3,8.3,0,0,1,7.28,3.68v-3.54ZM207.65,255c0-4-2.94-6.73-7-6.73s-7,2.74-7,6.73a6.57,6.57,0,0,0,7,6.75C204.71,261.7,207.65,258.94,207.65,255Z"/>
    <path d="M256.58,253.93v10.68H254.1V254.18c0-3.89-2-5.89-5.29-5.89-3.78,0-6.16,2.46-6.16,6.66v9.66h-2.48V254.18c0-3.89-2-5.89-5.32-5.89-3.75,0-6.16,2.46-6.16,6.66v9.66H226.2V246.19h2.38v3.36a7.47,7.47,0,0,1,6.76-3.5c3,0,5.42,1.3,6.54,3.89a8,8,0,0,1,7.28-3.89C253.64,246.05,256.58,248.64,256.58,253.93Z"/>
    <path d="M279.44,256.17H264c.28,3.85,3.22,6.41,7.24,6.41a7.27,7.27,0,0,0,5.64-2.42l1.4,1.61a9.07,9.07,0,0,1-7.11,3c-5.74,0-9.66-3.92-9.66-9.38s3.82-9.35,9-9.35,8.92,3.82,8.92,9.35C279.47,255.61,279.44,255.89,279.44,256.17ZM264,254.32h13a6.54,6.54,0,0,0-13,0Z"/>
    <path d="M301.35,238.63v26H299V261a8,8,0,0,1-7.11,3.81c-5.25,0-9.17-3.81-9.17-9.38s3.92-9.35,9.17-9.35a8,8,0,0,1,7,3.65V238.63ZM298.9,255.4c0-4.31-2.94-7.18-6.83-7.18s-6.86,2.87-6.86,7.18,2.94,7.18,6.86,7.18S298.9,259.71,298.9,255.4Z"/>
    <path d="M336.1,255.4c0,5.57-3.92,9.38-9.17,9.38a8,8,0,0,1-7.1-3.81v3.64h-2.38v-26h2.48V249.7a8,8,0,0,1,7-3.65C332.18,246.05,336.1,249.83,336.1,255.4Zm-2.48,0c0-4.31-3-7.18-6.86-7.18s-6.86,2.87-6.86,7.18,2.94,7.18,6.86,7.18S333.62,259.71,333.62,255.4Z"/>
    <path d="M341.18,238.63h2.48v26h-2.48Z"/>
    <path d="M348.74,255.4a9.36,9.36,0,1,1,9.38,9.38A9.06,9.06,0,0,1,348.74,255.4Zm16.2,0c0-4.31-2.9-7.18-6.82-7.18s-6.86,2.87-6.86,7.18,2.94,7.18,6.86,7.18S364.94,259.71,364.94,255.4Z"/>
    <path d="M402.92,253.93v10.68h-2.49V254.18c0-3.89-2-5.89-5.28-5.89-3.78,0-6.16,2.46-6.16,6.66v9.66H386.5V254.18c0-3.89-2-5.89-5.32-5.89-3.74,0-6.16,2.46-6.16,6.66v9.66h-2.48V246.19h2.38v3.36a7.44,7.44,0,0,1,6.75-3.5c3.05,0,5.43,1.3,6.55,3.89a8,8,0,0,1,7.28-3.89C400,246.05,402.92,248.64,402.92,253.93Z"/>
    <path d="M407.12,262.51l1.12-2a11.14,11.14,0,0,0,6.54,2.06c3.5,0,4.94-1.19,4.94-3,0-4.79-11.94-1-11.94-8.3,0-3,2.59-5.25,7.28-5.25a12.48,12.48,0,0,1,6.51,1.72l-1.08,2a9.45,9.45,0,0,0-5.43-1.57c-3.32,0-4.79,1.29-4.79,3.05,0,5,11.93,1.22,11.93,8.29,0,3.19-2.8,5.25-7.59,5.25A12.31,12.31,0,0,1,407.12,262.51Z"/>
    <path d="M436.48,263.49a5.94,5.94,0,0,1-3.88,1.29c-3.47,0-5.39-2-5.39-5.35V248.29h-3.29v-2.1h3.29v-4h2.48v4h5.6v2.1h-5.6v11c0,2.17,1.12,3.36,3.19,3.36a4.13,4.13,0,0,0,2.73-.95Z"/>
    <path d="M456.36,256.17H441c.28,3.85,3.22,6.41,7.25,6.41a7.25,7.25,0,0,0,5.63-2.42l1.4,1.61a9.05,9.05,0,0,1-7.1,3c-5.74,0-9.67-3.92-9.67-9.38s3.82-9.35,9-9.35,8.93,3.82,8.93,9.35C456.4,255.61,456.36,255.89,456.36,256.17ZM441,254.32H454a6.54,6.54,0,0,0-13.06,0Z"/>
    <path d="M470.75,246.05v2.42c-.21,0-.42,0-.6,0-3.85,0-6.19,2.45-6.19,6.8v9.38h-2.49V246.19h2.38v3.61C465,247.35,467.35,246.05,470.75,246.05Z"/>
    <path d="M477.29,262.86a5.73,5.73,0,0,1-.49,2l-1.47,4.83h-1.68l1.19-5.08a1.76,1.76,0,0,1-1.26-1.78,1.86,1.86,0,1,1,3.71,0Z"/>
    <path d="M43.8,301.75c0,5.57-3.92,9.39-9.17,9.39a8,8,0,0,1-7.1-3.82V311H25.15V285h2.48v11.06a8,8,0,0,1,7-3.64A8.9,8.9,0,0,1,43.8,301.75Zm-2.48,0c0-4.3-3-7.17-6.86-7.17s-6.86,2.87-6.86,7.17,2.94,7.18,6.86,7.18S41.32,306.06,41.32,301.75Z"/>
    <path d="M48.32,286.74A1.79,1.79,0,0,1,50.14,285a1.77,1.77,0,1,1,0,3.53A1.79,1.79,0,0,1,48.32,286.74Zm.56,5.81h2.48V311H48.88Z"/>
    <path d="M74.32,302.53H58.92c.28,3.85,3.22,6.4,7.25,6.4a7.24,7.24,0,0,0,5.63-2.41l1.4,1.61a9.05,9.05,0,0,1-7.1,3c-5.74,0-9.66-3.92-9.66-9.39s3.81-9.34,9-9.34,8.93,3.81,8.93,9.34C74.36,302,74.32,302.25,74.32,302.53Zm-15.4-1.86H72a6.54,6.54,0,0,0-13.06,0Z"/>
    <path d="M88.71,292.41v2.41c-.21,0-.42,0-.6,0-3.85,0-6.19,2.45-6.19,6.79V311H79.43V292.55h2.38v3.6C83,293.7,85.31,292.41,88.71,292.41Z"/>
    <path d="M100.78,301.75a9.37,9.37,0,1,1,9.38,9.39A9.05,9.05,0,0,1,100.78,301.75Zm16.21,0c0-4.3-2.91-7.17-6.83-7.17s-6.86,2.87-6.86,7.17,2.94,7.18,6.86,7.18S117,306.06,117,301.75Z"/>
    <path d="M141.63,292.55v16.17c0,6.34-3.12,9.21-9.21,9.21-3.36,0-6.65-1-8.57-2.84l1.26-1.89a10.93,10.93,0,0,0,7.24,2.52c4.66,0,6.79-2.13,6.79-6.68v-2.35a8.26,8.26,0,0,1-7.17,3.57c-5.25,0-9.24-3.67-9.24-9s4-8.89,9.24-8.89a8.32,8.32,0,0,1,7.28,3.67v-3.53Zm-2.42,8.75c0-4-2.94-6.72-7-6.72s-7,2.73-7,6.72a6.58,6.58,0,0,0,7,6.76C136.27,308.06,139.21,305.29,139.21,301.3Z"/>
    <path d="M155.21,308.86l1.12-2a11,11,0,0,0,6.54,2.07c3.5,0,4.94-1.19,4.94-3,0-4.8-11.94-1-11.94-8.3,0-3,2.59-5.25,7.28-5.25a12.47,12.47,0,0,1,6.51,1.71l-1.08,2a9.46,9.46,0,0,0-5.43-1.58c-3.32,0-4.79,1.3-4.79,3,0,5,11.93,1.22,11.93,8.3,0,3.18-2.8,5.25-7.59,5.25A12.24,12.24,0,0,1,155.21,308.86Z"/>
    <path d="M173,301.75a9.37,9.37,0,1,1,9.38,9.39A9.05,9.05,0,0,1,173,301.75Zm16.21,0c0-4.3-2.91-7.17-6.83-7.17s-6.86,2.87-6.86,7.17,2.94,7.18,6.86,7.18S189.23,306.06,189.23,301.75Z"/>
    <path d="M227.2,300.29V311h-2.48V300.53c0-3.89-2-5.88-5.29-5.88-3.78,0-6.16,2.45-6.16,6.65V311h-2.48V300.53c0-3.89-2-5.88-5.32-5.88-3.75,0-6.16,2.45-6.16,6.65V311h-2.49V292.55h2.38v3.36a7.45,7.45,0,0,1,6.76-3.5c3,0,5.42,1.29,6.54,3.88a8,8,0,0,1,7.28-3.88C224.26,292.41,227.2,295,227.2,300.29Z"/>
    <path d="M264.34,300.29V311h-2.49V300.53c0-3.89-2-5.88-5.28-5.88-3.78,0-6.16,2.45-6.16,6.65V311h-2.49V300.53c0-3.89-2-5.88-5.32-5.88-3.74,0-6.16,2.45-6.16,6.65V311H234V292.55h2.37v3.36a7.45,7.45,0,0,1,6.76-3.5c3,0,5.43,1.29,6.55,3.88a8,8,0,0,1,7.28-3.88C261.4,292.41,264.34,295,264.34,300.29Z"/>
    <path d="M287.19,302.53h-15.4c.28,3.85,3.22,6.4,7.25,6.4a7.24,7.24,0,0,0,5.63-2.41l1.4,1.61a9.06,9.06,0,0,1-7.11,3c-5.74,0-9.66-3.92-9.66-9.39s3.82-9.34,9-9.34,8.93,3.81,8.93,9.34C287.23,302,287.19,302.25,287.19,302.53Zm-15.4-1.86h13.06a6.54,6.54,0,0,0-13.06,0Z"/>
    <path d="M301.57,292.41v2.41c-.21,0-.42,0-.59,0-3.85,0-6.2,2.45-6.2,6.79V311H292.3V292.55h2.38v3.6C295.83,293.7,298.18,292.41,301.57,292.41Z"/>
    <path d="M309.17,290.38v2.17h5.67v2.1h-5.6V311h-2.49V294.65h-3.29v-2.1h3.29v-2.28c0-3.29,2-5.46,5.57-5.46A5.83,5.83,0,0,1,316,286l-.84,1.85a4.24,4.24,0,0,0-2.73-.91C310.29,286.91,309.17,288.1,309.17,290.38Z"/>
    <path d="M334.79,292.55V311h-2.38V307.6a7.34,7.34,0,0,1-6.62,3.54c-4.69,0-7.77-2.63-7.77-7.91V292.55h2.49V303c0,3.92,2,5.92,5.53,5.92,3.85,0,6.26-2.49,6.26-6.69v-9.66Z"/>
    <path d="M358.8,292.55v16.17c0,6.34-3.12,9.21-9.21,9.21-3.36,0-6.65-1-8.57-2.84l1.26-1.89a10.93,10.93,0,0,0,7.24,2.52c4.66,0,6.79-2.13,6.79-6.68v-2.35a8.26,8.26,0,0,1-7.17,3.57c-5.25,0-9.24-3.67-9.24-9s4-8.89,9.24-8.89a8.32,8.32,0,0,1,7.28,3.67v-3.53Zm-2.42,8.75c0-4-2.94-6.72-7-6.72s-7,2.73-7,6.72a6.58,6.58,0,0,0,7,6.76C353.44,308.06,356.38,305.29,356.38,301.3Z"/>
    <path d="M365.76,285h2.49v26h-2.49Z"/>
    <path d="M391.21,302.53h-15.4c.28,3.85,3.22,6.4,7.24,6.4a7.26,7.26,0,0,0,5.64-2.41l1.4,1.61a9.07,9.07,0,0,1-7.11,3c-5.74,0-9.66-3.92-9.66-9.39s3.82-9.34,9-9.34,8.92,3.81,8.92,9.34C391.24,302,391.21,302.25,391.21,302.53Zm-15.4-1.86h13.05a6.54,6.54,0,0,0-13.05,0Z"/>
    <path d="M402.93,308.86l1.12-2A11.1,11.1,0,0,0,410.6,309c3.5,0,4.93-1.19,4.93-3,0-4.8-11.93-1-11.93-8.3,0-3,2.59-5.25,7.28-5.25a12.47,12.47,0,0,1,6.51,1.71l-1.09,2a9.43,9.43,0,0,0-5.42-1.58c-3.33,0-4.8,1.3-4.8,3,0,5,11.94,1.22,11.94,8.3,0,3.18-2.8,5.25-7.6,5.25A12.29,12.29,0,0,1,402.93,308.86Z"/>
    <path d="M420.75,301.75a9.36,9.36,0,1,1,9.38,9.39A9.05,9.05,0,0,1,420.75,301.75Zm16.2,0c0-4.3-2.9-7.17-6.82-7.17s-6.86,2.87-6.86,7.17,2.94,7.18,6.86,7.18S437,306.06,437,301.75Z"/>
    <path d="M474.93,300.29V311h-2.49V300.53c0-3.89-2-5.88-5.28-5.88-3.78,0-6.16,2.45-6.16,6.65V311h-2.49V300.53c0-3.89-2-5.88-5.32-5.88-3.74,0-6.16,2.45-6.16,6.65V311h-2.48V292.55h2.38v3.36a7.42,7.42,0,0,1,6.75-3.5c3.05,0,5.43,1.29,6.55,3.88a8,8,0,0,1,7.28-3.88C472,292.41,474.93,295,474.93,300.29Z"/>
    <path d="M96.36,348.11c0,5.57-3.92,9.38-9.17,9.38a8,8,0,0,1-7.11-3.81v3.64H77.7v-26h2.48v11.07a8,8,0,0,1,7-3.65C92.44,338.76,96.36,342.54,96.36,348.11Zm-2.49,0c0-4.31-3-7.18-6.86-7.18s-6.86,2.87-6.86,7.18,2.94,7.18,6.86,7.18S93.87,352.42,93.87,348.11Z"/>
    <path d="M101.43,331.34h2.49v26h-2.49Z"/>
    <path d="M110.28,333.09a1.8,1.8,0,0,1,1.82-1.75,1.76,1.76,0,0,1,1.82,1.72,1.79,1.79,0,0,1-1.82,1.82A1.81,1.81,0,0,1,110.28,333.09Zm.56,5.81h2.49v18.42h-2.49Z"/>
    <path d="M135.73,338.9l-8.19,18.42H125l-8.15-18.42h2.59l6.89,15.69,7-15.69Z"/>
    <path d="M154.74,348.88H139.33c.28,3.85,3.22,6.41,7.25,6.41a7.24,7.24,0,0,0,5.63-2.42l1.41,1.61a9.07,9.07,0,0,1-7.11,3c-5.74,0-9.66-3.92-9.66-9.38s3.81-9.35,9-9.35,8.93,3.82,8.93,9.35C154.77,348.32,154.74,348.6,154.74,348.88ZM139.33,347h13.06a6.54,6.54,0,0,0-13.06,0Z"/>
    <path d="M169.12,338.76v2.42c-.21,0-.42,0-.6,0-3.85,0-6.19,2.45-6.19,6.8v9.38h-2.49V338.9h2.38v3.61C163.38,340.06,165.72,338.76,169.12,338.76Z"/>
    <path d="M200,346.64v10.68H197.5V346.89c0-3.89-2-5.89-5.53-5.89-3.95,0-6.44,2.46-6.44,6.66v9.66h-2.48v-26h2.48v10.79a7.78,7.78,0,0,1,6.9-3.37C196.91,338.76,200,341.35,200,346.64Z"/>
    <path d="M220.64,345.91v11.41h-2.38v-2.87c-1.12,1.89-3.29,3-6.34,3-4.16,0-6.72-2.17-6.72-5.35,0-2.84,1.82-5.22,7.11-5.22h5.84V345.8c0-3.15-1.78-4.87-5.21-4.87a9.4,9.4,0,0,0-6.13,2.17l-1.12-1.85a11.68,11.68,0,0,1,7.49-2.49C217.94,338.76,220.64,341.14,220.64,345.91Zm-2.49,5.88v-3h-5.77c-3.57,0-4.73,1.4-4.73,3.29,0,2.13,1.72,3.46,4.66,3.46A5.89,5.89,0,0,0,218.15,351.79Zm-8.57-18.87a3.66,3.66,0,1,1,7.31,0,3.66,3.66,0,0,1-7.31,0Zm1.29,0a2.26,2.26,0,0,0,2.35,2.34,2.29,2.29,0,0,0,2.38-2.34,2.38,2.38,0,0,0-2.38-2.45A2.33,2.33,0,0,0,210.87,332.92Z"/>
    <path d="M244.33,346.64v10.68h-2.48V346.89c0-3.89-2-5.89-5.53-5.89-4,0-6.44,2.46-6.44,6.66v9.66h-2.49V338.9h2.38v3.4c1.33-2.24,3.82-3.54,7-3.54C241.25,338.76,244.33,341.35,244.33,346.64Z"/>
    <path d="M268,331.34v26h-2.38v-3.64a8,8,0,0,1-7.11,3.81c-5.25,0-9.17-3.81-9.17-9.38s3.92-9.35,9.17-9.35a8,8,0,0,1,7,3.65V331.34Zm-2.45,16.77c0-4.31-2.94-7.18-6.83-7.18s-6.86,2.87-6.86,7.18,2.94,7.18,6.86,7.18S265.51,352.42,265.51,348.11Z"/>
    <path d="M305.27,346.64v10.68h-2.49V346.89c0-3.89-2-5.89-5.28-5.89-3.78,0-6.16,2.46-6.16,6.66v9.66h-2.49V346.89c0-3.89-2-5.89-5.32-5.89-3.74,0-6.16,2.46-6.16,6.66v9.66h-2.48V338.9h2.38v3.36a7.44,7.44,0,0,1,6.75-3.5c3.05,0,5.43,1.3,6.55,3.89a8,8,0,0,1,7.28-3.89C302.33,338.76,305.27,341.35,305.27,346.64Z"/>
    <path d="M325.92,345.91v11.41h-2.38v-2.87c-1.12,1.89-3.29,3-6.34,3-4.16,0-6.72-2.17-6.72-5.35,0-2.84,1.82-5.22,7.11-5.22h5.84V345.8c0-3.15-1.78-4.87-5.21-4.87a9.4,9.4,0,0,0-6.13,2.17L311,341.25a11.68,11.68,0,0,1,7.49-2.49C323.22,338.76,325.92,341.14,325.92,345.91Zm-2.49,5.88v-3h-5.77c-3.57,0-4.73,1.4-4.73,3.29,0,2.13,1.72,3.46,4.66,3.46A5.89,5.89,0,0,0,323.43,351.79Z"/>
    <path d="M332.67,331.34h2.49v26h-2.49Z"/>
    <path d="M358.12,348.88h-15.4c.28,3.85,3.22,6.41,7.24,6.41a7.27,7.27,0,0,0,5.64-2.42l1.4,1.61a9.07,9.07,0,0,1-7.11,3c-5.74,0-9.66-3.92-9.66-9.38s3.82-9.35,9-9.35,8.92,3.82,8.92,9.35C358.15,348.32,358.12,348.6,358.12,348.88ZM342.72,347h13a6.54,6.54,0,0,0-13,0Z"/>
    <path d="M372.92,356.2a5.94,5.94,0,0,1-3.88,1.29c-3.47,0-5.39-2-5.39-5.35V341h-3.29v-2.1h3.29v-4h2.48v4h5.6V341h-5.6v11c0,2.17,1.12,3.36,3.19,3.36a4.13,4.13,0,0,0,2.73-.95Z"/>
    <path d="M405.26,348.11c0,5.6-3.92,9.38-9.17,9.38a8,8,0,0,1-7-3.64v10.26H386.6V338.9H389v3.64a8,8,0,0,1,7.1-3.78C401.34,338.76,405.26,342.54,405.26,348.11Zm-2.48,0c0-4.27-3-7.18-6.86-7.18s-6.87,2.91-6.87,7.18,2.95,7.18,6.87,7.18S402.78,352.42,402.78,348.11Z"/>
    <path d="M424.13,345.91v11.41h-2.38v-2.87c-1.12,1.89-3.29,3-6.34,3-4.16,0-6.72-2.17-6.72-5.35,0-2.84,1.82-5.22,7.1-5.22h5.85V345.8c0-3.15-1.78-4.87-5.21-4.87a9.36,9.36,0,0,0-6.13,2.17l-1.12-1.85a11.66,11.66,0,0,1,7.49-2.49C421.43,338.76,424.13,341.14,424.13,345.91Zm-2.49,5.88v-3h-5.77c-3.58,0-4.73,1.4-4.73,3.29,0,2.13,1.72,3.46,4.65,3.46A5.89,5.89,0,0,0,421.64,351.79Zm-8.57-18.87a3.66,3.66,0,1,1,7.31,0,3.66,3.66,0,0,1-7.31,0Zm1.29,0a2.26,2.26,0,0,0,2.35,2.34,2.29,2.29,0,0,0,2.38-2.34,2.38,2.38,0,0,0-2.38-2.45A2.33,2.33,0,0,0,414.36,332.92Z"/>
    <path d="M429.27,355.57a1.85,1.85,0,0,1,1.86-1.89,1.87,1.87,0,0,1,1.88,1.89,1.91,1.91,0,0,1-1.88,1.92A1.88,1.88,0,0,1,429.27,355.57Z"/>
  </g>
</svg>
