<svg id="Layer_1" data-name="Layer 1" xmlns="http://www.w3.org/2000/svg" width="596" height="528" viewBox="0 0 596 528">
  <defs>
    <style>
      .cls-1 {
        fill: #d1d1d1;
      }

      .cls-2 {
        fill: #fff;
      }
    </style>
  </defs>
  <g>
    <g>
      <path class="cls-1" d="M71.08,270.4A250.07,250.07,0,0,0,321.31,520.63c138.2,0,250.23-112,250.23-250.23S459.51,20.16,321.31,20.16,71.08,132.2,71.08,270.4Z"/>
      <path class="cls-1" d="M8,446.92Q35.57,373.3,91.5,369.57l58.32,83Q86.79,414.69,8,446.92Z"/>
    </g>
    <g>
      <path class="cls-2" d="M88.54,258.76A250,250,0,0,0,338.77,509C477,509,589,397,589,258.76S477,8.53,338.77,8.53,88.54,120.56,88.54,258.76Z"/>
      <path class="cls-2" d="M25.49,435.28Q53,361.67,109,357.93l58.32,83Q104.25,403,25.49,435.28Z"/>
    </g>
  </g>
  <g>
    <path d="M168.7,257.3c0,5.21-3.78,8.36-10,8.36h-6.58v7.74h-2.59V248.89h9.17C164.92,248.89,168.7,252,168.7,257.3Zm-2.59,0c0-3.92-2.59-6.17-7.49-6.17h-6.51v12.26h6.51C163.52,263.39,166.11,261.15,166.11,257.3Z"/>
    <path d="M182.59,254.85v2.41c-.21,0-.42,0-.59,0-3.85,0-6.2,2.45-6.2,6.79v9.38h-2.48V255h2.38v3.6C176.85,256.14,179.2,254.85,182.59,254.85Z"/>
    <path d="M185,264.19a9.37,9.37,0,1,1,9.38,9.38A9.05,9.05,0,0,1,185,264.19Zm16.21,0c0-4.3-2.9-7.17-6.83-7.17s-6.86,2.87-6.86,7.17,2.94,7.18,6.86,7.18S201.25,268.5,201.25,264.19Z"/>
    <path d="M225.65,247.42v26h-2.38v-3.64a8,8,0,0,1-7.11,3.81c-5.25,0-9.17-3.81-9.17-9.38a8.9,8.9,0,0,1,9.17-9.34,8,8,0,0,1,7,3.64V247.42Zm-2.45,16.77c0-4.3-2.95-7.17-6.83-7.17s-6.86,2.87-6.86,7.17,2.94,7.18,6.86,7.18S223.2,268.5,223.2,264.19Z"/>
    <path d="M249.17,255V273.4h-2.38V270a7.33,7.33,0,0,1-6.62,3.53c-4.69,0-7.77-2.62-7.77-7.91V255h2.48v10.43c0,3.92,2,5.91,5.54,5.91,3.85,0,6.26-2.48,6.26-6.68V255Z"/>
    <path d="M263,264.16l-4.34,4v5.25h-2.48v-26h2.48V265l11-10h3.08l-7.88,7.52,8.61,10.89h-3Z"/>
    <path d="M286.86,272.28a6,6,0,0,1-3.89,1.29c-3.46,0-5.39-2-5.39-5.35V257.09h-3.29V255h3.29v-4h2.49v4h5.6v2.1h-5.6v11c0,2.17,1.12,3.36,3.18,3.36a4.11,4.11,0,0,0,2.73-.95Z"/>
    <path d="M306.74,265h-15.4c.28,3.85,3.22,6.41,7.24,6.41a7.27,7.27,0,0,0,5.64-2.42l1.4,1.61a9.07,9.07,0,0,1-7.11,3c-5.74,0-9.66-3.92-9.66-9.38s3.82-9.34,9-9.34,8.93,3.81,8.93,9.34C306.78,264.4,306.74,264.68,306.74,265Zm-15.4-1.85h13.05a6.54,6.54,0,0,0-13.05,0Z"/>
    <path d="M321.54,272.28a5.94,5.94,0,0,1-3.88,1.29c-3.47,0-5.39-2-5.39-5.35V257.09H309V255h3.29v-4h2.48v4h5.6v2.1h-5.6v11c0,2.17,1.12,3.36,3.19,3.36a4.13,4.13,0,0,0,2.73-.95Z"/>
    <path d="M352,247.42v26h-2.38v-3.64a8,8,0,0,1-7.11,3.81c-5.25,0-9.17-3.81-9.17-9.38a8.9,8.9,0,0,1,9.17-9.34,8,8,0,0,1,7,3.64V247.42Zm-2.45,16.77c0-4.3-2.94-7.17-6.83-7.17s-6.86,2.87-6.86,7.17,2.94,7.18,6.86,7.18S349.58,268.5,349.58,264.19Z"/>
    <path d="M368.23,254.85v2.41c-.21,0-.42,0-.59,0-3.85,0-6.2,2.45-6.2,6.79v9.38H359V255h2.38v3.6C362.49,256.14,364.84,254.85,368.23,254.85Z"/>
    <path d="M388.57,265h-15.4c.28,3.85,3.22,6.41,7.24,6.41a7.27,7.27,0,0,0,5.64-2.42l1.4,1.61a9.07,9.07,0,0,1-7.11,3c-5.74,0-9.66-3.92-9.66-9.38s3.82-9.34,9-9.34,8.92,3.81,8.92,9.34C388.6,264.4,388.57,264.68,388.57,265Zm-15.4-1.85h13.05a6.54,6.54,0,0,0-13.05,0Z"/>
    <path d="M387.06,279.17l.88-1.89a4.28,4.28,0,0,0,2.87,1c2,0,3-1.19,3-3.47V255h2.49v19.77c0,3.4-1.89,5.6-5.39,5.6A6,6,0,0,1,387.06,279.17Zm6.23-30a1.8,1.8,0,0,1,1.82-1.75,1.77,1.77,0,1,1,0,3.54A1.8,1.8,0,0,1,393.29,249.17Z"/>
    <path d="M419.3,265H403.9c.28,3.85,3.22,6.41,7.24,6.41a7.27,7.27,0,0,0,5.64-2.42l1.4,1.61a9.07,9.07,0,0,1-7.11,3c-5.74,0-9.66-3.92-9.66-9.38s3.82-9.34,9-9.34,8.92,3.81,8.92,9.34C419.33,264.4,419.3,264.68,419.3,265Zm-15.4-1.85H417a6.54,6.54,0,0,0-13.05,0Z"/>
    <path d="M421.85,271.3l1.12-2a11.17,11.17,0,0,0,6.55,2.06c3.5,0,4.93-1.19,4.93-3,0-4.79-11.93-1-11.93-8.29,0-3,2.59-5.25,7.28-5.25a12.47,12.47,0,0,1,6.51,1.71l-1.09,2A9.43,9.43,0,0,0,429.8,257c-3.33,0-4.8,1.3-4.8,3,0,5,11.94,1.22,11.94,8.29,0,3.19-2.8,5.25-7.6,5.25A12.35,12.35,0,0,1,421.85,271.3Z"/>
    <path d="M466.72,265h-15.4c.28,3.85,3.22,6.41,7.25,6.41A7.25,7.25,0,0,0,464.2,269l1.4,1.61a9.05,9.05,0,0,1-7.1,3c-5.74,0-9.67-3.92-9.67-9.38s3.82-9.34,9-9.34,8.93,3.81,8.93,9.34C466.76,264.4,466.72,264.68,466.72,265Zm-15.4-1.85h13.06a6.54,6.54,0,0,0-13.06,0Z"/>
    <path d="M471.83,247.42h2.49v26h-2.49Z"/>
    <path d="M481.25,247.42h2.48v26h-2.48Z"/>
    <path d="M506.69,265h-15.4c.28,3.85,3.22,6.41,7.25,6.41a7.25,7.25,0,0,0,5.63-2.42l1.4,1.61a9.05,9.05,0,0,1-7.1,3c-5.74,0-9.67-3.92-9.67-9.38s3.82-9.34,9-9.34,8.93,3.81,8.93,9.34C506.73,264.4,506.69,264.68,506.69,265Zm-15.4-1.85h13.06a6.54,6.54,0,0,0-13.06,0Z"/>
    <path d="M521.08,254.85v2.41c-.21,0-.42,0-.6,0-3.85,0-6.19,2.45-6.19,6.79v9.38H511.8V255h2.38v3.6C515.33,256.14,517.68,254.85,521.08,254.85Z"/>
    <path d="M278.44,317.65l1.12-2a11.1,11.1,0,0,0,6.55,2.07c3.5,0,4.93-1.19,4.93-3,0-4.8-11.94-1-11.94-8.3,0-3,2.6-5.25,7.29-5.25a12.48,12.48,0,0,1,6.51,1.72l-1.09,2a9.42,9.42,0,0,0-5.42-1.57c-3.33,0-4.8,1.29-4.8,3,0,5,11.94,1.23,11.94,8.3,0,3.18-2.8,5.25-7.6,5.25A12.24,12.24,0,0,1,278.44,317.65Z"/>
    <path d="M307.81,318.63a5.9,5.9,0,0,1-3.89,1.3c-3.46,0-5.39-2-5.39-5.36V303.44h-3.29v-2.1h3.29v-4H301v4h5.61v2.1H301v11c0,2.17,1.12,3.36,3.19,3.36a4.1,4.1,0,0,0,2.73-.94Z"/>
    <path d="M328.53,310.55a9.06,9.06,0,0,1-9.35,9.38,10.3,10.3,0,0,1-4.69-1.12l-2.28,3.43h-1.68l2.8-4.2a9.17,9.17,0,0,1-3.53-7.49,9.06,9.06,0,0,1,9.38-9.35,9.54,9.54,0,0,1,4.62,1.12L326,299h1.65l-2.73,4.1A9.13,9.13,0,0,1,328.53,310.55Zm-13.9,5.53,7.91-11.87a6.65,6.65,0,0,0-3.36-.84c-3.92,0-6.86,2.87-6.86,7.18A7.17,7.17,0,0,0,314.63,316.08ZM326,310.55A7.23,7.23,0,0,0,323.7,305l-7.91,11.9a6.74,6.74,0,0,0,3.39.84C323.1,317.72,326,314.85,326,310.55Z"/>
    <path d="M352.26,310.55c0,5.56-3.92,9.38-9.18,9.38a8,8,0,0,1-7.1-3.82v3.64H333.6v-26h2.48v11.06a8.06,8.06,0,0,1,7-3.64C348.34,301.2,352.26,305,352.26,310.55Zm-2.49,0c0-4.31-3-7.18-6.86-7.18s-6.86,2.87-6.86,7.18,2.94,7.17,6.86,7.17S349.77,314.85,349.77,310.55Z"/>
    <path d="M373.36,311.32H358c.28,3.85,3.22,6.4,7.25,6.4a7.24,7.24,0,0,0,5.63-2.41l1.4,1.61a9.06,9.06,0,0,1-7.11,3c-5.74,0-9.66-3.92-9.66-9.38s3.82-9.35,9-9.35,8.93,3.82,8.93,9.35C373.4,310.76,373.36,311,373.36,311.32ZM358,309.46H371a6.54,6.54,0,0,0-13.06,0Z"/>
    <path d="M375.91,317.65l1.12-2a11.1,11.1,0,0,0,6.55,2.07c3.5,0,4.93-1.19,4.93-3,0-4.8-11.93-1-11.93-8.3,0-3,2.59-5.25,7.28-5.25a12.48,12.48,0,0,1,6.51,1.72l-1.08,2a9.47,9.47,0,0,0-5.43-1.57c-3.33,0-4.8,1.29-4.8,3,0,5,11.94,1.23,11.94,8.3,0,3.18-2.8,5.25-7.6,5.25A12.29,12.29,0,0,1,375.91,317.65Z"/>
    <path d="M394,318a1.86,1.86,0,0,1,1.86-1.89,1.89,1.89,0,0,1,1.89,1.89,1.92,1.92,0,0,1-1.89,1.93A1.89,1.89,0,0,1,394,318Z"/>
  </g>
</svg>
