<svg id="Layer_1" data-name="Layer 1" xmlns="http://www.w3.org/2000/svg" width="581" height="519" viewBox="0 0 581 519">
  <defs>
    <style>
      .cls-1 {
        fill: #d1d1d1;
      }

      .cls-2 {
        fill: #fff;
      }
    </style>
  </defs>
  <g>
    <g>
      <path class="cls-1" d="M519,270.4A250.07,250.07,0,0,1,268.72,520.63c-138.2,0-250.23-112-250.23-250.23s112-250.24,250.23-250.24S519,132.2,519,270.4Z"/>
      <path class="cls-1" d="M582,446.92q-27.54-73.62-83.47-77.35l-58.31,83Q503.24,414.69,582,446.92Z"/>
    </g>
    <g>
      <path class="cls-2" d="M501.5,258.76A250.07,250.07,0,0,1,251.27,509C113.07,509,1,397,1,258.76S113.07,8.53,251.27,8.53,501.5,120.56,501.5,258.76Z"/>
      <path class="cls-2" d="M564.54,435.28Q537,361.67,481.08,357.93l-58.32,83Q485.78,403,564.54,435.28Z"/>
    </g>
  </g>
  <g>
    <path d="M55.05,225.72H65c7.84,0,13.12,5,13.12,12.25S72.87,250.22,65,250.22h-10ZM64.89,248c6.51,0,10.71-4.13,10.71-10s-4.2-10-10.71-10H57.64v20Z"/>
    <path d="M99.47,241.78H84.06c.28,3.85,3.23,6.41,7.25,6.41A7.27,7.27,0,0,0,97,245.77l1.4,1.61a9.07,9.07,0,0,1-7.11,3c-5.74,0-9.66-3.92-9.66-9.38s3.82-9.34,9-9.34,8.92,3.81,8.92,9.34C99.5,241.22,99.47,241.5,99.47,241.78Zm-15.41-1.85H97.12a6.54,6.54,0,0,0-13.06,0Z"/>
    <path d="M113.85,231.67v2.41c-.21,0-.42,0-.59,0-3.86,0-6.2,2.45-6.2,6.79v9.38h-2.49V231.81H107v3.6C108.11,233,110.46,231.67,113.85,231.67Z"/>
    <path d="M121.44,229.64v2.17h5.67v2.1h-5.6v16.31H119V233.91h-3.29v-2.1H119v-2.28c0-3.29,2-5.46,5.56-5.46a5.84,5.84,0,0,1,3.68,1.16l-.84,1.85a4.24,4.24,0,0,0-2.73-.91C122.56,226.17,121.44,227.36,121.44,229.64Z"/>
    <path d="M128.3,241a9.37,9.37,0,1,1,9.39,9.38A9.05,9.05,0,0,1,128.3,241Zm16.21,0c0-4.3-2.9-7.17-6.82-7.17s-6.87,2.87-6.87,7.17,2.94,7.18,6.87,7.18S144.51,245.32,144.51,241Z"/>
    <path d="M161.38,231.67v2.41c-.21,0-.42,0-.59,0-3.86,0-6.2,2.45-6.2,6.79v9.38H152.1V231.81h2.38v3.6C155.64,233,158,231.67,161.38,231.67Z"/>
    <path d="M191.34,241.78h-15.4c.28,3.85,3.22,6.41,7.24,6.41a7.27,7.27,0,0,0,5.64-2.42l1.4,1.61a9.06,9.06,0,0,1-7.11,3c-5.74,0-9.66-3.92-9.66-9.38s3.82-9.34,9-9.34,8.93,3.81,8.93,9.34C191.38,241.22,191.34,241.5,191.34,241.78Zm-15.4-1.85H189a6.54,6.54,0,0,0-13.06,0Z"/>
    <path d="M205.72,231.67v2.41c-.21,0-.42,0-.59,0-3.85,0-6.2,2.45-6.2,6.79v9.38h-2.48V231.81h2.38v3.6C200,233,202.33,231.67,205.72,231.67Z"/>
    <path d="M236.59,239.54v10.68h-2.48V239.79c0-3.89-2-5.88-5.53-5.88-4,0-6.44,2.45-6.44,6.65v9.66h-2.49v-26h2.49V235c1.36-2.14,3.78-3.36,6.89-3.36C233.51,231.67,236.59,234.26,236.59,239.54Z"/>
    <path d="M258.47,231.81l-8.19,18.41h-2.56l-8.15-18.41h2.59l6.89,15.68,7-15.68Z"/>
    <path d="M277.47,241.78h-15.4c.28,3.85,3.22,6.41,7.25,6.41a7.25,7.25,0,0,0,5.63-2.42l1.4,1.61a9.05,9.05,0,0,1-7.1,3c-5.74,0-9.66-3.92-9.66-9.38s3.81-9.34,9-9.34,8.93,3.81,8.93,9.34C277.51,241.22,277.47,241.5,277.47,241.78Zm-15.4-1.85h13.06a6.54,6.54,0,0,0-13.06,0Z"/>
    <path d="M291.86,231.67v2.41c-.21,0-.42,0-.6,0-3.85,0-6.19,2.45-6.19,6.79v9.38h-2.49V231.81H285v3.6C286.12,233,288.46,231.67,291.86,231.67Z"/>
    <path d="M306.84,249.1a6,6,0,0,1-3.89,1.29c-3.46,0-5.39-2-5.39-5.35V233.91h-3.29v-2.1h3.29v-4h2.49v4h5.6v2.1h-5.6v11c0,2.17,1.12,3.36,3.18,3.36a4.11,4.11,0,0,0,2.73-.95Z"/>
    <path d="M339.18,241c0,5.6-3.92,9.38-9.17,9.38a8,8,0,0,1-7-3.64V257h-2.49v-25.2h2.38v3.64a8,8,0,0,1,7.11-3.78A8.9,8.9,0,0,1,339.18,241Zm-2.49,0c0-4.27-3-7.17-6.86-7.17S323,236.74,323,241s2.94,7.18,6.86,7.18S336.69,245.32,336.69,241Z"/>
    <path d="M353.53,231.67v2.41c-.21,0-.42,0-.6,0-3.85,0-6.19,2.45-6.19,6.79v9.38h-2.49V231.81h2.38v3.6C347.79,233,350.13,231.67,353.53,231.67Z"/>
    <path d="M356,241a9.36,9.36,0,1,1,9.38,9.38A9.05,9.05,0,0,1,356,241Zm16.2,0c0-4.3-2.9-7.17-6.82-7.17s-6.86,2.87-6.86,7.17,2.94,7.18,6.86,7.18S372.18,245.32,372.18,241Z"/>
    <path d="M396.58,224.25v26H394.2v-3.64a8,8,0,0,1-7.11,3.81c-5.25,0-9.17-3.81-9.17-9.38a8.9,8.9,0,0,1,9.17-9.34,8,8,0,0,1,7,3.64V224.25ZM394.13,241c0-4.3-2.94-7.17-6.83-7.17s-6.86,2.87-6.86,7.17,2.94,7.18,6.86,7.18S394.13,245.32,394.13,241Z"/>
    <path d="M420.1,231.81v18.41h-2.38v-3.36a7.33,7.33,0,0,1-6.62,3.53c-4.69,0-7.77-2.62-7.77-7.91V231.81h2.49v10.43c0,3.92,2,5.91,5.53,5.91,3.85,0,6.26-2.48,6.26-6.68v-9.66Z"/>
    <path d="M433.89,241l-4.34,4v5.25h-2.49v-26h2.49v17.6l11-10h3.08l-7.88,7.52,8.61,10.89h-3Z"/>
    <path d="M457.79,249.1a5.94,5.94,0,0,1-3.88,1.29c-3.47,0-5.39-2-5.39-5.35V233.91h-3.29v-2.1h3.29v-4H451v4h5.6v2.1H451v11c0,2.17,1.12,3.36,3.19,3.36a4.13,4.13,0,0,0,2.73-.95Z"/>
    <path d="M109.53,278.16v18.42h-2.38v-3.37a7.32,7.32,0,0,1-6.62,3.54c-4.69,0-7.77-2.62-7.77-7.91V278.16h2.49v10.43c0,3.92,2,5.92,5.53,5.92,3.85,0,6.26-2.49,6.26-6.69v-9.66Z"/>
    <path d="M133.43,285.9v10.68H131V286.14c0-3.88-2-5.88-5.53-5.88-4,0-6.44,2.45-6.44,6.65v9.67h-2.49V278.16h2.38v3.4c1.33-2.24,3.82-3.54,7-3.54C130.35,278,133.43,280.61,133.43,285.9Z"/>
    <path d="M139.63,272.35a1.79,1.79,0,0,1,1.82-1.75,1.77,1.77,0,0,1,1.82,1.72,1.82,1.82,0,0,1-3.64,0Zm.56,5.81h2.48v18.42h-2.48Z"/>
    <path d="M156.43,287.33l-4.34,4v5.26H149.6v-26h2.49v17.61l11-10h3.08l-7.88,7.53,8.61,10.89h-3Z"/>
    <path d="M180.33,295.46a5.94,5.94,0,0,1-3.88,1.29c-3.47,0-5.39-2-5.39-5.36V280.26h-3.29v-2.1h3.29v-4h2.48v4h5.6v2.1h-5.6v11c0,2.17,1.12,3.37,3.19,3.37a4.13,4.13,0,0,0,2.73-.95Z"/>
    <path d="M192.16,287.37a9.37,9.37,0,1,1,9.38,9.38A9.06,9.06,0,0,1,192.16,287.37Zm16.21,0c0-4.31-2.91-7.18-6.83-7.18s-6.86,2.87-6.86,7.18,2.94,7.17,6.86,7.17S208.37,291.67,208.37,287.37Z"/>
    <path d="M233,278.16v16.17c0,6.34-3.12,9.21-9.21,9.21-3.36,0-6.65-1-8.57-2.83l1.25-1.89a11,11,0,0,0,7.25,2.52c4.66,0,6.79-2.14,6.79-6.69V292.3a8.27,8.27,0,0,1-7.17,3.58c-5.25,0-9.25-3.68-9.25-9s4-8.89,9.25-8.89a8.3,8.3,0,0,1,7.28,3.68v-3.54Zm-2.42,8.75c0-4-2.94-6.72-7-6.72s-7,2.73-7,6.72a6.58,6.58,0,0,0,7,6.76C227.65,293.67,230.59,290.9,230.59,286.91Z"/>
    <path d="M249.14,270.6h2.49v26h-2.49Z"/>
    <path d="M272.45,285.16v11.42h-2.38v-2.87c-1.12,1.88-3.29,3-6.33,3-4.17,0-6.73-2.17-6.73-5.36,0-2.83,1.82-5.21,7.11-5.21H270v-1.12c0-3.15-1.79-4.87-5.22-4.87a9.4,9.4,0,0,0-6.13,2.17l-1.12-1.85A11.69,11.69,0,0,1,265,278C269.76,278,272.45,280.4,272.45,285.16ZM270,291v-3h-5.78c-3.57,0-4.73,1.4-4.73,3.29,0,2.14,1.72,3.47,4.66,3.47A5.89,5.89,0,0,0,270,291Z"/>
    <path d="M294.33,278.16l-8.19,18.42h-2.56l-8.16-18.42H278l6.89,15.68,7-15.68Z"/>
    <path d="M313.33,288.14h-15.4c.28,3.85,3.22,6.4,7.25,6.4a7.24,7.24,0,0,0,5.63-2.41l1.4,1.61a9.06,9.06,0,0,1-7.11,3c-5.74,0-9.66-3.92-9.66-9.38s3.82-9.35,9-9.35,8.93,3.82,8.93,9.35C313.37,287.58,313.33,287.86,313.33,288.14Zm-15.4-1.86H311a6.54,6.54,0,0,0-13.06,0Z"/>
    <path d="M328.13,295.46a5.94,5.94,0,0,1-3.88,1.29c-3.47,0-5.39-2-5.39-5.36V280.26h-3.29v-2.1h3.29v-4h2.48v4h5.6v2.1h-5.6v11c0,2.17,1.12,3.37,3.19,3.37a4.13,4.13,0,0,0,2.73-.95Z"/>
    <path d="M372.2,285.9v10.68h-2.48V286.14c0-3.88-2-5.88-5.29-5.88-3.78,0-6.16,2.45-6.16,6.65v9.67h-2.49V286.14c0-3.88-2-5.88-5.32-5.88-3.74,0-6.16,2.45-6.16,6.65v9.67h-2.48V278.16h2.38v3.36A7.44,7.44,0,0,1,351,278c3.05,0,5.43,1.3,6.55,3.89a8,8,0,0,1,7.28-3.89C369.26,278,372.2,280.61,372.2,285.9Z"/>
    <path d="M395.06,288.14H379.65c.28,3.85,3.22,6.4,7.25,6.4a7.24,7.24,0,0,0,5.63-2.41l1.41,1.61a9.09,9.09,0,0,1-7.11,3c-5.74,0-9.66-3.92-9.66-9.38s3.81-9.35,9-9.35,8.93,3.82,8.93,9.35C395.09,287.58,395.06,287.86,395.06,288.14Zm-15.41-1.86h13.06a6.54,6.54,0,0,0-13.06,0Z"/>
    <path d="M417,270.6v26h-2.38v-3.65a8,8,0,0,1-7.1,3.82c-5.25,0-9.17-3.82-9.17-9.38s3.92-9.35,9.17-9.35a8,8,0,0,1,7,3.64V270.6Zm-2.45,16.77c0-4.31-2.94-7.18-6.82-7.18s-6.86,2.87-6.86,7.18,2.94,7.17,6.86,7.17S414.51,291.67,414.51,287.37Z"/>
    <path d="M211.17,333.72c0,5.6-3.92,9.38-9.17,9.38a8,8,0,0,1-7-3.64v10.26h-2.49v-25.2h2.38v3.64a8,8,0,0,1,7.11-3.78A8.9,8.9,0,0,1,211.17,333.72Zm-2.49,0c0-4.27-3-7.17-6.86-7.17s-6.86,2.9-6.86,7.17,2.94,7.18,6.86,7.18S208.68,338,208.68,333.72Z"/>
    <path d="M230,331.52v11.41h-2.38v-2.87c-1.12,1.89-3.29,3-6.33,3-4.17,0-6.72-2.17-6.72-5.35,0-2.84,1.82-5.22,7.1-5.22h5.85v-1.12c0-3.15-1.79-4.86-5.22-4.86a9.35,9.35,0,0,0-6.12,2.17l-1.13-1.86a11.74,11.74,0,0,1,7.5-2.48C227.34,324.38,230,326.76,230,331.52Zm-2.48,5.88v-3h-5.78c-3.57,0-4.72,1.4-4.72,3.29,0,2.13,1.71,3.46,4.65,3.46A5.9,5.9,0,0,0,227.55,337.4Z"/>
    <path d="M234.23,340.83l1.12-2a11.17,11.17,0,0,0,6.55,2.06c3.5,0,4.93-1.19,4.93-3,0-4.79-11.93-1-11.93-8.29,0-3,2.59-5.25,7.28-5.25a12.47,12.47,0,0,1,6.51,1.71l-1.09,2a9.43,9.43,0,0,0-5.42-1.58c-3.33,0-4.8,1.3-4.8,3.05,0,5,11.94,1.22,11.94,8.29,0,3.19-2.8,5.25-7.6,5.25C238.68,343.1,235.73,342.13,234.23,340.83Z"/>
    <path d="M251.34,340.83l1.12-2a11.19,11.19,0,0,0,6.55,2.06c3.5,0,4.94-1.19,4.94-3,0-4.79-11.94-1-11.94-8.29,0-3,2.59-5.25,7.28-5.25a12.47,12.47,0,0,1,6.51,1.71l-1.08,2a9.46,9.46,0,0,0-5.43-1.58c-3.32,0-4.79,1.3-4.79,3.05,0,5,11.93,1.22,11.93,8.29,0,3.19-2.8,5.25-7.59,5.25A12.3,12.3,0,0,1,251.34,340.83Z"/>
    <path d="M270.45,318.71a1.79,1.79,0,0,1,1.82-1.75,1.77,1.77,0,0,1,1.83,1.71,1.83,1.83,0,0,1-3.65,0Zm.56,5.81h2.49v18.41H271Z"/>
    <path d="M278.57,333.72A9.37,9.37,0,1,1,288,343.1,9.05,9.05,0,0,1,278.57,333.72Zm16.21,0c0-4.3-2.9-7.17-6.82-7.17s-6.87,2.87-6.87,7.17,3,7.18,6.87,7.18S294.78,338,294.78,333.72Z"/>
    <path d="M319.32,332.25v10.68h-2.49V332.5c0-3.89-2-5.88-5.53-5.88-3.95,0-6.44,2.45-6.44,6.65v9.66h-2.49V324.52h2.38v3.39c1.33-2.24,3.82-3.53,7-3.53C316.24,324.38,319.32,327,319.32,332.25Z"/>
    <path d="M324.46,341.18a1.85,1.85,0,0,1,1.85-1.89,1.88,1.88,0,0,1,1.89,1.89,1.91,1.91,0,0,1-1.89,1.92A1.88,1.88,0,0,1,324.46,341.18Z"/>
  </g>
</svg>
