<svg id="Layer_1" data-name="Layer 1" xmlns="http://www.w3.org/2000/svg" width="581" height="546" viewBox="0 0 581 546">
  <g>
    <g>
      <path d="M519,282.78A250.09,250.09,0,0,1,268.72,533C130.52,533,18.49,421,18.49,282.78s112-250.23,250.23-250.23S519,144.58,519,282.78Z" fill="#d1d1d1"/>
      <path d="M582,459.3Q554.46,385.7,498.53,382L440.22,465Q503.24,427.06,582,459.3Z" fill="#d1d1d1"/>
    </g>
    <g>
      <path d="M501.5,271.14A250.09,250.09,0,0,1,251.27,521.38C113.07,521.38,1,409.34,1,271.14s112-250.23,250.24-250.23S501.5,132.94,501.5,271.14Z" fill="#fff"/>
      <path d="M564.54,447.66Q537,374.05,481.08,370.32l-58.32,83Q485.78,415.42,564.54,447.66Z" fill="#fff"/>
    </g>
  </g>
  <g>
    <path d="M41.94,193.67v23.2h-2L25,198.05v18.82H22.55v-23.2h2l15,18.83V193.67Z"/>
    <path d="M64.71,199.44v17.43H62.46v-3.18A7,7,0,0,1,56.19,217c-4.44,0-7.36-2.49-7.36-7.49V199.44h2.36v9.88c0,3.71,1.92,5.6,5.23,5.6,3.65,0,5.94-2.36,5.94-6.33v-9.15Z"/>
    <path d="M95.17,208.89H80.59c.26,3.64,3,6.06,6.86,6.06a6.84,6.84,0,0,0,5.33-2.29l1.33,1.53A8.58,8.58,0,0,1,87.38,217c-5.44,0-9.15-3.71-9.15-8.88s3.62-8.85,8.52-8.85,8.45,3.61,8.45,8.85C95.2,208.36,95.17,208.62,95.17,208.89Zm-14.58-1.76H93a6.19,6.19,0,0,0-12.36,0Z"/>
    <path d="M108.79,199.31v2.28c-.2,0-.4,0-.56,0-3.65,0-5.87,2.32-5.87,6.43v8.88H100V199.44h2.25v3.41C103.36,200.53,105.58,199.31,108.79,199.31Z"/>
    <path d="M135.14,206.07v10.8h-2.25v-2.71c-1.06,1.79-3.12,2.88-6,2.88-4,0-6.37-2.06-6.37-5.07,0-2.69,1.73-4.94,6.73-4.94h5.54V206c0-3-1.69-4.61-4.94-4.61a8.88,8.88,0,0,0-5.8,2.06L121,201.66a11.08,11.08,0,0,1,7.09-2.35C132.59,199.31,135.14,201.56,135.14,206.07Zm-2.35,5.57v-2.85h-5.47c-3.38,0-4.48,1.32-4.48,3.11,0,2,1.63,3.28,4.41,3.28A5.59,5.59,0,0,0,132.79,211.64Z"/>
    <path d="M141.54,192.28h2.35v24.59h-2.35Z"/>
    <path d="M159.7,215.81A5.6,5.6,0,0,1,156,217c-3.28,0-5.1-1.86-5.1-5.07V201.43H147.8v-2h3.12v-3.81h2.35v3.81h5.3v2h-5.3v10.41c0,2,1.06,3.18,3,3.18a3.86,3.86,0,0,0,2.58-.9Z"/>
    <path d="M188.8,199.44v15.31c0,6-3,8.72-8.71,8.72-3.19,0-6.3-1-8.13-2.68l1.2-1.79a10.37,10.37,0,0,0,6.86,2.38c4.41,0,6.43-2,6.43-6.33v-2.22a7.86,7.86,0,0,1-6.8,3.38c-5,0-8.75-3.48-8.75-8.48s3.78-8.42,8.75-8.42a7.87,7.87,0,0,1,6.9,3.48v-3.35Zm-2.28,8.29c0-3.78-2.79-6.37-6.63-6.37s-6.6,2.59-6.6,6.37a6.62,6.62,0,0,0,13.23,0Z"/>
    <path d="M195.4,192.28h2.35v24.59H195.4Z"/>
    <path d="M217.47,206.07v10.8h-2.25v-2.71c-1.06,1.79-3.12,2.88-6,2.88-3.95,0-6.37-2.06-6.37-5.07,0-2.69,1.73-4.94,6.73-4.94h5.54V206c0-3-1.69-4.61-4.94-4.61a8.88,8.88,0,0,0-5.8,2.06l-1.06-1.76a11.08,11.08,0,0,1,7.09-2.35C214.92,199.31,217.47,201.56,217.47,206.07Zm-2.35,5.57v-2.85h-5.47c-3.38,0-4.48,1.32-4.48,3.11,0,2,1.63,3.28,4.41,3.28A5.58,5.58,0,0,0,215.12,211.64Z"/>
    <path d="M221.45,214.89l1.06-1.86a10.56,10.56,0,0,0,6.2,1.95c3.31,0,4.67-1.12,4.67-2.85,0-4.54-11.3-1-11.3-7.85,0-2.85,2.45-5,6.89-5a11.86,11.86,0,0,1,6.17,1.62l-1,1.89a8.94,8.94,0,0,0-5.14-1.49c-3.15,0-4.54,1.22-4.54,2.88,0,4.71,11.31,1.16,11.31,7.86,0,3-2.66,5-7.2,5A11.68,11.68,0,0,1,221.45,214.89Z"/>
    <path d="M255.26,208.89H240.67c.27,3.64,3.05,6.06,6.87,6.06a6.84,6.84,0,0,0,5.33-2.29l1.33,1.53a8.58,8.58,0,0,1-6.73,2.85c-5.44,0-9.15-3.71-9.15-8.88s3.61-8.85,8.52-8.85,8.45,3.61,8.45,8.85C255.29,208.36,255.26,208.62,255.26,208.89Zm-14.59-1.76H253a6.2,6.2,0,0,0-12.37,0Z"/>
    <path d="M268.88,199.31v2.28c-.2,0-.4,0-.56,0-3.65,0-5.87,2.32-5.87,6.43v8.88H260.1V199.44h2.25v3.41C263.44,200.53,265.66,199.31,268.88,199.31Z"/>
    <path d="M288.14,208.89H273.55c.27,3.64,3.05,6.06,6.86,6.06a6.86,6.86,0,0,0,5.34-2.29l1.33,1.53a8.58,8.58,0,0,1-6.73,2.85c-5.44,0-9.15-3.71-9.15-8.88s3.61-8.85,8.52-8.85,8.45,3.61,8.45,8.85C288.17,208.36,288.14,208.62,288.14,208.89Zm-14.59-1.76h12.37a6.2,6.2,0,0,0-12.37,0Z"/>
    <path d="M302.16,215.81a5.6,5.6,0,0,1-3.68,1.23c-3.28,0-5.11-1.86-5.11-5.07V201.43h-3.11v-2h3.11v-3.81h2.36v3.81H301v2h-5.3v10.41c0,2,1.06,3.18,3,3.18a3.91,3.91,0,0,0,2.59-.9Z"/>
    <path d="M313.36,208.16a8.87,8.87,0,1,1,8.88,8.88A8.57,8.57,0,0,1,313.36,208.16Zm15.35,0c0-4.08-2.76-6.8-6.47-6.8s-6.5,2.72-6.5,6.8,2.79,6.79,6.5,6.79S328.71,212.23,328.71,208.16Z"/>
    <path d="M352,199.44v15.31c0,6-3,8.72-8.72,8.72-3.18,0-6.3-1-8.12-2.68l1.19-1.79a10.4,10.4,0,0,0,6.87,2.38c4.4,0,6.43-2,6.43-6.33v-2.22a7.86,7.86,0,0,1-6.8,3.38c-5,0-8.75-3.48-8.75-8.48s3.78-8.42,8.75-8.42a7.87,7.87,0,0,1,6.9,3.48v-3.35Zm-2.29,8.29c0-3.78-2.78-6.37-6.63-6.37s-6.59,2.59-6.59,6.37a6.61,6.61,0,0,0,13.22,0Z"/>
    <path d="M373.78,208.12l-4.11,3.78v5h-2.35V192.28h2.35V209l10.41-9.51H383l-7.46,7.13,8.15,10.3h-2.88Z"/>
    <path d="M387.24,192.28h2.35v24.59h-2.35Z"/>
    <path d="M409.31,206.07v10.8h-2.25v-2.71c-1.06,1.79-3.12,2.88-6,2.88-3.95,0-6.36-2.06-6.36-5.07,0-2.69,1.72-4.94,6.72-4.94H407V206c0-3-1.69-4.61-4.94-4.61a8.9,8.9,0,0,0-5.8,2.06l-1.06-1.76a11.08,11.08,0,0,1,7.09-2.35C406.76,199.31,409.31,201.56,409.31,206.07ZM407,211.64v-2.85h-5.47c-3.38,0-4.47,1.32-4.47,3.11,0,2,1.62,3.28,4.4,3.28A5.58,5.58,0,0,0,407,211.64Z"/>
    <path d="M424.49,199.31v2.28c-.2,0-.39,0-.56,0-3.65,0-5.87,2.32-5.87,6.43v8.88h-2.35V199.44H418v3.41C419.06,200.53,421.28,199.31,424.49,199.31Z"/>
    <path d="M446.87,215.81a5.62,5.62,0,0,1-3.68,1.23c-3.29,0-5.11-1.86-5.11-5.07V201.43H435v-2h3.11v-3.81h2.35v3.81h5.31v2h-5.31v10.41c0,2,1.07,3.18,3,3.18a3.91,3.91,0,0,0,2.59-.9Z"/>
    <path d="M450.61,193.94a1.7,1.7,0,0,1,1.72-1.66,1.68,1.68,0,0,1,1.73,1.62,1.73,1.73,0,0,1-3.45,0Zm.53,5.5h2.35v17.43h-2.35Z"/>
    <path d="M460.06,192.28h2.35v24.59h-2.35Z"/>
    <path d="M40.07,236.18v24.59H37.81v-3.44a7.55,7.55,0,0,1-6.73,3.61c-5,0-8.68-3.61-8.68-8.89a8.43,8.43,0,0,1,8.68-8.85,7.61,7.61,0,0,1,6.63,3.45V236.18Zm-2.32,15.87c0-4.07-2.79-6.79-6.47-6.79s-6.49,2.72-6.49,6.79,2.78,6.8,6.49,6.8S37.75,256.13,37.75,252.05Z"/>
    <path d="M61.81,252.78H47.22c.27,3.65,3.05,6.07,6.87,6.07a6.84,6.84,0,0,0,5.33-2.29l1.33,1.53A8.61,8.61,0,0,1,54,260.94c-5.44,0-9.15-3.71-9.15-8.89s3.62-8.85,8.52-8.85,8.45,3.62,8.45,8.85C61.84,252.25,61.81,252.52,61.81,252.78ZM47.22,251H59.59a6.2,6.2,0,0,0-12.37,0Z"/>
    <path d="M73.11,252,69,255.8v5H66.65V236.18H69v16.67l10.41-9.51h2.92l-7.46,7.12L83,260.77H80.14Z"/>
    <path d="M84.12,252.05A8.87,8.87,0,1,1,93,260.94,8.57,8.57,0,0,1,84.12,252.05Zm15.34,0c0-4.07-2.75-6.79-6.46-6.79s-6.5,2.72-6.5,6.79,2.79,6.8,6.5,6.8S99.46,256.13,99.46,252.05Z"/>
    <path d="M115.44,243.2v2.29c-.2,0-.4,0-.57,0-3.64,0-5.86,2.32-5.86,6.43v8.88h-2.36V243.34h2.26v3.41C110,244.43,112.22,243.2,115.44,243.2Z"/>
    <path d="M134.7,252.78H120.11c.27,3.65,3,6.07,6.86,6.07a6.87,6.87,0,0,0,5.34-2.29l1.32,1.53a8.57,8.57,0,0,1-6.72,2.85c-5.44,0-9.15-3.71-9.15-8.89s3.61-8.85,8.52-8.85,8.45,3.62,8.45,8.85C134.73,252.25,134.7,252.52,134.7,252.78ZM120.11,251h12.36a6.19,6.19,0,0,0-12.36,0Z"/>
    <path d="M148.32,243.2v2.29c-.2,0-.4,0-.57,0-3.64,0-5.86,2.32-5.86,6.43v8.88h-2.36V243.34h2.26v3.41C142.88,244.43,145.1,243.2,148.32,243.2Z"/>
    <path d="M152,237.83a1.73,1.73,0,1,1,1.72,1.69A1.69,1.69,0,0,1,152,237.83Zm.53,5.51h2.35v17.43h-2.35Z"/>
    <path d="M177.52,250.66v10.11h-2.36V250.9c0-3.68-1.92-5.57-5.23-5.57-3.75,0-6.1,2.32-6.1,6.29v9.15h-2.36V243.34h2.26v3.21a7.33,7.33,0,0,1,6.63-3.35C174.6,243.2,177.52,245.66,177.52,250.66Z"/>
    <path d="M200.12,243.34v15.31c0,6-3,8.72-8.72,8.72-3.18,0-6.29-1-8.12-2.69l1.2-1.79a10.31,10.31,0,0,0,6.86,2.39c4.41,0,6.43-2,6.43-6.33v-2.22a7.86,7.86,0,0,1-6.8,3.38c-5,0-8.75-3.48-8.75-8.49S186,243.2,191,243.2a7.89,7.89,0,0,1,6.9,3.48v-3.34Zm-2.28,8.28c0-3.77-2.79-6.36-6.63-6.36s-6.6,2.59-6.6,6.36a6.62,6.62,0,0,0,13.23,0Z"/>
    <path d="M244.17,250.66v10.11h-2.35V250.9c0-3.68-1.86-5.57-5-5.57-3.58,0-5.83,2.32-5.83,6.29v9.15h-2.35V250.9c0-3.68-1.86-5.57-5-5.57-3.55,0-5.84,2.32-5.84,6.29v9.15H215.4V243.34h2.25v3.18a7.06,7.06,0,0,1,6.4-3.32c2.89,0,5.14,1.23,6.2,3.68a7.6,7.6,0,0,1,6.89-3.68C241.39,243.2,244.17,245.66,244.17,250.66Z"/>
    <path d="M265.81,252.78H251.23c.26,3.65,3.05,6.07,6.86,6.07a6.87,6.87,0,0,0,5.34-2.29l1.32,1.53a8.58,8.58,0,0,1-6.73,2.85c-5.43,0-9.14-3.71-9.14-8.89s3.61-8.85,8.51-8.85,8.46,3.62,8.46,8.85C265.85,252.25,265.81,252.52,265.81,252.78ZM251.23,251h12.36a6.19,6.19,0,0,0-12.36,0Z"/>
    <path d="M286.56,236.18v24.59h-2.25v-3.44a7.57,7.57,0,0,1-6.73,3.61c-5,0-8.68-3.61-8.68-8.89a8.43,8.43,0,0,1,8.68-8.85,7.63,7.63,0,0,1,6.63,3.45V236.18Zm-2.32,15.87c0-4.07-2.78-6.79-6.46-6.79s-6.5,2.72-6.5,6.79,2.79,6.8,6.5,6.8S284.24,256.13,284.24,252.05Z"/>
    <path d="M319.48,252.05a8.47,8.47,0,0,1-8.69,8.89,7.57,7.57,0,0,1-6.73-3.61v3.44h-2.25V236.18h2.35v10.47a7.63,7.63,0,0,1,6.63-3.45A8.44,8.44,0,0,1,319.48,252.05Zm-2.36,0a6.4,6.4,0,0,0-6.49-6.79c-3.72,0-6.5,2.72-6.5,6.79s2.78,6.8,6.5,6.8S317.12,256.13,317.12,252.05Z"/>
    <path d="M324.28,236.18h2.35v24.59h-2.35Z"/>
    <path d="M331.44,252.05a8.87,8.87,0,1,1,8.88,8.89A8.58,8.58,0,0,1,331.44,252.05Zm15.35,0c0-4.07-2.75-6.79-6.47-6.79s-6.49,2.72-6.49,6.79,2.78,6.8,6.49,6.8S346.79,256.13,346.79,252.05Z"/>
    <path d="M382.75,250.66v10.11H380.4V250.9c0-3.68-1.86-5.57-5-5.57-3.58,0-5.83,2.32-5.83,6.29v9.15H367.2V250.9c0-3.68-1.85-5.57-5-5.57-3.55,0-5.84,2.32-5.84,6.29v9.15H354V243.34h2.25v3.18a7.06,7.06,0,0,1,6.4-3.32c2.88,0,5.14,1.23,6.2,3.68a7.59,7.59,0,0,1,6.89-3.68C380,243.2,382.75,245.66,382.75,250.66Z"/>
    <path d="M386.72,258.78l1.06-1.85a10.59,10.59,0,0,0,6.2,1.95c3.32,0,4.68-1.12,4.68-2.85,0-4.54-11.31-1-11.31-7.85,0-2.85,2.46-5,6.9-5a11.73,11.73,0,0,1,6.16,1.63l-1,1.89a9,9,0,0,0-5.14-1.49c-3.15,0-4.54,1.22-4.54,2.88,0,4.71,11.3,1.16,11.3,7.86,0,3-2.65,5-7.19,5A11.64,11.64,0,0,1,386.72,258.78Z"/>
    <path d="M414.53,259.71a5.58,5.58,0,0,1-3.68,1.23c-3.28,0-5.1-1.86-5.1-5.07V245.33h-3.12v-2h3.12v-3.82h2.35v3.82h5.31v2H408.1v10.4c0,2.06,1.06,3.19,3,3.19a3.86,3.86,0,0,0,2.58-.9Z"/>
    <path d="M433.36,252.78H418.78c.26,3.65,3.05,6.07,6.86,6.07a6.84,6.84,0,0,0,5.33-2.29l1.33,1.53a8.61,8.61,0,0,1-6.73,2.85c-5.44,0-9.15-3.71-9.15-8.89s3.61-8.85,8.52-8.85,8.45,3.62,8.45,8.85C433.39,252.25,433.36,252.52,433.36,252.78ZM418.78,251h12.36a6.19,6.19,0,0,0-12.36,0Z"/>
    <path d="M447,243.2v2.29c-.2,0-.4,0-.56,0-3.65,0-5.87,2.32-5.87,6.43v8.88H438.2V243.34h2.25v3.41C441.55,244.43,443.77,243.2,447,243.2Z"/>
    <path d="M453.18,259.12a5.27,5.27,0,0,1-.47,1.92l-1.39,4.57h-1.59l1.13-4.8a1.67,1.67,0,0,1-1.19-1.69,1.76,1.76,0,1,1,3.51,0Z"/>
    <path d="M42.67,296A8.47,8.47,0,0,1,34,304.84a7.53,7.53,0,0,1-6.72-3.62v3.45H25v-24.6h2.36v10.48A7.58,7.58,0,0,1,34,287.1,8.43,8.43,0,0,1,42.67,296Zm-2.35,0a6.4,6.4,0,0,0-6.5-6.79c-3.71,0-6.5,2.71-6.5,6.79s2.79,6.8,6.5,6.8S40.32,300,40.32,296Z"/>
    <path d="M46.94,281.73a1.71,1.71,0,0,1,1.73-1.66,1.67,1.67,0,0,1,1.72,1.63,1.69,1.69,0,0,1-1.72,1.72A1.71,1.71,0,0,1,46.94,281.73Zm.53,5.5h2.36v17.44H47.47Z"/>
    <path d="M71.57,296.68H57c.26,3.65,3,6.07,6.86,6.07a6.84,6.84,0,0,0,5.33-2.29L70.51,302a8.61,8.61,0,0,1-6.73,2.85c-5.43,0-9.15-3.72-9.15-8.89s3.62-8.85,8.52-8.85,8.45,3.62,8.45,8.85C71.6,296.15,71.57,296.42,71.57,296.68ZM57,294.92H69.35a6.19,6.19,0,0,0-12.36,0Z"/>
    <path d="M85.19,287.1v2.29c-.2,0-.4,0-.56,0-3.65,0-5.87,2.32-5.87,6.43v8.88H76.41V287.23h2.25v3.42C79.76,288.33,82,287.1,85.19,287.1Z"/>
    <path d="M96.63,296a8.87,8.87,0,1,1,8.88,8.89A8.58,8.58,0,0,1,96.63,296ZM112,296c0-4.08-2.75-6.79-6.46-6.79S99,291.87,99,296s2.79,6.8,6.5,6.8S112,300,112,296Z"/>
    <path d="M135.31,287.23v15.32c0,6-2.95,8.72-8.72,8.72-3.18,0-6.3-1-8.12-2.69l1.19-1.79a10.4,10.4,0,0,0,6.86,2.39c4.41,0,6.43-2,6.43-6.33v-2.22a7.83,7.83,0,0,1-6.79,3.38c-5,0-8.75-3.48-8.75-8.49s3.78-8.42,8.75-8.42a7.84,7.84,0,0,1,6.89,3.48v-3.35ZM133,295.52c0-3.78-2.78-6.36-6.63-6.36s-6.6,2.58-6.6,6.36a6.62,6.62,0,0,0,13.23,0Z"/>
    <path d="M148.17,302.68l1.06-1.85a10.53,10.53,0,0,0,6.19,1.95c3.32,0,4.68-1.13,4.68-2.85,0-4.54-11.3-1-11.3-7.86,0-2.85,2.45-5,6.89-5a11.8,11.8,0,0,1,6.17,1.63l-1,1.89a8.89,8.89,0,0,0-5.14-1.5c-3.15,0-4.54,1.23-4.54,2.89,0,4.71,11.3,1.16,11.3,7.85,0,3-2.65,5-7.19,5A11.61,11.61,0,0,1,148.17,302.68Z"/>
    <path d="M165,296a8.87,8.87,0,1,1,8.88,8.89A8.58,8.58,0,0,1,165,296Zm15.34,0c0-4.08-2.75-6.79-6.46-6.79s-6.5,2.71-6.5,6.79,2.79,6.8,6.5,6.8S180.38,300,180.38,296Z"/>
    <path d="M216.35,294.56v10.11H214v-9.88c0-3.68-1.85-5.57-5-5.57-3.58,0-5.84,2.32-5.84,6.3v9.15H200.8v-9.88c0-3.68-1.85-5.57-5-5.57-3.54,0-5.83,2.32-5.83,6.3v9.15h-2.35V287.23h2.25v3.19a7.06,7.06,0,0,1,6.4-3.32c2.88,0,5.14,1.23,6.2,3.68a7.59,7.59,0,0,1,6.89-3.68C213.56,287.1,216.35,289.55,216.35,294.56Z"/>
    <path d="M251.51,294.56v10.11h-2.35v-9.88c0-3.68-1.86-5.57-5-5.57-3.58,0-5.84,2.32-5.84,6.3v9.15H236v-9.88c0-3.68-1.86-5.57-5-5.57-3.55,0-5.83,2.32-5.83,6.3v9.15h-2.36V287.23H225v3.19a7,7,0,0,1,6.39-3.32c2.89,0,5.14,1.23,6.2,3.68a7.61,7.61,0,0,1,6.9-3.68C248.73,287.1,251.51,289.55,251.51,294.56Z"/>
    <path d="M273.16,296.68H258.57c.27,3.65,3.05,6.07,6.86,6.07a6.87,6.87,0,0,0,5.34-2.29L272.1,302a8.61,8.61,0,0,1-6.73,2.85c-5.44,0-9.15-3.72-9.15-8.89s3.61-8.85,8.52-8.85,8.45,3.62,8.45,8.85C273.19,296.15,273.16,296.42,273.16,296.68Zm-14.59-1.76h12.37a6.2,6.2,0,0,0-12.37,0Z"/>
    <path d="M286.78,287.1v2.29c-.2,0-.4,0-.57,0-3.64,0-5.86,2.32-5.86,6.43v8.88H278V287.23h2.26v3.42C281.34,288.33,283.56,287.1,286.78,287.1Z"/>
    <path d="M294,285.18v2.05h5.37v2H294v15.45h-2.36V289.22h-3.11v-2h3.11v-2.15c0-3.12,1.86-5.17,5.27-5.17a5.52,5.52,0,0,1,3.48,1.09l-.79,1.76a4,4,0,0,0-2.59-.86C295,281.9,294,283,294,285.18Z"/>
    <path d="M318.23,287.23v17.44H316v-3.18a7,7,0,0,1-6.27,3.35c-4.44,0-7.36-2.49-7.36-7.49V287.23h2.36v9.88c0,3.72,1.92,5.6,5.24,5.6,3.64,0,5.93-2.35,5.93-6.33v-9.15Z"/>
    <path d="M341,287.23v15.32c0,6-3,8.72-8.72,8.72-3.18,0-6.3-1-8.12-2.69l1.19-1.79a10.4,10.4,0,0,0,6.86,2.39c4.41,0,6.44-2,6.44-6.33v-2.22a7.86,7.86,0,0,1-6.8,3.38c-5,0-8.75-3.48-8.75-8.49s3.78-8.42,8.75-8.42a7.84,7.84,0,0,1,6.89,3.48v-3.35Zm-2.29,8.29c0-3.78-2.78-6.36-6.63-6.36s-6.59,2.58-6.59,6.36a6.61,6.61,0,0,0,13.22,0Z"/>
    <path d="M347.56,280.07h2.36v24.6h-2.36Z"/>
    <path d="M371.66,296.68H357.08c.26,3.65,3.05,6.07,6.86,6.07a6.84,6.84,0,0,0,5.33-2.29L370.6,302a8.61,8.61,0,0,1-6.73,2.85c-5.44,0-9.15-3.72-9.15-8.89s3.62-8.85,8.52-8.85,8.45,3.62,8.45,8.85C371.69,296.15,371.66,296.42,371.66,296.68Zm-14.58-1.76h12.36a6.19,6.19,0,0,0-12.36,0Z"/>
    <path d="M382.76,302.68l1.06-1.85a10.56,10.56,0,0,0,6.2,1.95c3.32,0,4.68-1.13,4.68-2.85,0-4.54-11.31-1-11.31-7.86,0-2.85,2.45-5,6.9-5a11.76,11.76,0,0,1,6.16,1.63l-1,1.89a8.84,8.84,0,0,0-5.13-1.5c-3.15,0-4.54,1.23-4.54,2.89,0,4.71,11.3,1.16,11.3,7.85,0,3-2.65,5-7.19,5A11.64,11.64,0,0,1,382.76,302.68Z"/>
    <path d="M399.63,296a8.87,8.87,0,1,1,8.89,8.89A8.58,8.58,0,0,1,399.63,296ZM415,296c0-4.08-2.75-6.79-6.46-6.79S402,291.87,402,296s2.78,6.8,6.5,6.8S415,300,415,296Z"/>
    <path d="M450.94,294.56v10.11h-2.35v-9.88c0-3.68-1.86-5.57-5-5.57-3.58,0-5.84,2.32-5.84,6.3v9.15H435.4v-9.88c0-3.68-1.86-5.57-5-5.57-3.55,0-5.83,2.32-5.83,6.3v9.15h-2.36V287.23h2.26v3.19a7,7,0,0,1,6.39-3.32c2.89,0,5.14,1.23,6.2,3.68a7.61,7.61,0,0,1,6.9-3.68C448.16,287.1,450.94,289.55,450.94,294.56Z"/>
    <path d="M92.44,339.85a8.46,8.46,0,0,1-8.69,8.88A7.57,7.57,0,0,1,77,345.12v3.45H74.77V324h2.35v10.48A7.61,7.61,0,0,1,83.75,331,8.44,8.44,0,0,1,92.44,339.85Zm-2.36,0c0-4.08-2.81-6.79-6.49-6.79s-6.5,2.71-6.5,6.79,2.78,6.8,6.5,6.8S90.08,343.93,90.08,339.85Z"/>
    <path d="M97.24,324h2.35v24.6H97.24Z"/>
    <path d="M105.63,325.63a1.7,1.7,0,0,1,1.72-1.66,1.67,1.67,0,0,1,1.72,1.63,1.72,1.72,0,0,1-3.44,0Zm.53,5.5h2.35v17.44h-2.35Z"/>
    <path d="M129.72,331.13,122,348.57h-2.42l-7.73-17.44h2.46L120.81,346l6.59-14.85Z"/>
    <path d="M147.72,340.58H133.14c.26,3.65,3.05,6.07,6.86,6.07a6.87,6.87,0,0,0,5.33-2.29l1.33,1.52a8.58,8.58,0,0,1-6.73,2.85c-5.43,0-9.15-3.71-9.15-8.88S134.4,331,139.3,331s8.45,3.61,8.45,8.85C147.75,340.05,147.72,340.32,147.72,340.58Zm-14.58-1.76H145.5a6.19,6.19,0,0,0-12.36,0Z"/>
    <path d="M161.34,331v2.29c-.2,0-.4,0-.56,0-3.65,0-5.87,2.32-5.87,6.44v8.88h-2.35V331.13h2.25v3.42C155.91,332.23,158.13,331,161.34,331Z"/>
    <path d="M190.58,338.46v10.11h-2.36v-9.88c0-3.68-1.92-5.57-5.23-5.57-3.75,0-6.1,2.32-6.1,6.3v9.15h-2.36V324h2.36v10.21a7.37,7.37,0,0,1,6.53-3.18C187.66,331,190.58,333.45,190.58,338.46Z"/>
    <path d="M210.13,337.76v10.81h-2.25v-2.72c-1.06,1.79-3.12,2.88-6,2.88-3.95,0-6.37-2.05-6.37-5.07,0-2.68,1.73-4.94,6.73-4.94h5.54v-1.06c0-3-1.69-4.6-4.94-4.6a8.85,8.85,0,0,0-5.8,2.05L196,333.35a11.06,11.06,0,0,1,7.09-2.35C207.58,331,210.13,333.25,210.13,337.76Zm-2.35,5.57v-2.85h-5.47c-3.38,0-4.48,1.33-4.48,3.12,0,2,1.63,3.28,4.41,3.28A5.59,5.59,0,0,0,207.78,343.33Zm-8.12-17.87a3.46,3.46,0,1,1,6.92,0,3.46,3.46,0,0,1-6.92,0Zm1.22,0a2.15,2.15,0,0,0,2.22,2.23,2.18,2.18,0,0,0,2.26-2.23,2.25,2.25,0,0,0-2.26-2.32A2.21,2.21,0,0,0,200.88,325.46Z"/>
    <path d="M232.57,338.46v10.11h-2.35v-9.88c0-3.68-1.93-5.57-5.24-5.57-3.75,0-6.1,2.32-6.1,6.3v9.15h-2.35V331.13h2.25v3.22a7.33,7.33,0,0,1,6.63-3.35C229.65,331,232.57,333.45,232.57,338.46Z"/>
    <path d="M254.94,324v24.6h-2.25v-3.45a7.57,7.57,0,0,1-6.73,3.61A8.87,8.87,0,0,1,246,331a7.61,7.61,0,0,1,6.63,3.45V324Zm-2.32,15.88c0-4.08-2.78-6.79-6.46-6.79s-6.5,2.71-6.5,6.79,2.79,6.8,6.5,6.8S252.62,343.93,252.62,339.85Z"/>
    <path d="M290.28,338.46v10.11h-2.36v-9.88c0-3.68-1.85-5.57-5-5.57-3.58,0-5.84,2.32-5.84,6.3v9.15h-2.35v-9.88c0-3.68-1.86-5.57-5-5.57-3.55,0-5.83,2.32-5.83,6.3v9.15H261.5V331.13h2.26v3.18a7.06,7.06,0,0,1,6.4-3.31c2.88,0,5.13,1.23,6.19,3.68a7.61,7.61,0,0,1,6.9-3.68C287.49,331,290.28,333.45,290.28,338.46Z"/>
    <path d="M309.83,337.76v10.81h-2.25v-2.72c-1.06,1.79-3.12,2.88-6,2.88-3.95,0-6.37-2.05-6.37-5.07,0-2.68,1.73-4.94,6.73-4.94h5.54v-1.06c0-3-1.69-4.6-4.94-4.6a8.85,8.85,0,0,0-5.8,2.05l-1.06-1.76a11.06,11.06,0,0,1,7.09-2.35C307.28,331,309.83,333.25,309.83,337.76Zm-2.35,5.57v-2.85H302c-3.38,0-4.48,1.33-4.48,3.12,0,2,1.63,3.28,4.41,3.28A5.59,5.59,0,0,0,307.48,343.33Z"/>
    <path d="M316.23,324h2.35v24.6h-2.35Z"/>
    <path d="M340.32,340.58H325.74c.26,3.65,3.05,6.07,6.86,6.07a6.91,6.91,0,0,0,5.34-2.29l1.32,1.52a8.56,8.56,0,0,1-6.73,2.85c-5.43,0-9.15-3.71-9.15-8.88S327,331,331.9,331s8.46,3.61,8.46,8.85C340.36,340.05,340.32,340.32,340.32,340.58Zm-14.58-1.76H338.1a6.19,6.19,0,0,0-12.36,0Z"/>
    <path d="M354.34,347.51a5.6,5.6,0,0,1-3.68,1.22c-3.28,0-5.1-1.85-5.1-5.07V333.12h-3.12v-2h3.12v-3.81h2.35v3.81h5.31v2h-5.31v10.41c0,2.06,1.06,3.18,3,3.18a3.91,3.91,0,0,0,2.58-.89Z"/>
    <path d="M385,339.85c0,5.3-3.71,8.88-8.69,8.88a7.63,7.63,0,0,1-6.63-3.44V355H367.3V331.13h2.26v3.45a7.58,7.58,0,0,1,6.72-3.58A8.43,8.43,0,0,1,385,339.85Zm-2.35,0a6.51,6.51,0,1,0-13,0c0,4.08,2.79,6.8,6.5,6.8S382.62,343.93,382.62,339.85Z"/>
    <path d="M402.83,337.76v10.81h-2.25v-2.72c-1.06,1.79-3.12,2.88-6,2.88-3.94,0-6.36-2.05-6.36-5.07,0-2.68,1.72-4.94,6.72-4.94h5.54v-1.06c0-3-1.69-4.6-4.94-4.6a8.89,8.89,0,0,0-5.8,2.05l-1.06-1.76a11.08,11.08,0,0,1,7.09-2.35C400.28,331,402.83,333.25,402.83,337.76Zm-2.35,5.57v-2.85H395c-3.38,0-4.47,1.33-4.47,3.12,0,2,1.62,3.28,4.4,3.28A5.58,5.58,0,0,0,400.48,343.33Zm-8.12-17.87a3.47,3.47,0,1,1,6.93,0,3.47,3.47,0,0,1-6.93,0Zm1.23,0a2.15,2.15,0,0,0,2.22,2.23,2.18,2.18,0,0,0,2.25-2.23,2.25,2.25,0,0,0-2.25-2.32A2.2,2.2,0,0,0,393.59,325.46Z"/>
    <path d="M407.7,346.91a1.76,1.76,0,0,1,1.76-1.79,1.78,1.78,0,0,1,1.79,1.79,1.81,1.81,0,0,1-1.79,1.82A1.78,1.78,0,0,1,407.7,346.91Z"/>
  </g>
</svg>
