<svg id="Layer_1" data-name="Layer 1" xmlns="http://www.w3.org/2000/svg" width="600" height="523" viewBox="0 0 600 523"><defs><style>.cls-1{fill:#d1d1d1;}.cls-2{fill:#fff;}</style></defs><path class="cls-1" d="M75.08,266.4A250.07,250.07,0,0,0,325.31,516.63c138.2,0,250.23-112,250.23-250.23S463.51,16.16,325.31,16.16,75.08,128.2,75.08,266.4Z"/><path class="cls-1" d="M12,442.92Q39.57,369.3,95.5,365.57l58.32,83Q90.79,410.69,12,442.92Z"/><path class="cls-2" d="M92.54,254.76A250,250,0,0,0,342.77,505C481,505,593,393,593,254.76S481,4.53,342.77,4.53,92.54,116.56,92.54,254.76Z"/><path class="cls-2" d="M29.49,431.28Q57,357.67,113,353.93l58.32,83Q108.25,399,29.49,431.28Z"/><path d="M127.49,215.13v24.51h-2.56V228.33H109.6v11.31H107V215.13h2.59v10.93h15.33V215.13Z"/><path d="M151,231.2h-15.4c.28,3.85,3.22,6.41,7.24,6.41a7.27,7.27,0,0,0,5.64-2.42l1.4,1.61a9.07,9.07,0,0,1-7.11,3c-5.74,0-9.66-3.92-9.66-9.38s3.82-9.35,9-9.35,8.92,3.82,8.92,9.35C151,230.64,151,230.92,151,231.2Zm-15.4-1.85h13.05a6.54,6.54,0,0,0-13.05,0Z"/><path d="M165.35,221.08v2.42c-.21,0-.42,0-.59,0-3.85,0-6.2,2.46-6.2,6.8v9.38h-2.48V221.22h2.38v3.61C159.61,222.38,162,221.08,165.35,221.08Z"/><path d="M185.69,231.2h-15.4c.28,3.85,3.22,6.41,7.24,6.41a7.27,7.27,0,0,0,5.64-2.42l1.4,1.61a9.07,9.07,0,0,1-7.11,3c-5.74,0-9.66-3.92-9.66-9.38s3.82-9.35,9-9.35,8.92,3.82,8.92,9.35C185.72,230.64,185.69,230.92,185.69,231.2Zm-15.4-1.85h13.05a6.54,6.54,0,0,0-13.05,0Z"/><path d="M193.63,219.05v2.17h5.67v2.11h-5.6v16.31h-2.48V223.33h-3.29v-2.11h3.29V219c0-3.29,2-5.46,5.56-5.46a5.84,5.84,0,0,1,3.68,1.15l-.84,1.86a4.18,4.18,0,0,0-2.73-.91C194.75,215.59,193.63,216.78,193.63,219.05Z"/><path d="M212.36,238.52a6,6,0,0,1-3.89,1.29c-3.46,0-5.39-2-5.39-5.35V223.33h-3.29v-2.11h3.29v-4h2.49v4h5.6v2.11h-5.6v11c0,2.17,1.12,3.36,3.18,3.36a4.11,4.11,0,0,0,2.73-1Z"/><path d="M232.24,231.2h-15.4c.28,3.85,3.22,6.41,7.24,6.41a7.27,7.27,0,0,0,5.64-2.42l1.4,1.61a9.07,9.07,0,0,1-7.11,3c-5.74,0-9.66-3.92-9.66-9.38s3.82-9.35,9-9.35,8.92,3.82,8.92,9.35C232.27,230.64,232.24,230.92,232.24,231.2Zm-15.4-1.85h13a6.54,6.54,0,0,0-13,0Z"/><path d="M246.62,221.08v2.42c-.21,0-.42,0-.59,0-3.85,0-6.2,2.46-6.2,6.8v9.38h-2.48V221.22h2.38v3.61C240.88,222.38,243.23,221.08,246.62,221.08Z"/><path d="M279.21,230.43c0,5.57-3.92,9.38-9.17,9.38a8,8,0,0,1-7.11-3.81v3.64h-2.38v-26H263v11.07a8,8,0,0,1,7-3.65A8.91,8.91,0,0,1,279.21,230.43Zm-2.49,0c0-4.3-3-7.18-6.86-7.18s-6.86,2.88-6.86,7.18,2.94,7.18,6.86,7.18S276.72,234.74,276.72,230.43Z"/><path d="M293.56,221.08v2.42c-.21,0-.42,0-.6,0-3.85,0-6.19,2.46-6.19,6.8v9.38h-2.49V221.22h2.38v3.61C287.82,222.38,290.16,221.08,293.56,221.08Z"/><path d="M327.37,231.13H311.93c.25,3.89,3.15,6.48,7.25,6.48a7.29,7.29,0,0,0,5.63-2.42l1.4,1.61a9,9,0,0,1-7.1,3,9.22,9.22,0,0,1-8.23-4.23c-1.36,3.08-4.37,4.23-7.45,4.23-4.38,0-7-2.2-7-5.42,0-2.7,1.82-5.11,7.11-5.11h5.84v-1.16c0-3.15-1.78-4.87-5.21-4.87a9.4,9.4,0,0,0-6.13,2.17L297,223.57a11.76,11.76,0,0,1,7.46-2.49c3.53,0,5.81,1.3,6.75,3.79a8.62,8.62,0,0,1,7.32-3.79,8.81,8.81,0,0,1,9,9.21A7.13,7.13,0,0,1,327.37,231.13Zm-18,1.47v-1.47h-5.77c-3.54,0-4.73,1.4-4.73,3.19,0,2.2,1.75,3.53,4.69,3.53C307.14,237.85,309.41,235.86,309.41,232.6Zm2.52-3.32H325a6.55,6.55,0,0,0-13.06,0Z"/><path d="M349.45,229v10.68H347V229.21c0-3.89-2-5.88-5.53-5.88-4,0-6.44,2.45-6.44,6.65v9.66h-2.49V221.22h2.38v3.4c1.33-2.24,3.82-3.54,7-3.54C346.37,221.08,349.45,223.67,349.45,229Z"/><path d="M373.08,213.66v26H370.7V236a8,8,0,0,1-7.11,3.81c-5.25,0-9.17-3.81-9.17-9.38a8.91,8.91,0,0,1,9.17-9.35,8,8,0,0,1,7,3.65V213.66Zm-2.45,16.77c0-4.3-2.94-7.18-6.83-7.18s-6.86,2.88-6.86,7.18,2.94,7.18,6.86,7.18S370.63,234.74,370.63,230.43Z"/><path d="M396,231.2H380.63c.28,3.85,3.22,6.41,7.25,6.41a7.27,7.27,0,0,0,5.64-2.42l1.4,1.61a9.09,9.09,0,0,1-7.11,3c-5.74,0-9.66-3.92-9.66-9.38s3.81-9.35,9-9.35,8.93,3.82,8.93,9.35C396.07,230.64,396,230.92,396,231.2Zm-15.41-1.85h13.06a6.54,6.54,0,0,0-13.06,0Z"/><path d="M398.59,237.54l1.12-2a11.14,11.14,0,0,0,6.54,2.06c3.5,0,4.94-1.19,4.94-3,0-4.79-11.94-1-11.94-8.3,0-3,2.59-5.25,7.28-5.25A12.45,12.45,0,0,1,413,222.8l-1.08,2a9.45,9.45,0,0,0-5.43-1.57c-3.32,0-4.79,1.29-4.79,3.05,0,5,11.93,1.22,11.93,8.29,0,3.19-2.79,5.25-7.59,5.25A12.31,12.31,0,0,1,398.59,237.54Z"/><path d="M444.23,213.66v26h-2.38V236a8,8,0,0,1-7.11,3.81c-5.25,0-9.17-3.81-9.17-9.38a8.91,8.91,0,0,1,9.17-9.35,8,8,0,0,1,7,3.65V213.66Zm-2.45,16.77c0-4.3-2.94-7.18-6.83-7.18s-6.86,2.88-6.86,7.18,2.94,7.18,6.86,7.18S441.78,234.74,441.78,230.43Z"/><path d="M467.19,231.2h-15.4c.28,3.85,3.22,6.41,7.24,6.41a7.27,7.27,0,0,0,5.64-2.42l1.4,1.61a9.07,9.07,0,0,1-7.11,3c-5.74,0-9.66-3.92-9.66-9.38s3.82-9.35,9-9.35,8.92,3.82,8.92,9.35C467.22,230.64,467.19,230.92,467.19,231.2Zm-15.4-1.85h13a6.54,6.54,0,0,0-13,0Z"/><path d="M482,238.52a5.94,5.94,0,0,1-3.88,1.29c-3.47,0-5.39-2-5.39-5.35V223.33h-3.29v-2.11h3.29v-4h2.48v4h5.6v2.11h-5.6v11c0,2.17,1.12,3.36,3.19,3.36a4.13,4.13,0,0,0,2.73-1Z"/><path d="M495.12,215.41a1.79,1.79,0,0,1,1.82-1.75,1.77,1.77,0,0,1,1.82,1.72,1.82,1.82,0,0,1-3.64,0Zm.56,5.81h2.48v18.42h-2.48Z"/><path d="M512.41,230.43a9.36,9.36,0,1,1,9.38,9.38A9.06,9.06,0,0,1,512.41,230.43Zm16.2,0c0-4.3-2.9-7.18-6.82-7.18s-6.86,2.88-6.86,7.18,2.94,7.18,6.86,7.18S528.61,234.74,528.61,230.43Z"/><path d="M551.15,221.22,543,239.64h-2.55l-8.16-18.42h2.59l6.9,15.69,7-15.69Z"/><path d="M571.59,229v10.68h-2.48V229.21c0-3.89-2-5.88-5.53-5.88-4,0-6.44,2.45-6.44,6.65v9.66h-2.49V221.22H557v3.4c1.33-2.24,3.82-3.54,7-3.54C568.51,221.08,571.59,223.67,571.59,229Z"/><path d="M159,265.41v2.17h5.67v2.1h-5.6V286h-2.48V269.68h-3.29v-2.1h3.29V265.3c0-3.29,2-5.46,5.56-5.46a5.84,5.84,0,0,1,3.68,1.16l-.84,1.85a4.24,4.24,0,0,0-2.73-.91C160.1,261.94,159,263.13,159,265.41Z"/><path d="M165.84,276.79a9.37,9.37,0,1,1,9.38,9.38A9.06,9.06,0,0,1,165.84,276.79Zm16.21,0c0-4.31-2.91-7.18-6.83-7.18s-6.86,2.87-6.86,7.18,2.94,7.17,6.86,7.17S182.05,281.09,182.05,276.79Z"/><path d="M198.92,267.44v2.42c-.21,0-.42,0-.6,0-3.85,0-6.19,2.45-6.19,6.79V286h-2.49V267.58H192v3.61C193.18,268.74,195.52,267.44,198.92,267.44Z"/><path d="M215.68,265.41v2.17h5.67v2.1h-5.6V286h-2.48V269.68H210v-2.1h3.29V265.3c0-3.29,2-5.46,5.56-5.46a5.84,5.84,0,0,1,3.68,1.16l-.84,1.85a4.24,4.24,0,0,0-2.73-.91C216.8,261.94,215.68,263.13,215.68,265.41Z"/><path d="M241.27,276.79a9.06,9.06,0,0,1-9.35,9.38,10.34,10.34,0,0,1-4.69-1.12L225,288.48h-1.68l2.8-4.2a9.15,9.15,0,0,1-3.54-7.49,9.06,9.06,0,0,1,9.38-9.35,9.54,9.54,0,0,1,4.62,1.12l2.24-3.36h1.65l-2.73,4.1A9.13,9.13,0,0,1,241.27,276.79Zm-13.9,5.53,7.91-11.87a6.65,6.65,0,0,0-3.36-.84c-3.92,0-6.86,2.87-6.86,7.18A7.2,7.2,0,0,0,227.37,282.32Zm11.38-5.53a7.23,7.23,0,0,0-2.31-5.57l-7.91,11.9a6.76,6.76,0,0,0,3.39.84C235.84,284,238.75,281.09,238.75,276.79Z"/><path d="M255.62,267.44v2.42c-.21,0-.42,0-.6,0-3.85,0-6.19,2.45-6.19,6.79V286h-2.49V267.58h2.38v3.61C249.88,268.74,252.22,267.44,255.62,267.44Z"/><path d="M257.68,283.89l1.12-2a11.1,11.1,0,0,0,6.55,2.07c3.5,0,4.93-1.19,4.93-3,0-4.8-11.93-1-11.93-8.3,0-3,2.59-5.25,7.28-5.25a12.48,12.48,0,0,1,6.51,1.72l-1.09,2a9.42,9.42,0,0,0-5.42-1.57c-3.33,0-4.8,1.29-4.8,3,0,5,11.94,1.23,11.94,8.3,0,3.18-2.8,5.25-7.6,5.25A12.29,12.29,0,0,1,257.68,283.89Z"/><path d="M287.05,284.87a5.9,5.9,0,0,1-3.89,1.3c-3.46,0-5.39-2-5.39-5.36V269.68h-3.29v-2.1h3.29v-4h2.49v4h5.6v2.1h-5.6v11c0,2.17,1.12,3.36,3.18,3.36a4.1,4.1,0,0,0,2.73-.94Z"/><path d="M306.93,277.56h-15.4c.28,3.85,3.22,6.4,7.24,6.4a7.26,7.26,0,0,0,5.64-2.41l1.4,1.61a9.07,9.07,0,0,1-7.11,3c-5.74,0-9.66-3.92-9.66-9.38s3.82-9.35,9-9.35,8.92,3.82,8.92,9.35C307,277,306.93,277.28,306.93,277.56Zm-15.4-1.86h13.05a6.54,6.54,0,0,0-13.05,0Z"/><path d="M338.25,267.58v16.17c0,6.34-3.11,9.21-9.2,9.21-3.36,0-6.65-1-8.58-2.84l1.26-1.89a10.94,10.94,0,0,0,7.25,2.52c4.65,0,6.79-2.13,6.79-6.68v-2.35a8.28,8.28,0,0,1-7.18,3.57c-5.25,0-9.24-3.67-9.24-9s4-8.89,9.24-8.89a8.3,8.3,0,0,1,7.28,3.68v-3.54Zm-2.41,8.75c0-4-2.94-6.72-7-6.72s-7,2.73-7,6.72a6.59,6.59,0,0,0,7,6.76C332.9,283.09,335.84,280.32,335.84,276.33Z"/><path d="M359.11,274.58V286h-2.38v-2.87c-1.12,1.89-3.29,3.05-6.33,3.05-4.17,0-6.73-2.17-6.73-5.36,0-2.83,1.83-5.21,7.11-5.21h5.85v-1.12c0-3.15-1.79-4.87-5.22-4.87a9.4,9.4,0,0,0-6.13,2.17l-1.12-1.85a11.69,11.69,0,0,1,7.5-2.49C356.42,267.44,359.11,269.82,359.11,274.58Zm-2.48,5.88v-3h-5.78c-3.57,0-4.72,1.4-4.72,3.29,0,2.14,1.71,3.47,4.65,3.47A5.89,5.89,0,0,0,356.63,280.46Z"/><path d="M382.81,275.32V286h-2.49V275.56c0-3.88-2-5.88-5.53-5.88-4,0-6.44,2.45-6.44,6.65V286h-2.49V267.58h2.39V271c1.33-2.24,3.81-3.54,7-3.54C379.73,267.44,382.81,270,382.81,275.32Z"/><path d="M406.68,267.58v16.17c0,6.34-3.12,9.21-9.21,9.21-3.36,0-6.65-1-8.58-2.84l1.26-1.89a10.94,10.94,0,0,0,7.25,2.52c4.66,0,6.79-2.13,6.79-6.68v-2.35a8.27,8.27,0,0,1-7.18,3.57c-5.25,0-9.24-3.67-9.24-9s4-8.89,9.24-8.89a8.31,8.31,0,0,1,7.29,3.68v-3.54Zm-2.42,8.75c0-4-2.94-6.72-7-6.72s-7,2.73-7,6.72a6.59,6.59,0,0,0,7,6.76C401.32,283.09,404.26,280.32,404.26,276.33Z"/><path d="M412,284.24a1.85,1.85,0,0,1,1.85-1.89,1.88,1.88,0,0,1,1.89,1.89,1.91,1.91,0,0,1-1.89,1.93A1.88,1.88,0,0,1,412,284.24Z"/><path d="M430.75,261.49h10c7.84,0,13.13,5,13.13,12.25S448.57,286,440.73,286h-10Zm9.84,22.26c6.51,0,10.71-4.13,10.71-10s-4.2-10-10.71-10h-7.25v20Z"/><path d="M475.17,277.56h-15.4c.28,3.85,3.22,6.4,7.24,6.4a7.26,7.26,0,0,0,5.64-2.41l1.4,1.61a9.07,9.07,0,0,1-7.11,3c-5.74,0-9.66-3.92-9.66-9.38s3.82-9.35,9-9.35,8.93,3.82,8.93,9.35C475.21,277,475.17,277.28,475.17,277.56Zm-15.4-1.86h13.05a6.54,6.54,0,0,0-13.05,0Z"/><path d="M490,284.87a5.89,5.89,0,0,1-3.88,1.3c-3.47,0-5.39-2-5.39-5.36V269.68h-3.29v-2.1h3.29v-4h2.48v4h5.6v2.1h-5.6v11c0,2.17,1.12,3.36,3.19,3.36a4.12,4.12,0,0,0,2.73-.94Z"/><path d="M503.69,284.87a5.89,5.89,0,0,1-3.88,1.3c-3.47,0-5.39-2-5.39-5.36V269.68h-3.29v-2.1h3.29v-4h2.48v4h5.6v2.1h-5.6v11c0,2.17,1.12,3.36,3.19,3.36a4.12,4.12,0,0,0,2.73-.94Z"/><path d="M523.57,277.56h-15.4c.28,3.85,3.22,6.4,7.25,6.4a7.24,7.24,0,0,0,5.63-2.41l1.4,1.61a9.05,9.05,0,0,1-7.1,3c-5.74,0-9.66-3.92-9.66-9.38s3.81-9.35,9-9.35,8.93,3.82,8.93,9.35C523.61,277,523.57,277.28,523.57,277.56Zm-15.4-1.86h13.06a6.54,6.54,0,0,0-13.06,0Z"/><path d="M185.63,323.11l-4.34,4v5.25h-2.48v-26h2.48V324l11-10.05h3.08l-7.88,7.53,8.61,10.89h-3Z"/><path d="M213.39,320.94v11.41H211v-2.87c-1.12,1.89-3.29,3-6.34,3-4.16,0-6.72-2.17-6.72-5.35,0-2.84,1.82-5.22,7.11-5.22h5.84v-1.12c0-3.15-1.78-4.87-5.21-4.87a9.4,9.4,0,0,0-6.13,2.17l-1.12-1.85a11.74,11.74,0,0,1,7.49-2.49C210.69,313.79,213.39,316.17,213.39,320.94Zm-2.49,5.88v-3h-5.77c-3.57,0-4.73,1.4-4.73,3.29,0,2.13,1.72,3.46,4.66,3.46A5.89,5.89,0,0,0,210.9,326.82Z"/><path d="M220.14,306.37h2.49v26h-2.49Z"/><path d="M246.36,306.37v26H244v-3.64a8,8,0,0,1-7.11,3.81c-5.25,0-9.17-3.81-9.17-9.38a8.91,8.91,0,0,1,9.17-9.35,8.06,8.06,0,0,1,7,3.65V306.37Zm-2.45,16.77c0-4.31-2.94-7.18-6.83-7.18s-6.86,2.87-6.86,7.18,2.94,7.18,6.86,7.18S243.91,327.45,243.91,323.14Z"/><path d="M269.32,323.91h-15.4c.28,3.85,3.22,6.41,7.24,6.41a7.27,7.27,0,0,0,5.64-2.42l1.4,1.61a9.07,9.07,0,0,1-7.11,3c-5.74,0-9.66-3.92-9.66-9.38s3.82-9.35,9-9.35,8.92,3.82,8.92,9.35C269.35,323.35,269.32,323.63,269.32,323.91Zm-15.4-1.85H267a6.54,6.54,0,0,0-13.05,0Z"/><path d="M271.87,330.25l1.12-2a11.17,11.17,0,0,0,6.55,2.06c3.5,0,4.93-1.19,4.93-3,0-4.79-11.93-1-11.93-8.3,0-3,2.59-5.25,7.28-5.25a12.48,12.48,0,0,1,6.51,1.72l-1.09,2a9.42,9.42,0,0,0-5.42-1.57c-3.33,0-4.8,1.3-4.8,3.05,0,5,11.94,1.22,11.94,8.29,0,3.19-2.8,5.25-7.6,5.25A12.35,12.35,0,0,1,271.87,330.25Z"/><path d="M303.55,311.76v2.17h5.67V316h-5.6v16.31h-2.49V316h-3.29v-2.11h3.29v-2.27c0-3.29,2-5.46,5.57-5.46a5.83,5.83,0,0,1,3.67,1.15l-.84,1.86a4.18,4.18,0,0,0-2.73-.91C304.67,308.3,303.55,309.49,303.55,311.76Z"/><path d="M310.41,323.14a9.36,9.36,0,1,1,9.38,9.38A9.06,9.06,0,0,1,310.41,323.14Zm16.2,0c0-4.31-2.9-7.18-6.82-7.18s-6.86,2.87-6.86,7.18,2.94,7.18,6.86,7.18S326.61,327.45,326.61,323.14Z"/><path d="M343.48,313.79v2.42c-.21,0-.42,0-.59,0-3.85,0-6.2,2.46-6.2,6.8v9.38h-2.48V313.93h2.38v3.61C337.74,315.09,340.09,313.79,343.48,313.79Z"/><path d="M364.83,313.93v16.18c0,6.33-3.11,9.2-9.2,9.2-3.36,0-6.65-1-8.58-2.83l1.26-1.89a11,11,0,0,0,7.25,2.52c4.65,0,6.79-2.14,6.79-6.69v-2.34a8.31,8.31,0,0,1-7.18,3.57c-5.25,0-9.24-3.68-9.24-9s4-8.9,9.24-8.9a8.3,8.3,0,0,1,7.28,3.68v-3.54Zm-2.41,8.76c0-4-2.94-6.73-7-6.73s-7,2.74-7,6.73,2.91,6.75,7,6.75S362.42,326.68,362.42,322.69Z"/><path d="M371.8,306.37h2.48v26H371.8Z"/><path d="M398.08,323.14a9.05,9.05,0,0,1-9.34,9.38,10.27,10.27,0,0,1-4.69-1.12l-2.28,3.43h-1.68l2.8-4.2a9.16,9.16,0,0,1-3.53-7.49,9.06,9.06,0,0,1,9.38-9.35,9.46,9.46,0,0,1,4.62,1.13l2.24-3.37h1.64l-2.73,4.1A9.12,9.12,0,0,1,398.08,323.14Zm-13.89,5.53,7.91-11.87a6.75,6.75,0,0,0-3.36-.84c-3.92,0-6.86,2.87-6.86,7.18A7.15,7.15,0,0,0,384.19,328.67Zm11.37-5.53a7.16,7.16,0,0,0-2.31-5.56l-7.91,11.9a6.8,6.8,0,0,0,3.4.84C392.66,330.32,395.56,327.45,395.56,323.14Z"/><path d="M420,306.37v26h-2.38v-3.64a8,8,0,0,1-7.11,3.81c-5.25,0-9.17-3.81-9.17-9.38a8.91,8.91,0,0,1,9.17-9.35,8,8,0,0,1,7,3.65V306.37Zm-2.45,16.77c0-4.31-2.94-7.18-6.83-7.18s-6.86,2.87-6.86,7.18,2.94,7.18,6.86,7.18S417.51,327.45,417.51,323.14Z"/><path d="M443.83,321.67v10.68h-2.49V321.92c0-3.89-2-5.88-5.53-5.88-3.95,0-6.44,2.45-6.44,6.65v9.66h-2.48V313.93h2.38v3.4c1.33-2.24,3.81-3.54,7-3.54C440.75,313.79,443.83,316.38,443.83,321.67Z"/><path d="M450,308.12a1.8,1.8,0,0,1,1.82-1.75,1.76,1.76,0,0,1,1.82,1.72,1.79,1.79,0,0,1-1.82,1.82A1.81,1.81,0,0,1,450,308.12Zm.56,5.81h2.49v18.42h-2.49Z"/><path d="M476.94,321.67v10.68h-2.49V321.92c0-3.89-2-5.88-5.53-5.88-3.95,0-6.44,2.45-6.44,6.65v9.66H460V313.93h2.38v3.4c1.33-2.24,3.81-3.54,7-3.54C473.86,313.79,476.94,316.38,476.94,321.67Z"/><path d="M500.81,313.93v16.18c0,6.33-3.12,9.2-9.21,9.2-3.36,0-6.65-1-8.57-2.83l1.26-1.89a11,11,0,0,0,7.24,2.52c4.66,0,6.79-2.14,6.79-6.69v-2.34a8.29,8.29,0,0,1-7.17,3.57c-5.25,0-9.24-3.68-9.24-9s4-8.9,9.24-8.9a8.3,8.3,0,0,1,7.28,3.68v-3.54Zm-2.42,8.76c0-4-2.94-6.73-7-6.73s-7,2.74-7,6.73a6.57,6.57,0,0,0,7,6.75C495.45,329.44,498.39,326.68,498.39,322.69Z"/><path d="M506.16,330.6a1.85,1.85,0,0,1,1.86-1.89,1.88,1.88,0,0,1,1.89,1.89,1.91,1.91,0,0,1-1.89,1.92A1.88,1.88,0,0,1,506.16,330.6Z"/></svg>