<svg id="Layer_1" data-name="Layer 1" xmlns="http://www.w3.org/2000/svg" width="596" height="528" viewBox="0 0 596 528"><defs><style>.cls-1{fill:#d1d1d1;}.cls-2{fill:#fff;}</style></defs><path class="cls-1" d="M530,270.4A250.07,250.07,0,0,1,279.72,520.63c-138.2,0-250.23-112-250.23-250.23s112-250.24,250.23-250.24S530,132.2,530,270.4Z"/><path class="cls-1" d="M593,446.92q-27.54-73.62-83.47-77.35l-58.31,83Q514.24,414.69,593,446.92Z"/><path class="cls-2" d="M512.5,258.76A250.07,250.07,0,0,1,262.27,509C124.07,509,12,397,12,258.76S124.07,8.53,262.27,8.53,512.5,120.56,512.5,258.76Z"/><path class="cls-2" d="M575.54,435.28Q548,361.67,492.08,357.93l-58.32,83Q496.78,403,575.54,435.28Z"/><path d="M97.7,251.3c0,5.21-3.78,8.36-10,8.36H81.11v7.74H78.52V242.89h9.17C93.92,242.89,97.7,246,97.7,251.3Zm-2.59,0c0-3.92-2.59-6.17-7.49-6.17H81.11v12.26h6.51C92.52,257.39,95.11,255.15,95.11,251.3Z"/><path d="M111.59,248.85v2.41c-.21,0-.42,0-.59,0-3.85,0-6.2,2.45-6.2,6.79v9.38h-2.48V249h2.38v3.6C105.85,250.14,108.2,248.85,111.59,248.85Z"/><path d="M114,258.19a9.37,9.37,0,1,1,9.38,9.38A9.05,9.05,0,0,1,114,258.19Zm16.21,0c0-4.3-2.9-7.17-6.83-7.17s-6.86,2.87-6.86,7.17,2.94,7.18,6.86,7.18S130.25,262.5,130.25,258.19Z"/><path d="M154.65,241.42v26h-2.38v-3.64a8,8,0,0,1-7.11,3.81c-5.25,0-9.17-3.81-9.17-9.38a8.9,8.9,0,0,1,9.17-9.34,8,8,0,0,1,7,3.64V241.42Zm-2.45,16.77c0-4.3-2.95-7.17-6.83-7.17s-6.86,2.87-6.86,7.17,2.94,7.18,6.86,7.18S152.2,262.5,152.2,258.19Z"/><path d="M178.17,249V267.4h-2.38V264a7.33,7.33,0,0,1-6.62,3.53c-4.69,0-7.77-2.62-7.77-7.91V249h2.48v10.43c0,3.92,2,5.91,5.54,5.91,3.85,0,6.26-2.48,6.26-6.68V249Z"/><path d="M192,258.16l-4.34,4v5.25h-2.48v-26h2.48V259l11-10h3.08l-7.88,7.52,8.61,10.89h-3Z"/><path d="M215.86,266.28a6,6,0,0,1-3.89,1.29c-3.46,0-5.39-2-5.39-5.35V251.09h-3.29V249h3.29v-4h2.49v4h5.6v2.1h-5.6v11c0,2.17,1.12,3.36,3.18,3.36a4.11,4.11,0,0,0,2.73-.95Z"/><path d="M235.74,259h-15.4c.28,3.85,3.22,6.41,7.24,6.41a7.27,7.27,0,0,0,5.64-2.42l1.4,1.61a9.07,9.07,0,0,1-7.11,3c-5.74,0-9.66-3.92-9.66-9.38s3.82-9.34,9-9.34,8.93,3.81,8.93,9.34C235.78,258.4,235.74,258.68,235.74,259Zm-15.4-1.85h13a6.54,6.54,0,0,0-13,0Z"/><path d="M250.54,266.28a5.94,5.94,0,0,1-3.88,1.29c-3.47,0-5.39-2-5.39-5.35V251.09H238V249h3.29v-4h2.48v4h5.6v2.1h-5.6v11c0,2.17,1.12,3.36,3.19,3.36a4.13,4.13,0,0,0,2.73-.95Z"/><path d="M281,241.42v26h-2.38v-3.64a8,8,0,0,1-7.11,3.81c-5.25,0-9.17-3.81-9.17-9.38a8.9,8.9,0,0,1,9.17-9.34,8,8,0,0,1,7,3.64V241.42Zm-2.45,16.77c0-4.3-2.94-7.17-6.83-7.17s-6.86,2.87-6.86,7.17,2.94,7.18,6.86,7.18S278.58,262.5,278.58,258.19Z"/><path d="M297.23,248.85v2.41c-.21,0-.42,0-.59,0-3.85,0-6.2,2.45-6.2,6.79v9.38H288V249h2.38v3.6C291.49,250.14,293.84,248.85,297.23,248.85Z"/><path d="M317.57,259h-15.4c.28,3.85,3.22,6.41,7.24,6.41a7.27,7.27,0,0,0,5.64-2.42l1.4,1.61a9.07,9.07,0,0,1-7.11,3c-5.74,0-9.66-3.92-9.66-9.38s3.82-9.34,9-9.34,8.92,3.81,8.92,9.34C317.6,258.4,317.57,258.68,317.57,259Zm-15.4-1.85h13.05a6.54,6.54,0,0,0-13.05,0Z"/><path d="M316.06,273.17l.88-1.89a4.28,4.28,0,0,0,2.87,1c2,0,3-1.19,3-3.47V249h2.49v19.77c0,3.4-1.89,5.6-5.39,5.6A6,6,0,0,1,316.06,273.17Zm6.23-30a1.8,1.8,0,0,1,1.82-1.75,1.77,1.77,0,1,1,0,3.54A1.8,1.8,0,0,1,322.29,243.17Z"/><path d="M348.3,259H332.9c.28,3.85,3.22,6.41,7.24,6.41a7.27,7.27,0,0,0,5.64-2.42l1.4,1.61a9.07,9.07,0,0,1-7.11,3c-5.74,0-9.66-3.92-9.66-9.38s3.82-9.34,9-9.34,8.92,3.81,8.92,9.34C348.33,258.4,348.3,258.68,348.3,259Zm-15.4-1.85H346a6.54,6.54,0,0,0-13.05,0Z"/><path d="M350.85,265.3l1.12-2a11.17,11.17,0,0,0,6.55,2.06c3.5,0,4.93-1.19,4.93-3,0-4.79-11.93-1-11.93-8.29,0-3,2.59-5.25,7.28-5.25a12.47,12.47,0,0,1,6.51,1.71l-1.09,2A9.43,9.43,0,0,0,358.8,251c-3.33,0-4.8,1.3-4.8,3.05,0,5,11.94,1.22,11.94,8.29,0,3.19-2.8,5.25-7.6,5.25A12.35,12.35,0,0,1,350.85,265.3Z"/><path d="M395.72,259h-15.4c.28,3.85,3.22,6.41,7.25,6.41A7.25,7.25,0,0,0,393.2,263l1.4,1.61a9.05,9.05,0,0,1-7.1,3c-5.74,0-9.67-3.92-9.67-9.38s3.82-9.34,9-9.34,8.93,3.81,8.93,9.34C395.76,258.4,395.72,258.68,395.72,259Zm-15.4-1.85h13.06a6.54,6.54,0,0,0-13.06,0Z"/><path d="M400.83,241.42h2.49v26h-2.49Z"/><path d="M410.25,241.42h2.48v26h-2.48Z"/><path d="M435.69,259h-15.4c.28,3.85,3.22,6.41,7.25,6.41a7.25,7.25,0,0,0,5.63-2.42l1.4,1.61a9.05,9.05,0,0,1-7.1,3c-5.74,0-9.67-3.92-9.67-9.38s3.82-9.34,9-9.34,8.93,3.81,8.93,9.34C435.73,258.4,435.69,258.68,435.69,259Zm-15.4-1.85h13.06a6.54,6.54,0,0,0-13.06,0Z"/><path d="M450.08,248.85v2.41c-.21,0-.42,0-.6,0-3.85,0-6.19,2.45-6.19,6.79v9.38H440.8V249h2.38v3.6C444.33,250.14,446.68,248.85,450.08,248.85Z"/><path d="M207.44,311.65l1.12-2a11.1,11.1,0,0,0,6.55,2.07c3.5,0,4.93-1.19,4.93-3,0-4.8-11.94-1-11.94-8.3,0-3,2.6-5.25,7.29-5.25a12.48,12.48,0,0,1,6.51,1.72l-1.09,2a9.42,9.42,0,0,0-5.42-1.57c-3.33,0-4.8,1.29-4.8,3,0,5,11.94,1.23,11.94,8.3,0,3.18-2.8,5.25-7.6,5.25A12.24,12.24,0,0,1,207.44,311.65Z"/><path d="M236.81,312.63a5.9,5.9,0,0,1-3.89,1.3c-3.46,0-5.39-2-5.39-5.36V297.44h-3.29v-2.1h3.29v-4H230v4h5.61v2.1H230v11c0,2.17,1.12,3.36,3.19,3.36a4.1,4.1,0,0,0,2.73-.94Z"/><path d="M257.53,304.55a9.06,9.06,0,0,1-9.35,9.38,10.3,10.3,0,0,1-4.69-1.12l-2.28,3.43h-1.68l2.8-4.2a9.17,9.17,0,0,1-3.53-7.49,9.06,9.06,0,0,1,9.38-9.35,9.54,9.54,0,0,1,4.62,1.12L255,293h1.65l-2.73,4.1A9.13,9.13,0,0,1,257.53,304.55Zm-13.9,5.53,7.91-11.87a6.65,6.65,0,0,0-3.36-.84c-3.92,0-6.86,2.87-6.86,7.18A7.17,7.17,0,0,0,243.63,310.08ZM255,304.55A7.23,7.23,0,0,0,252.7,299l-7.91,11.9a6.74,6.74,0,0,0,3.39.84C252.1,311.72,255,308.85,255,304.55Z"/><path d="M281.26,304.55c0,5.56-3.92,9.38-9.18,9.38a8,8,0,0,1-7.1-3.82v3.64H262.6v-26h2.48v11.06a8.06,8.06,0,0,1,7-3.64C277.34,295.2,281.26,299,281.26,304.55Zm-2.49,0c0-4.31-3-7.18-6.86-7.18s-6.86,2.87-6.86,7.18,2.94,7.17,6.86,7.17S278.77,308.85,278.77,304.55Z"/><path d="M302.36,305.32H287c.28,3.85,3.22,6.4,7.25,6.4a7.24,7.24,0,0,0,5.63-2.41l1.4,1.61a9.06,9.06,0,0,1-7.11,3c-5.74,0-9.66-3.92-9.66-9.38s3.82-9.35,9-9.35,8.93,3.82,8.93,9.35C302.4,304.76,302.36,305,302.36,305.32ZM287,303.46H300a6.54,6.54,0,0,0-13.06,0Z"/><path d="M304.91,311.65l1.12-2a11.1,11.1,0,0,0,6.55,2.07c3.5,0,4.93-1.19,4.93-3,0-4.8-11.93-1-11.93-8.3,0-3,2.59-5.25,7.28-5.25a12.48,12.48,0,0,1,6.51,1.72l-1.08,2a9.47,9.47,0,0,0-5.43-1.57c-3.33,0-4.8,1.29-4.8,3,0,5,11.94,1.23,11.94,8.3,0,3.18-2.8,5.25-7.6,5.25A12.29,12.29,0,0,1,304.91,311.65Z"/><path d="M323,312a1.86,1.86,0,0,1,1.86-1.89,1.89,1.89,0,0,1,1.89,1.89,1.92,1.92,0,0,1-1.89,1.93A1.89,1.89,0,0,1,323,312Z"/></svg>